<svg xmlns="http://www.w3.org/2000/svg" viewBox="0 0 37.5099 37.5109" preserveAspectRatio="xMidYMid meet">
<style type="text/css" xmlns="http://www.w3.org/2000/svg">
	<![CDATA[
		.st1 {fill:#95ba50;stroke:none;stroke-width:1.00898}
		.st2 {fill:#ffffff;stroke:none;stroke-width:1.00898}
		.st3 {fill:#ffae00;stroke:none;stroke-width:1.00898}
		.st4 {fill:none;fill-rule:evenodd;font-size:12px;overflow:visible;stroke-linecap:square;stroke-miterlimit:3}
	]]>
	</style>

	<g v:mID="0" v:index="1" v:groupContext="foregroundPage" xmlns:v="http://schemas.microsoft.com/visio/2003/SVGExtensions/" xmlns="http://www.w3.org/2000/svg">


		<g id="cfxi-microsoft-azure-stencils-power-platform-pie-chart-4-group970-1" transform="translate(1.00797,-1.00898)" v:mID="970" v:groupContext="group">

			<g id="cfxi-microsoft-azure-stencils-power-platform-pie-chart-4-shape971-2" v:mID="971" v:groupContext="shape" transform="translate(-1.43885E-13,39.5289) scale(1,-1)">

				<path d="M17.75 19.76 L34.87 24.42 C35.28 22.9 35.49 21.34 35.49 19.76 C35.49 9.96 27.55 2.02 17.75 2.02 C7.95 2.02         0 9.96 0 19.76 C0 29.57 7.95 37.51 17.75 37.51 L17.75 19.76 Z" class="st1" />
			</g>
			<g id="cfxi-microsoft-azure-stencils-power-platform-pie-chart-4-shape972-4" v:mID="972" v:groupContext="shape" transform="translate(19.695,39.6567) scale(1,-1)">

				<path d="M0 22.95 L0.18 37.51 C3.33 37.13 6.21 35.94 8.62 34.15 C9.05 33.83 9.46 33.5 9.86 33.14 L0 22.95 Z" class="st2" />
			</g>
			<g id="cfxi-microsoft-azure-stencils-power-platform-pie-chart-4-shape973-6" v:mID="973" v:groupContext="shape" transform="translate(20.5365,44.9611) scale(1,-1)">

				<path d="M0 27.43 L9.99 37.51 C11.52 35.92 12.85 33.6 13.68 31.66 L0 27.43 Z" class="st3" />
			</g>
		</g>
	</g>
</svg>
