<svg xmlns="http://www.w3.org/2000/svg" viewBox="0 0 96 96" preserveAspectRatio="xMidYMid meet">
<g>
<defs>
<linearGradient id="branch-router-shell" x1="18" y1="33" x2="78" y2="69" gradientUnits="userSpaceOnUse"><stop offset="0" stop-color="#F8FAFC"/><stop offset="0.55" stop-color="#CBD5E1"/><stop offset="1" stop-color="#64748B"/></linearGradient>
<linearGradient id="branch-router-top" x1="25" y1="24" x2="70" y2="58" gradientUnits="userSpaceOnUse"><stop offset="0" stop-color="#FFFFFF"/><stop offset="1" stop-color="#94A3B8"/></linearGradient>
<filter id="branch-router-shadow" x="-20%" y="-20%" width="140%" height="150%"><feDropShadow dx="0" dy="4" stdDeviation="3" flood-color="#0F172A" flood-opacity="0.25"/></filter>
</defs>
<ellipse cx="48" cy="62" rx="33" ry="10" fill="#0F172A" opacity="0.18"/>
<path d="M19 47 C24 36 36 31 48 31 C60 31 72 36 77 47 L72 64 C66 70 30 70 24 64 Z" fill="url(#branch-router-shell)" filter="url(#branch-router-shadow)"/>
<path d="M26 46 C32 39 40 36 48 36 C56 36 64 39 70 46" fill="none" stroke="url(#branch-router-top)" stroke-width="8" stroke-linecap="round" opacity="0.85"/>
<circle cx="32" cy="57" r="2.2" fill="#22C55E"/>
<circle cx="39" cy="57" r="2.2" fill="#14B8A6"/>
<rect x="46" y="53" width="8" height="6" rx="1.2" fill="#1E293B"/>
<rect x="58" y="53" width="8" height="6" rx="1.2" fill="#1E293B"/>
<path d="M25 35 L19 25 M71 35 L77 25" stroke="#475569" stroke-width="4" stroke-linecap="round"/><path d="M35 25 C42 20 54 20 61 25" fill="none" stroke="#14B8A6" stroke-width="3" stroke-linecap="round"/>
<text x="48" y="81" text-anchor="middle" font-family="Segoe UI, Arial, sans-serif" font-size="8.5" font-weight="800" fill="#0F172A">ROUTER</text>
</g>
</svg>