<svg xmlns="http://www.w3.org/2000/svg" viewBox="0 0 96 96" preserveAspectRatio="xMidYMid meet">
<g>
<defs>
<linearGradient id="load-balancer-appliance-case" x1="18" y1="25" x2="80" y2="68" gradientUnits="userSpaceOnUse"><stop offset="0" stop-color="#FFFFFF"/><stop offset="0.48" stop-color="#CBD5E1"/><stop offset="1" stop-color="#475569"/></linearGradient>
<linearGradient id="load-balancer-appliance-panel" x1="21" y1="39" x2="75" y2="60" gradientUnits="userSpaceOnUse"><stop offset="0" stop-color="#111827"/><stop offset="1" stop-color="#030712"/></linearGradient>
<filter id="load-balancer-appliance-shadow" x="-20%" y="-20%" width="140%" height="150%"><feDropShadow dx="0" dy="4" stdDeviation="3" flood-color="#0F172A" flood-opacity="0.26"/></filter>
</defs>
<path d="M18 35 L27 27 H70 L79 35 V61 L70 69 H27 L18 61 Z" fill="url(#load-balancer-appliance-case)" filter="url(#load-balancer-appliance-shadow)"/>
<rect x="23" y="40" width="50" height="19" rx="3" fill="url(#load-balancer-appliance-panel)"/>
<path d="M26 34 H71" stroke="#FFFFFF" stroke-width="2" opacity="0.65"/>
<circle cx="31" cy="50" r="2.2" fill="#22C55E"/>
<circle cx="38" cy="50" r="2.2" fill="#06B6D4"/>
<path d="M49 45 V37 M49 45 L38 55 M49 45 L61 55" stroke="#06B6D4" stroke-width="3" stroke-linecap="round"/><circle cx="49" cy="45" r="3" fill="#E0F2FE"/><circle cx="38" cy="55" r="3" fill="#06B6D4"/><circle cx="61" cy="55" r="3" fill="#06B6D4"/>
<text x="48" y="81" text-anchor="middle" font-family="Segoe UI, Arial, sans-serif" font-size="8.5" font-weight="800" fill="#0F172A">ADC</text>
</g>
</svg>