<svg xmlns="http://www.w3.org/2000/svg" viewBox="0 0 96 96" preserveAspectRatio="xMidYMid meet">
<g>
<defs>
<linearGradient id="patch-panel-rack" x1="16" y1="27" x2="80" y2="70" gradientUnits="userSpaceOnUse"><stop offset="0" stop-color="#F8FAFC"/><stop offset="1" stop-color="#64748B"/></linearGradient>
<filter id="patch-panel-shadow" x="-20%" y="-20%" width="140%" height="150%"><feDropShadow dx="0" dy="4" stdDeviation="3" flood-color="#0F172A" flood-opacity="0.24"/></filter>
</defs>
<rect x="16" y="32" width="64" height="34" rx="5" fill="url(#patch-panel-rack)" filter="url(#patch-panel-shadow)"/>
<rect x="21" y="39" width="54" height="20" rx="2" fill="#0F172A"/>
<g fill="#CBD5E1"><rect x="25" y="43" width="5" height="4" rx="1"/><rect x="33" y="43" width="5" height="4" rx="1"/><rect x="41" y="43" width="5" height="4" rx="1"/><rect x="49" y="43" width="5" height="4" rx="1"/><rect x="57" y="43" width="5" height="4" rx="1"/><rect x="65" y="43" width="5" height="4" rx="1"/><rect x="25" y="51" width="5" height="4" rx="1"/><rect x="33" y="51" width="5" height="4" rx="1"/><rect x="41" y="51" width="5" height="4" rx="1"/><rect x="49" y="51" width="5" height="4" rx="1"/><rect x="57" y="51" width="5" height="4" rx="1"/><rect x="65" y="51" width="5" height="4" rx="1"/></g>
<text x="48" y="81" text-anchor="middle" font-family="Segoe UI, Arial, sans-serif" font-size="8.5" font-weight="800" fill="#0F172A">PATCH</text>
</g>
</svg>