<svg xmlns="http://www.w3.org/2000/svg" viewBox="0 0 96 96" preserveAspectRatio="xMidYMid meet">
<g>
<defs>
<linearGradient id="vpn-gateway-case" x1="18" y1="25" x2="80" y2="68" gradientUnits="userSpaceOnUse"><stop offset="0" stop-color="#FFFFFF"/><stop offset="0.48" stop-color="#CBD5E1"/><stop offset="1" stop-color="#475569"/></linearGradient>
<linearGradient id="vpn-gateway-panel" x1="21" y1="39" x2="75" y2="60" gradientUnits="userSpaceOnUse"><stop offset="0" stop-color="#111827"/><stop offset="1" stop-color="#030712"/></linearGradient>
<filter id="vpn-gateway-shadow" x="-20%" y="-20%" width="140%" height="150%"><feDropShadow dx="0" dy="4" stdDeviation="3" flood-color="#0F172A" flood-opacity="0.26"/></filter>
</defs>
<path d="M18 35 L27 27 H70 L79 35 V61 L70 69 H27 L18 61 Z" fill="url(#vpn-gateway-case)" filter="url(#vpn-gateway-shadow)"/>
<rect x="23" y="40" width="50" height="19" rx="3" fill="url(#vpn-gateway-panel)"/>
<path d="M26 34 H71" stroke="#FFFFFF" stroke-width="2" opacity="0.65"/>
<circle cx="31" cy="50" r="2.2" fill="#22C55E"/>
<circle cx="38" cy="50" r="2.2" fill="#A78BFA"/>
<path d="M30 51 C39 42 57 42 66 51" fill="none" stroke="#A78BFA" stroke-width="4" stroke-linecap="round"/><path d="M35 56 C43 50 53 50 61 56" fill="none" stroke="#A78BFA" stroke-width="3" stroke-linecap="round"/><rect x="43" y="32" width="11" height="14" rx="3" fill="#A78BFA"/><path d="M45 32 V28 C45 23 52 23 52 28 V32" fill="none" stroke="#A78BFA" stroke-width="3" stroke-linecap="round"/>
<text x="48" y="81" text-anchor="middle" font-family="Segoe UI, Arial, sans-serif" font-size="8.5" font-weight="800" fill="#0F172A">VPN</text>
</g>
</svg>