<svg xmlns="http://www.w3.org/2000/svg" viewBox="0 0 96 96" preserveAspectRatio="xMidYMid meet">
<g><defs><linearGradient id="scale-out-repository-plate" x1="12" y1="8" x2="84" y2="90" gradientUnits="userSpaceOnUse"><stop offset="0" stop-color="#D1FAE5"/><stop offset="0.58" stop-color="#6EE7B7"/><stop offset="1" stop-color="#007A5A"/></linearGradient><linearGradient id="scale-out-repository-metal" x1="20" y1="14" x2="76" y2="82" gradientUnits="userSpaceOnUse"><stop offset="0" stop-color="#F8FAFC"/><stop offset="1" stop-color="#CBD5E1"/></linearGradient></defs><rect x="8" y="8" width="80" height="80" rx="20" fill="url(#scale-out-repository-plate)" stroke="#FFFFFF" stroke-width="2" opacity="0.98"/><circle cx="72" cy="24" r="12" fill="#6EE7B7" opacity="0.28"/><path d="M18 73 C34 63 57 63 78 74" fill="none" stroke="#FFFFFF" stroke-width="5" stroke-linecap="round" opacity="0.35"/><path d="M24 64 C16 64 13 56 17 49 C15 40 25 33 34 36 C40 24 58 24 64 37 C75 37 82 47 78 58 C76 64 70 67 63 67 H24 Z" fill="#FFFFFF" opacity="0.9"/><ellipse cx="48" cy="49" rx="16" ry="6" fill="#007A5A" opacity="0.92"/><path d="M32 49 V61 C32 65 39 70 48 70 C57 70 64 65 64 61 V49" fill="none" stroke="#007A5A" stroke-width="3.5"/><rect x="25" y="69" width="46" height="16" rx="8" fill="#0F172A" opacity="0.72"/><text x="48" y="81" text-anchor="middle" font-family="Segoe UI, Arial, sans-serif" font-size="8.5" font-weight="800" fill="#FFFFFF">SOR</text></g>
</svg>
