<svg xmlns="http://www.w3.org/2000/svg" width="860" height="500" viewBox="0 0 860 500" role="img" aria-labelledby="cfx6d47fc0c-title cfx6d47fc0c-desc" preserveAspectRatio="xMidYMid meet" style="max-width:100%;height:auto;display:block" shape-rendering="geometricPrecision" text-rendering="geometricPrecision">
<title id="cfx6d47fc0c-title">Audience Mix</title>
<desc id="cfx6d47fc0c-desc">Audience Mix with 1 data series: Segments.</desc>
<defs>
<style>#cfx6d47fc0c text{-webkit-font-smoothing:antialiased;text-rendering:geometricPrecision;font-synthesis:none} #cfx6d47fc0c .cfx-crisp-stroke,#cfx6d47fc0c .cfx-guide-stroke,#cfx6d47fc0c .cfx-premium-stroke{vector-effect:non-scaling-stroke;shape-rendering:geometricPrecision} #cfx6d47fc0c .cfx-guide-stroke{shape-rendering:crispEdges} #cfx6d47fc0c .cfx-interactive-region{transition:opacity .12s ease,stroke-width .12s ease} #cfx6d47fc0c .cfx-interactive-region[data-cfx-role="dotted-map-connector"]{pointer-events:stroke} #cfx6d47fc0c .cfx-interactive-region:hover,#cfx6d47fc0c .cfx-interactive-region:focus{opacity:1;outline:none;stroke-width:var(--cfx-interactive-focus-stroke-width,2.2)}</style>
<filter id="cfx6d47fc0c-softShadow" x="-20%" y="-20%" width="140%" height="140%"><feDropShadow dx="0" dy="4" stdDeviation="6" flood-color="#0F172A" flood-opacity="0.048"/><feDropShadow dx="0" dy="14" stdDeviation="18" flood-color="#0F172A" flood-opacity="0.11"/></filter>
<linearGradient id="cfx6d47fc0c-cardSurface" x1="0" x2="0" y1="0" y2="1"><stop offset="0%" stop-color="#FFFFFF" stop-opacity="1"/><stop offset="100%" stop-color="#F7F7F8" stop-opacity="1"/></linearGradient>
<linearGradient id="cfx6d47fc0c-plotSurface" x1="0" x2="0" y1="0" y2="1"><stop offset="0%" stop-color="#FDF8FF" stop-opacity="1"/><stop offset="100%" stop-color="#F5EEF8" stop-opacity="1"/></linearGradient>
<clipPath id="cfx6d47fc0c-plotClip"><rect x="76" y="112" width="748" height="294.5" rx="18"/></clipPath>
<linearGradient id="cfx6d47fc0c-area0" x1="0" x2="0" y1="0" y2="1"><stop offset="0%" stop-color="#60A5FA" stop-opacity="0.32"/><stop offset="100%" stop-color="#60A5FA" stop-opacity="0.02"/></linearGradient>
<linearGradient id="cfx6d47fc0c-seriesFill0" x1="0" x2="0" y1="0" y2="1"><stop offset="0%" stop-color="#73B0FB" stop-opacity="1"/><stop offset="100%" stop-color="#5A9BEB" stop-opacity="0.94"/></linearGradient>
<linearGradient id="cfx6d47fc0c-seriesFill0-point0" x1="0" x2="0" y1="0" y2="1"><stop offset="0%" stop-color="#2BB0EC" stop-opacity="1"/><stop offset="100%" stop-color="#0D9BDB" stop-opacity="0.94"/></linearGradient>
<linearGradient id="cfx6d47fc0c-seriesFill0-point1" x1="0" x2="0" y1="0" y2="1"><stop offset="0%" stop-color="#EE5EA5" stop-opacity="1"/><stop offset="100%" stop-color="#DE4490" stop-opacity="0.94"/></linearGradient>
<linearGradient id="cfx6d47fc0c-seriesFill0-point2" x1="0" x2="0" y1="0" y2="1"><stop offset="0%" stop-color="#B269F8" stop-opacity="1"/><stop offset="100%" stop-color="#9E50E8" stop-opacity="0.94"/></linearGradient>
<linearGradient id="cfx6d47fc0c-seriesFill0-point3" x1="0" x2="0" y1="0" y2="1"><stop offset="0%" stop-color="#30C1B1" stop-opacity="1"/><stop offset="100%" stop-color="#13AD9C" stop-opacity="0.94"/></linearGradient>
<linearGradient id="cfx6d47fc0c-sliceFill0" x1="0" x2="1" y1="0" y2="1"><stop offset="0%" stop-color="#60A5FA" stop-opacity="1"/><stop offset="100%" stop-color="#60A5FA" stop-opacity="0.78"/></linearGradient>
<linearGradient id="cfx6d47fc0c-sliceFill1" x1="0" x2="1" y1="0" y2="1"><stop offset="0%" stop-color="#F472B6" stop-opacity="1"/><stop offset="100%" stop-color="#F472B6" stop-opacity="0.78"/></linearGradient>
<linearGradient id="cfx6d47fc0c-sliceFill2" x1="0" x2="1" y1="0" y2="1"><stop offset="0%" stop-color="#5EEAD4" stop-opacity="1"/><stop offset="100%" stop-color="#5EEAD4" stop-opacity="0.78"/></linearGradient>
<linearGradient id="cfx6d47fc0c-sliceFill3" x1="0" x2="1" y1="0" y2="1"><stop offset="0%" stop-color="#FDBA74" stop-opacity="1"/><stop offset="100%" stop-color="#FDBA74" stop-opacity="0.78"/></linearGradient>
<linearGradient id="cfx6d47fc0c-sliceFill4" x1="0" x2="1" y1="0" y2="1"><stop offset="0%" stop-color="#C4B5FD" stop-opacity="1"/><stop offset="100%" stop-color="#C4B5FD" stop-opacity="0.78"/></linearGradient>
<linearGradient id="cfx6d47fc0c-sliceFill5" x1="0" x2="1" y1="0" y2="1"><stop offset="0%" stop-color="#7DD3FC" stop-opacity="1"/><stop offset="100%" stop-color="#7DD3FC" stop-opacity="0.78"/></linearGradient>
<linearGradient id="cfx6d47fc0c-sliceFill6" x1="0" x2="1" y1="0" y2="1"><stop offset="0%" stop-color="#FB7185" stop-opacity="1"/><stop offset="100%" stop-color="#FB7185" stop-opacity="0.78"/></linearGradient>
<linearGradient id="cfx6d47fc0c-sliceFill7" x1="0" x2="1" y1="0" y2="1"><stop offset="0%" stop-color="#86EFAC" stop-opacity="1"/><stop offset="100%" stop-color="#86EFAC" stop-opacity="0.78"/></linearGradient>
</defs>
<g id="cfx6d47fc0c">
<rect data-cfx-role="card-surface" x="14" y="14" width="832" height="472" rx="24" fill="url(#cfx6d47fc0c-cardSurface)" filter="url(#cfx6d47fc0c-softShadow)"/>
<rect data-cfx-role="card-border" class="cfx-crisp-stroke" x="14.5" y="14.5" width="831" height="471" rx="23.5" fill="none" stroke="rgba(217,70,239,0.18)"/>
<rect data-cfx-role="card-inner-highlight" class="cfx-crisp-stroke" x="15.5" y="15.5" width="829" height="469" rx="22.5" fill="none" stroke="#FFFFFF" stroke-opacity="0.42"/>
<rect x="76" y="112" width="748" height="294.5" rx="18" fill="url(#cfx6d47fc0c-plotSurface)"/>
<rect class="cfx-crisp-stroke" x="76.5" y="112.5" width="747" height="293.5" rx="17.5" fill="none" stroke="rgba(14,165,233,0.18)"/>
<rect data-cfx-role="plot-inner-highlight" class="cfx-crisp-stroke" x="77" y="113" width="746" height="292.5" rx="17" fill="none" stroke="#FFFFFF" stroke-opacity="0.32"/>
<text data-cfx-role="chart-title" x="40" y="52" fill="#312E81" font-family="'SF Pro Rounded', 'Arial Rounded MT Bold', Nunito, Arial, sans-serif" font-size="25" font-weight="750">Audience Mix</text>
<text data-cfx-role="chart-subtitle" x="40" y="79" fill="#6366F1" font-family="'SF Pro Rounded', 'Arial Rounded MT Bold', Nunito, Arial, sans-serif" font-size="12.5" font-weight="400">Pictorial stars turn proportions into a quick visual count</text>
<g data-cfx-role="pictorial-chart" data-cfx-shape="Star" data-cfx-custom-symbol="true" data-cfx-png-fallback-shape="Star" data-cfx-columns="10" data-cfx-maximum="100" data-cfx-value-per-symbol="proportional" data-cfx-show-values="true" data-cfx-symbol-scale="1" data-cfx-empty-opacity="0.22">
<text data-cfx-role="pictorial-label" data-cfx-point="0" x="228" y="173.799" text-anchor="end" fill="#6366F1" font-family="'SF Pro Rounded', 'Arial Rounded MT Bold', Nunito, Arial, sans-serif" font-size="10.5" font-weight="700">New users</text>
<g data-cfx-role="pictorial-symbol" data-cfx-fill="1" data-cfx-row="0" data-cfx-partial-fill="none">
<path data-cfx-symbol-layer="fill" data-cfx-custom-symbol="true" d="M12 2 L15 9 L22 9 L17 14 L19 22 L12 17 L5 22 L7 14 L2 9 L9 9 Z" transform="translate(246 149.549) scale(1.729 1.729) translate(-0 -0)" fill="#0EA5E9"/>
</g>
<g data-cfx-role="pictorial-symbol" data-cfx-fill="1" data-cfx-row="0" data-cfx-partial-fill="none">
<path data-cfx-symbol-layer="fill" data-cfx-custom-symbol="true" d="M12 2 L15 9 L22 9 L17 14 L19 22 L12 17 L5 22 L7 14 L2 9 L9 9 Z" transform="translate(294.5 149.549) scale(1.729 1.729) translate(-0 -0)" fill="#0EA5E9"/>
</g>
<g data-cfx-role="pictorial-symbol" data-cfx-fill="1" data-cfx-row="0" data-cfx-partial-fill="none">
<path data-cfx-symbol-layer="fill" data-cfx-custom-symbol="true" d="M12 2 L15 9 L22 9 L17 14 L19 22 L12 17 L5 22 L7 14 L2 9 L9 9 Z" transform="translate(343 149.549) scale(1.729 1.729) translate(-0 -0)" fill="#0EA5E9"/>
</g>
<g data-cfx-role="pictorial-symbol" data-cfx-fill="1" data-cfx-row="0" data-cfx-partial-fill="none">
<path data-cfx-symbol-layer="fill" data-cfx-custom-symbol="true" d="M12 2 L15 9 L22 9 L17 14 L19 22 L12 17 L5 22 L7 14 L2 9 L9 9 Z" transform="translate(391.5 149.549) scale(1.729 1.729) translate(-0 -0)" fill="#0EA5E9"/>
</g>
<g data-cfx-role="pictorial-symbol" data-cfx-fill="1" data-cfx-row="0" data-cfx-partial-fill="none">
<path data-cfx-symbol-layer="fill" data-cfx-custom-symbol="true" d="M12 2 L15 9 L22 9 L17 14 L19 22 L12 17 L5 22 L7 14 L2 9 L9 9 Z" transform="translate(440 149.549) scale(1.729 1.729) translate(-0 -0)" fill="#0EA5E9"/>
</g>
<g data-cfx-role="pictorial-symbol" data-cfx-fill="1" data-cfx-row="0" data-cfx-partial-fill="none">
<path data-cfx-symbol-layer="fill" data-cfx-custom-symbol="true" d="M12 2 L15 9 L22 9 L17 14 L19 22 L12 17 L5 22 L7 14 L2 9 L9 9 Z" transform="translate(488.5 149.549) scale(1.729 1.729) translate(-0 -0)" fill="#0EA5E9"/>
</g>
<g data-cfx-role="pictorial-symbol" data-cfx-fill="1" data-cfx-row="0" data-cfx-partial-fill="none">
<path data-cfx-symbol-layer="fill" data-cfx-custom-symbol="true" d="M12 2 L15 9 L22 9 L17 14 L19 22 L12 17 L5 22 L7 14 L2 9 L9 9 Z" transform="translate(537 149.549) scale(1.729 1.729) translate(-0 -0)" fill="#0EA5E9"/>
</g>
<g data-cfx-role="pictorial-symbol" data-cfx-fill="1" data-cfx-row="0" data-cfx-partial-fill="none">
<path data-cfx-symbol-layer="fill" data-cfx-custom-symbol="true" d="M12 2 L15 9 L22 9 L17 14 L19 22 L12 17 L5 22 L7 14 L2 9 L9 9 Z" transform="translate(585.5 149.549) scale(1.729 1.729) translate(-0 -0)" fill="#0EA5E9"/>
</g>
<g data-cfx-role="pictorial-symbol" data-cfx-fill="0.4" data-cfx-row="0" data-cfx-partial-fill="clip">
<path data-cfx-symbol-layer="empty" data-cfx-custom-symbol="true" d="M12 2 L15 9 L22 9 L17 14 L19 22 L12 17 L5 22 L7 14 L2 9 L9 9 Z" transform="translate(634 149.549) scale(1.729 1.729) translate(-0 -0)" fill="rgba(125,211,252,0.22)"/>
<clipPath id="cfx6d47fc0c-pictorial-0-0-8-clip"><rect x="634" y="149.549" width="16.6" height="41.5"/></clipPath>
<g clip-path="url(#cfx6d47fc0c-pictorial-0-0-8-clip)">
<path data-cfx-symbol-layer="partial-fill" data-cfx-custom-symbol="true" d="M12 2 L15 9 L22 9 L17 14 L19 22 L12 17 L5 22 L7 14 L2 9 L9 9 Z" transform="translate(634 149.549) scale(1.729 1.729) translate(-0 -0)" fill="#0EA5E9"/>
</g>
</g>
<g data-cfx-role="pictorial-symbol" data-cfx-fill="0" data-cfx-row="0" data-cfx-partial-fill="none">
<path data-cfx-symbol-layer="empty" data-cfx-custom-symbol="true" d="M12 2 L15 9 L22 9 L17 14 L19 22 L12 17 L5 22 L7 14 L2 9 L9 9 Z" transform="translate(682.5 149.549) scale(1.729 1.729) translate(-0 -0)" fill="rgba(125,211,252,0.22)"/>
</g>
<text data-cfx-role="pictorial-value" data-cfx-point="0" data-cfx-label="New users" data-cfx-value="84" x="736" y="173.799" fill="#312E81" font-family="'SF Pro Rounded', 'Arial Rounded MT Bold', Nunito, Arial, sans-serif" font-size="10.5" font-weight="800">84%</text>
<text data-cfx-role="pictorial-label" data-cfx-point="1" x="228" y="233.1" text-anchor="end" fill="#6366F1" font-family="'SF Pro Rounded', 'Arial Rounded MT Bold', Nunito, Arial, sans-serif" font-size="10.5" font-weight="700">Returning users</text>
<g data-cfx-role="pictorial-symbol" data-cfx-fill="1" data-cfx-row="0" data-cfx-partial-fill="none">
<path data-cfx-symbol-layer="fill" data-cfx-custom-symbol="true" d="M12 2 L15 9 L22 9 L17 14 L19 22 L12 17 L5 22 L7 14 L2 9 L9 9 Z" transform="translate(246 208.85) scale(1.729 1.729) translate(-0 -0)" fill="#EC4899"/>
</g>
<g data-cfx-role="pictorial-symbol" data-cfx-fill="1" data-cfx-row="0" data-cfx-partial-fill="none">
<path data-cfx-symbol-layer="fill" data-cfx-custom-symbol="true" d="M12 2 L15 9 L22 9 L17 14 L19 22 L12 17 L5 22 L7 14 L2 9 L9 9 Z" transform="translate(294.5 208.85) scale(1.729 1.729) translate(-0 -0)" fill="#EC4899"/>
</g>
<g data-cfx-role="pictorial-symbol" data-cfx-fill="1" data-cfx-row="0" data-cfx-partial-fill="none">
<path data-cfx-symbol-layer="fill" data-cfx-custom-symbol="true" d="M12 2 L15 9 L22 9 L17 14 L19 22 L12 17 L5 22 L7 14 L2 9 L9 9 Z" transform="translate(343 208.85) scale(1.729 1.729) translate(-0 -0)" fill="#EC4899"/>
</g>
<g data-cfx-role="pictorial-symbol" data-cfx-fill="1" data-cfx-row="0" data-cfx-partial-fill="none">
<path data-cfx-symbol-layer="fill" data-cfx-custom-symbol="true" d="M12 2 L15 9 L22 9 L17 14 L19 22 L12 17 L5 22 L7 14 L2 9 L9 9 Z" transform="translate(391.5 208.85) scale(1.729 1.729) translate(-0 -0)" fill="#EC4899"/>
</g>
<g data-cfx-role="pictorial-symbol" data-cfx-fill="1" data-cfx-row="0" data-cfx-partial-fill="none">
<path data-cfx-symbol-layer="fill" data-cfx-custom-symbol="true" d="M12 2 L15 9 L22 9 L17 14 L19 22 L12 17 L5 22 L7 14 L2 9 L9 9 Z" transform="translate(440 208.85) scale(1.729 1.729) translate(-0 -0)" fill="#EC4899"/>
</g>
<g data-cfx-role="pictorial-symbol" data-cfx-fill="1" data-cfx-row="0" data-cfx-partial-fill="none">
<path data-cfx-symbol-layer="fill" data-cfx-custom-symbol="true" d="M12 2 L15 9 L22 9 L17 14 L19 22 L12 17 L5 22 L7 14 L2 9 L9 9 Z" transform="translate(488.5 208.85) scale(1.729 1.729) translate(-0 -0)" fill="#EC4899"/>
</g>
<g data-cfx-role="pictorial-symbol" data-cfx-fill="0.2" data-cfx-row="0" data-cfx-partial-fill="clip">
<path data-cfx-symbol-layer="empty" data-cfx-custom-symbol="true" d="M12 2 L15 9 L22 9 L17 14 L19 22 L12 17 L5 22 L7 14 L2 9 L9 9 Z" transform="translate(537 208.85) scale(1.729 1.729) translate(-0 -0)" fill="rgba(125,211,252,0.22)"/>
<clipPath id="cfx6d47fc0c-pictorial-1-0-6-clip"><rect x="537" y="208.85" width="8.3" height="41.5"/></clipPath>
<g clip-path="url(#cfx6d47fc0c-pictorial-1-0-6-clip)">
<path data-cfx-symbol-layer="partial-fill" data-cfx-custom-symbol="true" d="M12 2 L15 9 L22 9 L17 14 L19 22 L12 17 L5 22 L7 14 L2 9 L9 9 Z" transform="translate(537 208.85) scale(1.729 1.729) translate(-0 -0)" fill="#EC4899"/>
</g>
</g>
<g data-cfx-role="pictorial-symbol" data-cfx-fill="0" data-cfx-row="0" data-cfx-partial-fill="none">
<path data-cfx-symbol-layer="empty" data-cfx-custom-symbol="true" d="M12 2 L15 9 L22 9 L17 14 L19 22 L12 17 L5 22 L7 14 L2 9 L9 9 Z" transform="translate(585.5 208.85) scale(1.729 1.729) translate(-0 -0)" fill="rgba(125,211,252,0.22)"/>
</g>
<g data-cfx-role="pictorial-symbol" data-cfx-fill="0" data-cfx-row="0" data-cfx-partial-fill="none">
<path data-cfx-symbol-layer="empty" data-cfx-custom-symbol="true" d="M12 2 L15 9 L22 9 L17 14 L19 22 L12 17 L5 22 L7 14 L2 9 L9 9 Z" transform="translate(634 208.85) scale(1.729 1.729) translate(-0 -0)" fill="rgba(125,211,252,0.22)"/>
</g>
<g data-cfx-role="pictorial-symbol" data-cfx-fill="0" data-cfx-row="0" data-cfx-partial-fill="none">
<path data-cfx-symbol-layer="empty" data-cfx-custom-symbol="true" d="M12 2 L15 9 L22 9 L17 14 L19 22 L12 17 L5 22 L7 14 L2 9 L9 9 Z" transform="translate(682.5 208.85) scale(1.729 1.729) translate(-0 -0)" fill="rgba(125,211,252,0.22)"/>
</g>
<text data-cfx-role="pictorial-value" data-cfx-point="1" data-cfx-label="Returning users" data-cfx-value="62" x="736" y="233.1" fill="#312E81" font-family="'SF Pro Rounded', 'Arial Rounded MT Bold', Nunito, Arial, sans-serif" font-size="10.5" font-weight="800">62%</text>
<text data-cfx-role="pictorial-label" data-cfx-point="2" x="228" y="292.401" text-anchor="end" fill="#6366F1" font-family="'SF Pro Rounded', 'Arial Rounded MT Bold', Nunito, Arial, sans-serif" font-size="10.5" font-weight="700">Trial users</text>
<g data-cfx-role="pictorial-symbol" data-cfx-fill="1" data-cfx-row="0" data-cfx-partial-fill="none">
<path data-cfx-symbol-layer="fill" data-cfx-custom-symbol="true" d="M12 2 L15 9 L22 9 L17 14 L19 22 L12 17 L5 22 L7 14 L2 9 L9 9 Z" transform="translate(246 268.151) scale(1.729 1.729) translate(-0 -0)" fill="#A855F7"/>
</g>
<g data-cfx-role="pictorial-symbol" data-cfx-fill="1" data-cfx-row="0" data-cfx-partial-fill="none">
<path data-cfx-symbol-layer="fill" data-cfx-custom-symbol="true" d="M12 2 L15 9 L22 9 L17 14 L19 22 L12 17 L5 22 L7 14 L2 9 L9 9 Z" transform="translate(294.5 268.151) scale(1.729 1.729) translate(-0 -0)" fill="#A855F7"/>
</g>
<g data-cfx-role="pictorial-symbol" data-cfx-fill="1" data-cfx-row="0" data-cfx-partial-fill="none">
<path data-cfx-symbol-layer="fill" data-cfx-custom-symbol="true" d="M12 2 L15 9 L22 9 L17 14 L19 22 L12 17 L5 22 L7 14 L2 9 L9 9 Z" transform="translate(343 268.151) scale(1.729 1.729) translate(-0 -0)" fill="#A855F7"/>
</g>
<g data-cfx-role="pictorial-symbol" data-cfx-fill="1" data-cfx-row="0" data-cfx-partial-fill="none">
<path data-cfx-symbol-layer="fill" data-cfx-custom-symbol="true" d="M12 2 L15 9 L22 9 L17 14 L19 22 L12 17 L5 22 L7 14 L2 9 L9 9 Z" transform="translate(391.5 268.151) scale(1.729 1.729) translate(-0 -0)" fill="#A855F7"/>
</g>
<g data-cfx-role="pictorial-symbol" data-cfx-fill="0.8" data-cfx-row="0" data-cfx-partial-fill="clip">
<path data-cfx-symbol-layer="empty" data-cfx-custom-symbol="true" d="M12 2 L15 9 L22 9 L17 14 L19 22 L12 17 L5 22 L7 14 L2 9 L9 9 Z" transform="translate(440 268.151) scale(1.729 1.729) translate(-0 -0)" fill="rgba(125,211,252,0.22)"/>
<clipPath id="cfx6d47fc0c-pictorial-2-0-4-clip"><rect x="440" y="268.151" width="33.2" height="41.5"/></clipPath>
<g clip-path="url(#cfx6d47fc0c-pictorial-2-0-4-clip)">
<path data-cfx-symbol-layer="partial-fill" data-cfx-custom-symbol="true" d="M12 2 L15 9 L22 9 L17 14 L19 22 L12 17 L5 22 L7 14 L2 9 L9 9 Z" transform="translate(440 268.151) scale(1.729 1.729) translate(-0 -0)" fill="#A855F7"/>
</g>
</g>
<g data-cfx-role="pictorial-symbol" data-cfx-fill="0" data-cfx-row="0" data-cfx-partial-fill="none">
<path data-cfx-symbol-layer="empty" data-cfx-custom-symbol="true" d="M12 2 L15 9 L22 9 L17 14 L19 22 L12 17 L5 22 L7 14 L2 9 L9 9 Z" transform="translate(488.5 268.151) scale(1.729 1.729) translate(-0 -0)" fill="rgba(125,211,252,0.22)"/>
</g>
<g data-cfx-role="pictorial-symbol" data-cfx-fill="0" data-cfx-row="0" data-cfx-partial-fill="none">
<path data-cfx-symbol-layer="empty" data-cfx-custom-symbol="true" d="M12 2 L15 9 L22 9 L17 14 L19 22 L12 17 L5 22 L7 14 L2 9 L9 9 Z" transform="translate(537 268.151) scale(1.729 1.729) translate(-0 -0)" fill="rgba(125,211,252,0.22)"/>
</g>
<g data-cfx-role="pictorial-symbol" data-cfx-fill="0" data-cfx-row="0" data-cfx-partial-fill="none">
<path data-cfx-symbol-layer="empty" data-cfx-custom-symbol="true" d="M12 2 L15 9 L22 9 L17 14 L19 22 L12 17 L5 22 L7 14 L2 9 L9 9 Z" transform="translate(585.5 268.151) scale(1.729 1.729) translate(-0 -0)" fill="rgba(125,211,252,0.22)"/>
</g>
<g data-cfx-role="pictorial-symbol" data-cfx-fill="0" data-cfx-row="0" data-cfx-partial-fill="none">
<path data-cfx-symbol-layer="empty" data-cfx-custom-symbol="true" d="M12 2 L15 9 L22 9 L17 14 L19 22 L12 17 L5 22 L7 14 L2 9 L9 9 Z" transform="translate(634 268.151) scale(1.729 1.729) translate(-0 -0)" fill="rgba(125,211,252,0.22)"/>
</g>
<g data-cfx-role="pictorial-symbol" data-cfx-fill="0" data-cfx-row="0" data-cfx-partial-fill="none">
<path data-cfx-symbol-layer="empty" data-cfx-custom-symbol="true" d="M12 2 L15 9 L22 9 L17 14 L19 22 L12 17 L5 22 L7 14 L2 9 L9 9 Z" transform="translate(682.5 268.151) scale(1.729 1.729) translate(-0 -0)" fill="rgba(125,211,252,0.22)"/>
</g>
<text data-cfx-role="pictorial-value" data-cfx-point="2" data-cfx-label="Trial users" data-cfx-value="48" x="736" y="292.401" fill="#312E81" font-family="'SF Pro Rounded', 'Arial Rounded MT Bold', Nunito, Arial, sans-serif" font-size="10.5" font-weight="800">48%</text>
<text data-cfx-role="pictorial-label" data-cfx-point="3" x="228" y="351.702" text-anchor="end" fill="#6366F1" font-family="'SF Pro Rounded', 'Arial Rounded MT Bold', Nunito, Arial, sans-serif" font-size="10.5" font-weight="700">Advocates</text>
<g data-cfx-role="pictorial-symbol" data-cfx-fill="1" data-cfx-row="0" data-cfx-partial-fill="none">
<path data-cfx-symbol-layer="fill" data-cfx-custom-symbol="true" d="M12 2 L15 9 L22 9 L17 14 L19 22 L12 17 L5 22 L7 14 L2 9 L9 9 Z" transform="translate(246 327.452) scale(1.729 1.729) translate(-0 -0)" fill="#14B8A6"/>
</g>
<g data-cfx-role="pictorial-symbol" data-cfx-fill="1" data-cfx-row="0" data-cfx-partial-fill="none">
<path data-cfx-symbol-layer="fill" data-cfx-custom-symbol="true" d="M12 2 L15 9 L22 9 L17 14 L19 22 L12 17 L5 22 L7 14 L2 9 L9 9 Z" transform="translate(294.5 327.452) scale(1.729 1.729) translate(-0 -0)" fill="#14B8A6"/>
</g>
<g data-cfx-role="pictorial-symbol" data-cfx-fill="0.9" data-cfx-row="0" data-cfx-partial-fill="clip">
<path data-cfx-symbol-layer="empty" data-cfx-custom-symbol="true" d="M12 2 L15 9 L22 9 L17 14 L19 22 L12 17 L5 22 L7 14 L2 9 L9 9 Z" transform="translate(343 327.452) scale(1.729 1.729) translate(-0 -0)" fill="rgba(125,211,252,0.22)"/>
<clipPath id="cfx6d47fc0c-pictorial-3-0-2-clip"><rect x="343" y="327.452" width="37.35" height="41.5"/></clipPath>
<g clip-path="url(#cfx6d47fc0c-pictorial-3-0-2-clip)">
<path data-cfx-symbol-layer="partial-fill" data-cfx-custom-symbol="true" d="M12 2 L15 9 L22 9 L17 14 L19 22 L12 17 L5 22 L7 14 L2 9 L9 9 Z" transform="translate(343 327.452) scale(1.729 1.729) translate(-0 -0)" fill="#14B8A6"/>
</g>
</g>
<g data-cfx-role="pictorial-symbol" data-cfx-fill="0" data-cfx-row="0" data-cfx-partial-fill="none">
<path data-cfx-symbol-layer="empty" data-cfx-custom-symbol="true" d="M12 2 L15 9 L22 9 L17 14 L19 22 L12 17 L5 22 L7 14 L2 9 L9 9 Z" transform="translate(391.5 327.452) scale(1.729 1.729) translate(-0 -0)" fill="rgba(125,211,252,0.22)"/>
</g>
<g data-cfx-role="pictorial-symbol" data-cfx-fill="0" data-cfx-row="0" data-cfx-partial-fill="none">
<path data-cfx-symbol-layer="empty" data-cfx-custom-symbol="true" d="M12 2 L15 9 L22 9 L17 14 L19 22 L12 17 L5 22 L7 14 L2 9 L9 9 Z" transform="translate(440 327.452) scale(1.729 1.729) translate(-0 -0)" fill="rgba(125,211,252,0.22)"/>
</g>
<g data-cfx-role="pictorial-symbol" data-cfx-fill="0" data-cfx-row="0" data-cfx-partial-fill="none">
<path data-cfx-symbol-layer="empty" data-cfx-custom-symbol="true" d="M12 2 L15 9 L22 9 L17 14 L19 22 L12 17 L5 22 L7 14 L2 9 L9 9 Z" transform="translate(488.5 327.452) scale(1.729 1.729) translate(-0 -0)" fill="rgba(125,211,252,0.22)"/>
</g>
<g data-cfx-role="pictorial-symbol" data-cfx-fill="0" data-cfx-row="0" data-cfx-partial-fill="none">
<path data-cfx-symbol-layer="empty" data-cfx-custom-symbol="true" d="M12 2 L15 9 L22 9 L17 14 L19 22 L12 17 L5 22 L7 14 L2 9 L9 9 Z" transform="translate(537 327.452) scale(1.729 1.729) translate(-0 -0)" fill="rgba(125,211,252,0.22)"/>
</g>
<g data-cfx-role="pictorial-symbol" data-cfx-fill="0" data-cfx-row="0" data-cfx-partial-fill="none">
<path data-cfx-symbol-layer="empty" data-cfx-custom-symbol="true" d="M12 2 L15 9 L22 9 L17 14 L19 22 L12 17 L5 22 L7 14 L2 9 L9 9 Z" transform="translate(585.5 327.452) scale(1.729 1.729) translate(-0 -0)" fill="rgba(125,211,252,0.22)"/>
</g>
<g data-cfx-role="pictorial-symbol" data-cfx-fill="0" data-cfx-row="0" data-cfx-partial-fill="none">
<path data-cfx-symbol-layer="empty" data-cfx-custom-symbol="true" d="M12 2 L15 9 L22 9 L17 14 L19 22 L12 17 L5 22 L7 14 L2 9 L9 9 Z" transform="translate(634 327.452) scale(1.729 1.729) translate(-0 -0)" fill="rgba(125,211,252,0.22)"/>
</g>
<g data-cfx-role="pictorial-symbol" data-cfx-fill="0" data-cfx-row="0" data-cfx-partial-fill="none">
<path data-cfx-symbol-layer="empty" data-cfx-custom-symbol="true" d="M12 2 L15 9 L22 9 L17 14 L19 22 L12 17 L5 22 L7 14 L2 9 L9 9 Z" transform="translate(682.5 327.452) scale(1.729 1.729) translate(-0 -0)" fill="rgba(125,211,252,0.22)"/>
</g>
<text data-cfx-role="pictorial-value" data-cfx-point="3" data-cfx-label="Advocates" data-cfx-value="29" x="736" y="351.702" fill="#312E81" font-family="'SF Pro Rounded', 'Arial Rounded MT Bold', Nunito, Arial, sans-serif" font-size="10.5" font-weight="800">29%</text>
</g>
<g data-cfx-role="legend" data-cfx-position="Bottom">
<g data-cfx-role="legend-row" transform="translate(378.7 472)">
<g data-cfx-role="legend-item" data-cfx-series="0" data-cfx-kind="Pictorial" data-cfx-label="Segments">
<rect x="0" y="-9" width="10" height="10" rx="2" fill="#60A5FA"/>
<text data-cfx-role="legend-label" data-cfx-series="0" x="26" y="0" fill="#6366F1" font-family="'SF Pro Rounded', 'Arial Rounded MT Bold', Nunito, Arial, sans-serif" font-size="11.5" font-weight="600">Segments</text>
</g>
</g>
</g>
</g>
</svg>
