<svg xmlns="http://www.w3.org/2000/svg" width="920" height="360" viewBox="0 0 920 360" role="img" aria-labelledby="cfxbededa09-title cfxbededa09-desc" preserveAspectRatio="xMidYMid meet" style="max-width:100%;height:auto;display:block" shape-rendering="geometricPrecision" text-rendering="geometricPrecision">
<title id="cfxbededa09-title">ChartForgeX chart</title>
<desc id="cfxbededa09-desc">Chart with 2 data series: Saved, Outreach.</desc>
<defs>
<style>#cfxbededa09 text{-webkit-font-smoothing:antialiased;text-rendering:geometricPrecision;font-synthesis:none} #cfxbededa09 .cfx-crisp-stroke,#cfxbededa09 .cfx-guide-stroke,#cfxbededa09 .cfx-premium-stroke{vector-effect:non-scaling-stroke;shape-rendering:geometricPrecision} #cfxbededa09 .cfx-guide-stroke{shape-rendering:crispEdges} #cfxbededa09 .cfx-interactive-region{transition:opacity .12s ease,stroke-width .12s ease} #cfxbededa09 .cfx-interactive-region[data-cfx-role="dotted-map-connector"]{pointer-events:stroke} #cfxbededa09 .cfx-interactive-region:hover,#cfxbededa09 .cfx-interactive-region:focus{opacity:1;outline:none;stroke-width:var(--cfx-interactive-focus-stroke-width,2.2)}</style>
<filter id="cfxbededa09-softShadow" x="-20%" y="-20%" width="140%" height="140%"><feDropShadow dx="0" dy="4" stdDeviation="6" flood-color="#0F172A" flood-opacity="0.04"/><feDropShadow dx="0" dy="14" stdDeviation="18" flood-color="#0F172A" flood-opacity="0.09"/></filter>
<linearGradient id="cfxbededa09-cardSurface" x1="0" x2="0" y1="0" y2="1"><stop offset="0%" stop-color="#FDFDFE" stop-opacity="1"/><stop offset="100%" stop-color="#F4F5F7" stop-opacity="1"/></linearGradient>
<linearGradient id="cfxbededa09-plotSurface" x1="0" x2="0" y1="0" y2="1"><stop offset="0%" stop-color="#F8F9FD" stop-opacity="1"/><stop offset="100%" stop-color="#EEF0F5" stop-opacity="1"/></linearGradient>
<clipPath id="cfxbededa09-plotClip"><rect x="79.92" y="30" width="814.08" height="272" rx="12"/></clipPath>
<linearGradient id="cfxbededa09-area0" x1="0" x2="0" y1="0" y2="1"><stop offset="0%" stop-color="#2563EB" stop-opacity="0.32"/><stop offset="100%" stop-color="#2563EB" stop-opacity="0.02"/></linearGradient>
<linearGradient id="cfxbededa09-seriesFill0" x1="0" x2="0" y1="0" y2="1"><stop offset="0%" stop-color="#3F76ED" stop-opacity="1"/><stop offset="100%" stop-color="#235DDD" stop-opacity="0.94"/></linearGradient>
<linearGradient id="cfxbededa09-area1" x1="0" x2="0" y1="0" y2="1"><stop offset="0%" stop-color="#14B8A6" stop-opacity="0.32"/><stop offset="100%" stop-color="#14B8A6" stop-opacity="0.02"/></linearGradient>
<linearGradient id="cfxbededa09-seriesFill1" x1="0" x2="0" y1="0" y2="1"><stop offset="0%" stop-color="#30C1B1" stop-opacity="1"/><stop offset="100%" stop-color="#13AD9C" stop-opacity="0.94"/></linearGradient>
<linearGradient id="cfxbededa09-sliceFill0" x1="0" x2="1" y1="0" y2="1"><stop offset="0%" stop-color="#2563EB" stop-opacity="1"/><stop offset="100%" stop-color="#2563EB" stop-opacity="0.78"/></linearGradient>
<linearGradient id="cfxbededa09-sliceFill1" x1="0" x2="1" y1="0" y2="1"><stop offset="0%" stop-color="#14B8A6" stop-opacity="1"/><stop offset="100%" stop-color="#14B8A6" stop-opacity="0.78"/></linearGradient>
</defs>
<g id="cfxbededa09">
<rect width="100%" height="100%" fill="#F3F6FA"/>
<rect data-cfx-role="card-surface" x="14" y="14" width="892" height="332" rx="24" fill="url(#cfxbededa09-cardSurface)" filter="url(#cfxbededa09-softShadow)"/>
<rect data-cfx-role="card-border" class="cfx-crisp-stroke" x="14.5" y="14.5" width="891" height="331" rx="23.5" fill="none" stroke="rgba(199,210,226,0.18)"/>
<rect data-cfx-role="card-inner-highlight" class="cfx-crisp-stroke" x="15.5" y="15.5" width="889" height="329" rx="22.5" fill="none" stroke="#FFFFFF" stroke-opacity="0.42"/>
<text x="67.92" y="306" text-anchor="end" fill="#8792A5" font-family="Aptos, Calibri, 'Segoe UI', Candara, Arial, sans-serif" font-size="16">0</text>
<text x="67.92" y="251.6" text-anchor="end" fill="#8792A5" font-family="Aptos, Calibri, 'Segoe UI', Candara, Arial, sans-serif" font-size="16">20</text>
<text x="67.92" y="197.2" text-anchor="end" fill="#8792A5" font-family="Aptos, Calibri, 'Segoe UI', Candara, Arial, sans-serif" font-size="16">40</text>
<text x="67.92" y="142.8" text-anchor="end" fill="#8792A5" font-family="Aptos, Calibri, 'Segoe UI', Candara, Arial, sans-serif" font-size="16">60</text>
<text x="67.92" y="88.4" text-anchor="end" fill="#8792A5" font-family="Aptos, Calibri, 'Segoe UI', Candara, Arial, sans-serif" font-size="16">80</text>
<text x="67.92" y="34" text-anchor="end" fill="#8792A5" font-family="Aptos, Calibri, 'Segoe UI', Candara, Arial, sans-serif" font-size="16">100</text>
<line class="cfx-guide-stroke" x1="79.5" y1="30" x2="79.5" y2="302" stroke="#D7DEE8" stroke-width="1" opacity="0.34" stroke-dasharray="4 6"/>
<text x="87.92" y="323" text-anchor="start" fill="#8792A5" font-family="Aptos, Calibri, 'Segoe UI', Candara, Arial, sans-serif" font-size="16">Sunday</text>
<line class="cfx-guide-stroke" x1="215.5" y1="30" x2="215.5" y2="302" stroke="#D7DEE8" stroke-width="1" opacity="0.34" stroke-dasharray="4 6"/>
<text x="215.6" y="323" text-anchor="middle" fill="#8792A5" font-family="Aptos, Calibri, 'Segoe UI', Candara, Arial, sans-serif" font-size="16">Monday</text>
<line class="cfx-guide-stroke" x1="351.5" y1="30" x2="351.5" y2="302" stroke="#D7DEE8" stroke-width="1" opacity="0.34" stroke-dasharray="4 6"/>
<text x="351.28" y="323" text-anchor="middle" fill="#8792A5" font-family="Aptos, Calibri, 'Segoe UI', Candara, Arial, sans-serif" font-size="16">Tuesday</text>
<line class="cfx-guide-stroke" x1="486.5" y1="30" x2="486.5" y2="302" stroke="#D7DEE8" stroke-width="1" opacity="0.34" stroke-dasharray="4 6"/>
<text x="486.96" y="323" text-anchor="middle" fill="#2563EB" font-family="Aptos, Calibri, 'Segoe UI', Candara, Arial, sans-serif" font-size="16">Wednesday</text>
<line class="cfx-guide-stroke" x1="622.5" y1="30" x2="622.5" y2="302" stroke="#D7DEE8" stroke-width="1" opacity="0.34" stroke-dasharray="4 6"/>
<text x="622.64" y="323" text-anchor="middle" fill="#8792A5" font-family="Aptos, Calibri, 'Segoe UI', Candara, Arial, sans-serif" font-size="16">Thursday</text>
<line class="cfx-guide-stroke" x1="758.5" y1="30" x2="758.5" y2="302" stroke="#D7DEE8" stroke-width="1" opacity="0.34" stroke-dasharray="4 6"/>
<text x="758.32" y="323" text-anchor="middle" fill="#8792A5" font-family="Aptos, Calibri, 'Segoe UI', Candara, Arial, sans-serif" font-size="16">Friday</text>
<line class="cfx-guide-stroke" x1="894.5" y1="30" x2="894.5" y2="302" stroke="#D7DEE8" stroke-width="1" opacity="0.34" stroke-dasharray="4 6"/>
<text x="886" y="323" text-anchor="end" fill="#8792A5" font-family="Aptos, Calibri, 'Segoe UI', Candara, Arial, sans-serif" font-size="16">Saturday</text>
<g clip-path="url(#cfxbededa09-plotClip)">
<path data-cfx-role="area" data-cfx-series="0" data-cfx-point-count="7" d="M 79.92 236.72 C 102.533 231.28 170.373 214.96 215.6 204.08 C 260.827 193.2 306.053 181.413 351.28 171.44 C 396.507 161.467 441.733 143.333 486.96 144.24 C 532.187 145.147 577.413 181.413 622.64 176.88 C 667.867 172.347 713.093 130.64 758.32 117.04 C 803.547 103.44 871.387 98.907 894 95.28 L 894 302 L 79.92 302 Z" fill="url(#cfxbededa09-area0)"/>
<path data-cfx-role="area-line-ambient-halo" data-cfx-series="0" data-cfx-point-count="7" d="M 79.92 236.72 C 102.533 231.28 170.373 214.96 215.6 204.08 C 260.827 193.2 306.053 181.413 351.28 171.44 C 396.507 161.467 441.733 143.333 486.96 144.24 C 532.187 145.147 577.413 181.413 622.64 176.88 C 667.867 172.347 713.093 130.64 758.32 117.04 C 803.547 103.44 871.387 98.907 894 95.28" class="cfx-premium-stroke" fill="none" stroke="#2563EB" stroke-width="13" stroke-linecap="round" stroke-linejoin="round" opacity="0.055"/>
<path data-cfx-role="area-line-halo" data-cfx-series="0" data-cfx-point-count="7" d="M 79.92 236.72 C 102.533 231.28 170.373 214.96 215.6 204.08 C 260.827 193.2 306.053 181.413 351.28 171.44 C 396.507 161.467 441.733 143.333 486.96 144.24 C 532.187 145.147 577.413 181.413 622.64 176.88 C 667.867 172.347 713.093 130.64 758.32 117.04 C 803.547 103.44 871.387 98.907 894 95.28" class="cfx-premium-stroke" fill="none" stroke="#2563EB" stroke-width="8" stroke-linecap="round" stroke-linejoin="round" opacity="0.14"/>
<path data-cfx-role="area-line" data-cfx-series="0" data-cfx-point-count="7" d="M 79.92 236.72 C 102.533 231.28 170.373 214.96 215.6 204.08 C 260.827 193.2 306.053 181.413 351.28 171.44 C 396.507 161.467 441.733 143.333 486.96 144.24 C 532.187 145.147 577.413 181.413 622.64 176.88 C 667.867 172.347 713.093 130.64 758.32 117.04 C 803.547 103.44 871.387 98.907 894 95.28" class="cfx-premium-stroke" fill="none" stroke="#2563EB" stroke-width="3" stroke-linecap="round" stroke-linejoin="round"/>
<path data-cfx-role="area-line-highlight" data-cfx-series="0" data-cfx-point-count="7" d="M 79.92 236.72 C 102.533 231.28 170.373 214.96 215.6 204.08 C 260.827 193.2 306.053 181.413 351.28 171.44 C 396.507 161.467 441.733 143.333 486.96 144.24 C 532.187 145.147 577.413 181.413 622.64 176.88 C 667.867 172.347 713.093 130.64 758.32 117.04 C 803.547 103.44 871.387 98.907 894 95.28" class="cfx-premium-stroke" fill="none" stroke="#FFFFFF" stroke-width="1" stroke-linecap="round" stroke-linejoin="round" opacity="0.13"/>
<circle data-cfx-role="line-marker" data-cfx-series="0" data-cfx-point="0" data-cfx-x="1" data-cfx-y="24" cx="79.92" cy="236.72" r="3.2" fill="#2563EB" stroke="#FCFDFE" stroke-width="2"/>
<circle data-cfx-role="line-marker" data-cfx-series="0" data-cfx-point="1" data-cfx-x="2" data-cfx-y="36" cx="215.6" cy="204.08" r="3.2" fill="#2563EB" stroke="#FCFDFE" stroke-width="2"/>
<circle data-cfx-role="line-marker" data-cfx-series="0" data-cfx-point="2" data-cfx-x="3" data-cfx-y="48" cx="351.28" cy="171.44" r="3.2" fill="#2563EB" stroke="#FCFDFE" stroke-width="2"/>
<circle data-cfx-role="line-marker" data-cfx-series="0" data-cfx-point="3" data-cfx-x="4" data-cfx-y="58" cx="486.96" cy="144.24" r="3.2" fill="#2563EB" stroke="#FCFDFE" stroke-width="2"/>
<circle data-cfx-role="line-marker" data-cfx-series="0" data-cfx-point="4" data-cfx-x="5" data-cfx-y="46" cx="622.64" cy="176.88" r="3.2" fill="#2563EB" stroke="#FCFDFE" stroke-width="2"/>
<circle data-cfx-role="line-marker" data-cfx-series="0" data-cfx-point="5" data-cfx-x="6" data-cfx-y="68" cx="758.32" cy="117.04" r="3.2" fill="#2563EB" stroke="#FCFDFE" stroke-width="2"/>
<circle data-cfx-role="line-marker" data-cfx-series="0" data-cfx-point="6" data-cfx-x="7" data-cfx-y="76" cx="894" cy="95.28" r="3.2" fill="#2563EB" stroke="#FCFDFE" stroke-width="2"/>
<path data-cfx-role="line-ambient-halo" data-cfx-series="1" data-cfx-point-count="7" d="M 79.92 253.04 C 102.533 248.507 170.373 234 215.6 225.84 C 260.827 217.68 306.053 213.147 351.28 204.08 C 396.507 195.013 441.733 173.253 486.96 171.44 C 532.187 169.627 577.413 197.733 622.64 193.2 C 667.867 188.667 713.093 156.027 758.32 144.24 C 803.547 132.453 871.387 126.107 894 122.48" class="cfx-premium-stroke" fill="none" stroke="#14B8A6" stroke-width="13" stroke-linecap="round" stroke-linejoin="round" opacity="0.055"/>
<path data-cfx-role="line-halo" data-cfx-series="1" data-cfx-point-count="7" d="M 79.92 253.04 C 102.533 248.507 170.373 234 215.6 225.84 C 260.827 217.68 306.053 213.147 351.28 204.08 C 396.507 195.013 441.733 173.253 486.96 171.44 C 532.187 169.627 577.413 197.733 622.64 193.2 C 667.867 188.667 713.093 156.027 758.32 144.24 C 803.547 132.453 871.387 126.107 894 122.48" class="cfx-premium-stroke" fill="none" stroke="#14B8A6" stroke-width="8" stroke-linecap="round" stroke-linejoin="round" opacity="0.14"/>
<path data-cfx-role="line" data-cfx-series="1" data-cfx-point-count="7" d="M 79.92 253.04 C 102.533 248.507 170.373 234 215.6 225.84 C 260.827 217.68 306.053 213.147 351.28 204.08 C 396.507 195.013 441.733 173.253 486.96 171.44 C 532.187 169.627 577.413 197.733 622.64 193.2 C 667.867 188.667 713.093 156.027 758.32 144.24 C 803.547 132.453 871.387 126.107 894 122.48" class="cfx-premium-stroke" fill="none" stroke="#14B8A6" stroke-width="3" stroke-linecap="round" stroke-linejoin="round"/>
<path data-cfx-role="line-highlight" data-cfx-series="1" data-cfx-point-count="7" d="M 79.92 253.04 C 102.533 248.507 170.373 234 215.6 225.84 C 260.827 217.68 306.053 213.147 351.28 204.08 C 396.507 195.013 441.733 173.253 486.96 171.44 C 532.187 169.627 577.413 197.733 622.64 193.2 C 667.867 188.667 713.093 156.027 758.32 144.24 C 803.547 132.453 871.387 126.107 894 122.48" class="cfx-premium-stroke" fill="none" stroke="#FFFFFF" stroke-width="1" stroke-linecap="round" stroke-linejoin="round" opacity="0.13"/>
<circle data-cfx-role="line-marker" data-cfx-series="1" data-cfx-point="0" data-cfx-x="1" data-cfx-y="18" cx="79.92" cy="253.04" r="3.2" fill="#14B8A6" stroke="#FCFDFE" stroke-width="2"/>
<circle data-cfx-role="line-marker" data-cfx-series="1" data-cfx-point="1" data-cfx-x="2" data-cfx-y="28" cx="215.6" cy="225.84" r="3.2" fill="#14B8A6" stroke="#FCFDFE" stroke-width="2"/>
<circle data-cfx-role="line-marker" data-cfx-series="1" data-cfx-point="2" data-cfx-x="3" data-cfx-y="36" cx="351.28" cy="204.08" r="3.2" fill="#14B8A6" stroke="#FCFDFE" stroke-width="2"/>
<circle data-cfx-role="line-marker" data-cfx-series="1" data-cfx-point="3" data-cfx-x="4" data-cfx-y="48" cx="486.96" cy="171.44" r="3.2" fill="#14B8A6" stroke="#FCFDFE" stroke-width="2"/>
<circle data-cfx-role="line-marker" data-cfx-series="1" data-cfx-point="4" data-cfx-x="5" data-cfx-y="40" cx="622.64" cy="193.2" r="3.2" fill="#14B8A6" stroke="#FCFDFE" stroke-width="2"/>
<circle data-cfx-role="line-marker" data-cfx-series="1" data-cfx-point="5" data-cfx-x="6" data-cfx-y="58" cx="758.32" cy="144.24" r="3.2" fill="#14B8A6" stroke="#FCFDFE" stroke-width="2"/>
<circle data-cfx-role="line-marker" data-cfx-series="1" data-cfx-point="6" data-cfx-x="7" data-cfx-y="66" cx="894" cy="122.48" r="3.2" fill="#14B8A6" stroke="#FCFDFE" stroke-width="2"/>
</g>
</g>
</svg>
