<svg xmlns="http://www.w3.org/2000/svg" width="760" height="460" viewBox="0 0 760 460" role="img" aria-labelledby="cfxab60fa09-title cfxab60fa09-desc" preserveAspectRatio="xMidYMid meet" style="max-width:100%;height:auto;display:block" shape-rendering="geometricPrecision" text-rendering="geometricPrecision">
<title id="cfxab60fa09-title">Forecast Interval</title>
<desc id="cfxab60fa09-desc">Forecast Interval with 2 data series: Prediction interval, Observed.</desc>
<defs>
<style>#cfxab60fa09 text{-webkit-font-smoothing:antialiased;text-rendering:geometricPrecision;font-synthesis:none} #cfxab60fa09 .cfx-crisp-stroke,#cfxab60fa09 .cfx-guide-stroke,#cfxab60fa09 .cfx-premium-stroke{vector-effect:non-scaling-stroke;shape-rendering:geometricPrecision} #cfxab60fa09 .cfx-guide-stroke{shape-rendering:crispEdges} #cfxab60fa09 .cfx-interactive-region{transition:opacity .12s ease,stroke-width .12s ease} #cfxab60fa09 .cfx-interactive-region[data-cfx-role="dotted-map-connector"]{pointer-events:stroke} #cfxab60fa09 .cfx-interactive-region:hover,#cfxab60fa09 .cfx-interactive-region:focus{opacity:1;outline:none;stroke-width:var(--cfx-interactive-focus-stroke-width,2.2)}#cfxab60fa09 text{-webkit-font-smoothing:antialiased;text-rendering:geometricPrecision;font-synthesis:none} #cfxab60fa09 .cfx-crisp-stroke,#cfxab60fa09 .cfx-guide-stroke,#cfxab60fa09 .cfx-premium-stroke{vector-effect:non-scaling-stroke;shape-rendering:geometricPrecision} #cfxab60fa09 .cfx-guide-stroke{shape-rendering:crispEdges} #cfxab60fa09 .cfx-interactive-region{transition:opacity .12s ease,stroke-width .12s ease} #cfxab60fa09 .cfx-interactive-region[data-cfx-role="dotted-map-connector"]{pointer-events:stroke} #cfxab60fa09 .cfx-interactive-region:hover,#cfxab60fa09 .cfx-interactive-region:focus{opacity:1;outline:none;stroke-width:var(--cfx-interactive-focus-stroke-width,2.2)}</style>
<filter id="cfxab60fa09-softShadow" x="-20%" y="-20%" width="140%" height="140%"><feDropShadow dx="0" dy="4" stdDeviation="6" flood-color="#0F172A" flood-opacity="0.044"/><feDropShadow dx="0" dy="14" stdDeviation="18" flood-color="#0F172A" flood-opacity="0.1"/></filter>
<linearGradient id="cfxab60fa09-cardSurface" x1="0" x2="0" y1="0" y2="1"><stop offset="0%" stop-color="#FFFFFF" stop-opacity="1"/><stop offset="100%" stop-color="#F7F7F8" stop-opacity="1"/></linearGradient>
<linearGradient id="cfxab60fa09-plotSurface" x1="0" x2="0" y1="0" y2="1"><stop offset="0%" stop-color="#F9FBFD" stop-opacity="1"/><stop offset="100%" stop-color="#F0F2F5" stop-opacity="1"/></linearGradient>
<clipPath id="cfxab60fa09-plotClip"><rect x="76" y="112" width="648" height="236.5" rx="8"/></clipPath>
<linearGradient id="cfxab60fa09-area0" x1="0" x2="0" y1="0" y2="1"><stop offset="0%" stop-color="#0EA5E9" stop-opacity="0.32"/><stop offset="100%" stop-color="#0EA5E9" stop-opacity="0.02"/></linearGradient>
<linearGradient id="cfxab60fa09-seriesFill0" x1="0" x2="0" y1="0" y2="1"><stop offset="0%" stop-color="#2BB0EC" stop-opacity="1"/><stop offset="100%" stop-color="#0D9BDB" stop-opacity="0.94"/></linearGradient>
<linearGradient id="cfxab60fa09-area1" x1="0" x2="0" y1="0" y2="1"><stop offset="0%" stop-color="#2563EB" stop-opacity="0.32"/><stop offset="100%" stop-color="#2563EB" stop-opacity="0.02"/></linearGradient>
<linearGradient id="cfxab60fa09-seriesFill1" x1="0" x2="0" y1="0" y2="1"><stop offset="0%" stop-color="#3F76ED" stop-opacity="1"/><stop offset="100%" stop-color="#235DDD" stop-opacity="0.94"/></linearGradient>
<linearGradient id="cfxab60fa09-sliceFill0" x1="0" x2="1" y1="0" y2="1"><stop offset="0%" stop-color="#2563EB" stop-opacity="1"/><stop offset="100%" stop-color="#2563EB" stop-opacity="0.78"/></linearGradient>
<linearGradient id="cfxab60fa09-sliceFill1" x1="0" x2="1" y1="0" y2="1"><stop offset="0%" stop-color="#0EA5E9" stop-opacity="1"/><stop offset="100%" stop-color="#0EA5E9" stop-opacity="0.78"/></linearGradient>
<linearGradient id="cfxab60fa09-sliceFill2" x1="0" x2="1" y1="0" y2="1"><stop offset="0%" stop-color="#10B981" stop-opacity="1"/><stop offset="100%" stop-color="#10B981" stop-opacity="0.78"/></linearGradient>
<linearGradient id="cfxab60fa09-sliceFill3" x1="0" x2="1" y1="0" y2="1"><stop offset="0%" stop-color="#F59E0B" stop-opacity="1"/><stop offset="100%" stop-color="#F59E0B" stop-opacity="0.78"/></linearGradient>
<linearGradient id="cfxab60fa09-sliceFill4" x1="0" x2="1" y1="0" y2="1"><stop offset="0%" stop-color="#EF4444" stop-opacity="1"/><stop offset="100%" stop-color="#EF4444" stop-opacity="0.78"/></linearGradient>
<linearGradient id="cfxab60fa09-sliceFill5" x1="0" x2="1" y1="0" y2="1"><stop offset="0%" stop-color="#8B5CF6" stop-opacity="1"/><stop offset="100%" stop-color="#8B5CF6" stop-opacity="0.78"/></linearGradient>
<linearGradient id="cfxab60fa09-sliceFill6" x1="0" x2="1" y1="0" y2="1"><stop offset="0%" stop-color="#EC4899" stop-opacity="1"/><stop offset="100%" stop-color="#EC4899" stop-opacity="0.78"/></linearGradient>
<linearGradient id="cfxab60fa09-sliceFill7" x1="0" x2="1" y1="0" y2="1"><stop offset="0%" stop-color="#14B8A6" stop-opacity="1"/><stop offset="100%" stop-color="#14B8A6" stop-opacity="0.78"/></linearGradient>
</defs>
<g id="cfxab60fa09">
<rect data-cfx-role="card-surface" x="14" y="14" width="732" height="432" rx="12" fill="url(#cfxab60fa09-cardSurface)" filter="url(#cfxab60fa09-softShadow)"/>
<rect data-cfx-role="card-border" class="cfx-crisp-stroke" x="14.5" y="14.5" width="731" height="431" rx="11.5" fill="none" stroke="rgba(148,163,184,0.361)"/>
<rect data-cfx-role="card-inner-highlight" class="cfx-crisp-stroke" x="15.5" y="15.5" width="729" height="429" rx="10.5" fill="none" stroke="#FFFFFF" stroke-opacity="0.42"/>
<rect x="76" y="112" width="648" height="236.5" rx="8" fill="url(#cfxab60fa09-plotSurface)"/>
<rect class="cfx-crisp-stroke" x="76.5" y="112.5" width="647" height="235.5" rx="7.5" fill="none" stroke="rgba(148,163,184,0.188)"/>
<rect data-cfx-role="plot-inner-highlight" class="cfx-crisp-stroke" x="77" y="113" width="646" height="234.5" rx="7" fill="none" stroke="#FFFFFF" stroke-opacity="0.32"/>
<text data-cfx-role="chart-title" x="40" y="52" fill="#0F172A" font-family="-apple-system, BlinkMacSystemFont, 'Segoe UI', Roboto, Helvetica, Arial, sans-serif" font-size="25" font-weight="750">Forecast Interval</text>
<text data-cfx-role="chart-subtitle" x="40" y="79" fill="#64748B" font-family="-apple-system, BlinkMacSystemFont, 'Segoe UI', Roboto, Helvetica, Arial, sans-serif" font-size="12.5" font-weight="400">Range areas emphasize smoothed prediction intervals beside an observed trend</text>
<line class="cfx-guide-stroke" x1="76" y1="348.5" x2="724" y2="348.5" stroke="rgba(148,163,184,0.275)" stroke-width="1" opacity="1"/>
<text x="64" y="352.5" text-anchor="end" fill="#64748B" font-family="-apple-system, BlinkMacSystemFont, 'Segoe UI', Roboto, Helvetica, Arial, sans-serif" font-size="10.5">0</text>
<line class="cfx-guide-stroke" x1="76" y1="309.5" x2="724" y2="309.5" stroke="rgba(148,163,184,0.275)" stroke-width="1" opacity="1"/>
<text x="64" y="313.083" text-anchor="end" fill="#64748B" font-family="-apple-system, BlinkMacSystemFont, 'Segoe UI', Roboto, Helvetica, Arial, sans-serif" font-size="10.5">20</text>
<line class="cfx-guide-stroke" x1="76" y1="269.5" x2="724" y2="269.5" stroke="rgba(148,163,184,0.275)" stroke-width="1" opacity="1"/>
<text x="64" y="273.667" text-anchor="end" fill="#64748B" font-family="-apple-system, BlinkMacSystemFont, 'Segoe UI', Roboto, Helvetica, Arial, sans-serif" font-size="10.5">40</text>
<line class="cfx-guide-stroke" x1="76" y1="230.5" x2="724" y2="230.5" stroke="rgba(148,163,184,0.275)" stroke-width="1" opacity="1"/>
<text x="64" y="234.25" text-anchor="end" fill="#64748B" font-family="-apple-system, BlinkMacSystemFont, 'Segoe UI', Roboto, Helvetica, Arial, sans-serif" font-size="10.5">60</text>
<line class="cfx-guide-stroke" x1="76" y1="190.5" x2="724" y2="190.5" stroke="rgba(148,163,184,0.275)" stroke-width="1" opacity="1"/>
<text x="64" y="194.833" text-anchor="end" fill="#64748B" font-family="-apple-system, BlinkMacSystemFont, 'Segoe UI', Roboto, Helvetica, Arial, sans-serif" font-size="10.5">80</text>
<line class="cfx-guide-stroke" x1="76" y1="151.5" x2="724" y2="151.5" stroke="rgba(148,163,184,0.275)" stroke-width="1" opacity="1"/>
<text x="64" y="155.417" text-anchor="end" fill="#64748B" font-family="-apple-system, BlinkMacSystemFont, 'Segoe UI', Roboto, Helvetica, Arial, sans-serif" font-size="10.5">100</text>
<line class="cfx-guide-stroke" x1="76" y1="112.5" x2="724" y2="112.5" stroke="rgba(148,163,184,0.275)" stroke-width="1" opacity="1"/>
<text x="64" y="116" text-anchor="end" fill="#64748B" font-family="-apple-system, BlinkMacSystemFont, 'Segoe UI', Roboto, Helvetica, Arial, sans-serif" font-size="10.5">120</text>
<line class="cfx-guide-stroke" x1="76.5" y1="112" x2="76.5" y2="348.5" stroke="rgba(148,163,184,0.275)" stroke-width="1" opacity="0.42"/>
<text x="84" y="369.5" text-anchor="start" fill="#64748B" font-family="-apple-system, BlinkMacSystemFont, 'Segoe UI', Roboto, Helvetica, Arial, sans-serif" font-size="10.5">R1</text>
<line class="cfx-guide-stroke" x1="184.5" y1="112" x2="184.5" y2="348.5" stroke="rgba(148,163,184,0.275)" stroke-width="1" opacity="0.42"/>
<text x="184" y="369.5" text-anchor="middle" fill="#64748B" font-family="-apple-system, BlinkMacSystemFont, 'Segoe UI', Roboto, Helvetica, Arial, sans-serif" font-size="10.5">R2</text>
<line class="cfx-guide-stroke" x1="292.5" y1="112" x2="292.5" y2="348.5" stroke="rgba(148,163,184,0.275)" stroke-width="1" opacity="0.42"/>
<text x="292" y="369.5" text-anchor="middle" fill="#64748B" font-family="-apple-system, BlinkMacSystemFont, 'Segoe UI', Roboto, Helvetica, Arial, sans-serif" font-size="10.5">R3</text>
<line class="cfx-guide-stroke" x1="400.5" y1="112" x2="400.5" y2="348.5" stroke="rgba(148,163,184,0.275)" stroke-width="1" opacity="0.42"/>
<text x="400" y="369.5" text-anchor="middle" fill="#64748B" font-family="-apple-system, BlinkMacSystemFont, 'Segoe UI', Roboto, Helvetica, Arial, sans-serif" font-size="10.5">R4</text>
<line class="cfx-guide-stroke" x1="508.5" y1="112" x2="508.5" y2="348.5" stroke="rgba(148,163,184,0.275)" stroke-width="1" opacity="0.42"/>
<text x="508" y="369.5" text-anchor="middle" fill="#64748B" font-family="-apple-system, BlinkMacSystemFont, 'Segoe UI', Roboto, Helvetica, Arial, sans-serif" font-size="10.5">R5</text>
<line class="cfx-guide-stroke" x1="616.5" y1="112" x2="616.5" y2="348.5" stroke="rgba(148,163,184,0.275)" stroke-width="1" opacity="0.42"/>
<text x="616" y="369.5" text-anchor="middle" fill="#64748B" font-family="-apple-system, BlinkMacSystemFont, 'Segoe UI', Roboto, Helvetica, Arial, sans-serif" font-size="10.5">R6</text>
<line class="cfx-guide-stroke" x1="724.5" y1="112" x2="724.5" y2="348.5" stroke="rgba(148,163,184,0.275)" stroke-width="1" opacity="0.42"/>
<text x="716" y="369.5" text-anchor="end" fill="#64748B" font-family="-apple-system, BlinkMacSystemFont, 'Segoe UI', Roboto, Helvetica, Arial, sans-serif" font-size="10.5">R7</text>
<line class="cfx-guide-stroke" x1="76" y1="348.5" x2="724" y2="348.5" stroke="rgba(71,85,105,0.627)" stroke-width="1.2"/>
<text x="400" y="392.5" text-anchor="middle" fill="#64748B" font-family="-apple-system, BlinkMacSystemFont, 'Segoe UI', Roboto, Helvetica, Arial, sans-serif" font-size="11.5" font-weight="600">Run</text>
<line class="cfx-guide-stroke" x1="76.5" y1="112" x2="76.5" y2="348.5" stroke="rgba(71,85,105,0.627)" stroke-width="1.2"/>
<text transform="translate(26 230.25) rotate(-90)" text-anchor="middle" fill="#64748B" font-family="-apple-system, BlinkMacSystemFont, 'Segoe UI', Roboto, Helvetica, Arial, sans-serif" font-size="11.5" font-weight="600">Expected Range</text>
<g clip-path="url(#cfxab60fa09-plotClip)">
<g data-cfx-role="range-area-series" data-cfx-series="0" data-cfx-interval-count="7" role="img" aria-label="Prediction interval interval area with 7 point(s)">
<path data-cfx-role="range-area" data-cfx-series="0" data-cfx-interval-count="7" d="M 76 261.783 L 82.426 260.511 L 90.688 258.898 L 100.462 256.997 L 111.424 254.862 L 123.25 252.545 L 135.616 250.1 L 148.198 247.581 L 160.672 245.039 L 172.714 242.529 L 184 240.104 L 194.8 237.675 L 205.6 235.138 L 216.4 232.521 L 227.2 229.856 L 238 227.171 L 248.8 224.495 L 259.6 221.859 L 270.4 219.292 L 281.2 216.824 L 292 214.483 L 302.8 212.273 L 313.6 210.163 L 324.4 208.136 L 335.2 206.174 L 346 204.26 L 356.8 202.375 L 367.6 200.501 L 378.4 198.622 L 389.2 196.719 L 400 194.775 L 410.8 192.769 L 421.6 190.707 L 432.4 188.614 L 443.2 186.513 L 454 184.428 L 464.8 182.382 L 475.6 180.4 L 486.4 178.504 L 497.2 176.718 L 508 175.067 L 518.8 173.547 L 529.6 172.134 L 540.4 170.816 L 551.2 169.58 L 562 168.415 L 572.8 167.309 L 583.6 166.251 L 594.4 165.228 L 605.2 164.229 L 616 163.242 L 627.286 162.258 L 639.328 161.287 L 651.802 160.339 L 664.384 159.426 L 676.75 158.561 L 688.576 157.755 L 699.538 157.02 L 709.312 156.367 L 717.574 155.81 L 724 155.358 L 724 206.6 L 717.574 207.312 L 709.312 208.24 L 699.538 209.34 L 688.576 210.573 L 676.75 211.897 L 664.384 213.269 L 651.802 214.65 L 639.328 215.997 L 627.286 217.269 L 616 218.425 L 605.2 219.472 L 594.4 220.459 L 583.6 221.402 L 572.8 222.319 L 562 223.229 L 551.2 224.148 L 540.4 225.095 L 529.6 226.088 L 518.8 227.143 L 508 228.279 L 497.2 229.455 L 486.4 230.628 L 475.6 231.818 L 464.8 233.041 L 454 234.315 L 443.2 235.658 L 432.4 237.088 L 421.6 238.622 L 410.8 240.279 L 400 242.075 L 389.2 244.076 L 378.4 246.3 L 367.6 248.694 L 356.8 251.204 L 346 253.777 L 335.2 256.36 L 324.4 258.899 L 313.6 261.342 L 302.8 263.635 L 292 265.725 L 281.2 267.639 L 270.4 269.446 L 259.6 271.159 L 248.8 272.788 L 238 274.347 L 227.2 275.847 L 216.4 277.3 L 205.6 278.717 L 194.8 280.11 L 184 281.492 L 172.714 282.887 L 160.672 284.298 L 148.198 285.701 L 135.616 287.073 L 123.25 288.39 L 111.424 289.627 L 100.462 290.762 L 90.688 291.772 L 82.426 292.631 L 76 293.317 Z" fill="url(#cfxab60fa09-area0)"/>
<path data-cfx-role="range-area-midline" data-cfx-series="0" data-cfx-interval-count="7" d="M 76 277.55 L 82.426 276.571 L 90.688 275.335 L 100.462 273.88 L 111.424 272.245 L 123.25 270.467 L 135.616 268.587 L 148.198 266.641 L 160.672 264.669 L 172.714 262.708 L 184 260.798 L 194.8 258.893 L 205.6 256.927 L 216.4 254.911 L 227.2 252.852 L 238 250.759 L 248.8 248.642 L 259.6 246.509 L 270.4 244.369 L 281.2 242.231 L 292 240.104 L 302.8 237.954 L 313.6 235.753 L 324.4 233.518 L 335.2 231.267 L 346 229.018 L 356.8 226.789 L 367.6 224.598 L 378.4 222.461 L 389.2 220.398 L 400 218.425 L 410.8 216.524 L 421.6 214.665 L 432.4 212.851 L 443.2 211.086 L 454 209.371 L 464.8 207.712 L 475.6 206.109 L 486.4 204.566 L 497.2 203.086 L 508 201.673 L 518.8 200.345 L 529.6 199.111 L 540.4 197.955 L 551.2 196.864 L 562 195.822 L 572.8 194.814 L 583.6 193.827 L 594.4 192.844 L 605.2 191.851 L 616 190.833 L 627.286 189.764 L 639.328 188.642 L 651.802 187.494 L 664.384 186.348 L 676.75 185.229 L 688.576 184.164 L 699.538 183.18 L 709.312 182.304 L 717.574 181.561 L 724 180.979" fill="none" stroke="#0EA5E9" stroke-width="1.3" stroke-linecap="round" stroke-linejoin="round" stroke-dasharray="5 6" opacity="0.48"/>
<path data-cfx-role="range-area-upper-ambient-halo" data-cfx-series="0" data-cfx-interval-count="7" d="M 76 261.783 L 82.426 260.511 L 90.688 258.898 L 100.462 256.997 L 111.424 254.862 L 123.25 252.545 L 135.616 250.1 L 148.198 247.581 L 160.672 245.039 L 172.714 242.529 L 184 240.104 L 194.8 237.675 L 205.6 235.138 L 216.4 232.521 L 227.2 229.856 L 238 227.171 L 248.8 224.495 L 259.6 221.859 L 270.4 219.292 L 281.2 216.824 L 292 214.483 L 302.8 212.273 L 313.6 210.163 L 324.4 208.136 L 335.2 206.174 L 346 204.26 L 356.8 202.375 L 367.6 200.501 L 378.4 198.622 L 389.2 196.719 L 400 194.775 L 410.8 192.769 L 421.6 190.707 L 432.4 188.614 L 443.2 186.513 L 454 184.428 L 464.8 182.382 L 475.6 180.4 L 486.4 178.504 L 497.2 176.718 L 508 175.067 L 518.8 173.547 L 529.6 172.134 L 540.4 170.816 L 551.2 169.58 L 562 168.415 L 572.8 167.309 L 583.6 166.251 L 594.4 165.228 L 605.2 164.229 L 616 163.242 L 627.286 162.258 L 639.328 161.287 L 651.802 160.339 L 664.384 159.426 L 676.75 158.561 L 688.576 157.755 L 699.538 157.02 L 709.312 156.367 L 717.574 155.81 L 724 155.358" fill="none" stroke="#0EA5E9" stroke-width="13" stroke-linecap="round" stroke-linejoin="round" opacity="0.055"/>
<path data-cfx-role="range-area-lower-ambient-halo" data-cfx-series="0" data-cfx-interval-count="7" d="M 76 293.317 L 82.426 292.631 L 90.688 291.772 L 100.462 290.762 L 111.424 289.627 L 123.25 288.39 L 135.616 287.073 L 148.198 285.701 L 160.672 284.298 L 172.714 282.887 L 184 281.492 L 194.8 280.11 L 205.6 278.717 L 216.4 277.3 L 227.2 275.847 L 238 274.347 L 248.8 272.788 L 259.6 271.159 L 270.4 269.446 L 281.2 267.639 L 292 265.725 L 302.8 263.635 L 313.6 261.342 L 324.4 258.899 L 335.2 256.36 L 346 253.777 L 356.8 251.204 L 367.6 248.694 L 378.4 246.3 L 389.2 244.076 L 400 242.075 L 410.8 240.279 L 421.6 238.622 L 432.4 237.088 L 443.2 235.658 L 454 234.315 L 464.8 233.041 L 475.6 231.818 L 486.4 230.628 L 497.2 229.455 L 508 228.279 L 518.8 227.143 L 529.6 226.088 L 540.4 225.095 L 551.2 224.148 L 562 223.229 L 572.8 222.319 L 583.6 221.402 L 594.4 220.459 L 605.2 219.472 L 616 218.425 L 627.286 217.269 L 639.328 215.997 L 651.802 214.65 L 664.384 213.269 L 676.75 211.897 L 688.576 210.573 L 699.538 209.34 L 709.312 208.24 L 717.574 207.312 L 724 206.6" fill="none" stroke="#0EA5E9" stroke-width="13" stroke-linecap="round" stroke-linejoin="round" opacity="0.055"/>
<path data-cfx-role="range-area-upper-halo" data-cfx-series="0" data-cfx-interval-count="7" d="M 76 261.783 L 82.426 260.511 L 90.688 258.898 L 100.462 256.997 L 111.424 254.862 L 123.25 252.545 L 135.616 250.1 L 148.198 247.581 L 160.672 245.039 L 172.714 242.529 L 184 240.104 L 194.8 237.675 L 205.6 235.138 L 216.4 232.521 L 227.2 229.856 L 238 227.171 L 248.8 224.495 L 259.6 221.859 L 270.4 219.292 L 281.2 216.824 L 292 214.483 L 302.8 212.273 L 313.6 210.163 L 324.4 208.136 L 335.2 206.174 L 346 204.26 L 356.8 202.375 L 367.6 200.501 L 378.4 198.622 L 389.2 196.719 L 400 194.775 L 410.8 192.769 L 421.6 190.707 L 432.4 188.614 L 443.2 186.513 L 454 184.428 L 464.8 182.382 L 475.6 180.4 L 486.4 178.504 L 497.2 176.718 L 508 175.067 L 518.8 173.547 L 529.6 172.134 L 540.4 170.816 L 551.2 169.58 L 562 168.415 L 572.8 167.309 L 583.6 166.251 L 594.4 165.228 L 605.2 164.229 L 616 163.242 L 627.286 162.258 L 639.328 161.287 L 651.802 160.339 L 664.384 159.426 L 676.75 158.561 L 688.576 157.755 L 699.538 157.02 L 709.312 156.367 L 717.574 155.81 L 724 155.358" fill="none" stroke="#0EA5E9" stroke-width="8" stroke-linecap="round" stroke-linejoin="round" opacity="0.14"/>
<path data-cfx-role="range-area-lower-halo" data-cfx-series="0" data-cfx-interval-count="7" d="M 76 293.317 L 82.426 292.631 L 90.688 291.772 L 100.462 290.762 L 111.424 289.627 L 123.25 288.39 L 135.616 287.073 L 148.198 285.701 L 160.672 284.298 L 172.714 282.887 L 184 281.492 L 194.8 280.11 L 205.6 278.717 L 216.4 277.3 L 227.2 275.847 L 238 274.347 L 248.8 272.788 L 259.6 271.159 L 270.4 269.446 L 281.2 267.639 L 292 265.725 L 302.8 263.635 L 313.6 261.342 L 324.4 258.899 L 335.2 256.36 L 346 253.777 L 356.8 251.204 L 367.6 248.694 L 378.4 246.3 L 389.2 244.076 L 400 242.075 L 410.8 240.279 L 421.6 238.622 L 432.4 237.088 L 443.2 235.658 L 454 234.315 L 464.8 233.041 L 475.6 231.818 L 486.4 230.628 L 497.2 229.455 L 508 228.279 L 518.8 227.143 L 529.6 226.088 L 540.4 225.095 L 551.2 224.148 L 562 223.229 L 572.8 222.319 L 583.6 221.402 L 594.4 220.459 L 605.2 219.472 L 616 218.425 L 627.286 217.269 L 639.328 215.997 L 651.802 214.65 L 664.384 213.269 L 676.75 211.897 L 688.576 210.573 L 699.538 209.34 L 709.312 208.24 L 717.574 207.312 L 724 206.6" fill="none" stroke="#0EA5E9" stroke-width="8" stroke-linecap="round" stroke-linejoin="round" opacity="0.14"/>
<path data-cfx-role="range-area-upper" data-cfx-series="0" data-cfx-interval-count="7" d="M 76 261.783 L 82.426 260.511 L 90.688 258.898 L 100.462 256.997 L 111.424 254.862 L 123.25 252.545 L 135.616 250.1 L 148.198 247.581 L 160.672 245.039 L 172.714 242.529 L 184 240.104 L 194.8 237.675 L 205.6 235.138 L 216.4 232.521 L 227.2 229.856 L 238 227.171 L 248.8 224.495 L 259.6 221.859 L 270.4 219.292 L 281.2 216.824 L 292 214.483 L 302.8 212.273 L 313.6 210.163 L 324.4 208.136 L 335.2 206.174 L 346 204.26 L 356.8 202.375 L 367.6 200.501 L 378.4 198.622 L 389.2 196.719 L 400 194.775 L 410.8 192.769 L 421.6 190.707 L 432.4 188.614 L 443.2 186.513 L 454 184.428 L 464.8 182.382 L 475.6 180.4 L 486.4 178.504 L 497.2 176.718 L 508 175.067 L 518.8 173.547 L 529.6 172.134 L 540.4 170.816 L 551.2 169.58 L 562 168.415 L 572.8 167.309 L 583.6 166.251 L 594.4 165.228 L 605.2 164.229 L 616 163.242 L 627.286 162.258 L 639.328 161.287 L 651.802 160.339 L 664.384 159.426 L 676.75 158.561 L 688.576 157.755 L 699.538 157.02 L 709.312 156.367 L 717.574 155.81 L 724 155.358" fill="none" stroke="#0EA5E9" stroke-width="3" stroke-linecap="round" stroke-linejoin="round"/>
<path data-cfx-role="range-area-lower" data-cfx-series="0" data-cfx-interval-count="7" d="M 76 293.317 L 82.426 292.631 L 90.688 291.772 L 100.462 290.762 L 111.424 289.627 L 123.25 288.39 L 135.616 287.073 L 148.198 285.701 L 160.672 284.298 L 172.714 282.887 L 184 281.492 L 194.8 280.11 L 205.6 278.717 L 216.4 277.3 L 227.2 275.847 L 238 274.347 L 248.8 272.788 L 259.6 271.159 L 270.4 269.446 L 281.2 267.639 L 292 265.725 L 302.8 263.635 L 313.6 261.342 L 324.4 258.899 L 335.2 256.36 L 346 253.777 L 356.8 251.204 L 367.6 248.694 L 378.4 246.3 L 389.2 244.076 L 400 242.075 L 410.8 240.279 L 421.6 238.622 L 432.4 237.088 L 443.2 235.658 L 454 234.315 L 464.8 233.041 L 475.6 231.818 L 486.4 230.628 L 497.2 229.455 L 508 228.279 L 518.8 227.143 L 529.6 226.088 L 540.4 225.095 L 551.2 224.148 L 562 223.229 L 572.8 222.319 L 583.6 221.402 L 594.4 220.459 L 605.2 219.472 L 616 218.425 L 627.286 217.269 L 639.328 215.997 L 651.802 214.65 L 664.384 213.269 L 676.75 211.897 L 688.576 210.573 L 699.538 209.34 L 709.312 208.24 L 717.574 207.312 L 724 206.6" fill="none" stroke="#0EA5E9" stroke-width="3" stroke-linecap="round" stroke-linejoin="round" opacity="0.88"/>
<path data-cfx-role="range-area-upper-highlight" data-cfx-series="0" data-cfx-interval-count="7" d="M 76 261.783 L 82.426 260.511 L 90.688 258.898 L 100.462 256.997 L 111.424 254.862 L 123.25 252.545 L 135.616 250.1 L 148.198 247.581 L 160.672 245.039 L 172.714 242.529 L 184 240.104 L 194.8 237.675 L 205.6 235.138 L 216.4 232.521 L 227.2 229.856 L 238 227.171 L 248.8 224.495 L 259.6 221.859 L 270.4 219.292 L 281.2 216.824 L 292 214.483 L 302.8 212.273 L 313.6 210.163 L 324.4 208.136 L 335.2 206.174 L 346 204.26 L 356.8 202.375 L 367.6 200.501 L 378.4 198.622 L 389.2 196.719 L 400 194.775 L 410.8 192.769 L 421.6 190.707 L 432.4 188.614 L 443.2 186.513 L 454 184.428 L 464.8 182.382 L 475.6 180.4 L 486.4 178.504 L 497.2 176.718 L 508 175.067 L 518.8 173.547 L 529.6 172.134 L 540.4 170.816 L 551.2 169.58 L 562 168.415 L 572.8 167.309 L 583.6 166.251 L 594.4 165.228 L 605.2 164.229 L 616 163.242 L 627.286 162.258 L 639.328 161.287 L 651.802 160.339 L 664.384 159.426 L 676.75 158.561 L 688.576 157.755 L 699.538 157.02 L 709.312 156.367 L 717.574 155.81 L 724 155.358" fill="none" stroke="#FFFFFF" stroke-width="1" stroke-linecap="round" stroke-linejoin="round" opacity="0.13"/>
<path data-cfx-role="range-area-lower-highlight" data-cfx-series="0" data-cfx-interval-count="7" d="M 76 293.317 L 82.426 292.631 L 90.688 291.772 L 100.462 290.762 L 111.424 289.627 L 123.25 288.39 L 135.616 287.073 L 148.198 285.701 L 160.672 284.298 L 172.714 282.887 L 184 281.492 L 194.8 280.11 L 205.6 278.717 L 216.4 277.3 L 227.2 275.847 L 238 274.347 L 248.8 272.788 L 259.6 271.159 L 270.4 269.446 L 281.2 267.639 L 292 265.725 L 302.8 263.635 L 313.6 261.342 L 324.4 258.899 L 335.2 256.36 L 346 253.777 L 356.8 251.204 L 367.6 248.694 L 378.4 246.3 L 389.2 244.076 L 400 242.075 L 410.8 240.279 L 421.6 238.622 L 432.4 237.088 L 443.2 235.658 L 454 234.315 L 464.8 233.041 L 475.6 231.818 L 486.4 230.628 L 497.2 229.455 L 508 228.279 L 518.8 227.143 L 529.6 226.088 L 540.4 225.095 L 551.2 224.148 L 562 223.229 L 572.8 222.319 L 583.6 221.402 L 594.4 220.459 L 605.2 219.472 L 616 218.425 L 627.286 217.269 L 639.328 215.997 L 651.802 214.65 L 664.384 213.269 L 676.75 211.897 L 688.576 210.573 L 699.538 209.34 L 709.312 208.24 L 717.574 207.312 L 724 206.6" fill="none" stroke="#FFFFFF" stroke-width="1" stroke-linecap="round" stroke-linejoin="round" opacity="0.13"/>
</g>
<path data-cfx-role="line-ambient-halo" data-cfx-series="1" data-cfx-point-count="7" d="M 76 277.55 C 94 273.28 148 260.141 184 251.929 C 220 243.717 256 235.177 292 228.279 C 328 221.381 364 216.783 400 210.542 C 436 204.301 472 196.089 508 190.833 C 544 185.578 580 182.622 616 179.008 C 652 175.395 706 170.797 724 169.154" class="cfx-premium-stroke" fill="none" stroke="#2563EB" stroke-width="13" stroke-linecap="round" stroke-linejoin="round" opacity="0.055"/>
<path data-cfx-role="line-halo" data-cfx-series="1" data-cfx-point-count="7" d="M 76 277.55 C 94 273.28 148 260.141 184 251.929 C 220 243.717 256 235.177 292 228.279 C 328 221.381 364 216.783 400 210.542 C 436 204.301 472 196.089 508 190.833 C 544 185.578 580 182.622 616 179.008 C 652 175.395 706 170.797 724 169.154" class="cfx-premium-stroke" fill="none" stroke="#2563EB" stroke-width="8" stroke-linecap="round" stroke-linejoin="round" opacity="0.14"/>
<path data-cfx-role="line" data-cfx-series="1" data-cfx-point-count="7" d="M 76 277.55 C 94 273.28 148 260.141 184 251.929 C 220 243.717 256 235.177 292 228.279 C 328 221.381 364 216.783 400 210.542 C 436 204.301 472 196.089 508 190.833 C 544 185.578 580 182.622 616 179.008 C 652 175.395 706 170.797 724 169.154" class="cfx-premium-stroke" fill="none" stroke="#2563EB" stroke-width="3" stroke-linecap="round" stroke-linejoin="round"/>
<path data-cfx-role="line-highlight" data-cfx-series="1" data-cfx-point-count="7" d="M 76 277.55 C 94 273.28 148 260.141 184 251.929 C 220 243.717 256 235.177 292 228.279 C 328 221.381 364 216.783 400 210.542 C 436 204.301 472 196.089 508 190.833 C 544 185.578 580 182.622 616 179.008 C 652 175.395 706 170.797 724 169.154" class="cfx-premium-stroke" fill="none" stroke="#FFFFFF" stroke-width="1" stroke-linecap="round" stroke-linejoin="round" opacity="0.13"/>
<circle data-cfx-role="line-marker" data-cfx-series="1" data-cfx-point="0" data-cfx-x="1" data-cfx-y="36" cx="76" cy="277.55" r="3.25" fill="#2563EB" stroke="#FFFFFF" stroke-width="2"/>
<circle data-cfx-role="line-marker" data-cfx-series="1" data-cfx-point="1" data-cfx-x="2" data-cfx-y="49" cx="184" cy="251.929" r="3.25" fill="#2563EB" stroke="#FFFFFF" stroke-width="2"/>
<circle data-cfx-role="line-marker" data-cfx-series="1" data-cfx-point="2" data-cfx-x="3" data-cfx-y="61" cx="292" cy="228.279" r="3.25" fill="#2563EB" stroke="#FFFFFF" stroke-width="2"/>
<circle data-cfx-role="line-marker" data-cfx-series="1" data-cfx-point="3" data-cfx-x="4" data-cfx-y="70" cx="400" cy="210.542" r="3.25" fill="#2563EB" stroke="#FFFFFF" stroke-width="2"/>
<circle data-cfx-role="line-marker" data-cfx-series="1" data-cfx-point="4" data-cfx-x="5" data-cfx-y="80" cx="508" cy="190.833" r="3.25" fill="#2563EB" stroke="#FFFFFF" stroke-width="2"/>
<circle data-cfx-role="line-marker" data-cfx-series="1" data-cfx-point="5" data-cfx-x="6" data-cfx-y="86" cx="616" cy="179.008" r="3.25" fill="#2563EB" stroke="#FFFFFF" stroke-width="2"/>
<circle data-cfx-role="line-marker" data-cfx-series="1" data-cfx-point="6" data-cfx-x="7" data-cfx-y="91" cx="724" cy="169.154" r="3.25" fill="#2563EB" stroke="#FFFFFF" stroke-width="2"/>
</g>
<g data-cfx-role="legend" data-cfx-position="Bottom">
<g data-cfx-role="legend-row" transform="translate(244.395 432)">
<g data-cfx-role="legend-item" data-cfx-series="0" data-cfx-kind="RangeArea" data-cfx-label="Prediction interval">
<line x1="0" y1="-4" x2="18" y2="-4" stroke="#0EA5E9" stroke-width="2.4" stroke-linecap="round"/>
<circle cx="9" cy="-4" r="4" fill="#0EA5E9" stroke="#FFFFFF" stroke-width="1.6"/>
<text data-cfx-role="legend-label" data-cfx-series="0" x="26" y="0" fill="#64748B" font-family="-apple-system, BlinkMacSystemFont, 'Segoe UI', Roboto, Helvetica, Arial, sans-serif" font-size="11.5" font-weight="600">Prediction interval</text>
</g>
<g data-cfx-role="legend-item" data-cfx-series="1" data-cfx-kind="Line" data-cfx-label="Observed">
<line x1="168.61" y1="-4" x2="186.61" y2="-4" stroke="#2563EB" stroke-width="2.4" stroke-linecap="round"/>
<circle cx="177.61" cy="-4" r="4" fill="#2563EB" stroke="#FFFFFF" stroke-width="1.6"/>
<text data-cfx-role="legend-label" data-cfx-series="1" x="194.61" y="0" fill="#64748B" font-family="-apple-system, BlinkMacSystemFont, 'Segoe UI', Roboto, Helvetica, Arial, sans-serif" font-size="11.5" font-weight="600">Observed</text>
</g>
</g>
</g>
</g>
</svg>
