<svg xmlns="http://www.w3.org/2000/svg" width="760" height="460" viewBox="0 0 760 460" role="img" aria-labelledby="cfxe553b2b6-title cfxe553b2b6-desc" preserveAspectRatio="xMidYMid meet" style="max-width:100%;height:auto;display:block" shape-rendering="geometricPrecision" text-rendering="geometricPrecision">
<title id="cfxe553b2b6-title">Africa Route Map</title>
<desc id="cfxe553b2b6-desc">Africa Route Map dotted world map for Cities with 3 highlighted points.</desc>
<defs>
<style>#cfxe553b2b6 text{-webkit-font-smoothing:antialiased;text-rendering:geometricPrecision;font-synthesis:none} #cfxe553b2b6 .cfx-crisp-stroke,#cfxe553b2b6 .cfx-guide-stroke,#cfxe553b2b6 .cfx-premium-stroke{vector-effect:non-scaling-stroke;shape-rendering:geometricPrecision} #cfxe553b2b6 .cfx-guide-stroke{shape-rendering:crispEdges} #cfxe553b2b6 .cfx-interactive-region{transition:opacity .12s ease,stroke-width .12s ease} #cfxe553b2b6 .cfx-interactive-region[data-cfx-role="dotted-map-connector"]{pointer-events:stroke} #cfxe553b2b6 .cfx-interactive-region:hover,#cfxe553b2b6 .cfx-interactive-region:focus{opacity:1;outline:none;stroke-width:var(--cfx-interactive-focus-stroke-width,2.2)}</style>
<filter id="cfxe553b2b6-softShadow" x="-20%" y="-20%" width="140%" height="140%"><feDropShadow dx="0" dy="4" stdDeviation="6" flood-color="#0F172A" flood-opacity="0.044"/><feDropShadow dx="0" dy="14" stdDeviation="18" flood-color="#0F172A" flood-opacity="0.1"/></filter>
<linearGradient id="cfxe553b2b6-cardSurface" x1="0" x2="0" y1="0" y2="1"><stop offset="0%" stop-color="#FFFFFF" stop-opacity="1"/><stop offset="100%" stop-color="#F7F7F8" stop-opacity="1"/></linearGradient>
<linearGradient id="cfxe553b2b6-plotSurface" x1="0" x2="0" y1="0" y2="1"><stop offset="0%" stop-color="#F9FBFD" stop-opacity="1"/><stop offset="100%" stop-color="#F0F2F5" stop-opacity="1"/></linearGradient>
<clipPath id="cfxe553b2b6-plotClip"><rect x="42" y="88" width="682" height="330" rx="8"/></clipPath>
<linearGradient id="cfxe553b2b6-area0" x1="0" x2="0" y1="0" y2="1"><stop offset="0%" stop-color="#2563EB" stop-opacity="0.32"/><stop offset="100%" stop-color="#2563EB" stop-opacity="0.02"/></linearGradient>
<linearGradient id="cfxe553b2b6-seriesFill0" x1="0" x2="0" y1="0" y2="1"><stop offset="0%" stop-color="#3F76ED" stop-opacity="1"/><stop offset="100%" stop-color="#235DDD" stop-opacity="0.94"/></linearGradient>
<linearGradient id="cfxe553b2b6-seriesFill0-point0" x1="0" x2="0" y1="0" y2="1"><stop offset="0%" stop-color="#30C1B1" stop-opacity="1"/><stop offset="100%" stop-color="#13AD9C" stop-opacity="0.94"/></linearGradient>
<linearGradient id="cfxe553b2b6-seriesFill0-point1" x1="0" x2="0" y1="0" y2="1"><stop offset="0%" stop-color="#30C1B1" stop-opacity="1"/><stop offset="100%" stop-color="#13AD9C" stop-opacity="0.94"/></linearGradient>
<linearGradient id="cfxe553b2b6-seriesFill0-point2" x1="0" x2="0" y1="0" y2="1"><stop offset="0%" stop-color="#24BFD9" stop-opacity="1"/><stop offset="100%" stop-color="#06ABC7" stop-opacity="0.94"/></linearGradient>
<linearGradient id="cfxe553b2b6-sliceFill0" x1="0" x2="1" y1="0" y2="1"><stop offset="0%" stop-color="#2563EB" stop-opacity="1"/><stop offset="100%" stop-color="#2563EB" stop-opacity="0.78"/></linearGradient>
<linearGradient id="cfxe553b2b6-sliceFill1" x1="0" x2="1" y1="0" y2="1"><stop offset="0%" stop-color="#0EA5E9" stop-opacity="1"/><stop offset="100%" stop-color="#0EA5E9" stop-opacity="0.78"/></linearGradient>
<linearGradient id="cfxe553b2b6-sliceFill2" x1="0" x2="1" y1="0" y2="1"><stop offset="0%" stop-color="#10B981" stop-opacity="1"/><stop offset="100%" stop-color="#10B981" stop-opacity="0.78"/></linearGradient>
<linearGradient id="cfxe553b2b6-sliceFill3" x1="0" x2="1" y1="0" y2="1"><stop offset="0%" stop-color="#F59E0B" stop-opacity="1"/><stop offset="100%" stop-color="#F59E0B" stop-opacity="0.78"/></linearGradient>
<linearGradient id="cfxe553b2b6-sliceFill4" x1="0" x2="1" y1="0" y2="1"><stop offset="0%" stop-color="#EF4444" stop-opacity="1"/><stop offset="100%" stop-color="#EF4444" stop-opacity="0.78"/></linearGradient>
<linearGradient id="cfxe553b2b6-sliceFill5" x1="0" x2="1" y1="0" y2="1"><stop offset="0%" stop-color="#8B5CF6" stop-opacity="1"/><stop offset="100%" stop-color="#8B5CF6" stop-opacity="0.78"/></linearGradient>
<linearGradient id="cfxe553b2b6-sliceFill6" x1="0" x2="1" y1="0" y2="1"><stop offset="0%" stop-color="#EC4899" stop-opacity="1"/><stop offset="100%" stop-color="#EC4899" stop-opacity="0.78"/></linearGradient>
<linearGradient id="cfxe553b2b6-sliceFill7" x1="0" x2="1" y1="0" y2="1"><stop offset="0%" stop-color="#14B8A6" stop-opacity="1"/><stop offset="100%" stop-color="#14B8A6" stop-opacity="0.78"/></linearGradient>
</defs>
<g id="cfxe553b2b6">
<rect data-cfx-role="card-surface" x="14" y="14" width="732" height="432" rx="12" fill="url(#cfxe553b2b6-cardSurface)" filter="url(#cfxe553b2b6-softShadow)"/>
<rect data-cfx-role="card-border" class="cfx-crisp-stroke" x="14.5" y="14.5" width="731" height="431" rx="11.5" fill="none" stroke="rgba(148,163,184,0.361)"/>
<rect data-cfx-role="card-inner-highlight" class="cfx-crisp-stroke" x="15.5" y="15.5" width="729" height="429" rx="10.5" fill="none" stroke="#FFFFFF" stroke-opacity="0.42"/>
<rect x="42" y="88" width="682" height="330" rx="8" fill="url(#cfxe553b2b6-plotSurface)"/>
<rect class="cfx-crisp-stroke" x="42.5" y="88.5" width="681" height="329" rx="7.5" fill="none" stroke="rgba(148,163,184,0.188)"/>
<rect data-cfx-role="plot-inner-highlight" class="cfx-crisp-stroke" x="43" y="89" width="680" height="328" rx="7" fill="none" stroke="#FFFFFF" stroke-opacity="0.32"/>
<text data-cfx-role="chart-title" x="40" y="52" fill="#0F172A" font-family="-apple-system, BlinkMacSystemFont, 'Segoe UI', Roboto, Helvetica, Arial, sans-serif" font-size="25" font-weight="750">Africa Route Map</text>
<text data-cfx-role="chart-subtitle" x="40" y="79" fill="#64748B" font-family="-apple-system, BlinkMacSystemFont, 'Segoe UI', Roboto, Helvetica, Arial, sans-serif" font-size="12.5" font-weight="400">Africa dotted viewport with route connectors</text>
<g data-cfx-role="dotted-map" data-cfx-map-kind="world-dotted" data-cfx-label="Cities" data-cfx-projection="equirectangular" data-cfx-point-count="3" data-cfx-visible-point-count="3" data-cfx-connector-count="1" data-cfx-viewport="Africa" data-cfx-viewport-min-longitude="-20" data-cfx-viewport-max-longitude="55" data-cfx-viewport-min-latitude="-36" data-cfx-viewport-max-latitude="38" data-cfx-min-longitude="3.379" data-cfx-max-longitude="31.236" data-cfx-min-latitude="-33.925" data-cfx-max-latitude="30.044" role="group" aria-label="Cities dotted map with 3 highlighted points">
<g data-cfx-role="dotted-map-base-layer" clip-path="url(#cfxe553b2b6-plotClip)">
<rect data-cfx-role="dotted-map-surface" x="204.118" y="76.24" width="357.763" height="353.52" rx="16.64" fill="rgba(236,240,244,0.914)" fill-opacity="0.16" stroke="rgba(148,163,184,0.188)" stroke-opacity="0.16"/>
<line data-cfx-role="dotted-map-graticule" data-cfx-axis="longitude" data-cfx-longitude="-1.25" x1="303.439" y1="96" x2="303.439" y2="410" stroke="rgba(148,163,184,0.275)" stroke-width="0.8" stroke-opacity="0.22"/>
<line data-cfx-role="dotted-map-graticule" data-cfx-axis="longitude" data-cfx-longitude="17.5" x1="383" y1="96" x2="383" y2="410" stroke="rgba(148,163,184,0.275)" stroke-width="0.8" stroke-opacity="0.22"/>
<line data-cfx-role="dotted-map-graticule" data-cfx-axis="longitude" data-cfx-longitude="36.25" x1="462.561" y1="96" x2="462.561" y2="410" stroke="rgba(148,163,184,0.275)" stroke-width="0.8" stroke-opacity="0.22"/>
<line data-cfx-role="dotted-map-graticule" data-cfx-axis="latitude" data-cfx-latitude="-11.333" x1="223.878" y1="305.333" x2="542.122" y2="305.333" stroke="rgba(148,163,184,0.275)" stroke-width="0.8" stroke-opacity="0.18"/>
<line data-cfx-role="dotted-map-graticule" data-cfx-axis="latitude" data-cfx-latitude="13.333" x1="223.878" y1="200.667" x2="542.122" y2="200.667" stroke="rgba(148,163,184,0.275)" stroke-width="0.8" stroke-opacity="0.18"/>
<path data-cfx-role="dotted-map-land-area" data-cfx-viewport="Africa" data-cfx-boundary="0" d="M 433.24 276.338 L 434.428 284.909 L 439.181 292.632 L 430.652 293.438 L 429.124 307.271 L 434.428 308.926 L 434.768 313.509 L 431.5 313.466 L 423.99 306.507 L 421.401 307.823 L 411.684 303.707 L 402.774 304.258 L 400.949 288.176 L 393.99 286.691 L 389.45 291.147 L 382.873 291.486 L 378.035 282.194 L 360.426 281.812 L 366.451 276.338 L 370.61 278.332 L 376.678 272.264 L 378.375 264.626 L 383.594 259.025 L 387.413 239.422 L 391.359 235.9 L 403.834 240.143 L 405.659 237.258 L 417.582 234.924 L 424.881 235.051 L 429.379 239.04 L 434.852 237.724 L 439.562 242.349 L 439.308 247.314 L 441.005 247.908 L 435.531 254.697 L 431.882 269.294 L 433.24 276.338 Z" fill="#D4DAE1" fill-opacity="0.92"/>
<path data-cfx-role="dotted-map-land-area" data-cfx-viewport="Africa" data-cfx-boundary="1" d="M 413 222.321 L 408.29 219.266 L 408.672 214.429 L 403.325 203.566 L 401.84 203.821 L 406.423 190.709 L 410.114 191.006 L 409.945 172.378 L 414.824 172.378 L 414.824 163.892 L 465.192 163.892 L 467.78 178.276 L 471.726 180.865 L 465.107 185.278 L 462.646 199.705 L 454.117 212.138 L 452.886 220.412 L 449.661 205.561 L 447.667 205.264 L 444.824 206.452 L 446.224 210.228 L 441.769 215.617 L 436.041 213.58 L 431.67 217.357 L 422.25 217.06 L 418.176 213.071 L 415.121 213.665 L 412.872 219.394 L 410.114 220.666 L 413 222.321 Z" fill="#D4DAE1" fill-opacity="0.92"/>
<path data-cfx-role="dotted-map-land-area" data-cfx-viewport="Africa" data-cfx-boundary="2" d="M 371.755 160.243 L 372.816 166.82 L 376.211 170.724 L 373.453 186.678 L 368.021 190.709 L 366.197 196.268 L 367.936 200.596 L 370.695 200.681 L 368.912 204.288 L 364.245 199.535 L 360.935 201.911 L 355.376 200.426 L 346.975 202.802 L 341.841 200.638 L 337.682 201.572 L 331.826 198.389 L 326.183 199.832 L 324.061 207.767 L 320.836 205.306 L 317.866 206.579 L 317.994 203.651 L 313.071 202.718 L 310.313 193.892 L 324.189 191.176 L 326.862 185.745 L 326.862 175.943 L 359.662 157.654 L 368.743 161.813 L 371.755 160.243 Z" fill="#D4DAE1" fill-opacity="0.92"/>
<path data-cfx-role="dotted-map-land-area" data-cfx-viewport="Africa" data-cfx-boundary="3" d="M 378.078 378.515 L 380.115 376.394 L 387.074 380.509 L 393.141 378.006 L 393.184 362.348 L 397.385 371.089 L 400.44 370.665 L 407.653 364.47 L 417.625 365.404 L 423.82 357.256 L 433.622 350.976 L 441.09 351.655 L 444.23 360.651 L 443.848 366.889 L 440.454 366.422 L 438.968 370.708 L 441.472 373.041 L 448.049 370.708 L 445.376 379.236 L 428.488 396.294 L 418.134 401.259 L 404.513 400.919 L 393.905 404.908 L 386.734 402.108 L 384.825 395.615 L 386.055 391.584 L 378.078 378.515 Z" fill="#D4DAE1" fill-opacity="0.92"/>
<path data-cfx-role="dotted-map-land-area" data-cfx-viewport="Africa" data-cfx-boundary="4" d="M 455.39 306.125 L 467.738 306.338 L 479.831 301.034 L 481.783 319.576 L 476.139 328.19 L 467.483 331.882 L 456.366 341.175 L 459.633 350.976 L 459.209 359.59 L 448.813 364.852 L 446.946 366.422 L 448.049 370.708 L 444.824 370.665 L 441.09 351.655 L 447.328 343.381 L 448.134 328.148 L 437.483 324.626 L 436.804 320.043 L 449.661 316.521 L 454.965 319.237 L 454.626 325.899 L 457.384 328.53 L 460.524 324.711 L 460.185 319.237 L 455.39 314.866 L 455.39 306.125 Z" fill="#D4DAE1" fill-opacity="0.92"/>
<path data-cfx-role="dotted-map-land-area" data-cfx-viewport="Africa" data-cfx-boundary="5" d="M 409.902 174.161 L 410.114 191.006 L 406.423 190.709 L 401.84 203.821 L 403.325 203.566 L 405.744 209.974 L 400.906 212.392 L 397.851 217.017 L 388.559 219.139 L 384.952 223.764 L 373.58 225.758 L 372.307 219.903 L 367.936 216.72 L 368.87 214.726 L 374.386 214.896 L 370.695 200.681 L 367.936 200.596 L 366.197 196.268 L 368.021 190.709 L 373.453 186.678 L 376.211 170.724 L 372.816 166.82 L 371.755 160.243 L 376.041 157.909 L 409.902 174.161 Z" fill="#D4DAE1" fill-opacity="0.92"/>
<path data-cfx-role="dotted-map-land-area" data-cfx-viewport="Africa" data-cfx-boundary="6" d="M 439.181 292.632 L 449.746 298.318 L 450.086 310.029 L 447.455 315.418 L 449.661 316.521 L 436.804 320.043 L 437.186 323.056 L 431.585 325.305 L 423.481 333.367 L 413.466 330.864 L 407.271 331.585 L 401.628 325.475 L 401.798 311.981 L 410.666 312.024 L 410.199 303.622 L 418.007 307.229 L 423.99 306.507 L 431.5 313.466 L 434.768 313.509 L 434.428 308.926 L 429.124 307.271 L 429.464 296.111 L 431.797 292.929 L 439.181 292.632 Z" fill="#D4DAE1" fill-opacity="0.92"/>
<path data-cfx-role="dotted-map-land-area" data-cfx-viewport="Africa" data-cfx-boundary="7" d="M 271.912 140.978 L 271.954 134.868 L 286.509 129.946 L 293.086 126.127 L 293.255 122.987 L 303.185 120.356 L 299.535 108.008 L 303.609 105.717 L 314.981 101.898 L 344.471 100.455 L 343.283 110.172 L 340.652 112.549 L 341.034 115.774 L 347.187 121.035 L 350.369 132.407 L 349.988 144.755 L 348.29 146.537 L 352.449 153.793 L 354.443 153.029 L 359.662 157.654 L 332.845 174.076 L 322.152 176.367 L 322.109 173.694 L 271.912 140.978 Z" fill="#D4DAE1" fill-opacity="0.92"/>
<path data-cfx-role="dotted-map-land-area" data-cfx-viewport="Africa" data-cfx-boundary="8" d="M 414.824 163.892 L 414.824 172.378 L 409.945 172.378 L 409.902 174.161 L 376.041 157.909 L 368.743 161.813 L 354.443 153.029 L 352.449 153.793 L 348.29 146.537 L 349.988 144.755 L 348.969 128.631 L 351.048 127.655 L 350.964 124.09 L 357.244 119.889 L 357.498 116.622 L 373.453 120.314 L 375.405 124.09 L 389.747 128.8 L 393.82 125.745 L 392.844 122.52 L 397.215 118.447 L 405.914 118.744 L 414.485 121.884 L 414.824 163.892 Z" fill="#D4DAE1" fill-opacity="0.92"/>
<path data-cfx-role="dotted-map-land-area" data-cfx-viewport="Africa" data-cfx-boundary="9" d="M 511.528 223.297 L 499.519 236.027 L 494.003 236.197 L 486.365 240.61 L 481.74 239.167 L 476.606 242.731 L 462.179 238.361 L 456.026 229.28 L 448.558 224.231 L 452.292 221.685 L 454.117 212.138 L 460.906 203.863 L 463.325 196.056 L 468.247 196.947 L 469.605 193.764 L 478.6 195.631 L 485.262 200.172 L 488.445 204.033 L 485.941 210.355 L 490.269 210.865 L 489.336 212.392 L 494.088 218.29 L 511.528 223.297 Z" fill="#D4DAE1" fill-opacity="0.92"/>
<path data-cfx-role="dotted-map-land-area" data-cfx-viewport="Africa" data-cfx-boundary="10" d="M 387.031 242.392 L 383.594 259.025 L 378.375 264.626 L 376.678 272.264 L 370.61 278.332 L 368.743 276.38 L 365.009 277.95 L 362.293 276.083 L 359.28 278.629 L 355.801 274.131 L 359.068 271.798 L 357.456 268.997 L 362.123 265.518 L 368.106 267.724 L 369.973 262.887 L 367.47 257.074 L 369.337 252.151 L 365.094 251.685 L 364.245 247.611 L 376.381 249.902 L 381.43 241.416 L 387.031 242.392 Z" fill="#D4DAE1" fill-opacity="0.92"/>
<path data-cfx-role="dotted-map-land-area" data-cfx-viewport="Africa" data-cfx-boundary="11" d="M 361.02 283.127 L 378.035 282.194 L 382.873 291.486 L 389.45 291.147 L 393.99 286.691 L 400.949 288.176 L 402.774 304.258 L 408.29 303.367 L 410.666 304.937 L 410.666 312.024 L 401.798 311.981 L 401.628 325.475 L 407.271 331.585 L 399.464 333.325 L 389.195 332.731 L 386.225 330.694 L 368.403 331.161 L 365.857 329.251 L 358.516 330.651 L 360.426 318.558 L 367.045 305.192 L 361.02 283.127 Z" fill="#D4DAE1" fill-opacity="0.92"/>
<path data-cfx-role="dotted-map-land-area" data-cfx-viewport="Africa" data-cfx-boundary="12" d="M 393.184 362.348 L 393.141 378.006 L 387.074 380.509 L 380.115 376.394 L 378.078 378.515 L 373.283 372.193 L 369.252 351.061 L 358.516 330.651 L 365.857 329.251 L 368.403 331.161 L 386.225 330.694 L 389.195 332.731 L 399.464 333.325 L 410.708 330.651 L 415.164 331.839 L 408.799 334.81 L 407.186 333.07 L 397.469 334.682 L 397.342 349.788 L 393.184 349.958 L 393.184 362.348 Z" fill="#D4DAE1" fill-opacity="0.92"/>
<path data-cfx-role="dotted-map-land-area" data-cfx-viewport="Africa" data-cfx-boundary="13" d="M 320.158 230.681 L 320.285 221.133 L 324.486 214.556 L 324.358 203.991 L 327.286 198.899 L 331.826 198.389 L 337.682 201.572 L 341.841 200.638 L 346.975 202.802 L 355.376 200.426 L 360.935 201.911 L 364.245 199.535 L 370.61 205.942 L 358.601 227.625 L 355.674 229.068 L 351.685 227.371 L 347.908 229.917 L 344.811 237.003 L 333.778 239.167 L 327.116 230.638 L 320.158 230.681 Z" fill="#D4DAE1" fill-opacity="0.92"/>
<path data-cfx-role="dotted-map-land-area" data-cfx-viewport="Africa" data-cfx-boundary="14" d="M 370.27 202.675 L 374.386 214.896 L 368.87 214.726 L 367.936 216.72 L 372.307 219.903 L 374.259 224.613 L 370.44 230.808 L 370.185 237.173 L 376.041 244.471 L 376.381 249.902 L 369.591 247.781 L 349.691 247.569 L 350.327 244.216 L 344.768 238.149 L 345.914 233.99 L 351.685 227.371 L 355.674 229.068 L 358.601 227.625 L 366.324 211.416 L 369.931 208.149 L 370.27 202.675 Z" fill="#D4DAE1" fill-opacity="0.92"/>
<path data-cfx-role="dotted-map-land-area" data-cfx-viewport="Africa" data-cfx-boundary="15" d="M 299.535 108.008 L 303.185 120.356 L 293.255 122.987 L 293.086 126.127 L 286.509 129.946 L 271.954 134.868 L 271.445 142.166 L 260.413 143.185 L 255.703 152.138 L 249.805 156.721 L 246.155 166.014 L 236.523 166.353 L 247.471 145.858 L 255.194 138.263 L 259.14 137.796 L 268.178 130.243 L 267.117 124.939 L 271.997 116.198 L 279.422 112.506 L 283.581 105.505 L 299.535 108.008 Z" fill="#D4DAE1" fill-opacity="0.92"/>
<path data-cfx-role="dotted-map-land-area" data-cfx-viewport="Africa" data-cfx-boundary="16" d="M 439.562 242.349 L 434.852 237.724 L 427.469 238.531 L 415.291 224.019 L 410.114 220.666 L 412.872 219.394 L 415.121 213.665 L 418.176 213.071 L 422.25 217.06 L 431.67 217.357 L 436.041 213.58 L 441.769 215.617 L 446.224 210.228 L 444.824 206.452 L 449.661 205.561 L 452.886 220.412 L 448.558 224.231 L 453.353 226.565 L 458.53 233.863 L 450.425 241.161 L 439.562 242.349 Z" fill="#D4DAE1" fill-opacity="0.92"/>
<path data-cfx-role="dotted-map-land-area" data-cfx-viewport="Africa" data-cfx-boundary="17" d="M 259.904 204.457 L 257.103 195.207 L 259.225 191.94 L 285.236 191.473 L 281.374 151.332 L 287.866 151.289 L 322.109 173.694 L 322.152 176.367 L 326.862 175.943 L 326.862 185.745 L 324.189 191.176 L 304.203 193.722 L 295.589 199.79 L 291.728 200.087 L 286.594 207.555 L 285.83 213.241 L 274.67 213.92 L 270.002 205.009 L 265.589 207.003 L 259.904 204.457 Z" fill="#D4DAE1" fill-opacity="0.92"/>
<path data-cfx-role="dotted-map-land-area" data-cfx-viewport="Africa" data-cfx-boundary="18" d="M 424.881 235.051 L 412.321 235.56 L 405.659 237.258 L 403.834 240.143 L 391.359 235.9 L 387.031 242.392 L 381.43 241.416 L 376.678 247.611 L 370.101 234.118 L 373.58 225.758 L 384.952 223.764 L 388.559 219.139 L 397.851 217.017 L 400.906 212.392 L 405.744 209.974 L 408.672 214.429 L 408.29 219.266 L 415.291 224.019 L 424.881 235.051 Z" fill="#D4DAE1" fill-opacity="0.92"/>
<path data-cfx-role="dotted-map-land-area" data-cfx-viewport="Africa" data-cfx-boundary="19" d="M 452.589 261.274 L 468.714 270.397 L 469.011 272.858 L 475.078 277.102 L 473.126 282.321 L 476.097 286.267 L 475.036 293.268 L 479.831 301.034 L 476.436 303.495 L 463.664 306.974 L 455.39 306.125 L 451.91 297.215 L 439.181 292.632 L 434.428 284.909 L 433.24 276.338 L 439.223 271.501 L 437.823 262.038 L 452.589 261.274 Z" fill="#D4DAE1" fill-opacity="0.92"/>
<path data-cfx-role="dotted-map-land-area" data-cfx-viewport="Africa" data-cfx-boundary="20" d="M 475.078 277.102 L 469.011 272.858 L 468.714 270.397 L 452.589 261.274 L 452.547 256.776 L 457.426 249.139 L 453.056 239.209 L 458.53 233.863 L 462.179 238.361 L 470.496 241.968 L 476.606 242.731 L 481.74 239.167 L 486.365 240.61 L 482.631 245.447 L 482.674 260.892 L 485.22 264.372 L 479.576 268.148 L 475.078 277.102 Z" fill="#D4DAE1" fill-opacity="0.92"/>
<path data-cfx-role="dotted-map-land-area" data-cfx-viewport="Africa" data-cfx-boundary="21" d="M 518.954 310.156 L 522.518 323.905 L 519.505 323.905 L 519.929 328.869 L 508.6 363.07 L 501.429 365.87 L 495.616 363.282 L 492.688 353.904 L 493.027 347.794 L 497.398 339.732 L 495.276 331.118 L 497.355 326.069 L 505.248 324.202 L 511.188 319.152 L 511.867 315.206 L 513.649 315.715 L 517.468 308.332 L 518.954 310.156 Z" fill="#D4DAE1" fill-opacity="0.92"/>
<path data-cfx-role="dotted-map-land-area" data-cfx-viewport="Africa" data-cfx-boundary="22" d="M 348.969 128.631 L 347.187 121.035 L 341.034 115.774 L 340.652 112.549 L 343.283 110.172 L 344.471 100.455 L 349.096 98.758 L 352.067 99.267 L 351.939 101.431 L 355.546 99.861 L 353.722 102.747 L 354.613 109.451 L 351.812 111.573 L 357.498 116.622 L 357.244 119.889 L 350.964 124.09 L 351.048 127.655 L 348.969 128.631 Z" fill="#D4DAE1" fill-opacity="0.92"/>
<path data-cfx-role="dotted-map-land-area" data-cfx-viewport="Africa" data-cfx-boundary="23" d="M 475.078 120.781 L 473.339 115.604 L 482.759 111.191 L 483.947 102.959 L 490.269 98.588 L 498.713 99.522 L 504.272 105.844 L 501.471 113.1 L 504.399 117.131 L 509.576 119.465 L 511.782 122.69 L 511.104 125.788 L 514.838 130.243 L 509.449 129.691 L 506.351 133.765 L 498.459 133.425 L 486.493 124.896 L 475.078 120.781 Z" fill="#D4DAE1" fill-opacity="0.92"/>
<path data-cfx-role="dotted-map-land-area" data-cfx-viewport="Africa" data-cfx-boundary="24" d="M 433.622 350.976 L 423.82 357.256 L 417.625 365.404 L 407.653 364.47 L 400.44 370.665 L 397.385 371.089 L 393.184 362.348 L 393.184 349.958 L 397.342 349.788 L 397.469 334.682 L 407.186 333.07 L 408.799 334.81 L 415.928 332.518 L 419.746 339.095 L 426.366 344.23 L 427.639 348.431 L 433.622 350.976 Z" fill="#D4DAE1" fill-opacity="0.92"/>
<path data-cfx-role="dotted-map-land-area" data-cfx-viewport="Africa" data-cfx-boundary="25" d="M 236.354 168.135 L 253.878 166.735 L 253.072 160.625 L 254.133 158.461 L 258.079 158.079 L 257.952 147.216 L 271.869 147.428 L 271.912 140.978 L 287.866 151.289 L 281.374 151.332 L 285.236 191.473 L 259.225 191.94 L 257.103 195.207 L 246.877 186.805 L 238.899 188.757 L 239.663 171.996 L 236.354 168.135 Z" fill="#D4DAE1" fill-opacity="0.92"/>
<path data-cfx-role="dotted-map-land-area" data-cfx-viewport="Africa" data-cfx-boundary="26" d="M 250.611 203.821 L 265.589 207.003 L 270.002 205.009 L 274.67 213.92 L 273.482 215.702 L 275.519 220.836 L 273.609 224.613 L 269.663 226.225 L 267.329 221.006 L 264.147 221.812 L 261.558 214.599 L 256 215.49 L 252.52 219.478 L 244.543 210.398 L 250.441 207.131 L 250.611 203.821 Z" fill="#D4DAE1" fill-opacity="0.92"/>
<path data-cfx-role="dotted-map-land-area" data-cfx-viewport="Africa" data-cfx-boundary="27" d="M 271.954 139.875 L 271.869 147.428 L 257.952 147.216 L 258.079 158.079 L 254.133 158.461 L 253.072 160.625 L 253.878 166.735 L 236.354 168.135 L 236.523 166.353 L 246.155 166.014 L 249.805 156.721 L 255.703 152.138 L 260.413 143.185 L 271.445 142.166 L 271.954 139.875 Z" fill="#D4DAE1" fill-opacity="0.92"/>
<path data-cfx-role="dotted-map-land-area" data-cfx-viewport="Africa" data-cfx-boundary="28" d="M 274.67 213.92 L 282.393 212.604 L 290.37 216.466 L 296.735 216.338 L 297.881 222.364 L 294.995 230.723 L 296.608 236.069 L 289.012 235.306 L 276.028 238.743 L 276.622 233.014 L 272.251 229.789 L 273.524 221.939 L 275.519 220.836 L 273.482 215.702 L 274.67 213.92 Z" fill="#D4DAE1" fill-opacity="0.92"/>
<path data-cfx-role="dotted-map-land-area" data-cfx-viewport="Africa" data-cfx-boundary="29" d="M 356.607 247.654 L 363.693 247.399 L 365.094 251.685 L 369.337 252.151 L 367.47 257.074 L 369.973 262.887 L 368.106 267.724 L 362.123 265.518 L 357.456 268.997 L 359.068 271.798 L 355.801 274.131 L 346.084 261.953 L 349.012 252.958 L 356.649 252.745 L 356.607 247.654 Z" fill="#D4DAE1" fill-opacity="0.92"/>
<path data-cfx-role="dotted-map-land-area" data-cfx-viewport="Africa" data-cfx-boundary="30" d="M 465.192 163.892 L 414.824 163.892 L 413.551 129.776 L 415.503 123.284 L 431.415 126.254 L 440.199 123.326 L 444.357 126 L 454.159 124.769 L 456.917 132.068 L 453.65 139.196 L 449.364 136.65 L 445.885 130.964 L 460.185 155.702 L 459.506 159.224 L 465.192 163.892 Z" fill="#D4DAE1" fill-opacity="0.92"/>
<path data-cfx-role="dotted-map-land-area" data-cfx-viewport="Africa" data-cfx-boundary="31" d="M 285.83 213.241 L 286.594 207.555 L 290.582 201.105 L 304.203 193.722 L 310.313 193.892 L 313.071 202.718 L 317.994 203.651 L 317.866 206.579 L 314.005 210.101 L 296.268 210.737 L 296.735 216.338 L 290.37 216.466 L 285.83 213.241 Z" fill="#D4DAE1" fill-opacity="0.92"/>
<path data-cfx-role="dotted-map-land-area" data-cfx-viewport="Africa" data-cfx-boundary="32" d="M 447.752 296.408 L 451.91 297.215 L 454.202 300.355 L 455.39 314.866 L 460.185 319.237 L 460.524 324.711 L 457.384 328.53 L 454.626 325.899 L 454.965 319.237 L 447.455 315.418 L 450.849 301.925 L 447.752 296.408 Z" fill="#D4DAE1" fill-opacity="0.92"/>
<path data-cfx-role="dotted-map-land-area" data-cfx-viewport="Africa" data-cfx-boundary="35" d="M 452.589 261.274 L 434.258 262.929 L 435.531 254.697 L 441.005 247.908 L 439.308 247.314 L 441.345 241.204 L 450.425 241.161 L 453.056 239.209 L 455.05 242.137 L 457.426 249.139 L 452.547 256.776 L 452.589 261.274 Z" fill="#D4DAE1" fill-opacity="0.92"/>
<path data-cfx-role="dotted-map-land-area" data-cfx-viewport="Africa" data-cfx-boundary="36" d="M 485.22 264.372 L 482.674 260.892 L 482.631 245.447 L 487.511 239.294 L 499.519 236.027 L 516.408 217.145 L 516.45 208.828 L 525.615 206.239 L 523.239 218.205 L 514.922 234.584 L 485.22 264.372 Z" fill="#D4DAE1" fill-opacity="0.92"/>
<path data-cfx-role="dotted-map-land-area" data-cfx-viewport="Africa" data-cfx-boundary="37" d="M 441.09 351.655 L 427.639 348.431 L 426.366 344.23 L 419.746 339.095 L 415.928 332.518 L 423.481 333.367 L 431.585 325.305 L 437.186 323.056 L 448.134 328.148 L 447.328 343.381 L 441.09 351.655 Z" fill="#D4DAE1" fill-opacity="0.92"/>
<path data-cfx-role="dotted-map-land-area" data-cfx-viewport="Africa" data-cfx-boundary="38" d="M 237.839 199.578 L 233.935 194.74 L 240.342 187.399 L 246.877 186.805 L 257.103 195.207 L 259.904 204.457 L 237.966 204.712 L 237.287 201.445 L 250.017 199.917 L 244.755 198.347 L 237.839 199.578 Z" fill="#D4DAE1" fill-opacity="0.92"/>
<path data-cfx-role="dotted-map-land-area" data-cfx-viewport="Africa" data-cfx-boundary="40" d="M 529.392 176.622 L 534.102 186.593 L 531.047 187.739 L 530.113 191.049 L 499.647 203.354 L 493.239 203.609 L 489.505 192.704 L 492.815 182.647 L 508.176 185.32 L 517.171 178.234 L 529.392 176.622 Z" fill="#D4DAE1" fill-opacity="0.92"/>
<path data-cfx-role="dotted-map-land-area" data-cfx-viewport="Africa" data-cfx-boundary="41" d="M 320.158 230.681 L 316.678 231.19 L 315.787 218.502 L 312.011 212.816 L 314.896 208.234 L 320.836 205.306 L 324.061 207.767 L 324.868 211.713 L 320.285 221.133 L 320.158 230.681 Z" fill="#D4DAE1" fill-opacity="0.92"/>
<path data-cfx-role="dotted-map-land-area" data-cfx-viewport="Africa" data-cfx-boundary="42" d="M 459.591 119.805 L 460.312 118.447 L 465.022 120.144 L 473.339 115.604 L 475.078 120.781 L 465.743 123.539 L 469.986 127.782 L 461.797 133.341 L 456.917 132.068 L 459.591 119.805 Z" fill="#D4DAE1" fill-opacity="0.92"/>
<path data-cfx-role="dotted-map-land-area" data-cfx-viewport="Africa" data-cfx-boundary="43" d="M 463.325 196.056 L 465.107 185.278 L 471.726 180.865 L 475.375 189.691 L 491.542 203.354 L 488.445 204.033 L 478.6 195.631 L 469.605 193.764 L 468.247 196.947 L 463.325 196.056 Z" fill="#D4DAE1" fill-opacity="0.92"/>
<path data-cfx-role="dotted-map-land-area" data-cfx-viewport="Africa" data-cfx-boundary="44" d="M 272.93 224.613 L 272.251 229.789 L 276.622 233.014 L 276.028 238.743 L 260.201 228.432 L 265.335 221.558 L 267.329 221.006 L 269.663 226.225 L 272.93 224.613 Z" fill="#D4DAE1" fill-opacity="0.92"/>
<path data-cfx-role="dotted-map-land-area" data-cfx-viewport="Africa" data-cfx-boundary="46" d="M 460.312 118.447 L 464.088 112.124 L 461.118 106.99 L 464.64 101.007 L 488.445 99.267 L 483.947 102.959 L 482.759 111.191 L 465.022 120.144 L 460.312 118.447 Z" fill="#D4DAE1" fill-opacity="0.92"/>
<path data-cfx-role="dotted-map-land-area" data-cfx-viewport="Africa" data-cfx-boundary="47" d="M 308.828 210.483 L 313.241 232.081 L 300.426 237.258 L 296.608 236.069 L 294.995 230.723 L 297.881 222.364 L 296.268 210.737 L 308.828 210.483 Z" fill="#D4DAE1" fill-opacity="0.92"/>
<path data-cfx-role="dotted-map-land-area" data-cfx-viewport="Africa" data-cfx-boundary="48" d="M 460.312 118.447 L 457.129 122.011 L 459.039 125.278 L 456.917 132.068 L 454.159 124.769 L 457.681 116.877 L 460.736 116.028 L 460.312 118.447 Z" fill="#D4DAE1" fill-opacity="0.92"/>
<path data-cfx-role="dotted-map-land-area" data-cfx-viewport="Africa" data-cfx-boundary="49" d="M 516.45 208.828 L 516.408 217.145 L 511.528 223.297 L 494.088 218.29 L 489.336 212.392 L 491.839 208.616 L 498.034 212.944 L 516.45 208.828 Z" fill="#D4DAE1" fill-opacity="0.92"/>
<path data-cfx-role="dotted-map-land-area" data-cfx-viewport="Africa" data-cfx-boundary="50" d="M 252.52 219.478 L 256 215.49 L 261.558 214.599 L 265.335 221.558 L 260.201 228.432 L 253.793 224.146 L 252.52 219.478 Z" fill="#D4DAE1" fill-opacity="0.92"/>
<path data-cfx-role="dotted-map-land-area" data-cfx-viewport="Africa" data-cfx-boundary="52" d="M 488.445 204.033 L 492.561 204.669 L 490.015 207.428 L 491.839 208.616 L 490.269 210.865 L 485.941 210.355 L 488.445 204.033 Z" fill="#D4DAE1" fill-opacity="0.92"/>
<path data-cfx-role="dotted-map-land-area" data-cfx-viewport="Africa" data-cfx-boundary="53" d="M 431.712 380.128 L 427.851 379.661 L 423.311 384.031 L 428.021 386.874 L 433.198 381.401 L 431.712 380.128 Z" fill="#D4DAE1" fill-opacity="0.92"/>
<path data-cfx-role="dotted-map-land-area" data-cfx-viewport="Africa" data-cfx-boundary="54" d="M 431.712 380.128 L 433.198 381.401 L 428.021 386.874 L 423.311 384.031 L 427.851 379.661 L 431.712 380.128 Z" fill="#D4DAE1" fill-opacity="0.92"/>
<path data-cfx-role="dotted-map-land-area" data-cfx-viewport="Africa" data-cfx-boundary="55" d="M 312.562 210.568 L 315.787 218.502 L 316.678 231.19 L 313.241 232.081 L 308.531 211.798 L 312.562 210.568 Z" fill="#D4DAE1" fill-opacity="0.92"/>
<path data-cfx-role="dotted-map-land-area" data-cfx-viewport="Africa" data-cfx-boundary="56" d="M 444.824 370.665 L 441.472 373.041 L 438.968 370.708 L 440.454 366.422 L 443.848 366.889 L 444.824 370.665 Z" fill="#D4DAE1" fill-opacity="0.92"/>
<path data-cfx-role="dotted-map-land-area" data-cfx-viewport="Africa" data-cfx-boundary="57" d="M 237.966 204.712 L 250.611 203.821 L 250.441 207.131 L 244.543 210.398 L 237.966 204.712 Z" fill="#D4DAE1" fill-opacity="0.92"/>
<path data-cfx-role="dotted-map-land-area" data-cfx-viewport="Africa" data-cfx-boundary="58" d="M 349.691 247.569 L 356.607 247.654 L 356.649 252.745 L 349.012 252.958 L 349.691 247.569 Z" fill="#D4DAE1" fill-opacity="0.92"/>
<path data-cfx-role="dotted-map-land-area" data-cfx-viewport="Africa" data-cfx-boundary="59" d="M 363.905 277.526 L 360.426 281.812 L 359.28 278.629 L 362.293 276.083 L 363.905 277.526 Z" fill="#D4DAE1" fill-opacity="0.92"/>
<path data-cfx-role="dotted-map-land-area" data-cfx-viewport="Africa" data-cfx-boundary="60" d="M 438.035 267.469 L 439.223 271.501 L 433.24 276.338 L 431.882 269.294 L 438.035 267.469 Z" fill="#D4DAE1" fill-opacity="0.92"/>
<path data-cfx-role="dotted-map-land-area" data-cfx-viewport="Africa" data-cfx-boundary="61" d="M 460.736 116.028 L 457.808 116.834 L 461.5 110.257 L 463.409 110.469 L 460.736 116.028 Z" fill="#D4DAE1" fill-opacity="0.92"/>
<path data-cfx-role="dotted-map-land-area" data-cfx-viewport="Africa" data-cfx-boundary="62" d="M 458.954 123.624 L 456.96 124.218 L 458.021 119.211 L 459.591 119.805 L 458.954 123.624 Z" fill="#D4DAE1" fill-opacity="0.92"/>
<path data-cfx-role="dotted-map-land-area" data-cfx-viewport="Africa" data-cfx-boundary="63" d="M 237.839 199.578 L 244.755 198.347 L 250.017 199.917 L 237.287 201.445 L 237.839 199.578 Z" fill="#D4DAE1" fill-opacity="0.92"/>
<path data-cfx-role="dotted-map-land-area" data-cfx-viewport="Africa" data-cfx-boundary="64" d="M 524.342 152.223 L 526.379 146.452 L 527.737 150.229 L 526.804 152.732 L 524.342 152.223 Z" fill="#D4DAE1" fill-opacity="0.92"/>
<path data-cfx-role="dotted-map-land-area" data-cfx-viewport="Africa" data-cfx-boundary="65" d="M 512.292 130.031 L 514.201 136.099 L 506.351 133.765 L 509.449 129.691 L 512.292 130.031 Z" fill="#D4DAE1" fill-opacity="0.92"/>
<path data-cfx-role="dotted-map-land-area" data-cfx-viewport="Africa" data-cfx-boundary="67" d="M 420.298 107.457 L 413.636 109.069 L 408.502 107.542 L 409.308 105.717 L 420.298 107.457 Z" fill="#D4DAE1" fill-opacity="0.92"/>
<path data-cfx-role="dotted-map-land-area" data-cfx-viewport="Africa" data-cfx-boundary="69" d="M 447.625 108.136 L 453.014 108.815 L 448.685 110.554 L 445.63 108.305 L 447.625 108.136 Z" fill="#D4DAE1" fill-opacity="0.92"/>
<path data-cfx-role="dotted-map-land-area" data-cfx-viewport="Africa" data-cfx-boundary="70" d="M 437.823 262.038 L 439.265 266.96 L 431.882 269.294 L 433.028 264.117 L 437.823 262.038 Z" fill="#D4DAE1" fill-opacity="0.92"/>
<path data-cfx-role="dotted-map-land-area" data-cfx-viewport="Africa" data-cfx-boundary="73" d="M 447.625 108.136 L 455.475 105.887 L 452.886 108.475 L 447.625 108.136 Z" fill="#D4DAE1" fill-opacity="0.92"/>
<path data-cfx-role="dotted-map-boundary" data-cfx-viewport="Africa" data-cfx-boundary="0" d="M 433.24 276.338 L 434.428 284.909 L 439.181 292.632 L 430.652 293.438 L 429.124 307.271 L 434.428 308.926 L 434.768 313.509 L 431.5 313.466 L 423.99 306.507 L 421.401 307.823 L 411.684 303.707 L 402.774 304.258 L 400.949 288.176 L 393.99 286.691 L 389.45 291.147 L 382.873 291.486 L 378.035 282.194 L 360.426 281.812 L 366.451 276.338 L 370.61 278.332 L 376.678 272.264 L 378.375 264.626 L 383.594 259.025 L 387.413 239.422 L 391.359 235.9 L 403.834 240.143 L 405.659 237.258 L 417.582 234.924 L 424.881 235.051 L 429.379 239.04 L 434.852 237.724 L 439.562 242.349 L 439.308 247.314 L 441.005 247.908 L 435.531 254.697 L 431.882 269.294 L 433.24 276.338" fill="none" stroke="#939FAF" stroke-width="1.352" stroke-opacity="0.16" stroke-linecap="round" stroke-linejoin="round"/>
<path data-cfx-role="dotted-map-boundary" data-cfx-viewport="Africa" data-cfx-boundary="1" d="M 413 222.321 L 408.29 219.266 L 408.672 214.429 L 403.325 203.566 L 401.84 203.821 L 406.423 190.709 L 410.114 191.006 L 409.945 172.378 L 414.824 172.378 L 414.824 163.892 L 465.192 163.892 L 467.78 178.276 L 471.726 180.865 L 465.107 185.278 L 462.646 199.705 L 454.117 212.138 L 452.886 220.412 L 449.661 205.561 L 447.667 205.264 L 444.824 206.452 L 446.224 210.228 L 441.769 215.617 L 436.041 213.58 L 431.67 217.357 L 422.25 217.06 L 418.176 213.071 L 415.121 213.665 L 412.872 219.394 L 410.114 220.666 L 413 222.321" fill="none" stroke="#939FAF" stroke-width="1.352" stroke-opacity="0.16" stroke-linecap="round" stroke-linejoin="round"/>
<path data-cfx-role="dotted-map-boundary" data-cfx-viewport="Africa" data-cfx-boundary="2" d="M 371.755 160.243 L 372.816 166.82 L 376.211 170.724 L 373.453 186.678 L 368.021 190.709 L 366.197 196.268 L 367.936 200.596 L 370.695 200.681 L 368.912 204.288 L 364.245 199.535 L 360.935 201.911 L 355.376 200.426 L 346.975 202.802 L 341.841 200.638 L 337.682 201.572 L 331.826 198.389 L 326.183 199.832 L 324.061 207.767 L 320.836 205.306 L 317.866 206.579 L 317.994 203.651 L 313.071 202.718 L 310.313 193.892 L 324.189 191.176 L 326.862 185.745 L 326.862 175.943 L 359.662 157.654 L 368.743 161.813 L 371.755 160.243" fill="none" stroke="#939FAF" stroke-width="1.352" stroke-opacity="0.16" stroke-linecap="round" stroke-linejoin="round"/>
<path data-cfx-role="dotted-map-boundary" data-cfx-viewport="Africa" data-cfx-boundary="3" d="M 378.078 378.515 L 380.115 376.394 L 387.074 380.509 L 393.141 378.006 L 393.184 362.348 L 397.385 371.089 L 400.44 370.665 L 407.653 364.47 L 417.625 365.404 L 423.82 357.256 L 433.622 350.976 L 441.09 351.655 L 444.23 360.651 L 443.848 366.889 L 440.454 366.422 L 438.968 370.708 L 441.472 373.041 L 448.049 370.708 L 445.376 379.236 L 428.488 396.294 L 418.134 401.259 L 404.513 400.919 L 393.905 404.908 L 386.734 402.108 L 384.825 395.615 L 386.055 391.584 L 378.078 378.515" fill="none" stroke="#939FAF" stroke-width="1.352" stroke-opacity="0.16" stroke-linecap="round" stroke-linejoin="round"/>
<path data-cfx-role="dotted-map-boundary" data-cfx-viewport="Africa" data-cfx-boundary="4" d="M 455.39 306.125 L 467.738 306.338 L 479.831 301.034 L 481.783 319.576 L 476.139 328.19 L 467.483 331.882 L 456.366 341.175 L 459.633 350.976 L 459.209 359.59 L 448.813 364.852 L 446.946 366.422 L 448.049 370.708 L 444.824 370.665 L 441.09 351.655 L 447.328 343.381 L 448.134 328.148 L 437.483 324.626 L 436.804 320.043 L 449.661 316.521 L 454.965 319.237 L 454.626 325.899 L 457.384 328.53 L 460.524 324.711 L 460.185 319.237 L 455.39 314.866 L 455.39 306.125" fill="none" stroke="#939FAF" stroke-width="1.352" stroke-opacity="0.16" stroke-linecap="round" stroke-linejoin="round"/>
<path data-cfx-role="dotted-map-boundary" data-cfx-viewport="Africa" data-cfx-boundary="5" d="M 409.902 174.161 L 410.114 191.006 L 406.423 190.709 L 401.84 203.821 L 403.325 203.566 L 405.744 209.974 L 400.906 212.392 L 397.851 217.017 L 388.559 219.139 L 384.952 223.764 L 373.58 225.758 L 372.307 219.903 L 367.936 216.72 L 368.87 214.726 L 374.386 214.896 L 370.695 200.681 L 367.936 200.596 L 366.197 196.268 L 368.021 190.709 L 373.453 186.678 L 376.211 170.724 L 372.816 166.82 L 371.755 160.243 L 376.041 157.909 L 409.902 174.161" fill="none" stroke="#939FAF" stroke-width="1.352" stroke-opacity="0.16" stroke-linecap="round" stroke-linejoin="round"/>
<path data-cfx-role="dotted-map-boundary" data-cfx-viewport="Africa" data-cfx-boundary="6" d="M 439.181 292.632 L 449.746 298.318 L 450.086 310.029 L 447.455 315.418 L 449.661 316.521 L 436.804 320.043 L 437.186 323.056 L 431.585 325.305 L 423.481 333.367 L 413.466 330.864 L 407.271 331.585 L 401.628 325.475 L 401.798 311.981 L 410.666 312.024 L 410.199 303.622 L 418.007 307.229 L 423.99 306.507 L 431.5 313.466 L 434.768 313.509 L 434.428 308.926 L 429.124 307.271 L 429.464 296.111 L 431.797 292.929 L 439.181 292.632" fill="none" stroke="#939FAF" stroke-width="1.352" stroke-opacity="0.16" stroke-linecap="round" stroke-linejoin="round"/>
<path data-cfx-role="dotted-map-boundary" data-cfx-viewport="Africa" data-cfx-boundary="7" d="M 271.912 140.978 L 271.954 134.868 L 286.509 129.946 L 293.086 126.127 L 293.255 122.987 L 303.185 120.356 L 299.535 108.008 L 303.609 105.717 L 314.981 101.898 L 344.471 100.455 L 343.283 110.172 L 340.652 112.549 L 341.034 115.774 L 347.187 121.035 L 350.369 132.407 L 349.988 144.755 L 348.29 146.537 L 352.449 153.793 L 354.443 153.029 L 359.662 157.654 L 332.845 174.076 L 322.152 176.367 L 322.109 173.694 L 271.912 140.978" fill="none" stroke="#939FAF" stroke-width="1.352" stroke-opacity="0.16" stroke-linecap="round" stroke-linejoin="round"/>
<path data-cfx-role="dotted-map-boundary" data-cfx-viewport="Africa" data-cfx-boundary="8" d="M 414.824 163.892 L 414.824 172.378 L 409.945 172.378 L 409.902 174.161 L 376.041 157.909 L 368.743 161.813 L 354.443 153.029 L 352.449 153.793 L 348.29 146.537 L 349.988 144.755 L 348.969 128.631 L 351.048 127.655 L 350.964 124.09 L 357.244 119.889 L 357.498 116.622 L 373.453 120.314 L 375.405 124.09 L 389.747 128.8 L 393.82 125.745 L 392.844 122.52 L 397.215 118.447 L 405.914 118.744 L 414.485 121.884 L 414.824 163.892" fill="none" stroke="#939FAF" stroke-width="1.352" stroke-opacity="0.16" stroke-linecap="round" stroke-linejoin="round"/>
<path data-cfx-role="dotted-map-boundary" data-cfx-viewport="Africa" data-cfx-boundary="9" d="M 511.528 223.297 L 499.519 236.027 L 494.003 236.197 L 486.365 240.61 L 481.74 239.167 L 476.606 242.731 L 462.179 238.361 L 456.026 229.28 L 448.558 224.231 L 452.292 221.685 L 454.117 212.138 L 460.906 203.863 L 463.325 196.056 L 468.247 196.947 L 469.605 193.764 L 478.6 195.631 L 485.262 200.172 L 488.445 204.033 L 485.941 210.355 L 490.269 210.865 L 489.336 212.392 L 494.088 218.29 L 511.528 223.297" fill="none" stroke="#939FAF" stroke-width="1.352" stroke-opacity="0.16" stroke-linecap="round" stroke-linejoin="round"/>
<path data-cfx-role="dotted-map-boundary" data-cfx-viewport="Africa" data-cfx-boundary="10" d="M 387.031 242.392 L 383.594 259.025 L 378.375 264.626 L 376.678 272.264 L 370.61 278.332 L 368.743 276.38 L 365.009 277.95 L 362.293 276.083 L 359.28 278.629 L 355.801 274.131 L 359.068 271.798 L 357.456 268.997 L 362.123 265.518 L 368.106 267.724 L 369.973 262.887 L 367.47 257.074 L 369.337 252.151 L 365.094 251.685 L 364.245 247.611 L 376.381 249.902 L 381.43 241.416 L 387.031 242.392" fill="none" stroke="#939FAF" stroke-width="1.352" stroke-opacity="0.16" stroke-linecap="round" stroke-linejoin="round"/>
<path data-cfx-role="dotted-map-boundary" data-cfx-viewport="Africa" data-cfx-boundary="11" d="M 361.02 283.127 L 378.035 282.194 L 382.873 291.486 L 389.45 291.147 L 393.99 286.691 L 400.949 288.176 L 402.774 304.258 L 408.29 303.367 L 410.666 304.937 L 410.666 312.024 L 401.798 311.981 L 401.628 325.475 L 407.271 331.585 L 399.464 333.325 L 389.195 332.731 L 386.225 330.694 L 368.403 331.161 L 365.857 329.251 L 358.516 330.651 L 360.426 318.558 L 367.045 305.192 L 361.02 283.127" fill="none" stroke="#939FAF" stroke-width="1.352" stroke-opacity="0.16" stroke-linecap="round" stroke-linejoin="round"/>
<path data-cfx-role="dotted-map-boundary" data-cfx-viewport="Africa" data-cfx-boundary="12" d="M 393.184 362.348 L 393.141 378.006 L 387.074 380.509 L 380.115 376.394 L 378.078 378.515 L 373.283 372.193 L 369.252 351.061 L 358.516 330.651 L 365.857 329.251 L 368.403 331.161 L 386.225 330.694 L 389.195 332.731 L 399.464 333.325 L 410.708 330.651 L 415.164 331.839 L 408.799 334.81 L 407.186 333.07 L 397.469 334.682 L 397.342 349.788 L 393.184 349.958 L 393.184 362.348" fill="none" stroke="#939FAF" stroke-width="1.352" stroke-opacity="0.16" stroke-linecap="round" stroke-linejoin="round"/>
<path data-cfx-role="dotted-map-boundary" data-cfx-viewport="Africa" data-cfx-boundary="13" d="M 320.158 230.681 L 320.285 221.133 L 324.486 214.556 L 324.358 203.991 L 327.286 198.899 L 331.826 198.389 L 337.682 201.572 L 341.841 200.638 L 346.975 202.802 L 355.376 200.426 L 360.935 201.911 L 364.245 199.535 L 370.61 205.942 L 358.601 227.625 L 355.674 229.068 L 351.685 227.371 L 347.908 229.917 L 344.811 237.003 L 333.778 239.167 L 327.116 230.638 L 320.158 230.681" fill="none" stroke="#939FAF" stroke-width="1.352" stroke-opacity="0.16" stroke-linecap="round" stroke-linejoin="round"/>
<path data-cfx-role="dotted-map-boundary" data-cfx-viewport="Africa" data-cfx-boundary="14" d="M 370.27 202.675 L 374.386 214.896 L 368.87 214.726 L 367.936 216.72 L 372.307 219.903 L 374.259 224.613 L 370.44 230.808 L 370.185 237.173 L 376.041 244.471 L 376.381 249.902 L 369.591 247.781 L 349.691 247.569 L 350.327 244.216 L 344.768 238.149 L 345.914 233.99 L 351.685 227.371 L 355.674 229.068 L 358.601 227.625 L 366.324 211.416 L 369.931 208.149 L 370.27 202.675" fill="none" stroke="#939FAF" stroke-width="1.352" stroke-opacity="0.16" stroke-linecap="round" stroke-linejoin="round"/>
<path data-cfx-role="dotted-map-boundary" data-cfx-viewport="Africa" data-cfx-boundary="15" d="M 299.535 108.008 L 303.185 120.356 L 293.255 122.987 L 293.086 126.127 L 286.509 129.946 L 271.954 134.868 L 271.445 142.166 L 260.413 143.185 L 255.703 152.138 L 249.805 156.721 L 246.155 166.014 L 236.523 166.353 L 247.471 145.858 L 255.194 138.263 L 259.14 137.796 L 268.178 130.243 L 267.117 124.939 L 271.997 116.198 L 279.422 112.506 L 283.581 105.505 L 299.535 108.008" fill="none" stroke="#939FAF" stroke-width="1.352" stroke-opacity="0.16" stroke-linecap="round" stroke-linejoin="round"/>
<path data-cfx-role="dotted-map-boundary" data-cfx-viewport="Africa" data-cfx-boundary="16" d="M 439.562 242.349 L 434.852 237.724 L 427.469 238.531 L 415.291 224.019 L 410.114 220.666 L 412.872 219.394 L 415.121 213.665 L 418.176 213.071 L 422.25 217.06 L 431.67 217.357 L 436.041 213.58 L 441.769 215.617 L 446.224 210.228 L 444.824 206.452 L 449.661 205.561 L 452.886 220.412 L 448.558 224.231 L 453.353 226.565 L 458.53 233.863 L 450.425 241.161 L 439.562 242.349" fill="none" stroke="#939FAF" stroke-width="1.352" stroke-opacity="0.16" stroke-linecap="round" stroke-linejoin="round"/>
<path data-cfx-role="dotted-map-boundary" data-cfx-viewport="Africa" data-cfx-boundary="17" d="M 259.904 204.457 L 257.103 195.207 L 259.225 191.94 L 285.236 191.473 L 281.374 151.332 L 287.866 151.289 L 322.109 173.694 L 322.152 176.367 L 326.862 175.943 L 326.862 185.745 L 324.189 191.176 L 304.203 193.722 L 295.589 199.79 L 291.728 200.087 L 286.594 207.555 L 285.83 213.241 L 274.67 213.92 L 270.002 205.009 L 265.589 207.003 L 259.904 204.457" fill="none" stroke="#939FAF" stroke-width="1.352" stroke-opacity="0.16" stroke-linecap="round" stroke-linejoin="round"/>
<path data-cfx-role="dotted-map-boundary" data-cfx-viewport="Africa" data-cfx-boundary="18" d="M 424.881 235.051 L 412.321 235.56 L 405.659 237.258 L 403.834 240.143 L 391.359 235.9 L 387.031 242.392 L 381.43 241.416 L 376.678 247.611 L 370.101 234.118 L 373.58 225.758 L 384.952 223.764 L 388.559 219.139 L 397.851 217.017 L 400.906 212.392 L 405.744 209.974 L 408.672 214.429 L 408.29 219.266 L 415.291 224.019 L 424.881 235.051" fill="none" stroke="#939FAF" stroke-width="1.352" stroke-opacity="0.16" stroke-linecap="round" stroke-linejoin="round"/>
<path data-cfx-role="dotted-map-boundary" data-cfx-viewport="Africa" data-cfx-boundary="19" d="M 452.589 261.274 L 468.714 270.397 L 469.011 272.858 L 475.078 277.102 L 473.126 282.321 L 476.097 286.267 L 475.036 293.268 L 479.831 301.034 L 476.436 303.495 L 463.664 306.974 L 455.39 306.125 L 451.91 297.215 L 439.181 292.632 L 434.428 284.909 L 433.24 276.338 L 439.223 271.501 L 437.823 262.038 L 452.589 261.274" fill="none" stroke="#939FAF" stroke-width="1.352" stroke-opacity="0.16" stroke-linecap="round" stroke-linejoin="round"/>
<path data-cfx-role="dotted-map-boundary" data-cfx-viewport="Africa" data-cfx-boundary="20" d="M 475.078 277.102 L 469.011 272.858 L 468.714 270.397 L 452.589 261.274 L 452.547 256.776 L 457.426 249.139 L 453.056 239.209 L 458.53 233.863 L 462.179 238.361 L 470.496 241.968 L 476.606 242.731 L 481.74 239.167 L 486.365 240.61 L 482.631 245.447 L 482.674 260.892 L 485.22 264.372 L 479.576 268.148 L 475.078 277.102" fill="none" stroke="#939FAF" stroke-width="1.352" stroke-opacity="0.16" stroke-linecap="round" stroke-linejoin="round"/>
<path data-cfx-role="dotted-map-boundary" data-cfx-viewport="Africa" data-cfx-boundary="21" d="M 518.954 310.156 L 522.518 323.905 L 519.505 323.905 L 519.929 328.869 L 508.6 363.07 L 501.429 365.87 L 495.616 363.282 L 492.688 353.904 L 493.027 347.794 L 497.398 339.732 L 495.276 331.118 L 497.355 326.069 L 505.248 324.202 L 511.188 319.152 L 511.867 315.206 L 513.649 315.715 L 517.468 308.332 L 518.954 310.156" fill="none" stroke="#939FAF" stroke-width="1.352" stroke-opacity="0.16" stroke-linecap="round" stroke-linejoin="round"/>
<path data-cfx-role="dotted-map-boundary" data-cfx-viewport="Africa" data-cfx-boundary="22" d="M 348.969 128.631 L 347.187 121.035 L 341.034 115.774 L 340.652 112.549 L 343.283 110.172 L 344.471 100.455 L 349.096 98.758 L 352.067 99.267 L 351.939 101.431 L 355.546 99.861 L 353.722 102.747 L 354.613 109.451 L 351.812 111.573 L 357.498 116.622 L 357.244 119.889 L 350.964 124.09 L 351.048 127.655 L 348.969 128.631" fill="none" stroke="#939FAF" stroke-width="1.352" stroke-opacity="0.16" stroke-linecap="round" stroke-linejoin="round"/>
<path data-cfx-role="dotted-map-boundary" data-cfx-viewport="Africa" data-cfx-boundary="23" d="M 475.078 120.781 L 473.339 115.604 L 482.759 111.191 L 483.947 102.959 L 490.269 98.588 L 498.713 99.522 L 504.272 105.844 L 501.471 113.1 L 504.399 117.131 L 509.576 119.465 L 511.782 122.69 L 511.104 125.788 L 514.838 130.243 L 509.449 129.691 L 506.351 133.765 L 498.459 133.425 L 486.493 124.896 L 475.078 120.781" fill="none" stroke="#939FAF" stroke-width="1.352" stroke-opacity="0.16" stroke-linecap="round" stroke-linejoin="round"/>
<path data-cfx-role="dotted-map-boundary" data-cfx-viewport="Africa" data-cfx-boundary="24" d="M 433.622 350.976 L 423.82 357.256 L 417.625 365.404 L 407.653 364.47 L 400.44 370.665 L 397.385 371.089 L 393.184 362.348 L 393.184 349.958 L 397.342 349.788 L 397.469 334.682 L 407.186 333.07 L 408.799 334.81 L 415.928 332.518 L 419.746 339.095 L 426.366 344.23 L 427.639 348.431 L 433.622 350.976" fill="none" stroke="#939FAF" stroke-width="1.352" stroke-opacity="0.16" stroke-linecap="round" stroke-linejoin="round"/>
<path data-cfx-role="dotted-map-boundary" data-cfx-viewport="Africa" data-cfx-boundary="25" d="M 236.354 168.135 L 253.878 166.735 L 253.072 160.625 L 254.133 158.461 L 258.079 158.079 L 257.952 147.216 L 271.869 147.428 L 271.912 140.978 L 287.866 151.289 L 281.374 151.332 L 285.236 191.473 L 259.225 191.94 L 257.103 195.207 L 246.877 186.805 L 238.899 188.757 L 239.663 171.996 L 236.354 168.135" fill="none" stroke="#939FAF" stroke-width="1.352" stroke-opacity="0.16" stroke-linecap="round" stroke-linejoin="round"/>
<path data-cfx-role="dotted-map-boundary" data-cfx-viewport="Africa" data-cfx-boundary="26" d="M 250.611 203.821 L 265.589 207.003 L 270.002 205.009 L 274.67 213.92 L 273.482 215.702 L 275.519 220.836 L 273.609 224.613 L 269.663 226.225 L 267.329 221.006 L 264.147 221.812 L 261.558 214.599 L 256 215.49 L 252.52 219.478 L 244.543 210.398 L 250.441 207.131 L 250.611 203.821" fill="none" stroke="#939FAF" stroke-width="1.352" stroke-opacity="0.16" stroke-linecap="round" stroke-linejoin="round"/>
<path data-cfx-role="dotted-map-boundary" data-cfx-viewport="Africa" data-cfx-boundary="27" d="M 271.954 139.875 L 271.869 147.428 L 257.952 147.216 L 258.079 158.079 L 254.133 158.461 L 253.072 160.625 L 253.878 166.735 L 236.354 168.135 L 236.523 166.353 L 246.155 166.014 L 249.805 156.721 L 255.703 152.138 L 260.413 143.185 L 271.445 142.166 L 271.954 139.875" fill="none" stroke="#939FAF" stroke-width="1.352" stroke-opacity="0.16" stroke-linecap="round" stroke-linejoin="round"/>
<path data-cfx-role="dotted-map-boundary" data-cfx-viewport="Africa" data-cfx-boundary="28" d="M 274.67 213.92 L 282.393 212.604 L 290.37 216.466 L 296.735 216.338 L 297.881 222.364 L 294.995 230.723 L 296.608 236.069 L 289.012 235.306 L 276.028 238.743 L 276.622 233.014 L 272.251 229.789 L 273.524 221.939 L 275.519 220.836 L 273.482 215.702 L 274.67 213.92" fill="none" stroke="#939FAF" stroke-width="1.352" stroke-opacity="0.16" stroke-linecap="round" stroke-linejoin="round"/>
<path data-cfx-role="dotted-map-boundary" data-cfx-viewport="Africa" data-cfx-boundary="29" d="M 356.607 247.654 L 363.693 247.399 L 365.094 251.685 L 369.337 252.151 L 367.47 257.074 L 369.973 262.887 L 368.106 267.724 L 362.123 265.518 L 357.456 268.997 L 359.068 271.798 L 355.801 274.131 L 346.084 261.953 L 349.012 252.958 L 356.649 252.745 L 356.607 247.654" fill="none" stroke="#939FAF" stroke-width="1.352" stroke-opacity="0.16" stroke-linecap="round" stroke-linejoin="round"/>
<path data-cfx-role="dotted-map-boundary" data-cfx-viewport="Africa" data-cfx-boundary="30" d="M 465.192 163.892 L 414.824 163.892 L 413.551 129.776 L 415.503 123.284 L 431.415 126.254 L 440.199 123.326 L 444.357 126 L 454.159 124.769 L 456.917 132.068 L 453.65 139.196 L 449.364 136.65 L 445.885 130.964 L 460.185 155.702 L 459.506 159.224 L 465.192 163.892" fill="none" stroke="#939FAF" stroke-width="1.352" stroke-opacity="0.16" stroke-linecap="round" stroke-linejoin="round"/>
<path data-cfx-role="dotted-map-boundary" data-cfx-viewport="Africa" data-cfx-boundary="31" d="M 285.83 213.241 L 286.594 207.555 L 290.582 201.105 L 304.203 193.722 L 310.313 193.892 L 313.071 202.718 L 317.994 203.651 L 317.866 206.579 L 314.005 210.101 L 296.268 210.737 L 296.735 216.338 L 290.37 216.466 L 285.83 213.241" fill="none" stroke="#939FAF" stroke-width="1.352" stroke-opacity="0.16" stroke-linecap="round" stroke-linejoin="round"/>
<path data-cfx-role="dotted-map-boundary" data-cfx-viewport="Africa" data-cfx-boundary="32" d="M 447.752 296.408 L 451.91 297.215 L 454.202 300.355 L 455.39 314.866 L 460.185 319.237 L 460.524 324.711 L 457.384 328.53 L 454.626 325.899 L 454.965 319.237 L 447.455 315.418 L 450.849 301.925 L 447.752 296.408" fill="none" stroke="#939FAF" stroke-width="1.352" stroke-opacity="0.16" stroke-linecap="round" stroke-linejoin="round"/>
<path data-cfx-role="dotted-map-boundary" data-cfx-viewport="Africa" data-cfx-boundary="33" d="M 457.087 132.662 L 461.797 133.341 L 469.986 127.782 L 465.743 123.539 L 475.078 120.781 L 480.17 121.926 L 498.459 133.425 L 514.201 136.099 L 521.542 143.991 L 521.924 148.574 L 526.804 152.732 L 529.392 159.649" fill="none" stroke="#939FAF" stroke-width="1.352" stroke-opacity="0.16" stroke-linecap="round" stroke-linejoin="round"/>
<path data-cfx-role="dotted-map-boundary" data-cfx-viewport="Africa" data-cfx-boundary="34" d="M 542.122 172.378 L 517.171 178.234 L 508.176 185.32 L 492.815 182.647 L 490.269 187.866 L 482.462 174.542 L 474.824 166.905 L 472.066 156.721 L 467.78 154.175 L 457.808 138.178 L 455.687 138.178 L 457.087 132.662" fill="none" stroke="#939FAF" stroke-width="1.352" stroke-opacity="0.16" stroke-linecap="round" stroke-linejoin="round"/>
<path data-cfx-role="dotted-map-boundary" data-cfx-viewport="Africa" data-cfx-boundary="35" d="M 452.589 261.274 L 434.258 262.929 L 435.531 254.697 L 441.005 247.908 L 439.308 247.314 L 441.345 241.204 L 450.425 241.161 L 453.056 239.209 L 455.05 242.137 L 457.426 249.139 L 452.547 256.776 L 452.589 261.274" fill="none" stroke="#939FAF" stroke-width="1.352" stroke-opacity="0.16" stroke-linecap="round" stroke-linejoin="round"/>
<path data-cfx-role="dotted-map-boundary" data-cfx-viewport="Africa" data-cfx-boundary="36" d="M 485.22 264.372 L 482.674 260.892 L 482.631 245.447 L 487.511 239.294 L 499.519 236.027 L 516.408 217.145 L 516.45 208.828 L 525.615 206.239 L 523.239 218.205 L 514.922 234.584 L 485.22 264.372" fill="none" stroke="#939FAF" stroke-width="1.352" stroke-opacity="0.16" stroke-linecap="round" stroke-linejoin="round"/>
<path data-cfx-role="dotted-map-boundary" data-cfx-viewport="Africa" data-cfx-boundary="37" d="M 441.09 351.655 L 427.639 348.431 L 426.366 344.23 L 419.746 339.095 L 415.928 332.518 L 423.481 333.367 L 431.585 325.305 L 437.186 323.056 L 448.134 328.148 L 447.328 343.381 L 441.09 351.655" fill="none" stroke="#939FAF" stroke-width="1.352" stroke-opacity="0.16" stroke-linecap="round" stroke-linejoin="round"/>
<path data-cfx-role="dotted-map-boundary" data-cfx-viewport="Africa" data-cfx-boundary="38" d="M 237.839 199.578 L 233.935 194.74 L 240.342 187.399 L 246.877 186.805 L 257.103 195.207 L 259.904 204.457 L 237.966 204.712 L 237.287 201.445 L 250.017 199.917 L 244.755 198.347 L 237.839 199.578" fill="none" stroke="#939FAF" stroke-width="1.352" stroke-opacity="0.16" stroke-linecap="round" stroke-linejoin="round"/>
<path data-cfx-role="dotted-map-boundary" data-cfx-viewport="Africa" data-cfx-boundary="39" d="M 498.713 99.522 L 464.64 101.007 L 462.136 105.25 L 460.566 103.341 L 462.179 101.728 L 456.026 101.092 L 453.141 103.553 L 438.671 101.601 L 434.768 103.892 L 426.026 101.686 L 423.523 97.485" fill="none" stroke="#939FAF" stroke-width="1.352" stroke-opacity="0.16" stroke-linecap="round" stroke-linejoin="round"/>
<path data-cfx-role="dotted-map-boundary" data-cfx-viewport="Africa" data-cfx-boundary="40" d="M 529.392 176.622 L 534.102 186.593 L 531.047 187.739 L 530.113 191.049 L 499.647 203.354 L 493.239 203.609 L 489.505 192.704 L 492.815 182.647 L 508.176 185.32 L 517.171 178.234 L 529.392 176.622" fill="none" stroke="#939FAF" stroke-width="1.352" stroke-opacity="0.16" stroke-linecap="round" stroke-linejoin="round"/>
<path data-cfx-role="dotted-map-boundary" data-cfx-viewport="Africa" data-cfx-boundary="41" d="M 320.158 230.681 L 316.678 231.19 L 315.787 218.502 L 312.011 212.816 L 314.896 208.234 L 320.836 205.306 L 324.061 207.767 L 324.868 211.713 L 320.285 221.133 L 320.158 230.681" fill="none" stroke="#939FAF" stroke-width="1.352" stroke-opacity="0.16" stroke-linecap="round" stroke-linejoin="round"/>
<path data-cfx-role="dotted-map-boundary" data-cfx-viewport="Africa" data-cfx-boundary="42" d="M 459.591 119.805 L 460.312 118.447 L 465.022 120.144 L 473.339 115.604 L 475.078 120.781 L 465.743 123.539 L 469.986 127.782 L 461.797 133.341 L 456.917 132.068 L 459.591 119.805" fill="none" stroke="#939FAF" stroke-width="1.352" stroke-opacity="0.16" stroke-linecap="round" stroke-linejoin="round"/>
<path data-cfx-role="dotted-map-boundary" data-cfx-viewport="Africa" data-cfx-boundary="43" d="M 463.325 196.056 L 465.107 185.278 L 471.726 180.865 L 475.375 189.691 L 491.542 203.354 L 488.445 204.033 L 478.6 195.631 L 469.605 193.764 L 468.247 196.947 L 463.325 196.056" fill="none" stroke="#939FAF" stroke-width="1.352" stroke-opacity="0.16" stroke-linecap="round" stroke-linejoin="round"/>
<path data-cfx-role="dotted-map-boundary" data-cfx-viewport="Africa" data-cfx-boundary="44" d="M 272.93 224.613 L 272.251 229.789 L 276.622 233.014 L 276.028 238.743 L 260.201 228.432 L 265.335 221.558 L 267.329 221.006 L 269.663 226.225 L 272.93 224.613" fill="none" stroke="#939FAF" stroke-width="1.352" stroke-opacity="0.16" stroke-linecap="round" stroke-linejoin="round"/>
<path data-cfx-role="dotted-map-boundary" data-cfx-viewport="Africa" data-cfx-boundary="45" d="M 514.838 130.243 L 511.104 125.788 L 511.782 122.69 L 509.576 119.465 L 504.399 117.131 L 501.471 113.1 L 504.272 105.844 L 501.471 104.571 L 496.422 96.127" fill="none" stroke="#939FAF" stroke-width="1.352" stroke-opacity="0.16" stroke-linecap="round" stroke-linejoin="round"/>
<path data-cfx-role="dotted-map-boundary" data-cfx-viewport="Africa" data-cfx-boundary="46" d="M 460.312 118.447 L 464.088 112.124 L 461.118 106.99 L 464.64 101.007 L 488.445 99.267 L 483.947 102.959 L 482.759 111.191 L 465.022 120.144 L 460.312 118.447" fill="none" stroke="#939FAF" stroke-width="1.352" stroke-opacity="0.16" stroke-linecap="round" stroke-linejoin="round"/>
<path data-cfx-role="dotted-map-boundary" data-cfx-viewport="Africa" data-cfx-boundary="47" d="M 308.828 210.483 L 313.241 232.081 L 300.426 237.258 L 296.608 236.069 L 294.995 230.723 L 297.881 222.364 L 296.268 210.737 L 308.828 210.483" fill="none" stroke="#939FAF" stroke-width="1.352" stroke-opacity="0.16" stroke-linecap="round" stroke-linejoin="round"/>
<path data-cfx-role="dotted-map-boundary" data-cfx-viewport="Africa" data-cfx-boundary="48" d="M 460.312 118.447 L 457.129 122.011 L 459.039 125.278 L 456.917 132.068 L 454.159 124.769 L 457.681 116.877 L 460.736 116.028 L 460.312 118.447" fill="none" stroke="#939FAF" stroke-width="1.352" stroke-opacity="0.16" stroke-linecap="round" stroke-linejoin="round"/>
<path data-cfx-role="dotted-map-boundary" data-cfx-viewport="Africa" data-cfx-boundary="49" d="M 516.45 208.828 L 516.408 217.145 L 511.528 223.297 L 494.088 218.29 L 489.336 212.392 L 491.839 208.616 L 498.034 212.944 L 516.45 208.828" fill="none" stroke="#939FAF" stroke-width="1.352" stroke-opacity="0.16" stroke-linecap="round" stroke-linejoin="round"/>
<path data-cfx-role="dotted-map-boundary" data-cfx-viewport="Africa" data-cfx-boundary="50" d="M 252.52 219.478 L 256 215.49 L 261.558 214.599 L 265.335 221.558 L 260.201 228.432 L 253.793 224.146 L 252.52 219.478" fill="none" stroke="#939FAF" stroke-width="1.352" stroke-opacity="0.16" stroke-linecap="round" stroke-linejoin="round"/>
<path data-cfx-role="dotted-map-boundary" data-cfx-viewport="Africa" data-cfx-boundary="51" d="M 410.751 97.443 L 406.847 96.339 L 408.078 98.504 L 405.362 98.928 L 406.974 102.704 L 404.174 102.747 L 399.124 97.528" fill="none" stroke="#939FAF" stroke-width="1.352" stroke-opacity="0.16" stroke-linecap="round" stroke-linejoin="round"/>
<path data-cfx-role="dotted-map-boundary" data-cfx-viewport="Africa" data-cfx-boundary="52" d="M 488.445 204.033 L 492.561 204.669 L 490.015 207.428 L 491.839 208.616 L 490.269 210.865 L 485.941 210.355 L 488.445 204.033" fill="none" stroke="#939FAF" stroke-width="1.352" stroke-opacity="0.16" stroke-linecap="round" stroke-linejoin="round"/>
<path data-cfx-role="dotted-map-boundary" data-cfx-viewport="Africa" data-cfx-boundary="53" d="M 431.712 380.128 L 427.851 379.661 L 423.311 384.031 L 428.021 386.874 L 433.198 381.401 L 431.712 380.128" fill="none" stroke="#939FAF" stroke-width="1.352" stroke-opacity="0.16" stroke-linecap="round" stroke-linejoin="round"/>
<path data-cfx-role="dotted-map-boundary" data-cfx-viewport="Africa" data-cfx-boundary="54" d="M 431.712 380.128 L 433.198 381.401 L 428.021 386.874 L 423.311 384.031 L 427.851 379.661 L 431.712 380.128" fill="none" stroke="#939FAF" stroke-width="1.352" stroke-opacity="0.16" stroke-linecap="round" stroke-linejoin="round"/>
<path data-cfx-role="dotted-map-boundary" data-cfx-viewport="Africa" data-cfx-boundary="55" d="M 312.562 210.568 L 315.787 218.502 L 316.678 231.19 L 313.241 232.081 L 308.531 211.798 L 312.562 210.568" fill="none" stroke="#939FAF" stroke-width="1.352" stroke-opacity="0.16" stroke-linecap="round" stroke-linejoin="round"/>
<path data-cfx-role="dotted-map-boundary" data-cfx-viewport="Africa" data-cfx-boundary="56" d="M 444.824 370.665 L 441.472 373.041 L 438.968 370.708 L 440.454 366.422 L 443.848 366.889 L 444.824 370.665" fill="none" stroke="#939FAF" stroke-width="1.352" stroke-opacity="0.16" stroke-linecap="round" stroke-linejoin="round"/>
<path data-cfx-role="dotted-map-boundary" data-cfx-viewport="Africa" data-cfx-boundary="57" d="M 237.966 204.712 L 250.611 203.821 L 250.441 207.131 L 244.543 210.398 L 237.966 204.712" fill="none" stroke="#939FAF" stroke-width="1.352" stroke-opacity="0.16" stroke-linecap="round" stroke-linejoin="round"/>
<path data-cfx-role="dotted-map-boundary" data-cfx-viewport="Africa" data-cfx-boundary="58" d="M 349.691 247.569 L 356.607 247.654 L 356.649 252.745 L 349.012 252.958 L 349.691 247.569" fill="none" stroke="#939FAF" stroke-width="1.352" stroke-opacity="0.16" stroke-linecap="round" stroke-linejoin="round"/>
<path data-cfx-role="dotted-map-boundary" data-cfx-viewport="Africa" data-cfx-boundary="59" d="M 363.905 277.526 L 360.426 281.812 L 359.28 278.629 L 362.293 276.083 L 363.905 277.526" fill="none" stroke="#939FAF" stroke-width="1.352" stroke-opacity="0.16" stroke-linecap="round" stroke-linejoin="round"/>
<path data-cfx-role="dotted-map-boundary" data-cfx-viewport="Africa" data-cfx-boundary="60" d="M 438.035 267.469 L 439.223 271.501 L 433.24 276.338 L 431.882 269.294 L 438.035 267.469" fill="none" stroke="#939FAF" stroke-width="1.352" stroke-opacity="0.16" stroke-linecap="round" stroke-linejoin="round"/>
<path data-cfx-role="dotted-map-boundary" data-cfx-viewport="Africa" data-cfx-boundary="61" d="M 460.736 116.028 L 457.808 116.834 L 461.5 110.257 L 463.409 110.469 L 460.736 116.028" fill="none" stroke="#939FAF" stroke-width="1.352" stroke-opacity="0.16" stroke-linecap="round" stroke-linejoin="round"/>
<path data-cfx-role="dotted-map-boundary" data-cfx-viewport="Africa" data-cfx-boundary="62" d="M 458.954 123.624 L 456.96 124.218 L 458.021 119.211 L 459.591 119.805 L 458.954 123.624" fill="none" stroke="#939FAF" stroke-width="1.352" stroke-opacity="0.16" stroke-linecap="round" stroke-linejoin="round"/>
<path data-cfx-role="dotted-map-boundary" data-cfx-viewport="Africa" data-cfx-boundary="63" d="M 237.839 199.578 L 244.755 198.347 L 250.017 199.917 L 237.287 201.445 L 237.839 199.578" fill="none" stroke="#939FAF" stroke-width="1.352" stroke-opacity="0.16" stroke-linecap="round" stroke-linejoin="round"/>
<path data-cfx-role="dotted-map-boundary" data-cfx-viewport="Africa" data-cfx-boundary="64" d="M 524.342 152.223 L 526.379 146.452 L 527.737 150.229 L 526.804 152.732 L 524.342 152.223" fill="none" stroke="#939FAF" stroke-width="1.352" stroke-opacity="0.16" stroke-linecap="round" stroke-linejoin="round"/>
<path data-cfx-role="dotted-map-boundary" data-cfx-viewport="Africa" data-cfx-boundary="65" d="M 512.292 130.031 L 514.201 136.099 L 506.351 133.765 L 509.449 129.691 L 512.292 130.031" fill="none" stroke="#939FAF" stroke-width="1.352" stroke-opacity="0.16" stroke-linecap="round" stroke-linejoin="round"/>
<path data-cfx-role="dotted-map-boundary" data-cfx-viewport="Africa" data-cfx-boundary="66" d="M 540.934 144.882 L 527.355 138.984 L 521.415 129.309 L 516.408 128.588 L 514.838 130.243" fill="none" stroke="#939FAF" stroke-width="1.352" stroke-opacity="0.16" stroke-linecap="round" stroke-linejoin="round"/>
<path data-cfx-role="dotted-map-boundary" data-cfx-viewport="Africa" data-cfx-boundary="67" d="M 420.298 107.457 L 413.636 109.069 L 408.502 107.542 L 409.308 105.717 L 420.298 107.457" fill="none" stroke="#939FAF" stroke-width="1.352" stroke-opacity="0.16" stroke-linecap="round" stroke-linejoin="round"/>
<path data-cfx-role="dotted-map-boundary" data-cfx-viewport="Africa" data-cfx-boundary="68" d="M 305.858 97.528 L 299.62 101.644 L 290.2 101.601 L 285.915 104.699 L 277.131 99.819" fill="none" stroke="#939FAF" stroke-width="1.352" stroke-opacity="0.16" stroke-linecap="round" stroke-linejoin="round"/>
<path data-cfx-role="dotted-map-boundary" data-cfx-viewport="Africa" data-cfx-boundary="69" d="M 447.625 108.136 L 453.014 108.815 L 448.685 110.554 L 445.63 108.305 L 447.625 108.136" fill="none" stroke="#939FAF" stroke-width="1.352" stroke-opacity="0.16" stroke-linecap="round" stroke-linejoin="round"/>
<path data-cfx-role="dotted-map-boundary" data-cfx-viewport="Africa" data-cfx-boundary="70" d="M 437.823 262.038 L 439.265 266.96 L 431.882 269.294 L 433.028 264.117 L 437.823 262.038" fill="none" stroke="#939FAF" stroke-width="1.352" stroke-opacity="0.16" stroke-linecap="round" stroke-linejoin="round"/>
<path data-cfx-role="dotted-map-boundary" data-cfx-viewport="Africa" data-cfx-boundary="71" d="M 541.231 185.32 L 534.102 186.593 L 529.392 176.622 L 542.122 172.378" fill="none" stroke="#939FAF" stroke-width="1.352" stroke-opacity="0.16" stroke-linecap="round" stroke-linejoin="round"/>
<path data-cfx-role="dotted-map-boundary" data-cfx-viewport="Africa" data-cfx-boundary="72" d="M 278.319 96.849 L 275.391 100.922 L 270.978 100.795 L 271.615 97.485" fill="none" stroke="#939FAF" stroke-width="1.352" stroke-opacity="0.16" stroke-linecap="round" stroke-linejoin="round"/>
<path data-cfx-role="dotted-map-boundary" data-cfx-viewport="Africa" data-cfx-boundary="73" d="M 447.625 108.136 L 455.475 105.887 L 452.886 108.475 L 447.625 108.136" fill="none" stroke="#939FAF" stroke-width="1.352" stroke-opacity="0.16" stroke-linecap="round" stroke-linejoin="round"/>
<path data-cfx-role="dotted-map-boundary" data-cfx-viewport="Africa" data-cfx-boundary="74" d="M 527.61 154.345 L 537.921 154.896 L 540.806 152.011" fill="none" stroke="#939FAF" stroke-width="1.352" stroke-opacity="0.16" stroke-linecap="round" stroke-linejoin="round"/>
<path data-cfx-role="dotted-map-boundary" data-cfx-viewport="Africa" data-cfx-boundary="75" d="M 541.273 98.588 L 537.539 99.395 L 536.775 96.382" fill="none" stroke="#939FAF" stroke-width="1.352" stroke-opacity="0.16" stroke-linecap="round" stroke-linejoin="round"/>
<path data-cfx-role="dotted-map-boundary" data-cfx-viewport="Africa" data-cfx-boundary="76" d="M 517.511 97.782 L 530.495 101.516 L 541.273 98.588" fill="none" stroke="#939FAF" stroke-width="1.352" stroke-opacity="0.16" stroke-linecap="round" stroke-linejoin="round"/>
<path data-cfx-role="dotted-map-boundary" data-cfx-viewport="Africa" data-cfx-boundary="77" d="M 373.071 98.376 L 372.816 101.856 L 361.487 97.655" fill="none" stroke="#939FAF" stroke-width="1.352" stroke-opacity="0.16" stroke-linecap="round" stroke-linejoin="round"/>
<path data-cfx-role="dotted-map-boundary" data-cfx-viewport="Africa" data-cfx-boundary="78" d="M 529.392 159.649 L 527.61 154.345" fill="none" stroke="#939FAF" stroke-width="1.352" stroke-opacity="0.16" stroke-linecap="round" stroke-linejoin="round"/>
<path data-cfx-role="dotted-map-boundary" data-cfx-viewport="Africa" data-cfx-boundary="79" d="M 496.422 96.127 L 498.713 99.522" fill="none" stroke="#939FAF" stroke-width="1.352" stroke-opacity="0.16" stroke-linecap="round" stroke-linejoin="round"/>
<path data-cfx-role="dotted-map-boundary" data-cfx-viewport="Africa" data-cfx-boundary="80" d="M 277.131 99.819 L 278.319 96.849" fill="none" stroke="#939FAF" stroke-width="1.352" stroke-opacity="0.16" stroke-linecap="round" stroke-linejoin="round"/>
<path data-cfx-role="dotted-map-boundary" data-cfx-viewport="Africa" data-cfx-boundary="81" d="M 377.059 96.042 L 375.277 96.382" fill="none" stroke="#939FAF" stroke-width="1.352" stroke-opacity="0.16" stroke-linecap="round" stroke-linejoin="round"/>
<path data-cfx-role="dotted-map-connector-halo" data-cfx-connector="0" d="M 435.347 140.438 Q 370.673 256.778 385.555 389.051" fill="none" stroke="#F8FAFC" stroke-width="7.256" stroke-opacity="0.72" stroke-linecap="round"/>
<path class="cfx-interactive-region" tabindex="0" focusable="true" data-cfx-role="dotted-map-connector" data-cfx-connector="0" data-cfx-label="Cairo to Cape Town" data-cfx-from-longitude="31.236" data-cfx-from-latitude="30.044" data-cfx-to-longitude="18.424" data-cfx-to-latitude="-33.925" data-cfx-rendered-from-x="435.347" data-cfx-rendered-from-y="140.438" data-cfx-rendered-to-x="385.555" data-cfx-rendered-to-y="389.051" data-cfx-control-x="370.673" data-cfx-control-y="256.778" style="--cfx-interactive-focus-stroke-width:6.656" role="img" aria-label="Cairo to Cape Town: 30.044 N, 31.236 E to 33.925 S, 18.424 E" d="M 435.347 140.438 Q 370.673 256.778 385.555 389.051" fill="none" stroke="#2563EB" stroke-width="4.056" stroke-opacity="0.72" stroke-linecap="round"><title>Cairo to Cape Town: 30.044 N, 31.236 E to 33.925 S, 18.424 E</title></path>
<path data-cfx-role="dotted-map-connector-arrow" data-cfx-connector="0" data-cfx-label="Cairo to Cape Town" d="M 385.433 293.35 L 382.09 267.84 L 394.488 269.268 Z" fill="#2563EB" fill-opacity="0.78" stroke="#F8FAFC" stroke-opacity="0.78" stroke-width="1.947" stroke-linejoin="round"><title>Cairo to Cape Town: 30.044 N, 31.236 E to 33.925 S, 18.424 E</title></path>
<text data-cfx-role="dotted-map-connector-label" data-cfx-connector="0" data-cfx-label="Cairo to Cape Town" x="390.562" y="249.321" text-anchor="middle" fill="#2563EB" stroke="#F8FAFC" stroke-width="3" paint-order="stroke" font-size="12" font-weight="700">Cairo to Cape Town</text>
</g>
<circle data-cfx-role="dotted-map-point-halo" data-cfx-point="0" cx="441.284" cy="129.758" r="12.987" fill="#14B8A6" opacity="0.18"/>
<circle class="cfx-interactive-region" tabindex="0" focusable="true" data-cfx-role="dotted-map-point" data-cfx-point="0" data-cfx-label="Cairo" data-cfx-longitude="31.236" data-cfx-latitude="30.044" data-cfx-longitude-label="31.236 E" data-cfx-latitude-label="30.044 N" role="img" aria-label="Cairo: 30.044 N, 31.236 E" cx="441.284" cy="129.758" r="7.02" fill="#14B8A6" stroke="#FFFFFF" stroke-width="2.86"><title>Cairo: 30.044 N, 31.236 E</title></circle>
<line data-cfx-role="dotted-map-label-leader" data-cfx-label="Cairo" data-cfx-placement="right" x1="450.55" y1="129.758" x2="480.596" y2="129.758" stroke="#939FAF" stroke-opacity="0.52" stroke-width="1.544" stroke-linecap="round"/>
<rect data-cfx-role="dotted-map-label-backdrop" data-cfx-label="Cairo" data-cfx-placement="right" x="480.596" y="121.508" width="37.19" height="16.5" rx="6" fill="#FFFFFF" fill-opacity="0.86" stroke="rgba(148,163,184,0.188)" stroke-opacity="0.46"/>
<text data-cfx-role="dotted-map-label" data-cfx-label="Cairo" data-cfx-placement="right" x="480.596" y="129.758" text-anchor="start" dominant-baseline="middle" fill="#0F172A" stroke="#FFFFFF" stroke-width="1.2" paint-order="stroke fill" stroke-linejoin="round" font-family="-apple-system, BlinkMacSystemFont, 'Segoe UI', Roboto, Helvetica, Arial, sans-serif" font-size="10.5" font-weight="700">Cairo</text>
<circle data-cfx-role="dotted-map-point-halo" data-cfx-point="1" cx="323.082" cy="229.559" r="12.987" fill="#14B8A6" opacity="0.18"/>
<circle class="cfx-interactive-region" tabindex="0" focusable="true" data-cfx-role="dotted-map-point" data-cfx-point="1" data-cfx-label="Lagos" data-cfx-longitude="3.379" data-cfx-latitude="6.524" data-cfx-longitude-label="3.379 E" data-cfx-latitude-label="6.524 N" role="img" aria-label="Lagos: 6.524 N, 3.379 E" cx="323.082" cy="229.559" r="7.02" fill="#14B8A6" stroke="#FFFFFF" stroke-width="2.86"><title>Lagos: 6.524 N, 3.379 E</title></circle>
<line data-cfx-role="dotted-map-label-leader" data-cfx-label="Lagos" data-cfx-placement="top" x1="323.082" y1="220.292" x2="323.082" y2="198.497" stroke="#939FAF" stroke-opacity="0.52" stroke-width="1.544" stroke-linecap="round"/>
<rect data-cfx-role="dotted-map-label-backdrop" data-cfx-label="Lagos" data-cfx-placement="top" x="304.487" y="181.997" width="37.19" height="16.5" rx="6" fill="#FFFFFF" fill-opacity="0.86" stroke="rgba(148,163,184,0.188)" stroke-opacity="0.46"/>
<text data-cfx-role="dotted-map-label" data-cfx-label="Lagos" data-cfx-placement="top" x="323.082" y="190.247" text-anchor="middle" dominant-baseline="middle" fill="#0F172A" stroke="#FFFFFF" stroke-width="1.2" paint-order="stroke fill" stroke-linejoin="round" font-family="-apple-system, BlinkMacSystemFont, 'Segoe UI', Roboto, Helvetica, Arial, sans-serif" font-size="10.5" font-weight="700">Lagos</text>
<circle data-cfx-role="dotted-map-point-halo" data-cfx-point="2" cx="386.921" cy="401.195" r="12.987" fill="#06B6D4" opacity="0.18"/>
<circle class="cfx-interactive-region" tabindex="0" focusable="true" data-cfx-role="dotted-map-point" data-cfx-point="2" data-cfx-label="Cape Town" data-cfx-longitude="18.424" data-cfx-latitude="-33.925" data-cfx-longitude-label="18.424 E" data-cfx-latitude-label="33.925 S" role="img" aria-label="Cape Town: 33.925 S, 18.424 E" cx="386.921" cy="401.195" r="7.02" fill="#06B6D4" stroke="#FFFFFF" stroke-width="2.86"><title>Cape Town: 33.925 S, 18.424 E</title></circle>
<line data-cfx-role="dotted-map-label-leader" data-cfx-label="Cape Town" data-cfx-placement="top" x1="386.921" y1="391.928" x2="386.921" y2="370.133" stroke="#939FAF" stroke-opacity="0.52" stroke-width="1.544" stroke-linecap="round"/>
<rect data-cfx-role="dotted-map-label-backdrop" data-cfx-label="Cape Town" data-cfx-placement="top" x="357.616" y="353.633" width="58.61" height="16.5" rx="6" fill="#FFFFFF" fill-opacity="0.86" stroke="rgba(148,163,184,0.188)" stroke-opacity="0.46"/>
<text data-cfx-role="dotted-map-label" data-cfx-label="Cape Town" data-cfx-placement="top" x="386.921" y="361.883" text-anchor="middle" dominant-baseline="middle" fill="#0F172A" stroke="#FFFFFF" stroke-width="1.2" paint-order="stroke fill" stroke-linejoin="round" font-family="-apple-system, BlinkMacSystemFont, 'Segoe UI', Roboto, Helvetica, Arial, sans-serif" font-size="10.5" font-weight="700">Cape Town</text>
</g>
</g>
</svg>
