<svg xmlns="http://www.w3.org/2000/svg" width="360" height="90" viewBox="0 0 360 90" role="img" aria-labelledby="cfxbe2aa8b6-title cfxbe2aa8b6-desc" preserveAspectRatio="xMidYMid meet" style="max-width:100%;height:auto;display:block" shape-rendering="geometricPrecision" text-rendering="geometricPrecision">
<title id="cfxbe2aa8b6-title">Warnings Sparkline</title>
<desc id="cfxbe2aa8b6-desc">Warnings Sparkline with 1 data series: Warnings.</desc>
<defs>
<style>#cfxbe2aa8b6 text{-webkit-font-smoothing:antialiased;text-rendering:geometricPrecision;font-synthesis:none} #cfxbe2aa8b6 .cfx-crisp-stroke,#cfxbe2aa8b6 .cfx-guide-stroke,#cfxbe2aa8b6 .cfx-premium-stroke{vector-effect:non-scaling-stroke;shape-rendering:geometricPrecision} #cfxbe2aa8b6 .cfx-guide-stroke{shape-rendering:crispEdges} #cfxbe2aa8b6 .cfx-interactive-region{transition:opacity .12s ease,stroke-width .12s ease} #cfxbe2aa8b6 .cfx-interactive-region[data-cfx-role="dotted-map-connector"]{pointer-events:stroke} #cfxbe2aa8b6 .cfx-interactive-region:hover,#cfxbe2aa8b6 .cfx-interactive-region:focus{opacity:1;outline:none;stroke-width:var(--cfx-interactive-focus-stroke-width,2.2)}#cfxbe2aa8b6 text{-webkit-font-smoothing:antialiased;text-rendering:geometricPrecision;font-synthesis:none} #cfxbe2aa8b6 .cfx-crisp-stroke,#cfxbe2aa8b6 .cfx-guide-stroke,#cfxbe2aa8b6 .cfx-premium-stroke{vector-effect:non-scaling-stroke;shape-rendering:geometricPrecision} #cfxbe2aa8b6 .cfx-guide-stroke{shape-rendering:crispEdges} #cfxbe2aa8b6 .cfx-interactive-region{transition:opacity .12s ease,stroke-width .12s ease} #cfxbe2aa8b6 .cfx-interactive-region[data-cfx-role="dotted-map-connector"]{pointer-events:stroke} #cfxbe2aa8b6 .cfx-interactive-region:hover,#cfxbe2aa8b6 .cfx-interactive-region:focus{opacity:1;outline:none;stroke-width:var(--cfx-interactive-focus-stroke-width,2.2)}</style>
<filter id="cfxbe2aa8b6-softShadow" x="-20%" y="-20%" width="140%" height="140%"><feDropShadow dx="0" dy="4" stdDeviation="6" flood-color="#0F172A" flood-opacity="0.097"/><feDropShadow dx="0" dy="14" stdDeviation="18" flood-color="#0F172A" flood-opacity="0.22"/></filter>
<linearGradient id="cfxbe2aa8b6-cardSurface" x1="0" x2="0" y1="0" y2="1"><stop offset="0%" stop-color="#232A38" stop-opacity="1"/><stop offset="100%" stop-color="#0D1421" stop-opacity="1"/></linearGradient>
<linearGradient id="cfxbe2aa8b6-plotSurface" x1="0" x2="0" y1="0" y2="1"><stop offset="0%" stop-color="#1C202A" stop-opacity="1"/><stop offset="100%" stop-color="#070B14" stop-opacity="1"/></linearGradient>
<clipPath id="cfxbe2aa8b6-plotClip"><rect x="8" y="8" width="344" height="74" rx="8"/></clipPath>
<linearGradient id="cfxbe2aa8b6-area0" x1="0" x2="0" y1="0" y2="1"><stop offset="0%" stop-color="#FBBF24" stop-opacity="0.32"/><stop offset="100%" stop-color="#FBBF24" stop-opacity="0.02"/></linearGradient>
<linearGradient id="cfxbe2aa8b6-seriesFill0" x1="0" x2="0" y1="0" y2="1"><stop offset="0%" stop-color="#FBC73E" stop-opacity="1"/><stop offset="100%" stop-color="#ECB422" stop-opacity="0.94"/></linearGradient>
<linearGradient id="cfxbe2aa8b6-sliceFill0" x1="0" x2="1" y1="0" y2="1"><stop offset="0%" stop-color="#60A5FA" stop-opacity="1"/><stop offset="100%" stop-color="#60A5FA" stop-opacity="0.78"/></linearGradient>
<linearGradient id="cfxbe2aa8b6-sliceFill1" x1="0" x2="1" y1="0" y2="1"><stop offset="0%" stop-color="#22D3EE" stop-opacity="1"/><stop offset="100%" stop-color="#22D3EE" stop-opacity="0.78"/></linearGradient>
<linearGradient id="cfxbe2aa8b6-sliceFill2" x1="0" x2="1" y1="0" y2="1"><stop offset="0%" stop-color="#34D399" stop-opacity="1"/><stop offset="100%" stop-color="#34D399" stop-opacity="0.78"/></linearGradient>
<linearGradient id="cfxbe2aa8b6-sliceFill3" x1="0" x2="1" y1="0" y2="1"><stop offset="0%" stop-color="#FBBF24" stop-opacity="1"/><stop offset="100%" stop-color="#FBBF24" stop-opacity="0.78"/></linearGradient>
<linearGradient id="cfxbe2aa8b6-sliceFill4" x1="0" x2="1" y1="0" y2="1"><stop offset="0%" stop-color="#F87171" stop-opacity="1"/><stop offset="100%" stop-color="#F87171" stop-opacity="0.78"/></linearGradient>
<linearGradient id="cfxbe2aa8b6-sliceFill5" x1="0" x2="1" y1="0" y2="1"><stop offset="0%" stop-color="#A78BFA" stop-opacity="1"/><stop offset="100%" stop-color="#A78BFA" stop-opacity="0.78"/></linearGradient>
<linearGradient id="cfxbe2aa8b6-sliceFill6" x1="0" x2="1" y1="0" y2="1"><stop offset="0%" stop-color="#F472B6" stop-opacity="1"/><stop offset="100%" stop-color="#F472B6" stop-opacity="0.78"/></linearGradient>
<linearGradient id="cfxbe2aa8b6-sliceFill7" x1="0" x2="1" y1="0" y2="1"><stop offset="0%" stop-color="#2DD4BF" stop-opacity="1"/><stop offset="100%" stop-color="#2DD4BF" stop-opacity="0.78"/></linearGradient>
</defs>
<g id="cfxbe2aa8b6">
<g clip-path="url(#cfxbe2aa8b6-plotClip)">
<path data-cfx-role="area" data-cfx-series="0" data-cfx-point-count="8" d="M 8 26.5 C 16.19 25.113 40.762 19.1 57.143 18.175 C 73.524 17.25 89.905 18.792 106.286 20.95 C 122.667 23.108 139.048 28.504 155.429 31.125 C 171.81 33.746 188.19 34.825 204.571 36.675 C 220.952 38.525 237.333 40.221 253.714 42.225 C 270.095 44.229 286.476 47.313 302.857 48.7 C 319.238 50.088 343.81 50.242 352 50.55 L 352 82 L 8 82 Z" fill="url(#cfxbe2aa8b6-area0)"/>
<path data-cfx-role="area-line-ambient-halo" data-cfx-series="0" data-cfx-point-count="8" d="M 8 26.5 C 16.19 25.113 40.762 19.1 57.143 18.175 C 73.524 17.25 89.905 18.792 106.286 20.95 C 122.667 23.108 139.048 28.504 155.429 31.125 C 171.81 33.746 188.19 34.825 204.571 36.675 C 220.952 38.525 237.333 40.221 253.714 42.225 C 270.095 44.229 286.476 47.313 302.857 48.7 C 319.238 50.088 343.81 50.242 352 50.55" class="cfx-premium-stroke" fill="none" stroke="#FBBF24" stroke-width="13" stroke-linecap="round" stroke-linejoin="round" opacity="0.055"/>
<path data-cfx-role="area-line-halo" data-cfx-series="0" data-cfx-point-count="8" d="M 8 26.5 C 16.19 25.113 40.762 19.1 57.143 18.175 C 73.524 17.25 89.905 18.792 106.286 20.95 C 122.667 23.108 139.048 28.504 155.429 31.125 C 171.81 33.746 188.19 34.825 204.571 36.675 C 220.952 38.525 237.333 40.221 253.714 42.225 C 270.095 44.229 286.476 47.313 302.857 48.7 C 319.238 50.088 343.81 50.242 352 50.55" class="cfx-premium-stroke" fill="none" stroke="#FBBF24" stroke-width="8" stroke-linecap="round" stroke-linejoin="round" opacity="0.14"/>
<path data-cfx-role="area-line" data-cfx-series="0" data-cfx-point-count="8" d="M 8 26.5 C 16.19 25.113 40.762 19.1 57.143 18.175 C 73.524 17.25 89.905 18.792 106.286 20.95 C 122.667 23.108 139.048 28.504 155.429 31.125 C 171.81 33.746 188.19 34.825 204.571 36.675 C 220.952 38.525 237.333 40.221 253.714 42.225 C 270.095 44.229 286.476 47.313 302.857 48.7 C 319.238 50.088 343.81 50.242 352 50.55" class="cfx-premium-stroke" fill="none" stroke="#FBBF24" stroke-width="3" stroke-linecap="round" stroke-linejoin="round"/>
<path data-cfx-role="area-line-highlight" data-cfx-series="0" data-cfx-point-count="8" d="M 8 26.5 C 16.19 25.113 40.762 19.1 57.143 18.175 C 73.524 17.25 89.905 18.792 106.286 20.95 C 122.667 23.108 139.048 28.504 155.429 31.125 C 171.81 33.746 188.19 34.825 204.571 36.675 C 220.952 38.525 237.333 40.221 253.714 42.225 C 270.095 44.229 286.476 47.313 302.857 48.7 C 319.238 50.088 343.81 50.242 352 50.55" class="cfx-premium-stroke" fill="none" stroke="#FFFFFF" stroke-width="1" stroke-linecap="round" stroke-linejoin="round" opacity="0.13"/>
</g>
</g>
</svg>
