<svg xmlns="http://www.w3.org/2000/svg" viewBox="0 0 74.5034 74.5034" preserveAspectRatio="xMidYMid meet">
<style type="text/css" xmlns="http://www.w3.org/2000/svg">
	<![CDATA[
		.st1 {fill:#38454f;stroke:none;stroke-width:10.5517}
		.st2 {fill:#ecd361;stroke:none;stroke-width:10.5517}
		.st3 {fill:#546a79;stroke:none;stroke-width:10.5517}
		.st4 {fill:#cbd4d8;stroke:none;stroke-width:10.5517}
		.st5 {fill:none;fill-rule:evenodd;font-size:12px;overflow:visible;stroke-linecap:square;stroke-miterlimit:3}
	]]>
	</style>

	<g v:mID="0" v:index="1" v:groupContext="foregroundPage" xmlns:v="http://schemas.microsoft.com/visio/2003/SVGExtensions/" xmlns="http://www.w3.org/2000/svg">


		<g id="cfxi-microsoft-azure-stencils-iot-iot-chip-1-group18505-1" transform="translate(10.5517,-10.5517)" v:mID="18505" v:groupContext="group">

			<g id="cfxi-microsoft-azure-stencils-iot-iot-chip-1-shape18506-2" v:mID="18506" v:groupContext="shape" transform="translate(9.70909,-9.70909)">

				<path d="M0 70.43 L0 44.6 A4.07418 4.07418 0 0 1 4.07 40.52 L29.91 40.52 A4.07418 4.07418 0 0 1 33.98 44.6 L33.98         70.43 A4.07418 4.07418 0 0 1 29.91 74.5 L4.07 74.5 A4.07418 4.07418 0 0 1 0 70.43 Z" class="st1" />
			</g>
			<g id="cfxi-microsoft-azure-stencils-iot-iot-chip-1-shape18507-4" v:mID="18507" v:groupContext="shape">

				<path d="M4.85 39.31 L1.21 39.31 A1.21364 1.21364 -180 1 0 1.21 41.74 L4.85 41.74 A1.21364 1.21364 -180 0 0 4.85         39.31 ZM4.85 53.87 L1.21 53.87 A1.21364 1.21364 -180 0 0 1.21 56.3 L4.85 56.3 A1.21364 1.21364 -180         0 0 4.85 53.87 ZM4.85 49.02 L1.21 49.02 A1.21364 1.21364 -180 1 0 1.21 51.44 L4.85 51.44 A1.21364 1.21364         -180 0 0 4.85 49.02 ZM4.85 44.16 L1.21 44.16 A1.21364 1.21364 -180 1 0 1.21 46.59 L4.85 46.59 A1.21364         1.21364 -180 1 0 4.85 44.16 ZM48.55 41.74 L52.19 41.74 A1.21364 1.21364 -180 0 0 52.19 39.31 L48.55         39.31 A1.21364 1.21364 -180 1 0 48.55 41.74 ZM52.19 53.87 L48.55 53.87 A1.21364 1.21364 -180 1 0 48.55         56.3 L52.19 56.3 A1.21364 1.21364 -180 0 0 52.19 53.87 ZM52.19 49.02 L48.55 49.02 A1.21364 1.21364 -180         1 0 48.55 51.44 L52.19 51.44 A1.21364 1.21364 -180 0 0 52.19 49.02 ZM52.19 44.16 L48.55 44.16 A1.21364         1.21364 -180 1 0 48.55 46.59 L52.19 46.59 A1.21364 1.21364 -180 0 0 52.19 44.16 ZM33.98 21.1 A1.21364         1.21364 -180 0 0 32.77 22.32 L32.77 25.96 A1.21364 1.21364 -180 1 0 35.2 25.96 L35.2 22.32 A1.21364         1.21364 -180 0 0 33.98 21.1 ZM19.42 21.1 A1.21364 1.21364 -180 0 0 18.2 22.32 L18.2 25.96 A1.21364 1.21364         -180 1 0 20.63 25.96 L20.63 22.32 A1.21364 1.21364 -180 0 0 19.42 21.1 ZM24.27 21.1 A1.21364 1.21364         -180 0 0 23.06 22.32 L23.06 25.96 A1.21364 1.21364 -180 1 0 25.49 25.96 L25.49 22.32 A1.21364 1.21364         -180 0 0 24.27 21.1 ZM29.13 21.1 A1.21364 1.21364 -180 0 0 27.91 22.32 L27.91 25.96 A1.21364 1.21364         -180 0 0 30.34 25.96 L30.34 22.32 A1.21364 1.21364 -180 0 0 29.13 21.1 ZM33.98 68.44 A1.21364 1.21364         -180 0 0 32.77 69.65 L32.77 73.29 A1.21364 1.21364 -180 0 0 35.2 73.29 L35.2 69.65 A1.21364 1.21364         -180 0 0 33.98 68.44 ZM19.42 68.44 A1.21364 1.21364 -180 0 0 18.2 69.65 L18.2 73.29 A1.21364 1.21364         -180 1 0 20.63 73.29 L20.63 69.65 A1.21364 1.21364 -180 0 0 19.42 68.44 ZM24.27 68.44 A1.21364 1.21364         -180 0 0 23.06 69.65 L23.06 73.29 A1.21364 1.21364 -180 0 0 25.49 73.29 L25.49 69.65 A1.21364 1.21364         -180 0 0 24.27 68.44 ZM29.13 68.44 A1.21364 1.21364 -180 0 0 27.91 69.65 L27.91 73.29 A1.21364 1.21364         -180 0 0 30.34 73.29 L30.34 69.65 A1.21364 1.21364 -180 0 0 29.13 68.44 Z" class="st2" />
			</g>
			<g id="cfxi-microsoft-azure-stencils-iot-iot-chip-1-group18508-6" transform="translate(15.7773,-14.5636)" v:mID="18508" v:groupContext="group">

				<g id="cfxi-microsoft-azure-stencils-iot-iot-chip-1-shape18509-7" v:mID="18509" v:groupContext="shape" transform="translate(19.4182,1.42109E-14)">

					<ellipse cx="1.21364" cy="73.2898" rx="1.21364" ry="1.21364" class="st3" />
				</g>
				<g id="cfxi-microsoft-azure-stencils-iot-iot-chip-1-shape18510-9" v:mID="18510" v:groupContext="shape" transform="translate(14.5636,1.42109E-14)">

					<ellipse cx="1.21364" cy="73.2898" rx="1.21364" ry="1.21364" class="st3" />
				</g>
				<g id="cfxi-microsoft-azure-stencils-iot-iot-chip-1-shape18511-11" v:mID="18511" v:groupContext="shape" transform="translate(16.9909,-3.64091)">

					<ellipse cx="1.21364" cy="73.2898" rx="1.21364" ry="1.21364" class="st3" />
				</g>
				<g id="cfxi-microsoft-azure-stencils-iot-iot-chip-1-shape18512-13" v:mID="18512" v:groupContext="shape" transform="translate(9.70909,1.42109E-14)">

					<ellipse cx="1.21364" cy="73.2898" rx="1.21364" ry="1.21364" class="st3" />
				</g>
				<g id="cfxi-microsoft-azure-stencils-iot-iot-chip-1-shape18513-15" v:mID="18513" v:groupContext="shape" transform="translate(4.85455,1.42109E-14)">

					<ellipse cx="1.21364" cy="73.2898" rx="1.21364" ry="1.21364" class="st3" />
				</g>
				<g id="cfxi-microsoft-azure-stencils-iot-iot-chip-1-shape18514-17" v:mID="18514" v:groupContext="shape" transform="translate(12.1364,-3.64091)">

					<ellipse cx="1.21364" cy="73.2898" rx="1.21364" ry="1.21364" class="st3" />
				</g>
				<g id="cfxi-microsoft-azure-stencils-iot-iot-chip-1-shape18515-19" v:mID="18515" v:groupContext="shape" transform="translate(7.28182,-3.64091)">

					<ellipse cx="1.21364" cy="73.2898" rx="1.21364" ry="1.21364" class="st3" />
				</g>
				<g id="cfxi-microsoft-azure-stencils-iot-iot-chip-1-shape18516-21" v:mID="18516" v:groupContext="shape">

					<ellipse cx="1.21364" cy="73.2898" rx="1.21364" ry="1.21364" class="st3" />
				</g>
				<g id="cfxi-microsoft-azure-stencils-iot-iot-chip-1-shape18517-23" v:mID="18517" v:groupContext="shape" transform="translate(2.42727,-3.64091)">

					<ellipse cx="1.21364" cy="73.2898" rx="1.21364" ry="1.21364" class="st3" />
				</g>
				<g id="cfxi-microsoft-azure-stencils-iot-iot-chip-1-shape18518-25" v:mID="18518" v:groupContext="shape" transform="translate(19.4182,-7.28182)">

					<ellipse cx="1.21364" cy="73.2898" rx="1.21364" ry="1.21364" class="st3" />
				</g>
				<g id="cfxi-microsoft-azure-stencils-iot-iot-chip-1-shape18519-27" v:mID="18519" v:groupContext="shape" transform="translate(14.5636,-7.28182)">

					<ellipse cx="1.21364" cy="73.2898" rx="1.21364" ry="1.21364" class="st3" />
				</g>
				<g id="cfxi-microsoft-azure-stencils-iot-iot-chip-1-shape18520-29" v:mID="18520" v:groupContext="shape" transform="translate(16.9909,-10.9227)">

					<ellipse cx="1.21364" cy="73.2898" rx="1.21364" ry="1.21364" class="st3" />
				</g>
				<g id="cfxi-microsoft-azure-stencils-iot-iot-chip-1-shape18521-31" v:mID="18521" v:groupContext="shape" transform="translate(9.70909,-7.28182)">

					<ellipse cx="1.21364" cy="73.2898" rx="1.21364" ry="1.21364" class="st3" />
				</g>
				<g id="cfxi-microsoft-azure-stencils-iot-iot-chip-1-shape18522-33" v:mID="18522" v:groupContext="shape" transform="translate(4.85455,-7.28182)">

					<ellipse cx="1.21364" cy="73.2898" rx="1.21364" ry="1.21364" class="st3" />
				</g>
				<g id="cfxi-microsoft-azure-stencils-iot-iot-chip-1-shape18523-35" v:mID="18523" v:groupContext="shape" transform="translate(12.1364,-10.9227)">

					<ellipse cx="1.21364" cy="73.2898" rx="1.21364" ry="1.21364" class="st3" />
				</g>
				<g id="cfxi-microsoft-azure-stencils-iot-iot-chip-1-shape18524-37" v:mID="18524" v:groupContext="shape" transform="translate(7.28182,-10.9227)">

					<ellipse cx="1.21364" cy="73.2898" rx="1.21364" ry="1.21364" class="st3" />
				</g>
				<g id="cfxi-microsoft-azure-stencils-iot-iot-chip-1-shape18525-39" v:mID="18525" v:groupContext="shape" transform="translate(2.17326E-14,-7.28182)">

					<ellipse cx="1.21364" cy="73.2898" rx="1.21364" ry="1.21364" class="st3" />
				</g>
				<g id="cfxi-microsoft-azure-stencils-iot-iot-chip-1-shape18526-41" v:mID="18526" v:groupContext="shape" transform="translate(2.42727,-10.9227)">

					<ellipse cx="1.21364" cy="73.2898" rx="1.21364" ry="1.21364" class="st3" />
				</g>
				<g id="cfxi-microsoft-azure-stencils-iot-iot-chip-1-shape18527-43" v:mID="18527" v:groupContext="shape" transform="translate(19.4182,-14.5636)">

					<ellipse cx="1.21364" cy="73.2898" rx="1.21364" ry="1.21364" class="st3" />
				</g>
				<g id="cfxi-microsoft-azure-stencils-iot-iot-chip-1-shape18528-45" v:mID="18528" v:groupContext="shape" transform="translate(14.5636,-14.5636)">

					<ellipse cx="1.21364" cy="73.2898" rx="1.21364" ry="1.21364" class="st3" />
				</g>
				<g id="cfxi-microsoft-azure-stencils-iot-iot-chip-1-shape18529-47" v:mID="18529" v:groupContext="shape" transform="translate(16.9909,-18.2045)">

					<ellipse cx="1.21364" cy="73.2898" rx="1.21364" ry="1.21364" class="st3" />
				</g>
				<g id="cfxi-microsoft-azure-stencils-iot-iot-chip-1-shape18530-49" v:mID="18530" v:groupContext="shape" transform="translate(9.70909,-14.5636)">

					<ellipse cx="1.21364" cy="73.2898" rx="1.21364" ry="1.21364" class="st3" />
				</g>
				<g id="cfxi-microsoft-azure-stencils-iot-iot-chip-1-shape18531-51" v:mID="18531" v:groupContext="shape" transform="translate(4.85455,-14.5636)">

					<ellipse cx="1.21364" cy="73.2898" rx="1.21364" ry="1.21364" class="st3" />
				</g>
				<g id="cfxi-microsoft-azure-stencils-iot-iot-chip-1-shape18532-53" v:mID="18532" v:groupContext="shape" transform="translate(12.1364,-18.2045)">

					<ellipse cx="1.21364" cy="73.2898" rx="1.21364" ry="1.21364" class="st3" />
				</g>
				<g id="cfxi-microsoft-azure-stencils-iot-iot-chip-1-shape18533-55" v:mID="18533" v:groupContext="shape" transform="translate(7.28182,-18.2045)">

					<ellipse cx="1.21364" cy="73.2898" rx="1.21364" ry="1.21364" class="st3" />
				</g>
				<g id="cfxi-microsoft-azure-stencils-iot-iot-chip-1-shape18534-57" v:mID="18534" v:groupContext="shape" transform="translate(2.17326E-14,-14.5636)">

					<ellipse cx="1.21364" cy="73.2898" rx="1.21364" ry="1.21364" class="st3" />
				</g>
				<g id="cfxi-microsoft-azure-stencils-iot-iot-chip-1-shape18535-59" v:mID="18535" v:groupContext="shape" transform="translate(2.42727,-18.2045)">

					<ellipse cx="1.21364" cy="73.2898" rx="1.21364" ry="1.21364" class="st3" />
				</g>
				<g id="cfxi-microsoft-azure-stencils-iot-iot-chip-1-shape18536-61" v:mID="18536" v:groupContext="shape" transform="translate(19.4182,-21.8455)">

					<ellipse cx="1.21364" cy="73.2898" rx="1.21364" ry="1.21364" class="st3" />
				</g>
				<g id="cfxi-microsoft-azure-stencils-iot-iot-chip-1-shape18537-63" v:mID="18537" v:groupContext="shape" transform="translate(14.5636,-21.8455)">

					<ellipse cx="1.21364" cy="73.2898" rx="1.21364" ry="1.21364" class="st3" />
				</g>
				<g id="cfxi-microsoft-azure-stencils-iot-iot-chip-1-shape18538-65" v:mID="18538" v:groupContext="shape" transform="translate(9.70909,-21.8455)">

					<ellipse cx="1.21364" cy="73.2898" rx="1.21364" ry="1.21364" class="st3" />
				</g>
				<g id="cfxi-microsoft-azure-stencils-iot-iot-chip-1-shape18539-67" v:mID="18539" v:groupContext="shape" transform="translate(4.85455,-21.8455)">

					<ellipse cx="1.21364" cy="73.2898" rx="1.21364" ry="1.21364" class="st3" />
				</g>
				<g id="cfxi-microsoft-azure-stencils-iot-iot-chip-1-shape18540-69" v:mID="18540" v:groupContext="shape" transform="translate(2.17326E-14,-21.8455)">

					<ellipse cx="1.21364" cy="73.2898" rx="1.21364" ry="1.21364" class="st3" />
				</g>
			</g>
			<g id="cfxi-microsoft-azure-stencils-iot-iot-chip-1-shape18541-71" v:mID="18541" v:groupContext="shape" transform="translate(4.85455,-4.85455)">

				<path d="M12.14 30.81 L31.55 30.81 L31.55 35.67 L12.14 35.67 L12.14 30.81 ZM12.14 69.65 L31.55 69.65 L31.55 74.5         L12.14 74.5 L12.14 69.65 ZM38.84 42.95 L43.69 42.95 L43.69 62.37 L38.84 62.37 L38.84 42.95 ZM0 42.95         L4.85 42.95 L4.85 62.37 L0 62.37 L0 42.95 Z" class="st4" />
			</g>
		</g>
	</g>
</svg>
