<svg xmlns="http://www.w3.org/2000/svg" viewBox="0 0 42.0657 24" preserveAspectRatio="xMidYMid meet">
<style type="text/css" xmlns="http://www.w3.org/2000/svg">
	<![CDATA[
		.st1 {fill:#efefef;stroke:none;stroke-width:0.75}
		.st2 {fill:#b5b5b6;stroke:#f7f8f8;stroke-width:0.080625}
		.st3 {fill:#67726d;stroke:none;stroke-width:0.75}
		.st4 {fill:#efefef;stroke:#c9caca;stroke-width:0.079575}
		.st5 {fill:#efefef;stroke:#c9caca;stroke-width:0.0689531}
		.st6 {fill:#e83828;stroke:none;stroke-width:0.75}
		.st7 {fill:#9fa0a0;stroke:none;stroke-width:0.75}
		.st8 {fill:#727171;stroke:none;stroke-width:0.75}
		.st9 {fill:#3e3a39;stroke:none;stroke-width:0.75}
		.st10 {fill:none;fill-rule:evenodd;font-size:12px;overflow:visible;stroke-linecap:square;stroke-miterlimit:3}
	]]>
	</style>

	<g v:mID="0" v:index="1" v:groupContext="foregroundPage" xmlns:v="http://schemas.microsoft.com/visio/2003/SVGExtensions/" xmlns="http://www.w3.org/2000/svg">


		<g id="cfxi-microsoft-azure-stencils-iot-sensing-1-group13506-1" transform="translate(0.75,-0.75)" v:mID="13506" v:groupContext="group">

			<g id="cfxi-microsoft-azure-stencils-iot-sensing-1-shape13507-2" v:mID="13507" v:groupContext="shape">

				<path d="M39.25 24 L1.31 24 C0.66 24 0 23.34 0 22.69 L0 2.81 C0 2.16 0.66 1.5 1.31 1.5 L39.25 1.5 C39.91 1.5 40.57         2.16 40.57 2.81 L40.57 22.69 C40.57 23.34 40.07 24 39.25 24 Z" class="st1" />
			</g>
			<g id="cfxi-microsoft-azure-stencils-iot-sensing-1-shape13508-4" v:mID="13508" v:groupContext="shape" transform="translate(2.29927,-6.07664)">

				<path d="M35.31 24 L0.66 24 C0.33 24 0 23.67 0 23.34 L0 10.53 C0 10.2 0.33 9.88 0.66 9.88 L35.31 9.88 C35.64 9.88         35.97 10.2 35.97 10.53 L35.97 23.34 C36.13 23.67 35.8 24 35.31 24 Z" class="st2" />
			</g>
			<g id="cfxi-microsoft-azure-stencils-iot-sensing-1-shape13509-6" v:mID="13509" v:groupContext="shape" transform="translate(2.79197,-6.40511)">

				<path d="M34.32 24 L0.66 24 C0.33 24 0 23.67 0 23.34 L0 11.35 C0 11.03 0.33 10.7 0.66 10.7 L34.32 10.7 C34.65 10.7         34.98 11.03 34.98 11.35 L34.98 23.34 C35.15 23.67 34.82 24 34.32 24 Z" class="st3" />
			</g>
			<g id="cfxi-microsoft-azure-stencils-iot-sensing-1-shape13510-8" v:mID="13510" v:groupContext="shape" transform="translate(30.3832,-1.14964)">

				<path d="M6.08 24 L0.66 24 C0.33 24 0 23.67 0 23.34 L0 20.55 C0 20.22 0.33 19.89 0.66 19.89 L6.08 19.89 C6.41 19.89         6.73 20.22 6.73 20.55 L6.73 23.34 C6.73 23.84 6.41 24 6.08 24 Z" class="st4" />
			</g>
			<g id="cfxi-microsoft-azure-stencils-iot-sensing-1-shape13511-10" v:mID="13511" v:groupContext="shape" transform="translate(3.61314,-1.14964)">

				<path d="M4.43 24 L0.49 24 C0.16 24 0 23.84 0 23.51 L0 20.55 C0 20.22 0.16 20.06 0.49 20.06 L4.43 20.06 C4.76 20.06         4.93 20.22 4.93 20.55 L4.93 23.51 C4.93 23.84 4.6 24 4.43 24 Z" class="st5" />
			</g>
			<g id="cfxi-microsoft-azure-stencils-iot-sensing-1-shape13512-12" v:mID="13512" v:groupContext="shape" transform="translate(10.3467,-1.14964)">

				<path d="M4.43 24 L0.49 24 C0.16 24 0 23.84 0 23.51 L0 20.55 C0 20.22 0.16 20.06 0.49 20.06 L4.43 20.06 C4.76 20.06         4.93 20.22 4.93 20.55 L4.93 23.51 C4.93 23.84 4.76 24 4.43 24 Z" class="st5" />
			</g>
			<g id="cfxi-microsoft-azure-stencils-iot-sensing-1-shape13513-14" v:mID="13513" v:groupContext="shape" transform="translate(32.6825,-1.80657)">

				<path d="M1.15 24 C0.49 24 0 23.51 0 22.85 C0 22.36 0.33 22.03 0.66 21.86 C0.66 21.86 0.82 21.86 0.82 22.03 L0.82         22.19 C0.49 22.36 0.33 22.69 0.33 23.01 C0.33 23.51 0.66 24 1.15 24 C1.97 24 2.3 23.67 2.3 23.01 C2.3         22.69 2.14 22.36 1.81 22.19 C1.81 22.19 1.81 22.19 1.81 22.03 C1.81 22.03 1.81 21.86 1.97 21.86 C2.46         22.03 2.63 22.52 2.63 22.85 C2.3 23.51 1.81 24 1.15 24 ZM1.15 22.85 C1.15 22.85 1.15 22.69 1.15 22.85         L0.99 22.03 L0.99 21.86 L0.99 21.7 C0.99 21.7 0.99 21.54 1.15 21.54 C1.15 21.54 1.31 21.54 1.31 21.7         L1.31 22.03 L1.31 22.19 L1.15 22.85 C1.31 22.69 1.31 22.85 1.15 22.85 Z" class="st6" />
			</g>
			<g id="cfxi-microsoft-azure-stencils-iot-sensing-1-shape13514-16" v:mID="13514" v:groupContext="shape" transform="translate(11.8248,-2.79197)">

				<path d="M0.16 23.67 L0.66 23.67 L0.82 23.67 L1.15 23.67 L1.48 23.67 L1.81 23.67 C1.97 23.67 1.97 23.84 1.97 23.84         L1.81 24 L1.48 24 L1.15 24 L0.82 24 L0.49 24 L0.16 24 C0 24 0 23.84 0 23.84 C0 23.84 0 23.67 0.16 23.67         Z" class="st7" />
			</g>
			<g id="cfxi-microsoft-azure-stencils-iot-sensing-1-shape13515-18" v:mID="13515" v:groupContext="shape" transform="translate(4.92701,-1.9708)">

				<path d="M0.16 22.85 L0.82 22.85 L0.82 22.19 C0.82 22.03 0.99 22.03 0.99 22.03 C1.15 22.03 1.15 22.19 1.15 22.19         L1.15 22.85 L1.81 22.85 C1.97 22.85 1.97 23.01 1.97 23.01 L1.81 23.18 L1.15 23.18 L1.15 23.84 C1.15         24 0.99 24 0.99 24 C0.82 24 0.82 23.84 0.82 23.84 L0.82 23.18 L0.16 23.18 C0 23.18 0 23.01 0 23.01 C0         23.01 0 22.85 0.16 22.85 Z" class="st7" />
			</g>
			<g id="cfxi-microsoft-azure-stencils-iot-sensing-1-group13516-20" transform="translate(7.39051,-8.04745)" v:mID="13516" v:groupContext="group">

				<g id="cfxi-microsoft-azure-stencils-iot-sensing-1-shape13517-21" v:mID="13517" v:groupContext="shape" transform="translate(0.656934,-9.03285)">

					<path d="M3.78 23.18 L4.11 23.67 L3.78 24 L0.33 24 L0 23.67 L0.33 23.18 L3.78 23.18 Z" class="st8" />
				</g>
				<g id="cfxi-microsoft-azure-stencils-iot-sensing-1-shape13518-23" v:mID="13518" v:groupContext="shape" transform="translate(0.656934,-4.59854)">

					<path d="M3.78 23.18 L4.11 23.51 L3.78 24 L0.33 24 L0 23.51 L0.33 23.18 L3.78 23.18 Z" class="st8" />
				</g>
				<g id="cfxi-microsoft-azure-stencils-iot-sensing-1-shape13519-25" v:mID="13519" v:groupContext="shape" transform="translate(0.656934,-0.164234)">

					<path d="M3.78 23.18 L4.11 23.51 L3.78 24 L0.33 24 L0 23.51 L0.33 23.18 L3.78 23.18 Z" class="st8" />
				</g>
				<g id="cfxi-microsoft-azure-stencils-iot-sensing-1-shape13520-27" v:mID="13520" v:groupContext="shape" transform="translate(-1.36328E-13,-0.821168)">

					<path d="M0.82 23.67 L0.33 24 L0 23.67 L0 20.22 L0.33 19.89 L0.82 20.22 L0.82 23.67 Z" class="st8" />
				</g>
				<g id="cfxi-microsoft-azure-stencils-iot-sensing-1-shape13521-29" v:mID="13521" v:groupContext="shape" transform="translate(4.59854,-5.09124)">

					<path d="M0.82 23.67 L0.33 24 L0 23.67 L0 20.22 L0.33 19.89 L0.82 20.22 L0.82 23.67 Z" class="st8" />
				</g>
				<g id="cfxi-microsoft-azure-stencils-iot-sensing-1-shape13522-31" v:mID="13522" v:groupContext="shape" transform="translate(7.06204,-5.09124)">

					<path d="M0.82 23.67 L0.33 24 L0 23.67 L0 20.22 L0.33 19.89 L0.82 20.22 L0.82 23.67 Z" class="st8" />
				</g>
				<g id="cfxi-microsoft-azure-stencils-iot-sensing-1-shape13523-33" v:mID="13523" v:groupContext="shape" transform="translate(7.71898,-9.03285)">

					<path d="M3.78 23.18 L4.11 23.67 L3.78 24 L0.33 24 L0 23.67 L0.33 23.18 L3.78 23.18 Z" class="st8" />
				</g>
				<g id="cfxi-microsoft-azure-stencils-iot-sensing-1-shape13524-35" v:mID="13524" v:groupContext="shape" transform="translate(7.71898,-4.59854)">

					<path d="M3.78 23.18 L4.11 23.51 L3.78 24 L0.33 24 L0 23.51 L0.33 23.18 L3.78 23.18 Z" class="st8" />
				</g>
				<g id="cfxi-microsoft-azure-stencils-iot-sensing-1-shape13525-37" v:mID="13525" v:groupContext="shape" transform="translate(7.71898,-0.164234)">

					<path d="M3.78 23.18 L4.11 23.51 L3.78 24 L0.33 24 L0 23.51 L0.33 23.18 L3.78 23.18 Z" class="st8" />
				</g>
				<g id="cfxi-microsoft-azure-stencils-iot-sensing-1-shape13526-39" v:mID="13526" v:groupContext="shape" transform="translate(7.06204,-0.821168)">

					<path d="M0.82 23.67 L0.33 24 L0 23.67 L0 20.22 L0.33 19.89 L0.82 20.22 L0.82 23.67 Z" class="st8" />
				</g>
				<g id="cfxi-microsoft-azure-stencils-iot-sensing-1-shape13527-41" v:mID="13527" v:groupContext="shape" transform="translate(11.6606,-0.821168)">

					<path d="M0.82 23.67 L0.49 24 L0 23.67 L0 20.22 L0.49 19.89 L0.82 20.22 L0.82 23.67 Z" class="st8" />
				</g>
				<g id="cfxi-microsoft-azure-stencils-iot-sensing-1-shape13528-43" v:mID="13528" v:groupContext="shape" transform="translate(16.0949,-9.03285)">

					<path d="M3.78 23.18 L4.11 23.67 L3.78 24 L0.33 24 L0 23.67 L0.33 23.18 L3.78 23.18 Z" class="st8" />
				</g>
				<g id="cfxi-microsoft-azure-stencils-iot-sensing-1-shape13529-45" v:mID="13529" v:groupContext="shape" transform="translate(16.0949,-4.59854)">

					<path d="M3.78 23.18 L4.11 23.51 L3.78 24 L0.33 24 L0 23.51 L0.33 23.18 L3.78 23.18 Z" class="st8" />
				</g>
				<g id="cfxi-microsoft-azure-stencils-iot-sensing-1-shape13530-47" v:mID="13530" v:groupContext="shape" transform="translate(16.0949,-0.164234)">

					<path d="M3.78 23.18 L4.11 23.51 L3.78 24 L0.33 24 L0 23.51 L0.33 23.18 L3.78 23.18 Z" class="st8" />
				</g>
				<g id="cfxi-microsoft-azure-stencils-iot-sensing-1-shape13531-49" v:mID="13531" v:groupContext="shape" transform="translate(20.0365,-5.09124)">

					<path d="M0.82 23.67 L0.33 24 L0 23.67 L0 20.22 L0.33 19.89 L0.82 20.22 L0.82 23.67 Z" class="st8" />
				</g>
				<g id="cfxi-microsoft-azure-stencils-iot-sensing-1-shape13532-51" v:mID="13532" v:groupContext="shape" transform="translate(20.0365,-0.821168)">

					<path d="M0.82 23.67 L0.33 24 L0 23.67 L0 20.22 L0.33 19.89 L0.82 20.22 L0.82 23.67 Z" class="st8" />
				</g>
				<g id="cfxi-microsoft-azure-stencils-iot-sensing-1-shape13533-53" v:mID="13533" v:groupContext="shape" transform="translate(23.1569,-4.59854)">

					<path d="M3.78 23.18 L4.11 23.51 L3.78 24 L0.33 24 L0 23.51 L0.33 23.18 L3.78 23.18 Z" class="st8" />
				</g>
				<g id="cfxi-microsoft-azure-stencils-iot-sensing-1-shape13534-55" v:mID="13534" v:groupContext="shape" transform="translate(23.1569,-0.164234)">

					<path d="M3.78 23.18 L4.11 23.51 L3.78 24 L0.33 24 L0 23.51 L0.33 23.18 L3.78 23.18 Z" class="st8" />
				</g>
				<g id="cfxi-microsoft-azure-stencils-iot-sensing-1-shape13535-57" v:mID="13535" v:groupContext="shape" transform="translate(22.5,-0.821168)">

					<path d="M0.82 23.67 L0.33 24 L0 23.67 L0 20.22 L0.33 19.89 L0.82 20.22 L0.82 23.67 Z" class="st8" />
				</g>
				<g id="cfxi-microsoft-azure-stencils-iot-sensing-1-shape13536-59" v:mID="13536" v:groupContext="shape" transform="translate(13.4672,0)">

					<rect x="0" y="23.0146" width="0.985401" height="0.985401" class="st8" />
				</g>
				<g id="cfxi-microsoft-azure-stencils-iot-sensing-1-shape13537-61" v:mID="13537" v:groupContext="shape" transform="translate(21.1861,-5.58394)">

					<path d="M0.49 23.01 C0.16 23.01 0 23.18 0 23.51 C0 23.84 0.16 24 0.49 24 C0.82 24 0.99 23.84 0.99 23.51 C0.99          23.34 0.82 23.01 0.49 23.01 ZM0.49 23.84 C0.33 23.84 0.33 23.67 0.33 23.67 C0.33 23.51 0.49 23.51          0.49 23.51 C0.66 23.51 0.66 23.67 0.66 23.67 C0.66 23.67 0.66 23.84 0.49 23.84 Z" class="st8" />
				</g>
			</g>
			<g id="cfxi-microsoft-azure-stencils-iot-sensing-1-group13538-63" transform="translate(7.39051,-8.37591)" v:mID="13538" v:groupContext="group">

				<g id="cfxi-microsoft-azure-stencils-iot-sensing-1-shape13539-64" v:mID="13539" v:groupContext="shape" transform="translate(0.656934,-8.86861)">

					<path d="M3.78 23.01 L4.11 23.51 L3.78 24 L0.33 24 L0 23.51 L0.33 23.01 L3.78 23.01 Z" class="st9" />
				</g>
				<g id="cfxi-microsoft-azure-stencils-iot-sensing-1-shape13540-66" v:mID="13540" v:groupContext="shape" transform="translate(0.656934,-4.59854)">

					<path d="M3.78 23.18 L4.11 23.67 L3.78 24 L0.33 24 L0 23.67 L0.33 23.18 L3.78 23.18 Z" class="st9" />
				</g>
				<g id="cfxi-microsoft-azure-stencils-iot-sensing-1-shape13541-68" v:mID="13541" v:groupContext="shape" transform="translate(0.656934,-0.164234)">

					<path d="M3.78 23.18 L4.11 23.67 L3.78 24 L0.33 24 L0 23.67 L0.33 23.18 L3.78 23.18 Z" class="st9" />
				</g>
				<g id="cfxi-microsoft-azure-stencils-iot-sensing-1-shape13542-70" v:mID="13542" v:groupContext="shape" transform="translate(-1.36328E-13,-0.656934)">

					<path d="M0.82 23.51 L0.33 24 L0 23.51 L0 20.22 L0.33 19.73 L0.82 20.22 L0.82 23.51 Z" class="st9" />
				</g>
				<g id="cfxi-microsoft-azure-stencils-iot-sensing-1-shape13543-72" v:mID="13543" v:groupContext="shape" transform="translate(4.59854,-5.09124)">

					<path d="M0.82 23.67 L0.33 24 L0 23.67 L0 20.22 L0.33 19.89 L0.82 20.22 L0.82 23.67 Z" class="st9" />
				</g>
				<g id="cfxi-microsoft-azure-stencils-iot-sensing-1-shape13544-74" v:mID="13544" v:groupContext="shape" transform="translate(7.06204,-5.09124)">

					<path d="M0.82 23.67 L0.33 24 L0 23.67 L0 20.22 L0.33 19.89 L0.82 20.22 L0.82 23.67 Z" class="st9" />
				</g>
				<g id="cfxi-microsoft-azure-stencils-iot-sensing-1-shape13545-76" v:mID="13545" v:groupContext="shape" transform="translate(7.71898,-8.86861)">

					<path d="M3.78 23.01 L4.11 23.51 L3.78 24 L0.33 24 L0 23.51 L0.33 23.01 L3.78 23.01 Z" class="st9" />
				</g>
				<g id="cfxi-microsoft-azure-stencils-iot-sensing-1-shape13546-78" v:mID="13546" v:groupContext="shape" transform="translate(7.71898,-4.59854)">

					<path d="M3.78 23.18 L4.11 23.67 L3.78 24 L0.33 24 L0 23.67 L0.33 23.18 L3.78 23.18 Z" class="st9" />
				</g>
				<g id="cfxi-microsoft-azure-stencils-iot-sensing-1-shape13547-80" v:mID="13547" v:groupContext="shape" transform="translate(7.71898,-0.164234)">

					<path d="M3.78 23.18 L4.11 23.67 L3.78 24 L0.33 24 L0 23.67 L0.33 23.18 L3.78 23.18 Z" class="st9" />
				</g>
				<g id="cfxi-microsoft-azure-stencils-iot-sensing-1-shape13548-82" v:mID="13548" v:groupContext="shape" transform="translate(7.06204,-0.656934)">

					<path d="M0.82 23.51 L0.33 24 L0 23.51 L0 20.22 L0.33 19.73 L0.82 20.22 L0.82 23.51 Z" class="st9" />
				</g>
				<g id="cfxi-microsoft-azure-stencils-iot-sensing-1-shape13549-84" v:mID="13549" v:groupContext="shape" transform="translate(11.6606,-0.656934)">

					<path d="M0.82 23.51 L0.49 24 L0 23.51 L0 20.22 L0.49 19.73 L0.82 20.22 L0.82 23.51 Z" class="st9" />
				</g>
				<g id="cfxi-microsoft-azure-stencils-iot-sensing-1-shape13550-86" v:mID="13550" v:groupContext="shape" transform="translate(16.0949,-8.86861)">

					<path d="M3.78 23.01 L4.11 23.51 L3.78 24 L0.33 24 L0 23.51 L0.33 23.01 L3.78 23.01 Z" class="st9" />
				</g>
				<g id="cfxi-microsoft-azure-stencils-iot-sensing-1-shape13551-88" v:mID="13551" v:groupContext="shape" transform="translate(16.0949,-4.59854)">

					<path d="M3.78 23.18 L4.11 23.67 L3.78 24 L0.33 24 L0 23.67 L0.33 23.18 L3.78 23.18 Z" class="st9" />
				</g>
				<g id="cfxi-microsoft-azure-stencils-iot-sensing-1-shape13552-90" v:mID="13552" v:groupContext="shape" transform="translate(16.0949,-0.164234)">

					<path d="M3.78 23.18 L4.11 23.67 L3.78 24 L0.33 24 L0 23.67 L0.33 23.18 L3.78 23.18 Z" class="st9" />
				</g>
				<g id="cfxi-microsoft-azure-stencils-iot-sensing-1-shape13553-92" v:mID="13553" v:groupContext="shape" transform="translate(20.0365,-5.09124)">

					<path d="M0.82 23.67 L0.33 24 L0 23.67 L0 20.22 L0.33 19.89 L0.82 20.22 L0.82 23.67 Z" class="st9" />
				</g>
				<g id="cfxi-microsoft-azure-stencils-iot-sensing-1-shape13554-94" v:mID="13554" v:groupContext="shape" transform="translate(20.0365,-0.656934)">

					<path d="M0.82 23.51 L0.33 24 L0 23.51 L0 20.22 L0.33 19.73 L0.82 20.22 L0.82 23.51 Z" class="st9" />
				</g>
				<g id="cfxi-microsoft-azure-stencils-iot-sensing-1-shape13555-96" v:mID="13555" v:groupContext="shape" transform="translate(23.1569,-4.59854)">

					<path d="M3.78 23.18 L4.11 23.67 L3.78 24 L0.33 24 L0 23.67 L0.33 23.18 L3.78 23.18 Z" class="st9" />
				</g>
				<g id="cfxi-microsoft-azure-stencils-iot-sensing-1-shape13556-98" v:mID="13556" v:groupContext="shape" transform="translate(23.1569,-0.164234)">

					<path d="M3.78 23.18 L4.11 23.67 L3.78 24 L0.33 24 L0 23.67 L0.33 23.18 L3.78 23.18 Z" class="st9" />
				</g>
				<g id="cfxi-microsoft-azure-stencils-iot-sensing-1-shape13557-100" v:mID="13557" v:groupContext="shape" transform="translate(22.5,-0.656934)">

					<path d="M0.82 23.51 L0.33 24 L0 23.51 L0 20.22 L0.33 19.73 L0.82 20.22 L0.82 23.51 Z" class="st9" />
				</g>
				<g id="cfxi-microsoft-azure-stencils-iot-sensing-1-shape13558-102" v:mID="13558" v:groupContext="shape" transform="translate(13.4672,0)">

					<rect x="0" y="23.0146" width="0.985401" height="0.985401" class="st9" />
				</g>
				<g id="cfxi-microsoft-azure-stencils-iot-sensing-1-shape13559-104" v:mID="13559" v:groupContext="shape" transform="translate(21.1861,-5.41971)">

					<path d="M0.49 23.01 C0.16 23.01 0 23.18 0 23.51 C0 23.84 0.16 24 0.49 24 C0.82 24 0.99 23.84 0.99 23.51 C0.99          23.18 0.82 23.01 0.49 23.01 ZM0.49 23.67 C0.33 23.67 0.33 23.51 0.33 23.51 L0.49 23.34 C0.66 23.34          0.66 23.51 0.66 23.51 C0.66 23.51 0.66 23.67 0.49 23.67 Z" class="st9" />
				</g>
			</g>
		</g>
	</g>
</svg>
