<svg xmlns="http://www.w3.org/2000/svg" viewBox="0 0 14.1 24.15" preserveAspectRatio="xMidYMid meet">
<style type="text/css" xmlns="http://www.w3.org/2000/svg">
	<![CDATA[
		.st1 {fill:#e2e4e5;stroke:none;stroke-width:0.75}
		.st2 {fill:#ffffff;stroke:none;stroke-width:0.75}
		.st3 {fill:#cfd3d4;stroke:none;stroke-width:0.75}
		.st4 {fill:#f0f1f1;stroke:none;stroke-width:0.75}
		.st5 {fill:#1a1a1a;stroke:none;stroke-width:0.75}
		.st6 {fill:#13ae67;stroke:none;stroke-width:0.75}
		.st7 {fill:#d0d3d4;stroke:none;stroke-width:0.75}
		.st8 {fill:#3a3a3a;stroke:none;stroke-width:0.75}
		.st9 {fill:#f7f8f8;stroke:none;stroke-width:0.75}
		.st10 {fill:none;fill-rule:evenodd;font-size:12px;overflow:visible;stroke-linecap:square;stroke-miterlimit:3}
	]]>
	</style>

	<g v:mID="0" v:index="1" v:groupContext="foregroundPage" xmlns:v="http://schemas.microsoft.com/visio/2003/SVGExtensions/" xmlns="http://www.w3.org/2000/svg">


		<g id="cfxi-microsoft-azure-stencils-iot-smartwatch-4-group13357-1" transform="translate(0.75,-0.675)" v:mID="13357" v:groupContext="group">

			<g id="cfxi-microsoft-azure-stencils-iot-smartwatch-4-shape13358-2" v:mID="13358" v:groupContext="shape" transform="translate(1.125,-18)">

				<path d="M9.83 24.15 C8.77 23.62 8.7 23.1 8.47 20.7 C8.4 20.02 8.33 19.8 7.58 19.65 C5.93 19.35 3.97 19.35 2.25 19.65         C1.5 19.8 1.42 20.02 1.35 20.7 C1.13 23.1 1.05 23.62 0 24.15 C3.08 24.15 6.68 24.15 9.83 24.15 Z" class="st1" />
			</g>
			<g id="cfxi-microsoft-azure-stencils-iot-smartwatch-4-shape13359-4" v:mID="13359" v:groupContext="shape" transform="translate(1.125,-7.81597E-14)">

				<path d="M9.83 19.35 C8.77 19.87 8.7 20.4 8.47 22.8 C8.4 23.47 8.33 23.7 7.58 23.85 C5.93 24.15 3.97 24.15 2.25 23.85         C1.5 23.7 1.42 23.55 1.35 22.8 C1.13 20.4 1.05 19.87 0 19.35 C3.08 19.35 6.68 19.35 9.83 19.35 Z" class="st1" />
			</g>
			<g id="cfxi-microsoft-azure-stencils-iot-smartwatch-4-shape13360-6" v:mID="13360" v:groupContext="shape" transform="translate(-6.89448E-14,-4.5)">

				<path d="M9.9 24.15 L2.1 24.15 C0.98 24.15 0 23.25 0 22.05 L0 12.37 C0 11.25 0.9 10.27 2.1 10.27 L9.9 10.27 C11.02         10.27 12 11.17 12 12.37 L12 22.05 C12 23.25 11.02 24.15 9.9 24.15 Z" class="st2" />
			</g>
			<g id="cfxi-microsoft-azure-stencils-iot-smartwatch-4-shape13361-8" v:mID="13361" v:groupContext="shape" transform="translate(11.625,-12.75)">

				<path d="M0.9 22.95 C0.9 22.05 0.9 21.75 0.6 21.75 L0.45 21.75 C0.38 21.75 0.23 21.82 0.23 21.9 L0.08 22.2 C0 22.27         0 22.42 0 22.5 L0 22.95 L0 23.4 C0 23.47 0.08 23.62 0.08 23.7 L0.23 24 C0.3 24.07 0.38 24.15 0.45 24.15         L0.6 24.15 C0.9 24.15 0.9 23.85 0.9 22.95 Z" class="st1" />
			</g>
			<g id="cfxi-microsoft-azure-stencils-iot-smartwatch-4-shape13362-10" v:mID="13362" v:groupContext="shape" transform="translate(12.225,-12.75)">

				<path d="M0.3 22.95 C0.3 22.12 0.3 21.75 0 21.75 L0 24.15 C0.3 24.15 0.3 23.85 0.3 22.95 Z" class="st3" />
			</g>
			<g id="cfxi-microsoft-azure-stencils-iot-smartwatch-4-shape13363-12" v:mID="13363" v:groupContext="shape" transform="translate(11.625,-13.95)">

				<path d="M0.45 22.95 C0.38 22.95 0.23 23.02 0.23 23.1 L0.08 23.4 C0 23.47 0 23.62 0 23.7 L0 24.15 L0.98 24.15 C0.98         23.32 0.98 22.95 0.68 22.95 L0.45 22.95 Z" class="st4" />
			</g>
			<g id="cfxi-microsoft-azure-stencils-iot-smartwatch-4-shape13364-14" v:mID="13364" v:groupContext="shape" transform="translate(11.775,-7.5)">

				<path d="M0.3 20.62 C0.23 20.55 0.23 20.62 0.15 20.7 L0.08 20.92 C0.08 21 0 21.15 0 21.22 L0 23.55 C0 23.62 0 23.77         0.08 23.85 L0.15 24.07 C0.15 24.15 0.23 24.15 0.3 24.15 C0.3 24.15 0.37 24.07 0.37 24 L0.3 20.62 C0.37         20.7 0.3 20.7 0.3 20.62 Z" class="st1" />
			</g>
			<g id="cfxi-microsoft-azure-stencils-iot-smartwatch-4-shape13365-16" v:mID="13365" v:groupContext="shape" transform="translate(12.225,-13.95)">

				<path d="M0.3 24.15 C0.3 23.32 0.3 22.95 0 22.95 L0 24.15 L0.3 24.15 Z" class="st1" />
			</g>
			<g id="cfxi-microsoft-azure-stencils-iot-smartwatch-4-shape13366-18" v:mID="13366" v:groupContext="shape" transform="translate(11.775,-9.3)">

				<path d="M0.3 22.42 C0.23 22.35 0.23 22.42 0.15 22.5 L0.08 22.72 C0.08 22.8 0 22.95 0 23.02 L0 24.15 L0.3 24.15 L0.3         22.42 C0.37 22.5 0.3 22.5 0.3 22.42 Z" class="st4" />
			</g>
			<g id="cfxi-microsoft-azure-stencils-iot-smartwatch-4-shape13367-20" v:mID="13367" v:groupContext="shape" transform="translate(0.525,-4.95)">

				<path d="M9.23 24.15 L1.65 24.15 C0.75 24.15 0 23.4 0 22.5 L0 12.97 C0 12.07 0.75 11.32 1.65 11.32 L9.23 11.32 C10.13         11.32 10.88 12.07 10.88 12.97 L10.88 22.5 C10.95 23.4 10.2 24.15 9.23 24.15 Z" class="st5" />
			</g>
			<g id="cfxi-microsoft-azure-stencils-iot-smartwatch-4-group13368-22" transform="translate(3.075,-7.65)" v:mID="13368" v:groupContext="group">

				<g id="cfxi-microsoft-azure-stencils-iot-smartwatch-4-shape13369-23" v:mID="13369" v:groupContext="shape" transform="translate(4.996E-15,-1.65)">

					<ellipse cx="2.925" cy="21.225" rx="2.925" ry="2.925" class="st6" />
				</g>
				<g id="cfxi-microsoft-azure-stencils-iot-smartwatch-4-group13370-25" transform="translate(1.05,-7.10543E-15)" v:mID="13370" v:groupContext="group">

					<g id="cfxi-microsoft-azure-stencils-iot-smartwatch-4-shape13371-26" v:mID="13371" v:groupContext="shape" transform="translate(-6.52915E-14,-0.075)">

						<path d="M0 23.7 C0 23.55 0.15 23.47 0.22 23.47 C0.3 23.47 0.38 23.47 0.45 23.55 C0.45 23.47 0.3 23.47 0.22           23.47 C0.15 23.55 0 23.55 0 23.7 L0 24 C0 24.15 0.15 24.15 0.22 24.15 C0.3 24.15 0.38 24.15           0.45 24.07 C0.37 24.15 0.3 24.15 0.22 24.15 C0.07 24.15 0 24.07 0 23.92 L0 23.7 Z" class="st7" />
					</g>
					<g id="cfxi-microsoft-azure-stencils-iot-smartwatch-4-shape13372-28" v:mID="13372" v:groupContext="shape" transform="translate(0.525,-7.10543E-15)">

						<path d="M0 24.15 L0.22 23.4 L0.3 23.4 L0.6 24.15 L0.52 23.92 L0.22 23.92 L0 24.15 ZM0.3 23.47 L0.15 23.85           L0.45 23.85 L0.3 23.47 Z" class="st7" />
					</g>
					<g id="cfxi-microsoft-azure-stencils-iot-smartwatch-4-shape13373-30" v:mID="13373" v:groupContext="shape" transform="translate(1.2,-7.10543E-15)">

						<path d="M0 24.15 L0 23.4 L0 24.15 L0.37 24.15 L0 24.15 Z" class="st7" />
					</g>
					<g id="cfxi-microsoft-azure-stencils-iot-smartwatch-4-shape13374-32" v:mID="13374" v:groupContext="shape" transform="translate(1.725,-7.10543E-15)">

						<path d="M0 24.15 L0 23.4 L0 24.15 L0.37 24.15 L0 24.15 Z" class="st7" />
					</g>
					<g id="cfxi-microsoft-azure-stencils-iot-smartwatch-4-shape13375-34" v:mID="13375" v:groupContext="shape" transform="translate(2.25,-7.10543E-15)">

						<path d="M0 24.15 L0 23.4 L0 24.15 Z" class="st7" />
					</g>
					<g id="cfxi-microsoft-azure-stencils-iot-smartwatch-4-shape13376-36" v:mID="13376" v:groupContext="shape" transform="translate(2.4,-7.10543E-15)">

						<path d="M0.45 24.15 L0.45 23.47 L0.45 24.15 L0 23.47 L0 24.15 L0 23.4 L0.08 23.4 L0.45 24.15 Z" class="st7" />
					</g>
					<g id="cfxi-microsoft-azure-stencils-iot-smartwatch-4-shape13377-38" v:mID="13377" v:groupContext="shape" transform="translate(3.075,-7.10543E-15)">

						<path d="M0 23.62 C0 23.47 0.15 23.4 0.22 23.4 C0.3 23.4 0.38 23.4 0.45 23.47 C0.45 23.4 0.3 23.4 0.22 23.4           C0.15 23.47 0 23.47 0 23.62 L0 23.92 C0 24.07 0.08 24.07 0.22 24.07 C0.3 24.07 0.45 24 0.45           23.92 L0.45 23.77 L0.22 23.77 L0.45 23.77 L0.45 23.92 C0.45 24.07 0.3 24.15 0.22 24.15 C0.07           24.15 0 24.07 0 23.92 L0 23.62 Z" class="st7" />
					</g>
					<g id="cfxi-microsoft-azure-stencils-iot-smartwatch-4-shape13378-40" v:mID="13378" v:groupContext="shape" transform="translate(3.675,-3.55271E-15)">

						<path d="M0 24.07 C0.07 24.07 0.07 24.07 0 24.07 C0.07 24.15 0.07 24.15 0 24.07 C0 24.15 0 24.15 0 24.07 Z" class="st7" />
					</g>
					<g id="cfxi-microsoft-azure-stencils-iot-smartwatch-4-shape13379-42" v:mID="13379" v:groupContext="shape" transform="translate(3.9,-3.55271E-15)">

						<path d="M0 24.07 C0.08 24.07 0.08 24.07 0 24.07 C0.08 24.15 0.08 24.15 0 24.07 C0 24.15 0 24.15 0 24.07 Z" class="st7" />
					</g>
					<g id="cfxi-microsoft-azure-stencils-iot-smartwatch-4-shape13380-44" v:mID="13380" v:groupContext="shape" transform="translate(4.125,-3.55271E-15)">

						<path d="M0 24.07 C0 24.07 0.08 24.07 0 24.07 C0.08 24.15 0 24.15 0 24.07 C0 24.15 0 24.15 0 24.07 Z" class="st7" />
					</g>
				</g>
			</g>
			<g id="cfxi-microsoft-azure-stencils-iot-smartwatch-4-shape13381-46" v:mID="13381" v:groupContext="shape" transform="translate(0.6,-12.375)">

				<path d="M5.55 18.67 L1.72 18.67 C0.83 18.67 0 19.42 0 20.32 L0 24.15 L5.55 18.67 Z" class="st8" />
			</g>
			<g id="cfxi-microsoft-azure-stencils-iot-smartwatch-4-shape13382-48" v:mID="13382" v:groupContext="shape" transform="translate(4.2,-10.5)">

				<path d="M1.95 22.72 C1.65 23.02 1.27 23.32 1.2 23.17 C0.98 22.95 0.9 22.8 0.45 23.17 C0 23.55 0.37 23.77 0.53 23.92         C0.75 24.15 1.57 23.92 2.32 23.1 C3.15 22.27 3.3 21.45 3.15 21.3 C2.93 21.07 2.7 20.77 2.4 21.22 C2.02         21.67 2.25 21.75 2.4 21.97 C2.55 22.05 2.25 22.42 1.95 22.72 Z" class="st9" />
			</g>
		</g>
	</g>
</svg>
