<svg xmlns="http://www.w3.org/2000/svg" viewBox="0 0 792 612" preserveAspectRatio="xMidYMid meet">
<style type="text/css" xmlns="http://www.w3.org/2000/svg">
	<![CDATA[
		.st1 {fill:#a0a1a2;stroke:none;stroke-width:12.24}
		.st2 {fill:#7a7a7a;stroke:none;stroke-width:12.24}
		.st3 {fill:#ffffff;stroke:none;stroke-width:12.24}
		.st4 {fill:#e71e27;stroke:none;stroke-width:0.859306}
		.st5 {fill:#ffffff;fill-opacity:0.2;stroke:none;stroke-width:12.24}
		.st6 {fill:none;fill-rule:evenodd;font-size:12px;overflow:visible;stroke-linecap:square;stroke-miterlimit:3}
	]]>
	</style>

	<g v:mID="0" v:index="1" v:groupContext="foregroundPage" xmlns:v="http://schemas.microsoft.com/visio/2003/SVGExtensions/" xmlns="http://www.w3.org/2000/svg">
		<v:userDefs>
			<v:ud v:nameU="msvThemeOrder" v:val="VT0(0):26" />
		</v:userDefs>


		<g id="cfxi-microsoft-azure-stencils-azure-azure-storage-blog-hot-tier-group1462-1" transform="translate(18,-529.655)" v:mID="1462" v:groupContext="group">

			<g id="cfxi-microsoft-azure-stencils-azure-azure-storage-blog-hot-tier-shape1463-2" v:mID="1463" v:groupContext="shape">

				<path d="M0 609.13 C0 610.64 1.06 612 2.87 612 L72.65 612 C74.16 612 75.52 610.94 75.52 609.13 L75.52 559.13 L0 559.13         L0 609.13 Z" class="st1" />
			</g>
			<g id="cfxi-microsoft-azure-stencils-azure-azure-storage-blog-hot-tier-shape1464-4" v:mID="1464" v:groupContext="shape" transform="translate(7.99361E-15,-52.8655)">

				<path d="M72.65 600.52 L2.87 600.52 C1.06 600.52 0 601.88 0 603.39 L0 612 L75.52 612 L75.52 603.39 C75.52 601.88         74.46 600.52 72.65 600.52 Z" class="st2" />
			</g>
			<g id="cfxi-microsoft-azure-stencils-azure-azure-storage-blog-hot-tier-shape1465-6" v:mID="1465" v:groupContext="shape" transform="translate(28.3963,-36.4017)">

				<rect x="0" y="600.521" width="19.0316" height="11.4794" class="st3" />
			</g>
			<g id="cfxi-microsoft-azure-stencils-azure-azure-storage-blog-hot-tier-shape1466-8" v:mID="1466" v:groupContext="shape" transform="translate(28.3963,-20.8441)">

				<rect x="0" y="600.521" width="19.0316" height="11.4794" class="st4" />
			</g>
			<g id="cfxi-microsoft-azure-stencils-azure-azure-storage-blog-hot-tier-shape1467-10" v:mID="1467" v:groupContext="shape" transform="translate(51.053,-20.8441)">

				<rect x="0" y="600.521" width="19.0316" height="11.4794" class="st4" />
			</g>
			<g id="cfxi-microsoft-azure-stencils-azure-azure-storage-blog-hot-tier-shape1468-12" v:mID="1468" v:groupContext="shape" transform="translate(51.053,-36.4017)">

				<rect x="0" y="600.521" width="19.0316" height="11.4794" class="st3" />
			</g>
			<g id="cfxi-microsoft-azure-stencils-azure-azure-storage-blog-hot-tier-shape1469-14" v:mID="1469" v:groupContext="shape" transform="translate(5.73968,-36.4017)">

				<rect x="0" y="600.521" width="19.0316" height="11.4794" class="st3" />
			</g>
			<g id="cfxi-microsoft-azure-stencils-azure-azure-storage-blog-hot-tier-shape1470-16" v:mID="1470" v:groupContext="shape" transform="translate(5.73968,-20.8441)">

				<rect x="0" y="600.521" width="19.0316" height="11.4794" class="st3" />
			</g>
			<g id="cfxi-microsoft-azure-stencils-azure-azure-storage-blog-hot-tier-shape1471-18" v:mID="1471" v:groupContext="shape" transform="translate(5.73968,-5.43759)">

				<rect x="0" y="600.521" width="19.0316" height="11.4794" class="st4" />
			</g>
			<g id="cfxi-microsoft-azure-stencils-azure-azure-storage-blog-hot-tier-shape1472-20" v:mID="1472" v:groupContext="shape" transform="translate(28.3963,-5.43759)">

				<rect x="0" y="600.521" width="19.0316" height="11.4794" class="st4" />
			</g>
			<g id="cfxi-microsoft-azure-stencils-azure-azure-storage-blog-hot-tier-shape1473-22" v:mID="1473" v:groupContext="shape" transform="translate(51.053,-5.43759)">

				<rect x="0" y="600.521" width="19.0316" height="11.4794" class="st4" />
			</g>
			<g id="cfxi-microsoft-azure-stencils-azure-azure-storage-blog-hot-tier-shape1474-24" v:mID="1474" v:groupContext="shape">

				<path d="M2.87 547.66 C1.51 547.66 0 549.01 0 550.52 L0 561.7 L0 566.69 L0 609.13 C0 610.64 1.51 612 2.87 612 L6.04         612 L65.86 547.66 L2.87 547.66 Z" class="st5" />
			</g>
		</g>
	</g>
</svg>
