<svg xmlns="http://www.w3.org/2000/svg" viewBox="0 0 100.002 88.8249" preserveAspectRatio="xMidYMid meet">
<style type="text/css" xmlns="http://www.w3.org/2000/svg">
	<![CDATA[
		.st1 {fill:#a0a1a2;stroke:none;stroke-width:12.24}
		.st2 {fill:#7a7a7a;stroke:none;stroke-width:12.24}
		.st3 {fill:#ffffff;stroke:none;stroke-width:12.24}
		.st4 {fill:#2272b9;stroke:none;stroke-width:0.859306}
		.st5 {fill:#ffffff;fill-opacity:0.2;stroke:none;stroke-width:12.24}
		.st6 {fill:none;fill-rule:evenodd;font-size:12px;overflow:visible;stroke-linecap:square;stroke-miterlimit:3}
	]]>
	</style>

	<g v:mID="0" v:index="1" v:groupContext="foregroundPage" xmlns:v="http://schemas.microsoft.com/visio/2003/SVGExtensions/" xmlns="http://www.w3.org/2000/svg">


		<g id="cfxi-microsoft-azure-stencils-azure-azure-storage-blog-cool-tier-group1475-1" transform="translate(12.24,-12.24)" v:mID="1475" v:groupContext="group">

			<g id="cfxi-microsoft-azure-stencils-azure-azure-storage-blog-cool-tier-shape1476-2" v:mID="1476" v:groupContext="shape">

				<path d="M0 85.96 C0 87.47 1.06 88.82 2.87 88.82 L72.65 88.82 C74.16 88.82 75.52 87.77 75.52 85.96 L75.52 35.96 L0         35.96 L0 85.96 Z" class="st1" />
			</g>
			<g id="cfxi-microsoft-azure-stencils-azure-azure-storage-blog-cool-tier-shape1477-4" v:mID="1477" v:groupContext="shape" transform="translate(1.35891E-13,-52.8655)">

				<path d="M72.65 77.35 L2.87 77.35 C1.06 77.35 0 78.7 0 80.22 L0 88.82 L75.52 88.82 L75.52 80.22 C75.52 78.7 74.46         77.35 72.65 77.35 Z" class="st2" />
			</g>
			<g id="cfxi-microsoft-azure-stencils-azure-azure-storage-blog-cool-tier-shape1478-6" v:mID="1478" v:groupContext="shape" transform="translate(28.3963,-36.4017)">

				<rect x="0" y="77.3455" width="19.0316" height="11.4794" class="st3" />
			</g>
			<g id="cfxi-microsoft-azure-stencils-azure-azure-storage-blog-cool-tier-shape1479-8" v:mID="1479" v:groupContext="shape" transform="translate(28.3963,-20.8441)">

				<rect x="0" y="77.3455" width="19.0316" height="11.4794" class="st4" />
			</g>
			<g id="cfxi-microsoft-azure-stencils-azure-azure-storage-blog-cool-tier-shape1480-10" v:mID="1480" v:groupContext="shape" transform="translate(51.053,-20.8441)">

				<rect x="0" y="77.3455" width="19.0316" height="11.4794" class="st4" />
			</g>
			<g id="cfxi-microsoft-azure-stencils-azure-azure-storage-blog-cool-tier-shape1481-12" v:mID="1481" v:groupContext="shape" transform="translate(51.053,-36.4017)">

				<rect x="0" y="77.3455" width="19.0316" height="11.4794" class="st3" />
			</g>
			<g id="cfxi-microsoft-azure-stencils-azure-azure-storage-blog-cool-tier-shape1482-14" v:mID="1482" v:groupContext="shape" transform="translate(5.73968,-36.4017)">

				<rect x="0" y="77.3455" width="19.0316" height="11.4794" class="st3" />
			</g>
			<g id="cfxi-microsoft-azure-stencils-azure-azure-storage-blog-cool-tier-shape1483-16" v:mID="1483" v:groupContext="shape" transform="translate(5.73968,-20.8441)">

				<rect x="0" y="77.3455" width="19.0316" height="11.4794" class="st3" />
			</g>
			<g id="cfxi-microsoft-azure-stencils-azure-azure-storage-blog-cool-tier-shape1484-18" v:mID="1484" v:groupContext="shape" transform="translate(5.73968,-5.43759)">

				<rect x="0" y="77.3455" width="19.0316" height="11.4794" class="st4" />
			</g>
			<g id="cfxi-microsoft-azure-stencils-azure-azure-storage-blog-cool-tier-shape1485-20" v:mID="1485" v:groupContext="shape" transform="translate(28.3963,-5.43759)">

				<rect x="0" y="77.3455" width="19.0316" height="11.4794" class="st4" />
			</g>
			<g id="cfxi-microsoft-azure-stencils-azure-azure-storage-blog-cool-tier-shape1486-22" v:mID="1486" v:groupContext="shape" transform="translate(51.053,-5.43759)">

				<rect x="0" y="77.3455" width="19.0316" height="11.4794" class="st4" />
			</g>
			<g id="cfxi-microsoft-azure-stencils-azure-azure-storage-blog-cool-tier-shape1487-24" v:mID="1487" v:groupContext="shape">

				<path d="M2.87 24.48 C1.51 24.48 0 25.84 0 27.35 L0 38.53 L0 43.51 L0 85.96 C0 87.47 1.51 88.82 2.87 88.82 L6.04         88.82 L65.86 24.48 L2.87 24.48 Z" class="st5" />
			</g>
		</g>
	</g>
</svg>
