<svg xmlns="http://www.w3.org/2000/svg" viewBox="0 0 18 18" preserveAspectRatio="xMidYMid meet">
<g xmlns="http://www.w3.org/2000/svg"><path d="M7.773 3.682 0 11.454v4.91C0 17.267.733 18 1.636 18h14.728c.903 0 1.636-.733 1.636-1.636V1.636C18 .733 17.267 0 16.364 0h-.819L9.819 5.727 7.773 3.682Z" fill="url(#cfxi-microsoft-azure-stencils-azure-default-template-94a115a1-5689-4c39-bee0-5c63fda4a78e)"></path><path d="M9.818 5.727 15.545 0H1.636C.733 0 0 .733 0 1.636v9.819l7.773-7.773 2.045 2.045Z" fill="#77E4C9"></path><path d="m8.471 13.04 3.673-2.203a.456.456 0 0 1 .469 0l3.673 2.204a.456.456 0 0 1 0 .781l-3.673 2.204a.456.456 0 0 1-.47 0l-3.672-2.204a.456.456 0 0 1 0-.781Z" fill-opacity=".35" class="msportalfx-svg-c01" fill="#ffffff"></path><path d="m8.471 11.217 3.673-2.204a.456.456 0 0 1 .469 0l3.673 2.204a.456.456 0 0 1 0 .782l-3.673 2.203a.456.456 0 0 1-.47 0L8.472 12a.456.456 0 0 1 0-.782Z" fill-opacity=".75" class="msportalfx-svg-c01" fill="#ffffff"></path><path d="m8.471 9.394 3.673-2.204a.456.456 0 0 1 .469 0l3.673 2.204a.456.456 0 0 1 0 .781l-3.673 2.204a.456.456 0 0 1-.47 0l-3.672-2.204a.456.456 0 0 1 0-.781Z" class="msportalfx-svg-c01" fill="#ffffff"></path><defs></defs></g><defs xmlns="http://www.w3.org/2000/svg">
<linearGradient id="cfxi-microsoft-azure-stencils-azure-default-template-94a115a1-5689-4c39-bee0-5c63fda4a78e" x1="0" y1="0" x2="18" y2="18" gradientUnits="userSpaceOnUse"><stop stop-color="#18CFB4"></stop><stop offset="1" stop-color="#008475"></stop></linearGradient>
</defs>
</svg>
