<svg xmlns="http://www.w3.org/2000/svg" width="760" height="460" viewBox="0 0 760 460" role="img" aria-labelledby="cfx0442d0a9-title cfx0442d0a9-desc" preserveAspectRatio="xMidYMid meet" style="max-width:100%;height:auto;display:block" shape-rendering="geometricPrecision" text-rendering="geometricPrecision">
<title id="cfx0442d0a9-title">South America Route Map</title>
<desc id="cfx0442d0a9-desc">South America Route Map dotted world map for Cities with 3 highlighted points.</desc>
<defs>
<style>#cfx0442d0a9 text{-webkit-font-smoothing:antialiased;text-rendering:geometricPrecision;font-synthesis:none} #cfx0442d0a9 .cfx-crisp-stroke,#cfx0442d0a9 .cfx-guide-stroke,#cfx0442d0a9 .cfx-premium-stroke{vector-effect:non-scaling-stroke;shape-rendering:geometricPrecision} #cfx0442d0a9 .cfx-guide-stroke{shape-rendering:crispEdges} #cfx0442d0a9 .cfx-interactive-region{transition:opacity .12s ease,stroke-width .12s ease} #cfx0442d0a9 .cfx-interactive-region[data-cfx-role="dotted-map-connector"]{pointer-events:stroke} #cfx0442d0a9 .cfx-interactive-region:hover,#cfx0442d0a9 .cfx-interactive-region:focus{opacity:1;outline:none;stroke-width:var(--cfx-interactive-focus-stroke-width,2.2)}#cfx0442d0a9 text{-webkit-font-smoothing:antialiased;text-rendering:geometricPrecision;font-synthesis:none} #cfx0442d0a9 .cfx-crisp-stroke,#cfx0442d0a9 .cfx-guide-stroke,#cfx0442d0a9 .cfx-premium-stroke{vector-effect:non-scaling-stroke;shape-rendering:geometricPrecision} #cfx0442d0a9 .cfx-guide-stroke{shape-rendering:crispEdges} #cfx0442d0a9 .cfx-interactive-region{transition:opacity .12s ease,stroke-width .12s ease} #cfx0442d0a9 .cfx-interactive-region[data-cfx-role="dotted-map-connector"]{pointer-events:stroke} #cfx0442d0a9 .cfx-interactive-region:hover,#cfx0442d0a9 .cfx-interactive-region:focus{opacity:1;outline:none;stroke-width:var(--cfx-interactive-focus-stroke-width,2.2)}</style>
<filter id="cfx0442d0a9-softShadow" x="-20%" y="-20%" width="140%" height="140%"><feDropShadow dx="0" dy="4" stdDeviation="6" flood-color="#0F172A" flood-opacity="0.044"/><feDropShadow dx="0" dy="14" stdDeviation="18" flood-color="#0F172A" flood-opacity="0.1"/></filter>
<linearGradient id="cfx0442d0a9-cardSurface" x1="0" x2="0" y1="0" y2="1"><stop offset="0%" stop-color="#FFFFFF" stop-opacity="1"/><stop offset="100%" stop-color="#F7F7F8" stop-opacity="1"/></linearGradient>
<linearGradient id="cfx0442d0a9-plotSurface" x1="0" x2="0" y1="0" y2="1"><stop offset="0%" stop-color="#F9FBFD" stop-opacity="1"/><stop offset="100%" stop-color="#F0F2F5" stop-opacity="1"/></linearGradient>
<clipPath id="cfx0442d0a9-plotClip"><rect x="42" y="88" width="682" height="330" rx="8"/></clipPath>
<linearGradient id="cfx0442d0a9-area0" x1="0" x2="0" y1="0" y2="1"><stop offset="0%" stop-color="#2563EB" stop-opacity="0.32"/><stop offset="100%" stop-color="#2563EB" stop-opacity="0.02"/></linearGradient>
<linearGradient id="cfx0442d0a9-seriesFill0" x1="0" x2="0" y1="0" y2="1"><stop offset="0%" stop-color="#3F76ED" stop-opacity="1"/><stop offset="100%" stop-color="#235DDD" stop-opacity="0.94"/></linearGradient>
<linearGradient id="cfx0442d0a9-seriesFill0-point0" x1="0" x2="0" y1="0" y2="1"><stop offset="0%" stop-color="#F6AA28" stop-opacity="1"/><stop offset="100%" stop-color="#E6950A" stop-opacity="0.94"/></linearGradient>
<linearGradient id="cfx0442d0a9-seriesFill0-point1" x1="0" x2="0" y1="0" y2="1"><stop offset="0%" stop-color="#F6AA28" stop-opacity="1"/><stop offset="100%" stop-color="#E6950A" stop-opacity="0.94"/></linearGradient>
<linearGradient id="cfx0442d0a9-seriesFill0-point2" x1="0" x2="0" y1="0" y2="1"><stop offset="0%" stop-color="#F15A5A" stop-opacity="1"/><stop offset="100%" stop-color="#E14040" stop-opacity="0.94"/></linearGradient>
<linearGradient id="cfx0442d0a9-sliceFill0" x1="0" x2="1" y1="0" y2="1"><stop offset="0%" stop-color="#2563EB" stop-opacity="1"/><stop offset="100%" stop-color="#2563EB" stop-opacity="0.78"/></linearGradient>
<linearGradient id="cfx0442d0a9-sliceFill1" x1="0" x2="1" y1="0" y2="1"><stop offset="0%" stop-color="#0EA5E9" stop-opacity="1"/><stop offset="100%" stop-color="#0EA5E9" stop-opacity="0.78"/></linearGradient>
<linearGradient id="cfx0442d0a9-sliceFill2" x1="0" x2="1" y1="0" y2="1"><stop offset="0%" stop-color="#10B981" stop-opacity="1"/><stop offset="100%" stop-color="#10B981" stop-opacity="0.78"/></linearGradient>
<linearGradient id="cfx0442d0a9-sliceFill3" x1="0" x2="1" y1="0" y2="1"><stop offset="0%" stop-color="#F59E0B" stop-opacity="1"/><stop offset="100%" stop-color="#F59E0B" stop-opacity="0.78"/></linearGradient>
<linearGradient id="cfx0442d0a9-sliceFill4" x1="0" x2="1" y1="0" y2="1"><stop offset="0%" stop-color="#EF4444" stop-opacity="1"/><stop offset="100%" stop-color="#EF4444" stop-opacity="0.78"/></linearGradient>
<linearGradient id="cfx0442d0a9-sliceFill5" x1="0" x2="1" y1="0" y2="1"><stop offset="0%" stop-color="#8B5CF6" stop-opacity="1"/><stop offset="100%" stop-color="#8B5CF6" stop-opacity="0.78"/></linearGradient>
<linearGradient id="cfx0442d0a9-sliceFill6" x1="0" x2="1" y1="0" y2="1"><stop offset="0%" stop-color="#EC4899" stop-opacity="1"/><stop offset="100%" stop-color="#EC4899" stop-opacity="0.78"/></linearGradient>
<linearGradient id="cfx0442d0a9-sliceFill7" x1="0" x2="1" y1="0" y2="1"><stop offset="0%" stop-color="#14B8A6" stop-opacity="1"/><stop offset="100%" stop-color="#14B8A6" stop-opacity="0.78"/></linearGradient>
</defs>
<g id="cfx0442d0a9">
<rect data-cfx-role="card-surface" x="14" y="14" width="732" height="432" rx="12" fill="url(#cfx0442d0a9-cardSurface)" filter="url(#cfx0442d0a9-softShadow)"/>
<rect data-cfx-role="card-border" class="cfx-crisp-stroke" x="14.5" y="14.5" width="731" height="431" rx="11.5" fill="none" stroke="rgba(148,163,184,0.361)"/>
<rect data-cfx-role="card-inner-highlight" class="cfx-crisp-stroke" x="15.5" y="15.5" width="729" height="429" rx="10.5" fill="none" stroke="#FFFFFF" stroke-opacity="0.42"/>
<rect x="42" y="88" width="682" height="330" rx="8" fill="url(#cfx0442d0a9-plotSurface)"/>
<rect class="cfx-crisp-stroke" x="42.5" y="88.5" width="681" height="329" rx="7.5" fill="none" stroke="rgba(148,163,184,0.188)"/>
<rect data-cfx-role="plot-inner-highlight" class="cfx-crisp-stroke" x="43" y="89" width="680" height="328" rx="7" fill="none" stroke="#FFFFFF" stroke-opacity="0.32"/>
<text data-cfx-role="chart-title" x="40" y="52" fill="#0F172A" font-family="-apple-system, BlinkMacSystemFont, 'Segoe UI', Roboto, Helvetica, Arial, sans-serif" font-size="25" font-weight="750">South America Route Map</text>
<text data-cfx-role="chart-subtitle" x="40" y="79" fill="#64748B" font-family="-apple-system, BlinkMacSystemFont, 'Segoe UI', Roboto, Helvetica, Arial, sans-serif" font-size="12.5" font-weight="400">South America dotted viewport with route connectors</text>
<g data-cfx-role="dotted-map" data-cfx-map-kind="world-dotted" data-cfx-label="Cities" data-cfx-projection="equirectangular" data-cfx-point-count="3" data-cfx-visible-point-count="3" data-cfx-connector-count="1" data-cfx-viewport="South America" data-cfx-viewport-min-longitude="-86" data-cfx-viewport-max-longitude="-32" data-cfx-viewport-min-latitude="-56" data-cfx-viewport-max-latitude="14" data-cfx-min-longitude="-77.043" data-cfx-max-longitude="-46.633" data-cfx-min-latitude="-34.604" data-cfx-max-latitude="-12.046" role="group" aria-label="Cities dotted map with 3 highlighted points">
<g data-cfx-role="dotted-map-base-layer" clip-path="url(#cfx0442d0a9-plotClip)">
<rect data-cfx-role="dotted-map-surface" x="242.126" y="76.24" width="281.749" height="353.52" rx="16.64" fill="rgba(236,240,244,0.914)" fill-opacity="0.16" stroke="rgba(148,163,184,0.188)" stroke-opacity="0.16"/>
<line data-cfx-role="dotted-map-graticule" data-cfx-axis="longitude" data-cfx-longitude="-72.5" x1="322.443" y1="96" x2="322.443" y2="410" stroke="rgba(148,163,184,0.275)" stroke-width="0.8" stroke-opacity="0.22"/>
<line data-cfx-role="dotted-map-graticule" data-cfx-axis="longitude" data-cfx-longitude="-59" x1="383" y1="96" x2="383" y2="410" stroke="rgba(148,163,184,0.275)" stroke-width="0.8" stroke-opacity="0.22"/>
<line data-cfx-role="dotted-map-graticule" data-cfx-axis="longitude" data-cfx-longitude="-45.5" x1="443.557" y1="96" x2="443.557" y2="410" stroke="rgba(148,163,184,0.275)" stroke-width="0.8" stroke-opacity="0.22"/>
<line data-cfx-role="dotted-map-graticule" data-cfx-axis="latitude" data-cfx-latitude="-32.667" x1="261.886" y1="305.333" x2="504.114" y2="305.333" stroke="rgba(148,163,184,0.275)" stroke-width="0.8" stroke-opacity="0.18"/>
<line data-cfx-role="dotted-map-graticule" data-cfx-axis="latitude" data-cfx-latitude="-9.333" x1="261.886" y1="200.667" x2="504.114" y2="200.667" stroke="rgba(148,163,184,0.275)" stroke-width="0.8" stroke-opacity="0.18"/>
<path data-cfx-role="dotted-map-land-area" data-cfx-viewport="South America" data-cfx-boundary="0" d="M 408.255 310.283 L 406.999 307.726 L 408.972 305.617 L 406.371 302.567 L 392.061 293.865 L 389.145 294.358 L 406.999 279.555 L 407.088 275.967 L 404.845 273.41 L 402.603 274.262 L 404.128 266.547 L 399.149 266.278 L 397.354 259.101 L 387.755 257.889 L 386.723 249.322 L 389.729 240.305 L 386.23 236.268 L 386.409 231.917 L 377.797 231.738 L 376.271 220.613 L 359.136 214.692 L 354.291 210.7 L 354.561 202.581 L 348.684 203.343 L 341.417 208.188 L 331.19 208.188 L 331.504 201.369 L 327.826 204.016 L 323.878 203.881 L 319.168 201.235 L 320.11 199.306 L 315.759 192.533 L 319.662 188.54 L 320.693 182.44 L 330.113 177.864 L 334.151 178.089 L 336.259 163.824 L 333.567 156.378 L 337.021 156.109 L 337.156 154.359 L 334.554 153.911 L 334.465 151.129 L 343.212 151.219 L 344.692 149.649 L 346.8 153.731 L 353.619 155.256 L 363.397 148.931 L 359.36 147.586 L 358.912 141.754 L 356.893 140.588 L 364.653 141.889 L 374.163 138.435 L 375.24 135.474 L 378.604 136.327 L 378.021 138.3 L 380.578 141.037 L 378.649 146.419 L 382.865 152.879 L 390.446 150.053 L 396.457 150.636 L 396.592 147.541 L 410.183 149.29 L 417.45 139.96 L 421.084 150.277 L 423.506 150.995 L 423.596 154.09 L 420.231 157.813 L 421.622 159.159 L 429.562 159.877 L 429.741 164.362 L 433.15 161.402 L 446.204 165.753 L 448.402 168.399 L 447.684 170.867 L 452.887 169.476 L 468.318 171.674 L 480.699 180.421 L 487.966 181.901 L 491.868 191.725 L 490.074 199.171 L 474.195 217.383 L 471.503 238.96 L 464.012 257.217 L 459.302 261.837 L 447.37 263.541 L 433.913 270.449 L 430.1 274.89 L 428.351 287.405 L 408.255 310.283 Z" fill="#D4DAE1" fill-opacity="0.92"/>
<path data-cfx-role="dotted-map-land-area" data-cfx-viewport="South America" data-cfx-boundary="1" d="M 389.145 294.358 L 385.243 313.243 L 390.94 317.101 L 390.357 320.196 L 393.138 322.125 L 392.913 324.323 L 388.607 330.065 L 381.968 332.487 L 368.018 332.98 L 368.87 341.279 L 366.179 342.849 L 355.547 342.983 L 356.175 347.469 L 359.226 348.815 L 361.648 347.379 L 362.994 349.712 L 355.278 353.929 L 353.529 360.837 L 345.813 363.124 L 344.513 366.489 L 353.215 370.705 L 351.645 374.697 L 346.352 377.254 L 343.436 382.503 L 337.515 386.36 L 341.956 393.627 L 325.089 392.102 L 323.295 386.136 L 318.72 384.79 L 318.316 380.035 L 323.205 375.191 L 326.211 360.523 L 328.185 359.67 L 325.628 357.113 L 327.108 355.229 L 324.013 348.321 L 325.807 347.424 L 325.045 341.952 L 327.332 333.384 L 330.024 331.724 L 328.633 323.246 L 332.042 320.331 L 334.465 312.167 L 331.235 299.517 L 334.016 294.897 L 335.182 286.463 L 341.283 279.466 L 340.745 268.79 L 345.634 266.592 L 346.621 260.805 L 350.389 256.723 L 356.265 257.845 L 358.867 261.074 L 360.616 257.441 L 365.73 257.62 L 374.701 265.919 L 388.473 271.661 L 389.145 273.634 L 384.705 280.453 L 397.803 281.664 L 404.845 273.41 L 407.088 275.967 L 406.999 279.555 L 389.145 294.358 Z" fill="#D4DAE1" fill-opacity="0.92"/>
<path data-cfx-role="dotted-map-land-area" data-cfx-viewport="South America" data-cfx-boundary="2" d="M 335.496 237.659 L 340.655 245.868 L 339.219 250.174 L 343.391 261.388 L 347.159 261.927 L 345.634 266.592 L 340.745 268.79 L 341.283 279.466 L 335.182 286.463 L 334.016 294.897 L 331.235 299.517 L 334.465 312.167 L 332.042 320.331 L 328.633 323.246 L 330.024 331.724 L 327.332 333.384 L 325.045 341.952 L 325.807 347.424 L 324.013 348.321 L 327.108 355.229 L 325.628 357.113 L 328.185 359.67 L 326.211 360.523 L 323.205 375.191 L 318.316 380.035 L 318.72 384.79 L 323.295 386.136 L 325.089 392.102 L 340.072 393.403 L 329.844 396.094 L 329.127 400.266 L 327.243 400.401 L 311.453 393.223 L 308.492 377.12 L 310.421 372.813 L 315.131 369.359 L 308.358 368.059 L 312.619 364.066 L 314.144 356.62 L 319.123 358.19 L 321.456 348.905 L 318.451 347.738 L 317.06 353.345 L 314.234 352.673 L 319.213 334.909 L 317.553 325.489 L 319.437 325.31 L 327.198 304.227 L 326.973 288.258 L 329.575 282.785 L 333.253 254.749 L 331.997 241.113 L 335.496 237.659 Z" fill="#D4DAE1" fill-opacity="0.92"/>
<path data-cfx-role="dotted-map-land-area" data-cfx-viewport="South America" data-cfx-boundary="3" d="M 347.653 153.193 L 344.692 149.649 L 343.212 151.219 L 334.465 151.129 L 334.554 153.911 L 337.156 154.359 L 337.021 156.109 L 333.567 156.378 L 336.259 163.824 L 334.151 178.089 L 330.562 175.577 L 333.433 171.046 L 330.024 168.938 L 319.886 169.162 L 310.735 159.069 L 300.373 157.006 L 293.914 152.61 L 295.843 147.003 L 298.085 146.689 L 301.674 141.53 L 300.014 140.453 L 300.822 132.559 L 298.31 126.413 L 301.181 123.183 L 300.149 120.582 L 308.223 116.455 L 309.075 111.162 L 311.632 109.098 L 318.361 108.425 L 327.377 103.267 L 327.691 105.958 L 324.82 106.721 L 320.604 111.924 L 318.854 117.756 L 321.142 118.025 L 322.712 125.516 L 324.865 127.445 L 333.253 127.579 L 336.393 131.437 L 345.589 131.437 L 343.436 138.614 L 345.769 143.907 L 343.481 146.15 L 347.653 153.193 Z" fill="#D4DAE1" fill-opacity="0.92"/>
<path data-cfx-role="dotted-map-land-area" data-cfx-viewport="South America" data-cfx-boundary="4" d="M 375.24 135.474 L 374.163 138.435 L 364.653 141.889 L 356.893 140.588 L 358.912 141.754 L 359.36 147.586 L 363.397 148.931 L 353.619 155.256 L 350.12 155.57 L 343.481 146.15 L 345.769 143.907 L 343.436 138.614 L 345.589 131.437 L 336.393 131.437 L 333.253 127.579 L 324.865 127.445 L 322.712 125.516 L 321.142 118.025 L 318.854 117.756 L 320.604 111.924 L 324.82 106.721 L 327.691 105.958 L 324.91 107.573 L 326.345 111.924 L 324.372 114.526 L 326.031 118.115 L 328.005 117.801 L 327.377 109.592 L 332.939 107.753 L 333.926 104.254 L 341.776 111.476 L 350.568 111.027 L 356.579 113.584 L 359.136 111.072 L 370.081 110.713 L 366.268 112.059 L 374.791 116.724 L 375.509 120.313 L 379.591 121.255 L 376.047 123.901 L 377.169 127.221 L 373.311 128.746 L 372.189 132.065 L 375.24 135.474 Z" fill="#D4DAE1" fill-opacity="0.92"/>
<path data-cfx-role="dotted-map-land-area" data-cfx-viewport="South America" data-cfx-boundary="5" d="M 334.151 178.089 L 330.113 177.864 L 320.693 182.44 L 319.662 188.54 L 315.759 192.533 L 320.11 199.306 L 319.168 201.235 L 323.878 203.881 L 327.826 204.016 L 331.504 201.369 L 331.19 208.188 L 335.765 207.919 L 339.623 215.141 L 336.618 225.861 L 338.322 232.814 L 331.997 241.113 L 306.698 224.516 L 289.877 191.052 L 283.193 186.342 L 284.628 184.324 L 282.475 180.062 L 287.454 174.051 L 286.826 178.672 L 290.505 178.761 L 292.344 181.049 L 294.901 179.21 L 298.489 172.257 L 303.872 170.508 L 308.806 165.798 L 310.735 159.069 L 319.886 169.162 L 330.024 168.938 L 333.433 171.046 L 330.562 175.577 L 334.151 178.089 Z" fill="#D4DAE1" fill-opacity="0.92"/>
<path data-cfx-role="dotted-map-land-area" data-cfx-viewport="South America" data-cfx-boundary="6" d="M 335.765 207.919 L 341.417 208.188 L 348.684 203.343 L 354.561 202.581 L 354.291 210.7 L 359.136 214.692 L 376.271 220.613 L 377.797 231.738 L 386.409 231.917 L 386.23 236.268 L 389.729 240.305 L 388.159 248.38 L 386.723 249.322 L 382.462 245.643 L 370.485 246.855 L 366.448 258.607 L 360.616 257.441 L 358.867 261.074 L 356.265 257.845 L 350.389 256.723 L 346.621 260.805 L 343.391 261.388 L 339.219 250.174 L 340.655 245.868 L 335.496 237.659 L 338.322 232.814 L 336.618 225.861 L 339.623 215.141 L 335.765 207.919 Z" fill="#D4DAE1" fill-opacity="0.92"/>
<path data-cfx-role="dotted-map-land-area" data-cfx-viewport="South America" data-cfx-boundary="7" d="M 309.569 159.473 L 308.806 165.798 L 303.872 170.508 L 298.489 172.257 L 294.901 179.21 L 292.344 181.049 L 290.505 178.761 L 286.826 178.672 L 289.832 170.732 L 288.845 168.758 L 287.14 170.867 L 284.449 168.893 L 284.628 163.555 L 288.396 155.346 L 293.914 152.61 L 300.373 157.006 L 305.442 156.916 L 309.569 159.473 Z" fill="#D4DAE1" fill-opacity="0.92"/>
<path data-cfx-role="dotted-map-land-area" data-cfx-viewport="South America" data-cfx-boundary="8" d="M 300.687 119.909 L 301.181 123.183 L 298.31 126.413 L 295.843 122.69 L 296.964 121.479 L 292.747 118.429 L 287.095 121.569 L 288.8 124.933 L 284.808 126.413 L 284.045 123.722 L 281.982 124.215 L 281.085 122.421 L 276.016 122.6 L 275.657 116.275 L 282.341 119.371 L 293.196 115.961 L 300.687 119.909 Z" fill="#D4DAE1" fill-opacity="0.92"/>
<path data-cfx-role="dotted-map-land-area" data-cfx-viewport="South America" data-cfx-boundary="9" d="M 394.035 150.277 L 390.446 150.053 L 385.063 153.103 L 380.084 150.771 L 378.649 146.419 L 380.578 141.037 L 378.021 138.3 L 378.604 136.327 L 372.189 132.065 L 373.311 128.746 L 377.169 127.221 L 376.047 123.901 L 379.591 121.255 L 391.299 132.02 L 387.306 140.588 L 394.035 150.277 Z" fill="#D4DAE1" fill-opacity="0.92"/>
<path data-cfx-role="dotted-map-land-area" data-cfx-viewport="South America" data-cfx-boundary="10" d="M 386.723 249.322 L 387.755 257.889 L 397.354 259.101 L 399.149 266.278 L 404.128 266.547 L 401.885 278.21 L 397.803 281.664 L 384.705 280.453 L 389.145 273.634 L 388.473 271.661 L 374.701 265.919 L 366.448 258.607 L 370.485 246.855 L 382.462 245.643 L 386.723 249.322 Z" fill="#D4DAE1" fill-opacity="0.92"/>
<path data-cfx-role="dotted-map-land-area" data-cfx-viewport="South America" data-cfx-boundary="11" d="M 403.096 148.438 L 396.592 147.541 L 396.457 150.636 L 394.035 150.277 L 389.28 143.863 L 387.306 140.588 L 391.299 132.02 L 405.608 132.962 L 403.275 136.82 L 405.384 142.562 L 403.096 148.438 Z" fill="#D4DAE1" fill-opacity="0.92"/>
<path data-cfx-role="dotted-map-land-area" data-cfx-viewport="South America" data-cfx-boundary="12" d="M 277.361 115.872 L 275.657 116.275 L 275.477 121.883 L 266.461 113.539 L 265.878 115.917 L 263.411 114.257 L 262.155 109.906 L 263.859 108.47 L 272.382 109.726 L 277.361 115.872 Z" fill="#D4DAE1" fill-opacity="0.92"/>
<path data-cfx-role="dotted-map-land-area" data-cfx-viewport="South America" data-cfx-boundary="13" d="M 339.803 394.928 L 339.803 404.931 L 347.294 405.066 L 341.956 408.251 L 329.127 405.739 L 312.754 395.825 L 328.678 401.343 L 332.446 396.229 L 339.803 394.928 Z" fill="#D4DAE1" fill-opacity="0.92"/>
<path data-cfx-role="dotted-map-land-area" data-cfx-viewport="South America" data-cfx-boundary="14" d="M 389.145 294.358 L 392.061 293.865 L 406.371 302.567 L 408.972 305.617 L 406.281 313.109 L 401.212 315.576 L 395.47 315.172 L 385.557 310.911 L 389.145 294.358 Z" fill="#D4DAE1" fill-opacity="0.92"/>
<path data-cfx-role="dotted-map-land-area" data-cfx-viewport="South America" data-cfx-boundary="15" d="M 415.925 140.139 L 410.183 149.29 L 403.096 148.438 L 405.384 142.562 L 403.275 136.82 L 405.608 132.962 L 410.453 134.532 L 415.925 140.139 Z" fill="#D4DAE1" fill-opacity="0.92"/>
<path data-cfx-role="dotted-map-land-area" data-cfx-viewport="South America" data-cfx-boundary="16" d="M 339.803 394.928 L 343.75 400.356 L 355.861 404.169 L 353.843 406.411 L 349.581 406.636 L 339.803 404.931 L 339.803 394.928 Z" fill="#D4DAE1" fill-opacity="0.92"/>
<path data-cfx-role="dotted-map-land-area" data-cfx-viewport="South America" data-cfx-boundary="17" d="M 373.131 391.384 L 385.019 388.02 L 388.607 390.039 L 381.206 392.954 L 379.187 391.384 L 375.374 393.403 L 373.131 391.384 Z" fill="#D4DAE1" fill-opacity="0.92"/>
<path data-cfx-role="dotted-map-land-area" data-cfx-viewport="South America" data-cfx-boundary="18" d="M 370.978 110.534 L 374.477 110.085 L 374.298 113.449 L 369.767 113.539 L 370.978 110.534 Z" fill="#D4DAE1" fill-opacity="0.92"/>
<path data-cfx-role="dotted-map-boundary" data-cfx-viewport="South America" data-cfx-boundary="0" d="M 408.255 310.283 L 406.999 307.726 L 408.972 305.617 L 406.371 302.567 L 392.061 293.865 L 389.145 294.358 L 406.999 279.555 L 407.088 275.967 L 404.845 273.41 L 402.603 274.262 L 404.128 266.547 L 399.149 266.278 L 397.354 259.101 L 387.755 257.889 L 386.723 249.322 L 389.729 240.305 L 386.23 236.268 L 386.409 231.917 L 377.797 231.738 L 376.271 220.613 L 359.136 214.692 L 354.291 210.7 L 354.561 202.581 L 348.684 203.343 L 341.417 208.188 L 331.19 208.188 L 331.504 201.369 L 327.826 204.016 L 323.878 203.881 L 319.168 201.235 L 320.11 199.306 L 315.759 192.533 L 319.662 188.54 L 320.693 182.44 L 330.113 177.864 L 334.151 178.089 L 336.259 163.824 L 333.567 156.378 L 337.021 156.109 L 337.156 154.359 L 334.554 153.911 L 334.465 151.129 L 343.212 151.219 L 344.692 149.649 L 346.8 153.731 L 353.619 155.256 L 363.397 148.931 L 359.36 147.586 L 358.912 141.754 L 356.893 140.588 L 364.653 141.889 L 374.163 138.435 L 375.24 135.474 L 378.604 136.327 L 378.021 138.3 L 380.578 141.037 L 378.649 146.419 L 382.865 152.879 L 390.446 150.053 L 396.457 150.636 L 396.592 147.541 L 410.183 149.29 L 417.45 139.96 L 421.084 150.277 L 423.506 150.995 L 423.596 154.09 L 420.231 157.813 L 421.622 159.159 L 429.562 159.877 L 429.741 164.362 L 433.15 161.402 L 446.204 165.753 L 448.402 168.399 L 447.684 170.867 L 452.887 169.476 L 468.318 171.674 L 480.699 180.421 L 487.966 181.901 L 491.868 191.725 L 490.074 199.171 L 474.195 217.383 L 471.503 238.96 L 464.012 257.217 L 459.302 261.837 L 447.37 263.541 L 433.913 270.449 L 430.1 274.89 L 428.351 287.405 L 408.255 310.283" fill="none" stroke="#939FAF" stroke-width="1.352" stroke-opacity="0.16" stroke-linecap="round" stroke-linejoin="round"/>
<path data-cfx-role="dotted-map-boundary" data-cfx-viewport="South America" data-cfx-boundary="1" d="M 389.145 294.358 L 385.243 313.243 L 390.94 317.101 L 390.357 320.196 L 393.138 322.125 L 392.913 324.323 L 388.607 330.065 L 381.968 332.487 L 368.018 332.98 L 368.87 341.279 L 366.179 342.849 L 355.547 342.983 L 356.175 347.469 L 359.226 348.815 L 361.648 347.379 L 362.994 349.712 L 355.278 353.929 L 353.529 360.837 L 345.813 363.124 L 344.513 366.489 L 353.215 370.705 L 351.645 374.697 L 346.352 377.254 L 343.436 382.503 L 337.515 386.36 L 341.956 393.627 L 325.089 392.102 L 323.295 386.136 L 318.72 384.79 L 318.316 380.035 L 323.205 375.191 L 326.211 360.523 L 328.185 359.67 L 325.628 357.113 L 327.108 355.229 L 324.013 348.321 L 325.807 347.424 L 325.045 341.952 L 327.332 333.384 L 330.024 331.724 L 328.633 323.246 L 332.042 320.331 L 334.465 312.167 L 331.235 299.517 L 334.016 294.897 L 335.182 286.463 L 341.283 279.466 L 340.745 268.79 L 345.634 266.592 L 346.621 260.805 L 350.389 256.723 L 356.265 257.845 L 358.867 261.074 L 360.616 257.441 L 365.73 257.62 L 374.701 265.919 L 388.473 271.661 L 389.145 273.634 L 384.705 280.453 L 397.803 281.664 L 404.845 273.41 L 407.088 275.967 L 406.999 279.555 L 389.145 294.358" fill="none" stroke="#939FAF" stroke-width="1.352" stroke-opacity="0.16" stroke-linecap="round" stroke-linejoin="round"/>
<path data-cfx-role="dotted-map-boundary" data-cfx-viewport="South America" data-cfx-boundary="2" d="M 335.496 237.659 L 340.655 245.868 L 339.219 250.174 L 343.391 261.388 L 347.159 261.927 L 345.634 266.592 L 340.745 268.79 L 341.283 279.466 L 335.182 286.463 L 334.016 294.897 L 331.235 299.517 L 334.465 312.167 L 332.042 320.331 L 328.633 323.246 L 330.024 331.724 L 327.332 333.384 L 325.045 341.952 L 325.807 347.424 L 324.013 348.321 L 327.108 355.229 L 325.628 357.113 L 328.185 359.67 L 326.211 360.523 L 323.205 375.191 L 318.316 380.035 L 318.72 384.79 L 323.295 386.136 L 325.089 392.102 L 340.072 393.403 L 329.844 396.094 L 329.127 400.266 L 327.243 400.401 L 311.453 393.223 L 308.492 377.12 L 310.421 372.813 L 315.131 369.359 L 308.358 368.059 L 312.619 364.066 L 314.144 356.62 L 319.123 358.19 L 321.456 348.905 L 318.451 347.738 L 317.06 353.345 L 314.234 352.673 L 319.213 334.909 L 317.553 325.489 L 319.437 325.31 L 327.198 304.227 L 326.973 288.258 L 329.575 282.785 L 333.253 254.749 L 331.997 241.113 L 335.496 237.659" fill="none" stroke="#939FAF" stroke-width="1.352" stroke-opacity="0.16" stroke-linecap="round" stroke-linejoin="round"/>
<path data-cfx-role="dotted-map-boundary" data-cfx-viewport="South America" data-cfx-boundary="3" d="M 347.653 153.193 L 344.692 149.649 L 343.212 151.219 L 334.465 151.129 L 334.554 153.911 L 337.156 154.359 L 337.021 156.109 L 333.567 156.378 L 336.259 163.824 L 334.151 178.089 L 330.562 175.577 L 333.433 171.046 L 330.024 168.938 L 319.886 169.162 L 310.735 159.069 L 300.373 157.006 L 293.914 152.61 L 295.843 147.003 L 298.085 146.689 L 301.674 141.53 L 300.014 140.453 L 300.822 132.559 L 298.31 126.413 L 301.181 123.183 L 300.149 120.582 L 308.223 116.455 L 309.075 111.162 L 311.632 109.098 L 318.361 108.425 L 327.377 103.267 L 327.691 105.958 L 324.82 106.721 L 320.604 111.924 L 318.854 117.756 L 321.142 118.025 L 322.712 125.516 L 324.865 127.445 L 333.253 127.579 L 336.393 131.437 L 345.589 131.437 L 343.436 138.614 L 345.769 143.907 L 343.481 146.15 L 347.653 153.193" fill="none" stroke="#939FAF" stroke-width="1.352" stroke-opacity="0.16" stroke-linecap="round" stroke-linejoin="round"/>
<path data-cfx-role="dotted-map-boundary" data-cfx-viewport="South America" data-cfx-boundary="4" d="M 375.24 135.474 L 374.163 138.435 L 364.653 141.889 L 356.893 140.588 L 358.912 141.754 L 359.36 147.586 L 363.397 148.931 L 353.619 155.256 L 350.12 155.57 L 343.481 146.15 L 345.769 143.907 L 343.436 138.614 L 345.589 131.437 L 336.393 131.437 L 333.253 127.579 L 324.865 127.445 L 322.712 125.516 L 321.142 118.025 L 318.854 117.756 L 320.604 111.924 L 324.82 106.721 L 327.691 105.958 L 324.91 107.573 L 326.345 111.924 L 324.372 114.526 L 326.031 118.115 L 328.005 117.801 L 327.377 109.592 L 332.939 107.753 L 333.926 104.254 L 341.776 111.476 L 350.568 111.027 L 356.579 113.584 L 359.136 111.072 L 370.081 110.713 L 366.268 112.059 L 374.791 116.724 L 375.509 120.313 L 379.591 121.255 L 376.047 123.901 L 377.169 127.221 L 373.311 128.746 L 372.189 132.065 L 375.24 135.474" fill="none" stroke="#939FAF" stroke-width="1.352" stroke-opacity="0.16" stroke-linecap="round" stroke-linejoin="round"/>
<path data-cfx-role="dotted-map-boundary" data-cfx-viewport="South America" data-cfx-boundary="5" d="M 334.151 178.089 L 330.113 177.864 L 320.693 182.44 L 319.662 188.54 L 315.759 192.533 L 320.11 199.306 L 319.168 201.235 L 323.878 203.881 L 327.826 204.016 L 331.504 201.369 L 331.19 208.188 L 335.765 207.919 L 339.623 215.141 L 336.618 225.861 L 338.322 232.814 L 331.997 241.113 L 306.698 224.516 L 289.877 191.052 L 283.193 186.342 L 284.628 184.324 L 282.475 180.062 L 287.454 174.051 L 286.826 178.672 L 290.505 178.761 L 292.344 181.049 L 294.901 179.21 L 298.489 172.257 L 303.872 170.508 L 308.806 165.798 L 310.735 159.069 L 319.886 169.162 L 330.024 168.938 L 333.433 171.046 L 330.562 175.577 L 334.151 178.089" fill="none" stroke="#939FAF" stroke-width="1.352" stroke-opacity="0.16" stroke-linecap="round" stroke-linejoin="round"/>
<path data-cfx-role="dotted-map-boundary" data-cfx-viewport="South America" data-cfx-boundary="6" d="M 335.765 207.919 L 341.417 208.188 L 348.684 203.343 L 354.561 202.581 L 354.291 210.7 L 359.136 214.692 L 376.271 220.613 L 377.797 231.738 L 386.409 231.917 L 386.23 236.268 L 389.729 240.305 L 388.159 248.38 L 386.723 249.322 L 382.462 245.643 L 370.485 246.855 L 366.448 258.607 L 360.616 257.441 L 358.867 261.074 L 356.265 257.845 L 350.389 256.723 L 346.621 260.805 L 343.391 261.388 L 339.219 250.174 L 340.655 245.868 L 335.496 237.659 L 338.322 232.814 L 336.618 225.861 L 339.623 215.141 L 335.765 207.919" fill="none" stroke="#939FAF" stroke-width="1.352" stroke-opacity="0.16" stroke-linecap="round" stroke-linejoin="round"/>
<path data-cfx-role="dotted-map-boundary" data-cfx-viewport="South America" data-cfx-boundary="7" d="M 309.569 159.473 L 308.806 165.798 L 303.872 170.508 L 298.489 172.257 L 294.901 179.21 L 292.344 181.049 L 290.505 178.761 L 286.826 178.672 L 289.832 170.732 L 288.845 168.758 L 287.14 170.867 L 284.449 168.893 L 284.628 163.555 L 288.396 155.346 L 293.914 152.61 L 300.373 157.006 L 305.442 156.916 L 309.569 159.473" fill="none" stroke="#939FAF" stroke-width="1.352" stroke-opacity="0.16" stroke-linecap="round" stroke-linejoin="round"/>
<path data-cfx-role="dotted-map-boundary" data-cfx-viewport="South America" data-cfx-boundary="8" d="M 300.687 119.909 L 301.181 123.183 L 298.31 126.413 L 295.843 122.69 L 296.964 121.479 L 292.747 118.429 L 287.095 121.569 L 288.8 124.933 L 284.808 126.413 L 284.045 123.722 L 281.982 124.215 L 281.085 122.421 L 276.016 122.6 L 275.657 116.275 L 282.341 119.371 L 293.196 115.961 L 300.687 119.909" fill="none" stroke="#939FAF" stroke-width="1.352" stroke-opacity="0.16" stroke-linecap="round" stroke-linejoin="round"/>
<path data-cfx-role="dotted-map-boundary" data-cfx-viewport="South America" data-cfx-boundary="9" d="M 394.035 150.277 L 390.446 150.053 L 385.063 153.103 L 380.084 150.771 L 378.649 146.419 L 380.578 141.037 L 378.021 138.3 L 378.604 136.327 L 372.189 132.065 L 373.311 128.746 L 377.169 127.221 L 376.047 123.901 L 379.591 121.255 L 391.299 132.02 L 387.306 140.588 L 394.035 150.277" fill="none" stroke="#939FAF" stroke-width="1.352" stroke-opacity="0.16" stroke-linecap="round" stroke-linejoin="round"/>
<path data-cfx-role="dotted-map-boundary" data-cfx-viewport="South America" data-cfx-boundary="10" d="M 386.723 249.322 L 387.755 257.889 L 397.354 259.101 L 399.149 266.278 L 404.128 266.547 L 401.885 278.21 L 397.803 281.664 L 384.705 280.453 L 389.145 273.634 L 388.473 271.661 L 374.701 265.919 L 366.448 258.607 L 370.485 246.855 L 382.462 245.643 L 386.723 249.322" fill="none" stroke="#939FAF" stroke-width="1.352" stroke-opacity="0.16" stroke-linecap="round" stroke-linejoin="round"/>
<path data-cfx-role="dotted-map-boundary" data-cfx-viewport="South America" data-cfx-boundary="11" d="M 403.096 148.438 L 396.592 147.541 L 396.457 150.636 L 394.035 150.277 L 389.28 143.863 L 387.306 140.588 L 391.299 132.02 L 405.608 132.962 L 403.275 136.82 L 405.384 142.562 L 403.096 148.438" fill="none" stroke="#939FAF" stroke-width="1.352" stroke-opacity="0.16" stroke-linecap="round" stroke-linejoin="round"/>
<path data-cfx-role="dotted-map-boundary" data-cfx-viewport="South America" data-cfx-boundary="12" d="M 277.361 115.872 L 275.657 116.275 L 275.477 121.883 L 266.461 113.539 L 265.878 115.917 L 263.411 114.257 L 262.155 109.906 L 263.859 108.47 L 272.382 109.726 L 277.361 115.872" fill="none" stroke="#939FAF" stroke-width="1.352" stroke-opacity="0.16" stroke-linecap="round" stroke-linejoin="round"/>
<path data-cfx-role="dotted-map-boundary" data-cfx-viewport="South America" data-cfx-boundary="13" d="M 339.803 394.928 L 339.803 404.931 L 347.294 405.066 L 341.956 408.251 L 329.127 405.739 L 312.754 395.825 L 328.678 401.343 L 332.446 396.229 L 339.803 394.928" fill="none" stroke="#939FAF" stroke-width="1.352" stroke-opacity="0.16" stroke-linecap="round" stroke-linejoin="round"/>
<path data-cfx-role="dotted-map-boundary" data-cfx-viewport="South America" data-cfx-boundary="14" d="M 389.145 294.358 L 392.061 293.865 L 406.371 302.567 L 408.972 305.617 L 406.281 313.109 L 401.212 315.576 L 395.47 315.172 L 385.557 310.911 L 389.145 294.358" fill="none" stroke="#939FAF" stroke-width="1.352" stroke-opacity="0.16" stroke-linecap="round" stroke-linejoin="round"/>
<path data-cfx-role="dotted-map-boundary" data-cfx-viewport="South America" data-cfx-boundary="15" d="M 415.925 140.139 L 410.183 149.29 L 403.096 148.438 L 405.384 142.562 L 403.275 136.82 L 405.608 132.962 L 410.453 134.532 L 415.925 140.139" fill="none" stroke="#939FAF" stroke-width="1.352" stroke-opacity="0.16" stroke-linecap="round" stroke-linejoin="round"/>
<path data-cfx-role="dotted-map-boundary" data-cfx-viewport="South America" data-cfx-boundary="16" d="M 339.803 394.928 L 343.75 400.356 L 355.861 404.169 L 353.843 406.411 L 349.581 406.636 L 339.803 404.931 L 339.803 394.928" fill="none" stroke="#939FAF" stroke-width="1.352" stroke-opacity="0.16" stroke-linecap="round" stroke-linejoin="round"/>
<path data-cfx-role="dotted-map-boundary" data-cfx-viewport="South America" data-cfx-boundary="17" d="M 373.131 391.384 L 385.019 388.02 L 388.607 390.039 L 381.206 392.954 L 379.187 391.384 L 375.374 393.403 L 373.131 391.384" fill="none" stroke="#939FAF" stroke-width="1.352" stroke-opacity="0.16" stroke-linecap="round" stroke-linejoin="round"/>
<path data-cfx-role="dotted-map-boundary" data-cfx-viewport="South America" data-cfx-boundary="18" d="M 370.978 110.534 L 374.477 110.085 L 374.298 113.449 L 369.767 113.539 L 370.978 110.534" fill="none" stroke="#939FAF" stroke-width="1.352" stroke-opacity="0.16" stroke-linecap="round" stroke-linejoin="round"/>
<path data-cfx-role="dotted-map-boundary" data-cfx-viewport="South America" data-cfx-boundary="19" d="M 272.382 109.726 L 263.187 109.053" fill="none" stroke="#939FAF" stroke-width="1.352" stroke-opacity="0.16" stroke-linecap="round" stroke-linejoin="round"/>
<path data-cfx-role="dotted-map-boundary" data-cfx-viewport="South America" data-cfx-boundary="20" d="M 262.783 96.718 L 263.231 96.179" fill="none" stroke="#939FAF" stroke-width="1.352" stroke-opacity="0.16" stroke-linecap="round" stroke-linejoin="round"/>
<path data-cfx-role="dotted-map-boundary" data-cfx-viewport="South America" data-cfx-boundary="21" d="M 273.504 96.135 L 272.382 109.726" fill="none" stroke="#939FAF" stroke-width="1.352" stroke-opacity="0.16" stroke-linecap="round" stroke-linejoin="round"/>
<path data-cfx-role="dotted-map-boundary" data-cfx-viewport="South America" data-cfx-boundary="22" d="M 263.231 96.179 L 262.783 96.718" fill="none" stroke="#939FAF" stroke-width="1.352" stroke-opacity="0.16" stroke-linecap="round" stroke-linejoin="round"/>
<path data-cfx-role="dotted-map-connector-halo" data-cfx-connector="0" d="M 314.284 212.689 Q 380.389 211.889 429.412 256.242" fill="none" stroke="#F8FAFC" stroke-width="7.256" stroke-opacity="0.72" stroke-linecap="round"/>
<path class="cfx-interactive-region" tabindex="0" focusable="true" data-cfx-role="dotted-map-connector" data-cfx-connector="0" data-cfx-label="Lima to Sao Paulo" data-cfx-from-longitude="-77.043" data-cfx-from-latitude="-12.046" data-cfx-to-longitude="-46.633" data-cfx-to-latitude="-23.551" data-cfx-rendered-from-x="314.284" data-cfx-rendered-from-y="212.689" data-cfx-rendered-to-x="429.412" data-cfx-rendered-to-y="256.242" data-cfx-control-x="380.389" data-cfx-control-y="211.889" style="--cfx-interactive-focus-stroke-width:6.656" role="img" aria-label="Lima to Sao Paulo: 12.046 S, 77.043 W to 23.551 S, 46.633 W" d="M 314.284 212.689 Q 380.389 211.889 429.412 256.242" fill="none" stroke="#2563EB" stroke-width="4.056" stroke-opacity="0.72" stroke-linecap="round"><title>Lima to Sao Paulo: 12.046 S, 77.043 W to 23.551 S, 46.633 W</title></path>
<path data-cfx-role="dotted-map-connector-arrow" data-cfx-connector="0" data-cfx-label="Lima to Sao Paulo" d="M 390.796 229.602 L 365.679 224.03 L 371.256 212.866 Z" fill="#2563EB" fill-opacity="0.78" stroke="#F8FAFC" stroke-opacity="0.78" stroke-width="1.947" stroke-linejoin="round"><title>Lima to Sao Paulo: 12.046 S, 77.043 W to 23.551 S, 46.633 W</title></path>
<text data-cfx-role="dotted-map-connector-label" data-cfx-connector="0" data-cfx-label="Lima to Sao Paulo" x="376.118" y="211.737" text-anchor="middle" fill="#2563EB" stroke="#F8FAFC" stroke-width="3" paint-order="stroke" font-size="12" font-weight="700">Lima to Sao Paulo</text>
</g>
<circle data-cfx-role="dotted-map-point-halo" data-cfx-point="0" cx="302.065" cy="212.837" r="12.987" fill="#F59E0B" opacity="0.18"/>
<circle class="cfx-interactive-region" tabindex="0" focusable="true" data-cfx-role="dotted-map-point" data-cfx-point="0" data-cfx-label="Lima" data-cfx-longitude="-77.043" data-cfx-latitude="-12.046" data-cfx-longitude-label="77.043 W" data-cfx-latitude-label="12.046 S" role="img" aria-label="Lima: 12.046 S, 77.043 W" cx="302.065" cy="212.837" r="7.02" fill="#F59E0B" stroke="#FFFFFF" stroke-width="2.86"><title>Lima: 12.046 S, 77.043 W</title></circle>
<line data-cfx-role="dotted-map-label-leader" data-cfx-label="Lima" data-cfx-placement="top" x1="302.065" y1="203.57" x2="302.065" y2="181.775" stroke="#939FAF" stroke-opacity="0.52" stroke-width="1.544" stroke-linecap="round"/>
<rect data-cfx-role="dotted-map-label-backdrop" data-cfx-label="Lima" data-cfx-placement="top" x="286.305" y="165.275" width="31.52" height="16.5" rx="6" fill="#FFFFFF" fill-opacity="0.86" stroke="rgba(148,163,184,0.188)" stroke-opacity="0.46"/>
<text data-cfx-role="dotted-map-label" data-cfx-label="Lima" data-cfx-placement="top" x="302.065" y="173.525" text-anchor="middle" dominant-baseline="middle" fill="#0F172A" stroke="#FFFFFF" stroke-width="1.2" paint-order="stroke fill" stroke-linejoin="round" font-family="-apple-system, BlinkMacSystemFont, 'Segoe UI', Roboto, Helvetica, Arial, sans-serif" font-size="10.5" font-weight="700">Lima</text>
<circle data-cfx-role="dotted-map-point-halo" data-cfx-point="1" cx="438.473" cy="264.441" r="12.987" fill="#F59E0B" opacity="0.18"/>
<circle class="cfx-interactive-region" tabindex="0" focusable="true" data-cfx-role="dotted-map-point" data-cfx-point="1" data-cfx-label="Sao Paulo" data-cfx-longitude="-46.633" data-cfx-latitude="-23.551" data-cfx-longitude-label="46.633 W" data-cfx-latitude-label="23.551 S" role="img" aria-label="Sao Paulo: 23.551 S, 46.633 W" cx="438.473" cy="264.441" r="7.02" fill="#F59E0B" stroke="#FFFFFF" stroke-width="2.86"><title>Sao Paulo: 23.551 S, 46.633 W</title></circle>
<line data-cfx-role="dotted-map-label-leader" data-cfx-label="Sao Paulo" data-cfx-placement="top" x1="438.473" y1="255.174" x2="438.473" y2="233.379" stroke="#939FAF" stroke-opacity="0.52" stroke-width="1.544" stroke-linecap="round"/>
<rect data-cfx-role="dotted-map-label-backdrop" data-cfx-label="Sao Paulo" data-cfx-placement="top" x="409.168" y="216.879" width="58.61" height="16.5" rx="6" fill="#FFFFFF" fill-opacity="0.86" stroke="rgba(148,163,184,0.188)" stroke-opacity="0.46"/>
<text data-cfx-role="dotted-map-label" data-cfx-label="Sao Paulo" data-cfx-placement="top" x="438.473" y="225.129" text-anchor="middle" dominant-baseline="middle" fill="#0F172A" stroke="#FFFFFF" stroke-width="1.2" paint-order="stroke fill" stroke-linejoin="round" font-family="-apple-system, BlinkMacSystemFont, 'Segoe UI', Roboto, Helvetica, Arial, sans-serif" font-size="10.5" font-weight="700">Sao Paulo</text>
<circle data-cfx-role="dotted-map-point-halo" data-cfx-point="2" cx="385.774" cy="314.022" r="12.987" fill="#EF4444" opacity="0.18"/>
<circle class="cfx-interactive-region" tabindex="0" focusable="true" data-cfx-role="dotted-map-point" data-cfx-point="2" data-cfx-label="Buenos Aires" data-cfx-longitude="-58.382" data-cfx-latitude="-34.604" data-cfx-longitude-label="58.382 W" data-cfx-latitude-label="34.604 S" role="img" aria-label="Buenos Aires: 34.604 S, 58.382 W" cx="385.774" cy="314.022" r="7.02" fill="#EF4444" stroke="#FFFFFF" stroke-width="2.86"><title>Buenos Aires: 34.604 S, 58.382 W</title></circle>
<line data-cfx-role="dotted-map-label-leader" data-cfx-label="Buenos Aires" data-cfx-placement="top" x1="385.774" y1="304.756" x2="385.774" y2="282.96" stroke="#939FAF" stroke-opacity="0.52" stroke-width="1.544" stroke-linecap="round"/>
<rect data-cfx-role="dotted-map-label-backdrop" data-cfx-label="Buenos Aires" data-cfx-placement="top" x="347.964" y="266.46" width="75.62" height="16.5" rx="6" fill="#FFFFFF" fill-opacity="0.86" stroke="rgba(148,163,184,0.188)" stroke-opacity="0.46"/>
<text data-cfx-role="dotted-map-label" data-cfx-label="Buenos Aires" data-cfx-placement="top" x="385.774" y="274.71" text-anchor="middle" dominant-baseline="middle" fill="#0F172A" stroke="#FFFFFF" stroke-width="1.2" paint-order="stroke fill" stroke-linejoin="round" font-family="-apple-system, BlinkMacSystemFont, 'Segoe UI', Roboto, Helvetica, Arial, sans-serif" font-size="10.5" font-weight="700">Buenos Aires</text>
</g>
</g>
</svg>
