<svg xmlns="http://www.w3.org/2000/svg" viewBox="0 0 100 100" preserveAspectRatio="xMidYMid meet">
<g xmlns="http://www.w3.org/2000/svg"><path fill-rule="evenodd" clip-rule="evenodd" d="M0 0h100v100H0z" class="msportalfx-svg-c17" fill="#804998"></path><path fill-rule="evenodd" clip-rule="evenodd" d="M43 23.18 37.737 18H37v6h6z" class="msportalfx-svg-c01" fill="#ffffff"></path><path fill-rule="evenodd" clip-rule="evenodd" d="M71 25.217V18H57v13H43v-5h-7.348L35 25.217V18H21v25h9v14h-9v25h22V72h14v11h22V66h-6.826L71 65.478V58h-1V43h9V26h-6.826L71 25.217zM67 58H57v11H43v-4h-7.348L35 64.478V57h-2V43h10v-9h14v9h10v15z" class="msportalfx-svg-c01" fill="#ffffff"></path><path fill-rule="evenodd" clip-rule="evenodd" d="M73.737 18H73v6h6v-.82zM73 58v6h6v-.82L73.737 58zm-36-1v6h6v-.82L37.737 57z" class="msportalfx-svg-c01" fill="#ffffff"></path></g><defs xmlns="http://www.w3.org/2000/svg">
</defs>
</svg>
