<svg xmlns="http://www.w3.org/2000/svg" viewBox="0 0 32 32" preserveAspectRatio="xMidYMid meet">
<path d="M30 7H2V3.143A1.249 1.249 0 013.333 2h25.334A1.249 1.249 0 0130 3.143z" fill="#0364b8" xmlns="http://www.w3.org/2000/svg" /><path d="M2 21h10v9H3.309A1.309 1.309 0 012 28.691V21z" fill="#064a8c" xmlns="http://www.w3.org/2000/svg" /><path fill="none" d="M0 0h32v32H0z" xmlns="http://www.w3.org/2000/svg" /><path fill="#0364b8" d="M2 13h10v9H2z" xmlns="http://www.w3.org/2000/svg" /><path fill="#0364b8" d="M11 21h11v9H11z" xmlns="http://www.w3.org/2000/svg" /><path fill="#0078d4" d="M2 6h10v8H2z" xmlns="http://www.w3.org/2000/svg" /><path fill="#0078d4" d="M11 13h11v9H11z" xmlns="http://www.w3.org/2000/svg" /><path fill="#28a8ea" d="M11 6h10v8H11z" xmlns="http://www.w3.org/2000/svg" /><path d="M21 21h9v7.691A1.309 1.309 0 0128.691 30H21v-9z" fill="#0078d4" xmlns="http://www.w3.org/2000/svg" /><path fill="#50d9ff" d="M21 6h9v9h-9z" xmlns="http://www.w3.org/2000/svg" /><path fill="#28a8ea" d="M21 14h9v8h-9z" xmlns="http://www.w3.org/2000/svg" />
</svg>
