<svg xmlns="http://www.w3.org/2000/svg" viewBox="0 0 96 96" preserveAspectRatio="xMidYMid meet">
<sodipodi:namedview pagecolor="#ffffff" bordercolor="#666666" borderopacity="1" objecttolerance="10" gridtolerance="10" guidetolerance="10" inkscape:pageopacity="0" inkscape:pageshadow="2" inkscape:window-width="640" inkscape:window-height="480" id="cfxi-microsoft-azure-stencils-office-365-guides-namedview71" xmlns:inkscape="http://www.inkscape.org/namespaces/inkscape" xmlns:sodipodi="http://sodipodi.sourceforge.net/DTD/sodipodi-0.dtd" />
  <svg:g clip-path="url(#cfxi-microsoft-azure-stencils-office-365-guides-clip0)" id="cfxi-microsoft-azure-stencils-office-365-guides-g25" xmlns:svg="http://www.w3.org/2000/svg">
    <svg:g clip-path="url(#cfxi-microsoft-azure-stencils-office-365-guides-clip1)" id="cfxi-microsoft-azure-stencils-office-365-guides-g23">
      <svg:mask id="cfxi-microsoft-azure-stencils-office-365-guides-mask0" mask-type="alpha" maskUnits="userSpaceOnUse" x="0" y="0" width="96" height="96">
        <svg:path d="M48.3137 12.7758L42.0431 1.98962C41.327 0.757867 40.0098 0 38.585 0H18.7453C17.3156 0 15.9946 0.763073 15.2803 2.00155L5.36608 19.1912C4.65027 20.4323 4.65291 21.9614 5.37299 23.2L11.7054 34.0925L1.15262 52.3894C0.439278 53.6262 0.439278 55.1495 1.15262 56.3863L22.8456 93.9983C23.5599 95.2368 24.8809 95.9999 26.3106 95.9999H69.6894C71.1191 95.9999 72.4401 95.2368 73.1544 93.9983L94.8474 56.3863C95.5607 55.1495 95.5607 53.6262 94.8474 52.3894L73.1544 14.7773C72.4401 13.5389 71.1191 12.7758 69.6894 12.7758H48.3137Z" fill="black" id="cfxi-microsoft-azure-stencils-office-365-guides-path2" />
      </svg:mask>
      <svg:g mask="url(#cfxi-microsoft-azure-stencils-office-365-guides-mask0)" id="cfxi-microsoft-azure-stencils-office-365-guides-g21">
        <svg:path d="M72 12.7758L96 54.3878L72 95.9999H24L0 54.3878L24 12.7758L72 12.7758Z" fill="url(#cfxi-microsoft-azure-stencils-office-365-guides-paint0_linear)" id="cfxi-microsoft-azure-stencils-office-365-guides-path5" />
        <svg:path d="M60.2264 33.1903L72.1052 53.4589L59.863 74.6471H35.3909L23.5488 54.3879L35.7747 33.1903L60.2264 33.1903Z" fill="url(#cfxi-microsoft-azure-stencils-office-365-guides-paint1_linear)" id="cfxi-microsoft-azure-stencils-office-365-guides-path7" />
        <svg:g filter="url(#cfxi-microsoft-azure-stencils-office-365-guides-filter0_f)" id="cfxi-microsoft-azure-stencils-office-365-guides-g11">
          <svg:path d="M39.7137 -1.69L63.3587 38.9821L51.1329 60.1796H26.6812L3.03613 19.5076L15.262 -1.69L39.7137 -1.69Z" fill="black" fill-opacity="0.24" id="cfxi-microsoft-azure-stencils-office-365-guides-path9" />
        </svg:g>
        <svg:g filter="url(#cfxi-microsoft-azure-stencils-office-365-guides-filter1_f)" id="cfxi-microsoft-azure-stencils-office-365-guides-g15">
          <svg:path d="M39.7303 4.56127e-07L63.3753 40.6721L51.1495 61.8696H26.6978L3.05273 21.1976L15.2786 0L39.7303 4.56127e-07Z" fill="black" fill-opacity="0.32" id="cfxi-microsoft-azure-stencils-office-365-guides-path13" />
        </svg:g>
        <svg:path d="M39.7166 -2.06995L63.3616 38.6021L51.1358 59.7996H26.6841L3.03906 19.1277L15.2649 -2.06995L39.7166 -2.06995Z" fill="url(#cfxi-microsoft-azure-stencils-office-365-guides-paint2_linear)" id="cfxi-microsoft-azure-stencils-office-365-guides-path17" />
        <svg:path fill-rule="evenodd" clip-rule="evenodd" d="M39.7173 -2.06995L63.3623 38.6021L63.3599 38.6062L51.1365 59.7996H26.686L38.7768 38.8362L15.2656 -2.06995H39.7173Z" fill="url(#cfxi-microsoft-azure-stencils-office-365-guides-paint3_linear)" id="cfxi-microsoft-azure-stencils-office-365-guides-path19" />
      </svg:g>
    </svg:g>
  </svg:g>
  <svg:defs id="cfxi-microsoft-azure-stencils-office-365-guides-defs67" xmlns:svg="http://www.w3.org/2000/svg">
    <svg:filter id="cfxi-microsoft-azure-stencils-office-365-guides-filter0_f" x="2.27613" y="-2.45" width="61.8425" height="63.3896" filterUnits="userSpaceOnUse" color-interpolation-filters="sRGB">
      <svg:feFlood flood-opacity="0" result="BackgroundImageFix" id="cfxi-microsoft-azure-stencils-office-365-guides-feFlood27" />
      <svg:feBlend mode="normal" in="SourceGraphic" in2="BackgroundImageFix" result="shape" id="cfxi-microsoft-azure-stencils-office-365-guides-feBlend29" />
      <svg:feGaussianBlur stdDeviation="0.38" result="effect1_foregroundBlur" id="cfxi-microsoft-azure-stencils-office-365-guides-feGaussianBlur31" />
    </svg:filter>
    <svg:filter id="cfxi-microsoft-azure-stencils-office-365-guides-filter1_f" x="-4.94727" y="-8" width="76.3225" height="77.8696" filterUnits="userSpaceOnUse" color-interpolation-filters="sRGB">
      <svg:feFlood flood-opacity="0" result="BackgroundImageFix" id="cfxi-microsoft-azure-stencils-office-365-guides-feFlood34" />
      <svg:feBlend mode="normal" in="SourceGraphic" in2="BackgroundImageFix" result="shape" id="cfxi-microsoft-azure-stencils-office-365-guides-feBlend36" />
      <svg:feGaussianBlur stdDeviation="4" result="effect1_foregroundBlur" id="cfxi-microsoft-azure-stencils-office-365-guides-feGaussianBlur38" />
    </svg:filter>
    <svg:linearGradient id="cfxi-microsoft-azure-stencils-office-365-guides-paint0_linear" x1="25.5" y1="12.5" x2="69" y2="95.5" gradientUnits="userSpaceOnUse">
      <svg:stop stop-color="#40C4F5" id="cfxi-microsoft-azure-stencils-office-365-guides-stop41" />
      <svg:stop offset="1" stop-color="#0095E6" id="cfxi-microsoft-azure-stencils-office-365-guides-stop43" />
    </svg:linearGradient>
    <svg:linearGradient id="cfxi-microsoft-azure-stencils-office-365-guides-paint1_linear" x1="38.776" y1="41.2647" x2="55.6658" y2="73.4075" gradientUnits="userSpaceOnUse">
      <svg:stop stop-color="#0078D4" id="cfxi-microsoft-azure-stencils-office-365-guides-stop46" />
      <svg:stop offset="1" stop-color="#2064AE" id="cfxi-microsoft-azure-stencils-office-365-guides-stop48" />
    </svg:linearGradient>
    <svg:linearGradient id="cfxi-microsoft-azure-stencils-office-365-guides-paint2_linear" x1="13.4566" y1="3.45413" x2="40.7812" y2="59.4373" gradientUnits="userSpaceOnUse">
      <svg:stop stop-color="#7CECFF" id="cfxi-microsoft-azure-stencils-office-365-guides-stop51" />
      <svg:stop offset="1" stop-color="#50E6FF" id="cfxi-microsoft-azure-stencils-office-365-guides-stop53" />
    </svg:linearGradient>
    <svg:linearGradient id="cfxi-microsoft-azure-stencils-office-365-guides-paint3_linear" x1="18.7794" y1="-1.56776" x2="49.7584" y2="59.2312" gradientUnits="userSpaceOnUse">
      <svg:stop stop-color="#A7F2FF" id="cfxi-microsoft-azure-stencils-office-365-guides-stop56" />
      <svg:stop offset="1" stop-color="#7CECFF" id="cfxi-microsoft-azure-stencils-office-365-guides-stop58" />
    </svg:linearGradient>
    <svg:clipPath id="cfxi-microsoft-azure-stencils-office-365-guides-clip0">
      <svg:rect width="96" height="96" fill="white" id="cfxi-microsoft-azure-stencils-office-365-guides-rect61" />
    </svg:clipPath>
    <svg:clipPath id="cfxi-microsoft-azure-stencils-office-365-guides-clip1">
      <svg:rect width="96" height="96" fill="white" id="cfxi-microsoft-azure-stencils-office-365-guides-rect64" />
    </svg:clipPath>
  </svg:defs>
</svg>
