<svg xmlns="http://www.w3.org/2000/svg" viewBox="0 0 24 24" preserveAspectRatio="xMidYMid meet">
<path stroke="none" d="M0 0h24v24H0z" fill="none" xmlns="http://www.w3.org/2000/svg" />
  <path d="M9 5h10a2 2 0 0 1 2 2v10m-2 2h-14a2 2 0 0 1 -2 -2v-10a2 2 0 0 1 2 -2" xmlns="http://www.w3.org/2000/svg" />
  <path d="M7 15v-4a2 2 0 0 1 2 -2m2 2v4" xmlns="http://www.w3.org/2000/svg" />
  <path d="M7 13h4" xmlns="http://www.w3.org/2000/svg" />
  <path d="M17 9v4" xmlns="http://www.w3.org/2000/svg" />
  <path d="M16.115 12.131c.33 .149 .595 .412 .747 .74" xmlns="http://www.w3.org/2000/svg" />
  <path d="M3 3l18 18" xmlns="http://www.w3.org/2000/svg" />
</svg>
