<svg xmlns="http://www.w3.org/2000/svg" viewBox="0 0 24 24" preserveAspectRatio="xMidYMid meet">
<path stroke="none" d="M0 0h24v24H0z" fill="none" xmlns="http://www.w3.org/2000/svg" />
  <path d="M20 6v12a2 2 0 0 1 -2 2h-10a2 2 0 0 1 -2 -2v-12a2 2 0 0 1 2 -2h10a2 2 0 0 1 2 2" xmlns="http://www.w3.org/2000/svg" />
  <path d="M10 16h6" xmlns="http://www.w3.org/2000/svg" />
  <path d="M11 11a2 2 0 1 0 4 0a2 2 0 1 0 -4 0" xmlns="http://www.w3.org/2000/svg" />
  <path d="M4 8h3" xmlns="http://www.w3.org/2000/svg" />
  <path d="M4 12h3" xmlns="http://www.w3.org/2000/svg" />
  <path d="M4 16h3" xmlns="http://www.w3.org/2000/svg" />
</svg>
