<svg xmlns="http://www.w3.org/2000/svg" viewBox="0 0 24 24" preserveAspectRatio="xMidYMid meet">
<path stroke="none" d="M0 0h24v24H0z" fill="none" xmlns="http://www.w3.org/2000/svg" />
  <path d="M4 10a2 2 0 1 0 4 0a2 2 0 0 0 -4 0" xmlns="http://www.w3.org/2000/svg" />
  <path d="M6 4v4" xmlns="http://www.w3.org/2000/svg" />
  <path d="M6 12v8" xmlns="http://www.w3.org/2000/svg" />
  <path d="M13.557 14.745a2 2 0 1 0 -1.557 3.255" xmlns="http://www.w3.org/2000/svg" />
  <path d="M12 4v10" xmlns="http://www.w3.org/2000/svg" />
  <path d="M12 18v2" xmlns="http://www.w3.org/2000/svg" />
  <path d="M16 7a2 2 0 1 0 4 0a2 2 0 0 0 -4 0" xmlns="http://www.w3.org/2000/svg" />
  <path d="M18 4v1" xmlns="http://www.w3.org/2000/svg" />
  <path d="M18 9v4" xmlns="http://www.w3.org/2000/svg" />
  <path d="M20 21l2 -2l-2 -2" xmlns="http://www.w3.org/2000/svg" />
  <path d="M17 17l-2 2l2 2" xmlns="http://www.w3.org/2000/svg" />
</svg>
