<svg xmlns="http://www.w3.org/2000/svg" viewBox="0 0 24 24" preserveAspectRatio="xMidYMid meet">
<path stroke="none" d="M0 0h24v24H0z" fill="none" xmlns="http://www.w3.org/2000/svg" />
  <path d="M4 6.5a2.5 2.5 0 1 0 5 0a2.5 2.5 0 1 0 -5 0" xmlns="http://www.w3.org/2000/svg" />
  <path d="M15 6.5a2.5 2.5 0 1 0 5 0a2.5 2.5 0 1 0 -5 0" xmlns="http://www.w3.org/2000/svg" />
  <path d="M15 17.5a2.5 2.5 0 1 0 5 0a2.5 2.5 0 1 0 -5 0" xmlns="http://www.w3.org/2000/svg" />
  <path d="M4 17.5a2.5 2.5 0 1 0 5 0a2.5 2.5 0 1 0 -5 0" xmlns="http://www.w3.org/2000/svg" />
  <path d="M8.5 15.5l7 -7" xmlns="http://www.w3.org/2000/svg" />
</svg>
