<svg xmlns="http://www.w3.org/2000/svg" viewBox="0 0 24 24" preserveAspectRatio="xMidYMid meet">
<path stroke="none" d="M0 0h24v24H0z" fill="none" xmlns="http://www.w3.org/2000/svg" />
  <path d="M10 10v7" xmlns="http://www.w3.org/2000/svg" />
  <path d="M5 12a2 2 0 0 1 2 -2h1a2 2 0 0 1 2 2v3a2 2 0 0 1 -2 2h-1a2 2 0 0 1 -2 -2l0 -3" xmlns="http://www.w3.org/2000/svg" />
  <path d="M14 20v-11a2 2 0 0 1 2 -2h1a2 2 0 0 1 2 2v1a2 2 0 0 1 -2 2a2 2 0 0 1 2 2v1a2 2 0 0 1 -2 2" xmlns="http://www.w3.org/2000/svg" />
</svg>
