<svg xmlns="http://www.w3.org/2000/svg" viewBox="0 0 24 24" preserveAspectRatio="xMidYMid meet">
<path stroke="none" d="M0 0h24v24H0z" fill="none" xmlns="http://www.w3.org/2000/svg" />
  <path d="M9 12a3 3 0 1 0 6 0a3 3 0 1 0 -6 0" xmlns="http://www.w3.org/2000/svg" />
  <path d="M12 21l0 .01" xmlns="http://www.w3.org/2000/svg" />
  <path d="M3 9l0 .01" xmlns="http://www.w3.org/2000/svg" />
  <path d="M21 9l0 .01" xmlns="http://www.w3.org/2000/svg" />
  <path d="M8 20.1a9 9 0 0 1 -5 -7.1" xmlns="http://www.w3.org/2000/svg" />
  <path d="M16 20.1a9 9 0 0 0 5 -7.1" xmlns="http://www.w3.org/2000/svg" />
  <path d="M6.2 5a9 9 0 0 1 11.4 0" xmlns="http://www.w3.org/2000/svg" />
</svg>
