<svg xmlns="http://www.w3.org/2000/svg" viewBox="0 0 24 24" preserveAspectRatio="xMidYMid meet">
<path stroke="none" d="M0 0h24v24H0z" fill="none" xmlns="http://www.w3.org/2000/svg" />
  <path d="M17 17v4h1a2 2 0 1 0 0 -4h-1" xmlns="http://www.w3.org/2000/svg" />
  <path d="M17 11h1.5a1.5 1.5 0 0 0 0 -3h-1.5v5" xmlns="http://www.w3.org/2000/svg" />
  <path d="M3 5a2 2 0 1 0 4 0a2 2 0 1 0 -4 0" xmlns="http://www.w3.org/2000/svg" />
  <path d="M5 7v3a1 1 0 0 0 1 1h3v7a1 1 0 0 0 1 1h3" xmlns="http://www.w3.org/2000/svg" />
  <path d="M9 11h4" xmlns="http://www.w3.org/2000/svg" />
</svg>
