<svg xmlns="http://www.w3.org/2000/svg" viewBox="0 0 24 24" preserveAspectRatio="xMidYMid meet">
<path stroke="none" d="M0 0h24v24H0z" fill="none" xmlns="http://www.w3.org/2000/svg" />
  <path d="M6 19a2 2 0 1 0 4 0a2 2 0 1 0 -4 0" xmlns="http://www.w3.org/2000/svg" />
  <path d="M16 19a2 2 0 1 0 4 0a2 2 0 1 0 -4 0" xmlns="http://www.w3.org/2000/svg" />
  <path d="M2 5h2.5l1.632 4.897a6 6 0 0 0 5.693 4.103h2.675a5.5 5.5 0 0 0 0 -11h-.5v6" xmlns="http://www.w3.org/2000/svg" />
  <path d="M6 9h14" xmlns="http://www.w3.org/2000/svg" />
  <path d="M9 17l1 -3" xmlns="http://www.w3.org/2000/svg" />
  <path d="M16 14l1 3" xmlns="http://www.w3.org/2000/svg" />
</svg>
