<svg xmlns="http://www.w3.org/2000/svg" viewBox="0 0 24 24" preserveAspectRatio="xMidYMid meet">
<path stroke="none" d="M0 0h24v24H0z" fill="none" xmlns="http://www.w3.org/2000/svg" />
  <path d="M2 17a2 2 0 1 0 4 0a2 2 0 1 0 -4 0" xmlns="http://www.w3.org/2000/svg" />
  <path d="M11 17a2 2 0 1 0 4 0a2 2 0 1 0 -4 0" xmlns="http://www.w3.org/2000/svg" />
  <path d="M13 19l-9 0" xmlns="http://www.w3.org/2000/svg" />
  <path d="M4 15l9 0" xmlns="http://www.w3.org/2000/svg" />
  <path d="M8 12v-5h2a3 3 0 0 1 3 3v5" xmlns="http://www.w3.org/2000/svg" />
  <path d="M5 15v-2a1 1 0 0 1 1 -1h7" xmlns="http://www.w3.org/2000/svg" />
  <path d="M21.12 9.88l-3.12 -4.88l-5 5" xmlns="http://www.w3.org/2000/svg" />
  <path d="M21.12 9.88a3 3 0 0 1 -2.12 5.12a3 3 0 0 1 -2.12 -.88l4.24 -4.24" xmlns="http://www.w3.org/2000/svg" />
</svg>
