<svg xmlns="http://www.w3.org/2000/svg" viewBox="0 0 24 24" preserveAspectRatio="xMidYMid meet">
<path stroke="none" d="M0 0h24v24H0z" fill="none" xmlns="http://www.w3.org/2000/svg" />
  <path d="M3 12a9 9 0 1 0 18 0a9 9 0 1 0 -18 0" xmlns="http://www.w3.org/2000/svg" />
  <path d="M12 12a8 8 0 0 0 8 4" xmlns="http://www.w3.org/2000/svg" />
  <path d="M7.5 13.5a12 12 0 0 0 8.5 6.5" xmlns="http://www.w3.org/2000/svg" />
  <path d="M12 12a8 8 0 0 0 -7.464 4.928" xmlns="http://www.w3.org/2000/svg" />
  <path d="M12.951 7.353a12 12 0 0 0 -9.88 4.111" xmlns="http://www.w3.org/2000/svg" />
  <path d="M12 12a8 8 0 0 0 -.536 -8.928" xmlns="http://www.w3.org/2000/svg" />
  <path d="M15.549 15.147a12 12 0 0 0 1.38 -10.611" xmlns="http://www.w3.org/2000/svg" />
</svg>
