<svg xmlns="http://www.w3.org/2000/svg" viewBox="0 0 24 24" preserveAspectRatio="xMidYMid meet">
<path stroke="none" d="M0 0h24v24H0z" fill="none" xmlns="http://www.w3.org/2000/svg" />
  <path d="M4 8a1 1 0 0 1 1 -1h14a1 1 0 0 1 1 1v7a1 1 0 0 1 -1 1h-14a1 1 0 0 1 -1 -1l0 -7" xmlns="http://www.w3.org/2000/svg" />
  <path d="M7 16v4" xmlns="http://www.w3.org/2000/svg" />
  <path d="M7.5 16l9 -9" xmlns="http://www.w3.org/2000/svg" />
  <path d="M13.5 16l6.5 -6.5" xmlns="http://www.w3.org/2000/svg" />
  <path d="M4 13.5l6.5 -6.5" xmlns="http://www.w3.org/2000/svg" />
  <path d="M17 16v4" xmlns="http://www.w3.org/2000/svg" />
  <path d="M5 20h4" xmlns="http://www.w3.org/2000/svg" />
  <path d="M15 20h4" xmlns="http://www.w3.org/2000/svg" />
  <path d="M17 7v-2" xmlns="http://www.w3.org/2000/svg" />
  <path d="M7 7v-2" xmlns="http://www.w3.org/2000/svg" />
</svg>
