<svg xmlns="http://www.w3.org/2000/svg" viewBox="0 0 24 24" preserveAspectRatio="xMidYMid meet">
<path stroke="none" d="M0 0h24v24H0z" fill="none" xmlns="http://www.w3.org/2000/svg" />
  <path d="M17 10l-2 -6" xmlns="http://www.w3.org/2000/svg" />
  <path d="M7 10l2 -6" xmlns="http://www.w3.org/2000/svg" />
  <path d="M12 20h-4.756a3 3 0 0 1 -2.965 -2.544l-1.255 -7.152a2 2 0 0 1 1.977 -2.304h13.999a2 2 0 0 1 1.977 2.304l-.3 1.713" xmlns="http://www.w3.org/2000/svg" />
  <path d="M10 14a2 2 0 1 0 4 0a2 2 0 0 0 -4 0" xmlns="http://www.w3.org/2000/svg" />
  <path d="M16 19a3 3 0 1 0 6 0a3 3 0 1 0 -6 0" xmlns="http://www.w3.org/2000/svg" />
  <path d="M17 21l4 -4" xmlns="http://www.w3.org/2000/svg" />
</svg>
