<svg xmlns="http://www.w3.org/2000/svg" viewBox="0 0 24 24" preserveAspectRatio="xMidYMid meet">
<path stroke="none" d="M0 0h24v24H0z" fill="none" xmlns="http://www.w3.org/2000/svg" />
  <path d="M16 7h1a2 2 0 0 1 2 2v.5a.5 .5 0 0 0 .5 .5a.5 .5 0 0 1 .5 .5v3a.5 .5 0 0 1 -.5 .5a.5 .5 0 0 0 -.5 .5v.5a2 2 0 0 1 -2 2h-2" xmlns="http://www.w3.org/2000/svg" />
  <path d="M8 7h-2a2 2 0 0 0 -2 2v6a2 2 0 0 0 2 2h1" xmlns="http://www.w3.org/2000/svg" />
  <path d="M12 8l-2 4h3l-2 4" xmlns="http://www.w3.org/2000/svg" />
</svg>
