<svg xmlns="http://www.w3.org/2000/svg" viewBox="0 0 24 24" preserveAspectRatio="xMidYMid meet">
<path stroke="none" d="M0 0h24v24H0z" fill="none" xmlns="http://www.w3.org/2000/svg" />
  <path d="M6 7h11a2 2 0 0 1 2 2v.5a.5 .5 0 0 0 .5 .5a.5 .5 0 0 1 .5 .5v3a.5 .5 0 0 1 -.5 .5a.5 .5 0 0 0 -.5 .5v.5a2 2 0 0 1 -2 2h-11a2 2 0 0 1 -2 -2v-6a2 2 0 0 1 2 -2" xmlns="http://www.w3.org/2000/svg" />
  <path d="M7 10l0 4" xmlns="http://www.w3.org/2000/svg" />
  <path d="M10 10l0 4" xmlns="http://www.w3.org/2000/svg" />
  <path d="M13 10l0 4" xmlns="http://www.w3.org/2000/svg" />
  <path d="M16 10l0 4" xmlns="http://www.w3.org/2000/svg" />
</svg>
