<svg xmlns="http://www.w3.org/2000/svg" viewBox="0 0 24 24" preserveAspectRatio="xMidYMid meet">
<path stroke="none" d="M0 0h24v24H0z" fill="none" xmlns="http://www.w3.org/2000/svg" />
  <path d="M2 18a3 3 0 1 0 6 0a3 3 0 0 0 -6 0" xmlns="http://www.w3.org/2000/svg" />
  <path d="M16 18a3 3 0 1 0 6 0a3 3 0 0 0 -6 0" xmlns="http://www.w3.org/2000/svg" />
  <path d="M12 19v-4l-3 -3l5 -4l2 3h3" xmlns="http://www.w3.org/2000/svg" />
  <path d="M13.007 5a2 2 0 1 0 4 0a2 2 0 1 0 -4 0" xmlns="http://www.w3.org/2000/svg" />
</svg>
