<svg xmlns="http://www.w3.org/2000/svg" viewBox="0 0 24 24" preserveAspectRatio="xMidYMid meet">
<path stroke="none" d="M0 0h24v24H0z" fill="none" xmlns="http://www.w3.org/2000/svg" />
  <path d="M14 6a2 2 0 1 0 -4 0a2 2 0 0 0 4 0" xmlns="http://www.w3.org/2000/svg" />
  <path d="M7 14a2 2 0 1 0 -4 0a2 2 0 0 0 4 0" xmlns="http://www.w3.org/2000/svg" />
  <path d="M21 14a2 2 0 1 0 -4 0a2 2 0 0 0 4 0" xmlns="http://www.w3.org/2000/svg" />
  <path d="M14 18a2 2 0 1 0 -4 0a2 2 0 0 0 4 0" xmlns="http://www.w3.org/2000/svg" />
  <path d="M12 8v8" xmlns="http://www.w3.org/2000/svg" />
  <path d="M6.316 12.496l4.368 -4.992" xmlns="http://www.w3.org/2000/svg" />
  <path d="M17.684 12.496l-4.366 -4.99" xmlns="http://www.w3.org/2000/svg" />
</svg>
