<svg xmlns="http://www.w3.org/2000/svg" viewBox="0 0 24 24" preserveAspectRatio="xMidYMid meet">
<path stroke="none" d="M0 0h24v24H0z" fill="none" xmlns="http://www.w3.org/2000/svg" />
  <path d="M9 10h-3a1 1 0 0 1 -1 -1v-4a1 1 0 0 1 1 -1h10.802a1 1 0 0 1 .984 1.179l-1.786 9.821" xmlns="http://www.w3.org/2000/svg" />
  <path d="M8 4l2 11" xmlns="http://www.w3.org/2000/svg" />
  <path d="M11 15h4a3 3 0 0 1 3 3v2a1 1 0 0 1 -1 1h-8a1 1 0 0 1 -1 -1v-2a3 3 0 0 1 3 -3" xmlns="http://www.w3.org/2000/svg" />
  <path d="M12 4v-1h2v1" xmlns="http://www.w3.org/2000/svg" />
  <path d="M13 18v.01" xmlns="http://www.w3.org/2000/svg" />
</svg>
