<svg xmlns="http://www.w3.org/2000/svg" viewBox="0 0 24 24" preserveAspectRatio="xMidYMid meet">
<path stroke="none" d="M0 0h24v24H0z" fill="none" xmlns="http://www.w3.org/2000/svg" />
  <path d="M3 19a9 9 0 0 1 9 0a9 9 0 0 1 5.899 -1.096" xmlns="http://www.w3.org/2000/svg" />
  <path d="M3 6a9 9 0 0 1 2.114 -.884m3.8 -.21c1.07 .17 2.116 .534 3.086 1.094a9 9 0 0 1 9 0" xmlns="http://www.w3.org/2000/svg" />
  <path d="M3 6v13" xmlns="http://www.w3.org/2000/svg" />
  <path d="M12 6v2m0 4v7" xmlns="http://www.w3.org/2000/svg" />
  <path d="M21 6v11" xmlns="http://www.w3.org/2000/svg" />
  <path d="M3 3l18 18" xmlns="http://www.w3.org/2000/svg" />
</svg>
