<svg xmlns="http://www.w3.org/2000/svg" viewBox="0 0 24 24" preserveAspectRatio="xMidYMid meet">
<path stroke="none" d="M0 0h24v24H0z" fill="none" xmlns="http://www.w3.org/2000/svg" />
  <path d="M12 8h4v4m0 4h-8v-8" xmlns="http://www.w3.org/2000/svg" />
  <path d="M8 4h10a2 2 0 0 1 2 2v10m-.586 3.414a2 2 0 0 1 -1.414 .586h-12a2 2 0 0 1 -2 -2v-12c0 -.547 .22 -1.043 .576 -1.405" xmlns="http://www.w3.org/2000/svg" />
  <path d="M16 16l3.3 3.3" xmlns="http://www.w3.org/2000/svg" />
  <path d="M16 8l3.3 -3.3" xmlns="http://www.w3.org/2000/svg" />
  <path d="M8 8l-3.3 -3.3" xmlns="http://www.w3.org/2000/svg" />
  <path d="M8 16l-3.3 3.3" xmlns="http://www.w3.org/2000/svg" />
  <path d="M3 3l18 18" xmlns="http://www.w3.org/2000/svg" />
</svg>
