<svg xmlns="http://www.w3.org/2000/svg" viewBox="0 0 24 24" preserveAspectRatio="xMidYMid meet">
<path stroke="none" d="M0 0h24v24H0z" fill="none" xmlns="http://www.w3.org/2000/svg" />
  <path d="M15.5 13a3.5 3.5 0 0 0 -3.5 3.5v1a3.5 3.5 0 0 0 7 0v-1.8" xmlns="http://www.w3.org/2000/svg" />
  <path d="M8.5 13a3.5 3.5 0 0 1 3.5 3.5v1a3.5 3.5 0 0 1 -7 0v-1.8" xmlns="http://www.w3.org/2000/svg" />
  <path d="M17.5 16a3.5 3.5 0 0 0 0 -7h-.5" xmlns="http://www.w3.org/2000/svg" />
  <path d="M19 9.3v-2.8a3.5 3.5 0 0 0 -7 0" xmlns="http://www.w3.org/2000/svg" />
  <path d="M6.5 16a3.5 3.5 0 0 1 0 -7h.5" xmlns="http://www.w3.org/2000/svg" />
  <path d="M5 9.3v-2.8a3.5 3.5 0 0 1 7 0v10" xmlns="http://www.w3.org/2000/svg" />
</svg>
