<svg xmlns="http://www.w3.org/2000/svg" viewBox="0 0 24 24" preserveAspectRatio="xMidYMid meet">
<path stroke="none" d="M0 0h24v24H0z" fill="none" xmlns="http://www.w3.org/2000/svg" />
  <path d="M15 5a1 1 0 1 0 2 0a1 1 0 0 0 -2 0" xmlns="http://www.w3.org/2000/svg" />
  <path d="M7 5a1 1 0 1 0 2 0a1 1 0 0 0 -2 0" xmlns="http://www.w3.org/2000/svg" />
  <path d="M7 19a1 1 0 1 0 2 0a1 1 0 0 0 -2 0" xmlns="http://www.w3.org/2000/svg" />
  <path d="M16 12h.01" xmlns="http://www.w3.org/2000/svg" />
  <path d="M8 12h.01" xmlns="http://www.w3.org/2000/svg" />
  <path d="M16 19h.01" xmlns="http://www.w3.org/2000/svg" />
</svg>
