<svg xmlns="http://www.w3.org/2000/svg" viewBox="0 0 24 24" preserveAspectRatio="xMidYMid meet">
<path stroke="none" d="M0 0h24v24H0z" fill="none" xmlns="http://www.w3.org/2000/svg" />
  <path d="M15 12a1 1 0 1 0 2 0a1 1 0 1 0 -2 0" xmlns="http://www.w3.org/2000/svg" />
  <path d="M11 8a1 1 0 1 0 2 0a1 1 0 1 0 -2 0" xmlns="http://www.w3.org/2000/svg" />
  <path d="M11 16a1 1 0 1 0 2 0a1 1 0 1 0 -2 0" xmlns="http://www.w3.org/2000/svg" />
  <path d="M12 15v-6" xmlns="http://www.w3.org/2000/svg" />
  <path d="M15 11l-2 -2" xmlns="http://www.w3.org/2000/svg" />
  <path d="M11 7l-1.9 -1.9" xmlns="http://www.w3.org/2000/svg" />
  <path d="M13.446 2.6l7.955 7.954a2.045 2.045 0 0 1 0 2.892l-7.955 7.955a2.045 2.045 0 0 1 -2.892 0l-7.955 -7.955a2.045 2.045 0 0 1 0 -2.892l7.955 -7.955a2.045 2.045 0 0 1 2.892 0" xmlns="http://www.w3.org/2000/svg" />
</svg>
