<svg xmlns="http://www.w3.org/2000/svg" viewBox="0 0 24 24" preserveAspectRatio="xMidYMid meet">
<path stroke="none" d="M0 0h24v24H0z" fill="none" xmlns="http://www.w3.org/2000/svg" />
  <path d="M12 9h-7a2 2 0 0 0 -2 2v4a2 2 0 0 0 2 2h3" xmlns="http://www.w3.org/2000/svg" />
  <path d="M12 15h7a2 2 0 0 0 2 -2v-4a2 2 0 0 0 -2 -2h-3" xmlns="http://www.w3.org/2000/svg" />
  <path d="M8 9v-4a2 2 0 0 1 2 -2h4a2 2 0 0 1 2 2v5a2 2 0 0 1 -2 2h-4a2 2 0 0 0 -2 2v5a2 2 0 0 0 2 2h4a2 2 0 0 0 2 -2v-4" xmlns="http://www.w3.org/2000/svg" />
  <path d="M11 6l0 .01" xmlns="http://www.w3.org/2000/svg" />
  <path d="M13 18l0 .01" xmlns="http://www.w3.org/2000/svg" />
</svg>
