<svg xmlns="http://www.w3.org/2000/svg" viewBox="0 0 24 24" preserveAspectRatio="xMidYMid meet">
<path stroke="none" d="M0 0h24v24H0z" fill="none" xmlns="http://www.w3.org/2000/svg" />
  <path d="M20 4h-9v1.5a2.5 2.5 0 0 0 2.5 2.5h1.5a1 1 0 0 1 1 1v1.5a2.5 2.5 0 0 0 2.5 2.5h1.5v-9" xmlns="http://www.w3.org/2000/svg" />
  <path d="M15 8h-8v1.5a2.5 2.5 0 0 0 2.5 2.5h1.5a1 1 0 0 1 1 1v1.5a2.5 2.5 0 0 0 2.5 2.5h1.5v-8a1 1 0 0 0 -1 -1" xmlns="http://www.w3.org/2000/svg" />
  <path d="M11 12h-8v1.5a2.5 2.5 0 0 0 2.5 2.5h1.5a1 1 0 0 1 1 1v1.5a2.5 2.5 0 0 0 2.5 2.5h1.5v-8a1 1 0 0 0 -1 -1" xmlns="http://www.w3.org/2000/svg" />
</svg>
