<svg xmlns="http://www.w3.org/2000/svg" viewBox="0 0 24 24" preserveAspectRatio="xMidYMid meet">
<path stroke="none" d="M0 0h24v24H0z" fill="none" xmlns="http://www.w3.org/2000/svg" />
  <path d="M21 12a9 9 0 1 1 -18 0a9 9 0 0 1 18 0" xmlns="http://www.w3.org/2000/svg" />
  <path d="M8 9a1 1 0 1 0 2 0a1 1 0 1 0 -2 0" xmlns="http://www.w3.org/2000/svg" />
  <path d="M14 9a1 1 0 1 0 2 0a1 1 0 1 0 -2 0" xmlns="http://www.w3.org/2000/svg" />
  <path d="M14 15a1 1 0 1 0 2 0a1 1 0 1 0 -2 0" xmlns="http://www.w3.org/2000/svg" />
  <path d="M8 15a1 1 0 1 0 2 0a1 1 0 1 0 -2 0" xmlns="http://www.w3.org/2000/svg" />
</svg>
