<svg xmlns="http://www.w3.org/2000/svg" viewBox="0 0 24 24" preserveAspectRatio="xMidYMid meet">
<path stroke="none" d="M0 0h24v24H0z" fill="none" xmlns="http://www.w3.org/2000/svg" />
  <path d="M3 19v-14a2 2 0 0 1 2 -2h14a2 2 0 0 1 2 2v14a2 2 0 0 1 -2 2h-14a2 2 0 0 1 -2 -2" xmlns="http://www.w3.org/2000/svg" />
  <path d="M10.414 11.586a2 2 0 1 0 0 2.828" xmlns="http://www.w3.org/2000/svg" />
  <path d="M13 13a2 2 0 1 0 4 0a2 2 0 1 0 -4 0" xmlns="http://www.w3.org/2000/svg" />
  <path d="M13 7v6" xmlns="http://www.w3.org/2000/svg" />
</svg>
