<svg xmlns="http://www.w3.org/2000/svg" viewBox="0 0 24 24" preserveAspectRatio="xMidYMid meet">
<path stroke="none" d="M0 0h24v24H0z" fill="none" xmlns="http://www.w3.org/2000/svg" />
  <path d="M2 16v-8" xmlns="http://www.w3.org/2000/svg" />
  <path d="M6 8v8" xmlns="http://www.w3.org/2000/svg" />
  <path d="M2 12h4" xmlns="http://www.w3.org/2000/svg" />
  <path d="M9 16h2a2 2 0 1 0 0 -4h-2h2a2 2 0 1 0 0 -4h-2v8" xmlns="http://www.w3.org/2000/svg" />
  <path d="M19 8a4 4 0 1 1 0 8a4 4 0 0 1 0 -8" xmlns="http://www.w3.org/2000/svg" />
  <path d="M18 12a1 1 0 1 0 2 0a1 1 0 1 0 -2 0" xmlns="http://www.w3.org/2000/svg" />
</svg>
