<svg xmlns="http://www.w3.org/2000/svg" viewBox="0 0 24 24" preserveAspectRatio="xMidYMid meet">
<path stroke="none" d="M0 0h24v24H0z" fill="none" xmlns="http://www.w3.org/2000/svg" />
  <path d="M17 6a2 2 0 1 0 4 0a2 2 0 1 0 -4 0" xmlns="http://www.w3.org/2000/svg" />
  <path d="M17 18a2 2 0 1 0 4 0a2 2 0 1 0 -4 0" xmlns="http://www.w3.org/2000/svg" />
  <path d="M3 12a2 2 0 1 0 4 0a2 2 0 1 0 -4 0" xmlns="http://www.w3.org/2000/svg" />
  <path d="M7 12h3l3.5 6h3.5" xmlns="http://www.w3.org/2000/svg" />
  <path d="M17 6h-3.5l-3.5 6" xmlns="http://www.w3.org/2000/svg" />
</svg>
