<svg xmlns="http://www.w3.org/2000/svg" viewBox="0 0 24 24" preserveAspectRatio="xMidYMid meet">
<path stroke="none" d="M0 0h24v24H0z" fill="none" xmlns="http://www.w3.org/2000/svg" />
  <path d="M9.5 9h3" xmlns="http://www.w3.org/2000/svg" />
  <path d="M4 9h2.5" xmlns="http://www.w3.org/2000/svg" />
  <path d="M11 9l3 11l4 -9" xmlns="http://www.w3.org/2000/svg" />
  <path d="M5.5 9l3.5 11l3 -7" xmlns="http://www.w3.org/2000/svg" />
  <path d="M18 11c.177 -.528 1 -1.364 1 -2.5c0 -1.78 -.776 -2.5 -1.875 -2.5c-.898 0 -1.125 .812 -1.125 1.429c0 1.83 2 2.058 2 3.571" xmlns="http://www.w3.org/2000/svg" />
  <path d="M3 12a9 9 0 1 0 18 0a9 9 0 1 0 -18 0" xmlns="http://www.w3.org/2000/svg" />
</svg>
