<svg xmlns="http://www.w3.org/2000/svg" viewBox="0 0 24 24" preserveAspectRatio="xMidYMid meet">
<path stroke="none" d="M0 0h24v24H0z" fill="none" xmlns="http://www.w3.org/2000/svg" />
  <path d="M3 6a3 3 0 0 1 3 -3h12a3 3 0 0 1 3 3v12a3 3 0 0 1 -3 3h-12a3 3 0 0 1 -3 -3v-12" xmlns="http://www.w3.org/2000/svg" />
  <path d="M12 7v8.5l-2.015 .201a2.715 2.715 0 1 1 0 -5.402l2.015 .201" xmlns="http://www.w3.org/2000/svg" />
  <path d="M16 7v.01" xmlns="http://www.w3.org/2000/svg" />
  <path d="M16 10v5.586c0 .905 -.36 1.774 -1 2.414" xmlns="http://www.w3.org/2000/svg" />
</svg>
