<svg xmlns="http://www.w3.org/2000/svg" viewBox="0 0 24 24" preserveAspectRatio="xMidYMid meet">
<path stroke="none" d="M0 0h24v24H0z" fill="none" xmlns="http://www.w3.org/2000/svg" />
  <path d="M3 21h18" xmlns="http://www.w3.org/2000/svg" />
  <path d="M19 21v-4" xmlns="http://www.w3.org/2000/svg" />
  <path d="M19 17a2 2 0 0 0 2 -2v-2a2 2 0 1 0 -4 0v2a2 2 0 0 0 2 2" xmlns="http://www.w3.org/2000/svg" />
  <path d="M14 21v-14a3 3 0 0 0 -3 -3h-4a3 3 0 0 0 -3 3v14" xmlns="http://www.w3.org/2000/svg" />
  <path d="M9 17v4" xmlns="http://www.w3.org/2000/svg" />
  <path d="M8 13h2" xmlns="http://www.w3.org/2000/svg" />
  <path d="M8 9h2" xmlns="http://www.w3.org/2000/svg" />
</svg>
