<svg xmlns="http://www.w3.org/2000/svg" viewBox="0 0 24 24" preserveAspectRatio="xMidYMid meet">
<path stroke="none" d="M0 0h24v24H0z" fill="none" xmlns="http://www.w3.org/2000/svg" />
  <path d="M3 21l18 0" xmlns="http://www.w3.org/2000/svg" />
  <path d="M3 7v1a3 3 0 0 0 6 0v-1m0 1a3 3 0 0 0 6 0v-1m0 1a3 3 0 0 0 6 0v-1h-18l2 -4h14l2 4" xmlns="http://www.w3.org/2000/svg" />
  <path d="M5 21l0 -10.15" xmlns="http://www.w3.org/2000/svg" />
  <path d="M19 21l0 -10.15" xmlns="http://www.w3.org/2000/svg" />
  <path d="M9 21v-4a2 2 0 0 1 2 -2h2a2 2 0 0 1 2 2v4" xmlns="http://www.w3.org/2000/svg" />
</svg>
