<svg xmlns="http://www.w3.org/2000/svg" viewBox="0 0 24 24" preserveAspectRatio="xMidYMid meet">
<path stroke="none" d="M0 0h24v24H0z" fill="none" xmlns="http://www.w3.org/2000/svg" />
  <path d="M3 21h9" xmlns="http://www.w3.org/2000/svg" />
  <path d="M9 8h1" xmlns="http://www.w3.org/2000/svg" />
  <path d="M9 12h1" xmlns="http://www.w3.org/2000/svg" />
  <path d="M9 16h1" xmlns="http://www.w3.org/2000/svg" />
  <path d="M14 8h1" xmlns="http://www.w3.org/2000/svg" />
  <path d="M14 12h1" xmlns="http://www.w3.org/2000/svg" />
  <path d="M5 21v-16c0 -.53 .211 -1.039 .586 -1.414c.375 -.375 .884 -.586 1.414 -.586h10c.53 0 1.039 .211 1.414 .586c.375 .375 .586 .884 .586 1.414v7" xmlns="http://www.w3.org/2000/svg" />
  <path d="M16 18c0 .53 .211 1.039 .586 1.414c.375 .375 .884 .586 1.414 .586c.53 0 1.039 -.211 1.414 -.586c.375 -.375 .586 -.884 .586 -1.414c0 -.53 -.211 -1.039 -.586 -1.414c-.375 -.375 -.884 -.586 -1.414 -.586c-.53 0 -1.039 .211 -1.414 .586c-.375 .375 -.586 .884 -.586 1.414" xmlns="http://www.w3.org/2000/svg" />
  <path d="M18 14.5v1.5" xmlns="http://www.w3.org/2000/svg" />
  <path d="M18 20v1.5" xmlns="http://www.w3.org/2000/svg" />
  <path d="M21.032 16.25l-1.299 .75" xmlns="http://www.w3.org/2000/svg" />
  <path d="M16.27 19l-1.3 .75" xmlns="http://www.w3.org/2000/svg" />
  <path d="M14.97 16.25l1.3 .75" xmlns="http://www.w3.org/2000/svg" />
  <path d="M19.733 19l1.3 .75" xmlns="http://www.w3.org/2000/svg" />
</svg>
