<svg xmlns="http://www.w3.org/2000/svg" viewBox="0 0 24 24" preserveAspectRatio="xMidYMid meet">
<path stroke="none" d="M0 0h24v24H0z" fill="none" xmlns="http://www.w3.org/2000/svg" />
  <path d="M4 17a2 2 0 1 0 4 0a2 2 0 1 0 -4 0" xmlns="http://www.w3.org/2000/svg" />
  <path d="M16.18 16.172a2 2 0 0 0 2.652 2.648" xmlns="http://www.w3.org/2000/svg" />
  <path d="M4 17h-2v-11a1 1 0 0 1 1 -1h2m4 0h8c2.761 0 5 3.134 5 7v5h-1m-5 0h-8" xmlns="http://www.w3.org/2000/svg" />
  <path d="M16 5l1.5 7h4.5" xmlns="http://www.w3.org/2000/svg" />
  <path d="M2 10h8m4 0h3" xmlns="http://www.w3.org/2000/svg" />
  <path d="M7 7v3" xmlns="http://www.w3.org/2000/svg" />
  <path d="M12 5v3" xmlns="http://www.w3.org/2000/svg" />
  <path d="M3 3l18 18" xmlns="http://www.w3.org/2000/svg" />
</svg>
