<svg xmlns="http://www.w3.org/2000/svg" viewBox="0 0 24 24" preserveAspectRatio="xMidYMid meet">
<path stroke="none" d="M0 0h24v24H0z" fill="none" xmlns="http://www.w3.org/2000/svg" />
  <path d="M5 18a2 2 0 1 0 4 0a2 2 0 0 0 -4 0" xmlns="http://www.w3.org/2000/svg" />
  <path d="M15 18a2 2 0 1 0 4 0a2 2 0 0 0 -4 0" xmlns="http://www.w3.org/2000/svg" />
  <path d="M5 18h-1a1 1 0 0 1 -1 -1v-11a2 2 0 0 1 2 -2h12a4 4 0 0 1 4 4h-18" xmlns="http://www.w3.org/2000/svg" />
  <path d="M9 18h6" xmlns="http://www.w3.org/2000/svg" />
  <path d="M19 18h1a1 1 0 0 0 1 -1v-4l-3 -5" xmlns="http://www.w3.org/2000/svg" />
  <path d="M21 13h-7" xmlns="http://www.w3.org/2000/svg" />
  <path d="M14 8v10" xmlns="http://www.w3.org/2000/svg" />
</svg>
