<svg xmlns="http://www.w3.org/2000/svg" viewBox="0 0 24 24" preserveAspectRatio="xMidYMid meet">
<path stroke="none" d="M0 0h24v24H0z" fill="none" xmlns="http://www.w3.org/2000/svg" />
  <path d="M8 17a2 2 0 1 0 4 0a2 2 0 1 0 -4 0" xmlns="http://www.w3.org/2000/svg" />
  <path d="M7 6l4 5h1a2 2 0 0 1 2 2v4h-2m-4 0h-5m0 -6h8m-6 0v-5m2 0h-4" xmlns="http://www.w3.org/2000/svg" />
  <path d="M14 8v-2" xmlns="http://www.w3.org/2000/svg" />
  <path d="M19 12h2" xmlns="http://www.w3.org/2000/svg" />
  <path d="M17.5 15.5l1.5 1.5" xmlns="http://www.w3.org/2000/svg" />
  <path d="M17.5 8.5l1.5 -1.5" xmlns="http://www.w3.org/2000/svg" />
</svg>
