<svg xmlns="http://www.w3.org/2000/svg" viewBox="0 0 24 24" preserveAspectRatio="xMidYMid meet">
<path stroke="none" d="M0 0h24v24H0z" fill="none" xmlns="http://www.w3.org/2000/svg" />
  <path d="M3 17a2 2 0 1 0 4 0a2 2 0 1 0 -4 0" xmlns="http://www.w3.org/2000/svg" />
  <path d="M15 17a2 2 0 1 0 4 0a2 2 0 1 0 -4 0" xmlns="http://www.w3.org/2000/svg" />
  <path d="M7 18h8m4 0h2v-6a5 5 0 0 0 -5 -5h-1l1.5 5h4.5" xmlns="http://www.w3.org/2000/svg" />
  <path d="M12 18v-11h3" xmlns="http://www.w3.org/2000/svg" />
  <path d="M3 17v-5h9" xmlns="http://www.w3.org/2000/svg" />
  <path d="M4 12v-6l18 -3v2" xmlns="http://www.w3.org/2000/svg" />
  <path d="M8 12v-4l-4 -2" xmlns="http://www.w3.org/2000/svg" />
</svg>
