<svg xmlns="http://www.w3.org/2000/svg" viewBox="0 0 24 24" preserveAspectRatio="xMidYMid meet">
<path stroke="none" d="M0 0h24v24H0z" fill="none" xmlns="http://www.w3.org/2000/svg" />
  <path d="M13 14h2" xmlns="http://www.w3.org/2000/svg" />
  <path d="M19 10h-16" xmlns="http://www.w3.org/2000/svg" />
  <path d="M6.7 3.45l-3.7 5.55v3.08a1 1 0 0 0 .85 1a6 6 0 0 1 5.15 5.92v1a1 1 0 0 0 1 1h8a1 1 0 0 0 1 -1v-16a1 1 0 0 0 -1 -1h-10.46a1 1 0 0 0 -.84 .45" xmlns="http://www.w3.org/2000/svg" />
</svg>
