<svg xmlns="http://www.w3.org/2000/svg" viewBox="0 0 24 24" preserveAspectRatio="xMidYMid meet">
<path stroke="none" d="M0 0h24v24H0z" fill="none" xmlns="http://www.w3.org/2000/svg" />
  <path d="M9 15a3 3 0 1 0 6 0a3 3 0 1 0 -6 0" xmlns="http://www.w3.org/2000/svg" />
  <path d="M10 7h4" xmlns="http://www.w3.org/2000/svg" />
  <path d="M10 18v4l2 -1l2 1v-4" xmlns="http://www.w3.org/2000/svg" />
  <path d="M10 19h-2a2 2 0 0 1 -2 -2v-12a2 2 0 0 1 2 -2h8a2 2 0 0 1 2 2v12a2 2 0 0 1 -2 2h-2" xmlns="http://www.w3.org/2000/svg" />
</svg>
