<svg xmlns="http://www.w3.org/2000/svg" viewBox="0 0 24 24" preserveAspectRatio="xMidYMid meet">
<path stroke="none" d="M0 0h24v24H0z" fill="none" xmlns="http://www.w3.org/2000/svg" />
  <path d="M8 19h-3a2 2 0 0 1 -2 -2v-10a2 2 0 0 1 2 -2h14a2 2 0 0 1 2 2v11a1 1 0 0 1 -1 1" xmlns="http://www.w3.org/2000/svg" />
  <path d="M12 14a2 2 0 1 0 4.001 -.001a2 2 0 0 0 -4.001 .001" xmlns="http://www.w3.org/2000/svg" />
  <path d="M17 19a2 2 0 0 0 -2 -2h-2a2 2 0 0 0 -2 2" xmlns="http://www.w3.org/2000/svg" />
</svg>
