<svg xmlns="http://www.w3.org/2000/svg" viewBox="0 0 24 24" preserveAspectRatio="xMidYMid meet">
<path stroke="none" d="M0 0h24v24H0z" fill="none" xmlns="http://www.w3.org/2000/svg" />
  <path d="M3 3v18h18" xmlns="http://www.w3.org/2000/svg" />
  <path d="M7 9a2 2 0 1 0 4 0a2 2 0 1 0 -4 0" xmlns="http://www.w3.org/2000/svg" />
  <path d="M17 7a2 2 0 1 0 4 0a2 2 0 1 0 -4 0" xmlns="http://www.w3.org/2000/svg" />
  <path d="M12 15a2 2 0 1 0 4 0a2 2 0 1 0 -4 0" xmlns="http://www.w3.org/2000/svg" />
  <path d="M10.16 10.62l2.34 2.88" xmlns="http://www.w3.org/2000/svg" />
  <path d="M15.088 13.328l2.837 -4.586" xmlns="http://www.w3.org/2000/svg" />
</svg>
