<svg xmlns="http://www.w3.org/2000/svg" viewBox="0 0 24 24" preserveAspectRatio="xMidYMid meet">
<path stroke="none" d="M0 0h24v24H0z" fill="none" xmlns="http://www.w3.org/2000/svg" />
  <path d="M3 3v18h18" xmlns="http://www.w3.org/2000/svg" />
  <path d="M7 15a2 2 0 1 0 4 0a2 2 0 1 0 -4 0" xmlns="http://www.w3.org/2000/svg" />
  <path d="M11 5a2 2 0 1 0 4 0a2 2 0 1 0 -4 0" xmlns="http://www.w3.org/2000/svg" />
  <path d="M16 12a2 2 0 1 0 4 0a2 2 0 1 0 -4 0" xmlns="http://www.w3.org/2000/svg" />
  <path d="M21 3l-6 1.5" xmlns="http://www.w3.org/2000/svg" />
  <path d="M14.113 6.65l2.771 3.695" xmlns="http://www.w3.org/2000/svg" />
  <path d="M16 12.5l-5 2" xmlns="http://www.w3.org/2000/svg" />
</svg>
