<svg xmlns="http://www.w3.org/2000/svg" viewBox="0 0 24 24" preserveAspectRatio="xMidYMid meet">
<path stroke="none" d="M0 0h24v24H0z" fill="none" xmlns="http://www.w3.org/2000/svg" />
  <path d="M3 13a1 1 0 0 1 1 -1h4a1 1 0 0 1 1 1v6a1 1 0 0 1 -1 1h-4a1 1 0 0 1 -1 -1l0 -6" xmlns="http://www.w3.org/2000/svg" />
  <path d="M12 8h2a1 1 0 0 1 1 1v2m0 4v4a1 1 0 0 1 -1 1h-4a1 1 0 0 1 -1 -1v-10" xmlns="http://www.w3.org/2000/svg" />
  <path d="M15 11v-6a1 1 0 0 1 1 -1h4a1 1 0 0 1 1 1v12m-1 3h-4a1 1 0 0 1 -1 -1v-4" xmlns="http://www.w3.org/2000/svg" />
  <path d="M4 20h14" xmlns="http://www.w3.org/2000/svg" />
  <path d="M3 3l18 18" xmlns="http://www.w3.org/2000/svg" />
</svg>
