<svg xmlns="http://www.w3.org/2000/svg" viewBox="0 0 24 24" preserveAspectRatio="xMidYMid meet">
<path stroke="none" d="M0 0h24v24H0z" fill="none" xmlns="http://www.w3.org/2000/svg" />
  <path d="M16 6a2 2 0 1 0 4 0a2 2 0 1 0 -4 0" xmlns="http://www.w3.org/2000/svg" />
  <path d="M4 12a2 2 0 1 0 4 0a2 2 0 1 0 -4 0" xmlns="http://www.w3.org/2000/svg" />
  <path d="M4 18a2 2 0 1 0 4 0a2 2 0 1 0 -4 0" xmlns="http://www.w3.org/2000/svg" />
  <path d="M16 18a2 2 0 1 0 4 0a2 2 0 1 0 -4 0" xmlns="http://www.w3.org/2000/svg" />
  <path d="M8 18h8" xmlns="http://www.w3.org/2000/svg" />
  <path d="M18 20v1" xmlns="http://www.w3.org/2000/svg" />
  <path d="M18 3v1" xmlns="http://www.w3.org/2000/svg" />
  <path d="M6 20v1" xmlns="http://www.w3.org/2000/svg" />
  <path d="M6 10v-7" xmlns="http://www.w3.org/2000/svg" />
  <path d="M12 3v18" xmlns="http://www.w3.org/2000/svg" />
  <path d="M18 8v8" xmlns="http://www.w3.org/2000/svg" />
  <path d="M8 12h13" xmlns="http://www.w3.org/2000/svg" />
  <path d="M21 6h-1" xmlns="http://www.w3.org/2000/svg" />
  <path d="M16 6h-13" xmlns="http://www.w3.org/2000/svg" />
  <path d="M3 12h1" xmlns="http://www.w3.org/2000/svg" />
  <path d="M20 18h1" xmlns="http://www.w3.org/2000/svg" />
  <path d="M3 18h1" xmlns="http://www.w3.org/2000/svg" />
  <path d="M6 14v2" xmlns="http://www.w3.org/2000/svg" />
</svg>
