<svg xmlns="http://www.w3.org/2000/svg" viewBox="0 0 24 24" preserveAspectRatio="xMidYMid meet">
<path stroke="none" d="M0 0h24v24H0z" fill="none" xmlns="http://www.w3.org/2000/svg" />
  <path d="M12 21v-16" xmlns="http://www.w3.org/2000/svg" />
  <path d="M6 15h12" xmlns="http://www.w3.org/2000/svg" />
  <path d="M6 9h10.5" xmlns="http://www.w3.org/2000/svg" />
  <path d="M10.05 3a2.5 2.5 0 0 0 3.987 1.47a3 3 0 0 0 2.047 2.387a2.504 2.504 0 0 0 1.916 3.093v9.05a2 2 0 0 1 -2 2h-8a2 2 0 0 1 -2 -2v-14a2 2 0 0 1 2 -2h2.05" xmlns="http://www.w3.org/2000/svg" />
</svg>
