<svg xmlns="http://www.w3.org/2000/svg" viewBox="0 0 24 24" preserveAspectRatio="xMidYMid meet">
<path stroke="none" d="M0 0h24v24H0z" fill="none" xmlns="http://www.w3.org/2000/svg" />
  <path d="M9 15l6 -6" xmlns="http://www.w3.org/2000/svg" />
  <path d="M8.56 3.69a9 9 0 0 0 -2.92 1.95" xmlns="http://www.w3.org/2000/svg" />
  <path d="M3.69 8.56a9 9 0 0 0 -.69 3.44" xmlns="http://www.w3.org/2000/svg" />
  <path d="M3.69 15.44a9 9 0 0 0 1.95 2.92" xmlns="http://www.w3.org/2000/svg" />
  <path d="M8.56 20.31a9 9 0 0 0 3.44 .69" xmlns="http://www.w3.org/2000/svg" />
  <path d="M15.44 20.31a9 9 0 0 0 2.92 -1.95" xmlns="http://www.w3.org/2000/svg" />
  <path d="M20.31 15.44a9 9 0 0 0 .69 -3.44" xmlns="http://www.w3.org/2000/svg" />
  <path d="M20.31 8.56a9 9 0 0 0 -1.95 -2.92" xmlns="http://www.w3.org/2000/svg" />
  <path d="M15.44 3.69a9 9 0 0 0 -3.44 -.69" xmlns="http://www.w3.org/2000/svg" />
  <path d="M9 9.03v.015" xmlns="http://www.w3.org/2000/svg" />
  <path d="M15 15.045v.015" xmlns="http://www.w3.org/2000/svg" />
</svg>
