<svg xmlns="http://www.w3.org/2000/svg" viewBox="0 0 24 24" preserveAspectRatio="xMidYMid meet">
<path stroke="none" d="M0 0h24v24H0z" fill="none" xmlns="http://www.w3.org/2000/svg" />
  <path d="M10.5 18l2.5 2l2 -2" xmlns="http://www.w3.org/2000/svg" />
  <path d="M18 21l3 -3l-4 -2l-2 -5" xmlns="http://www.w3.org/2000/svg" />
  <path d="M9 8l3 3l3 1l4 -2l3 -2" xmlns="http://www.w3.org/2000/svg" />
  <path d="M3 21v-1l2 -3l.5 -2.5l1.5 -2.5l-1 -5l1 -3l-1 -1l-2 .5l-2 -.5" xmlns="http://www.w3.org/2000/svg" />
  <path d="M13.007 8a2 2 0 1 0 4 0a2 2 0 1 0 -4 0" xmlns="http://www.w3.org/2000/svg" />
</svg>
