<svg xmlns="http://www.w3.org/2000/svg" viewBox="0 0 24 24" preserveAspectRatio="xMidYMid meet">
<path stroke="none" d="M0 0h24v24H0z" fill="none" xmlns="http://www.w3.org/2000/svg" />
  <path d="M4 6c0 1.657 3.582 3 8 3s8 -1.343 8 -3s-3.582 -3 -8 -3s-8 1.343 -8 3" xmlns="http://www.w3.org/2000/svg" />
  <path d="M4 6v6c0 1.657 3.582 3 8 3c1.075 0 2.1 -.08 3.037 -.224" xmlns="http://www.w3.org/2000/svg" />
  <path d="M20 12v-6" xmlns="http://www.w3.org/2000/svg" />
  <path d="M4 12v6c0 1.657 3.582 3 8 3c.166 0 .331 -.002 .495 -.006" xmlns="http://www.w3.org/2000/svg" />
  <path d="M16 19h6" xmlns="http://www.w3.org/2000/svg" />
  <path d="M19 16v6" xmlns="http://www.w3.org/2000/svg" />
</svg>
