<svg xmlns="http://www.w3.org/2000/svg" viewBox="0 0 24 24" preserveAspectRatio="xMidYMid meet">
<path stroke="none" d="M0 0h24v24H0z" fill="none" xmlns="http://www.w3.org/2000/svg" />
  <path d="M13 14.5v-5.5a1 1 0 0 1 1 -1h6a1 1 0 0 1 1 1v3" xmlns="http://www.w3.org/2000/svg" />
  <path d="M18 8v-3a1 1 0 0 0 -1 -1h-13a1 1 0 0 0 -1 1v12a1 1 0 0 0 1 1h8" xmlns="http://www.w3.org/2000/svg" />
  <path d="M16 9h2" xmlns="http://www.w3.org/2000/svg" />
  <path d="M17.001 19a2 2 0 1 0 4 0a2 2 0 1 0 -4 0" xmlns="http://www.w3.org/2000/svg" />
  <path d="M19.001 15.5v1.5" xmlns="http://www.w3.org/2000/svg" />
  <path d="M19.001 21v1.5" xmlns="http://www.w3.org/2000/svg" />
  <path d="M22.032 17.25l-1.299 .75" xmlns="http://www.w3.org/2000/svg" />
  <path d="M17.27 20l-1.3 .75" xmlns="http://www.w3.org/2000/svg" />
  <path d="M15.97 17.25l1.3 .75" xmlns="http://www.w3.org/2000/svg" />
  <path d="M20.733 20l1.3 .75" xmlns="http://www.w3.org/2000/svg" />
</svg>
