<svg xmlns="http://www.w3.org/2000/svg" viewBox="0 0 24 24" preserveAspectRatio="xMidYMid meet">
<path stroke="none" d="M0 0h24v24H0z" fill="none" xmlns="http://www.w3.org/2000/svg" />
  <path d="M10 15h-6a1 1 0 0 1 -1 -1v-8a1 1 0 0 1 1 -1h6" xmlns="http://www.w3.org/2000/svg" />
  <path d="M13 5a1 1 0 0 1 1 -1h6a1 1 0 0 1 1 1v14a1 1 0 0 1 -1 1h-6a1 1 0 0 1 -1 -1l0 -14" xmlns="http://www.w3.org/2000/svg" />
  <path d="M7 19l3 0" xmlns="http://www.w3.org/2000/svg" />
  <path d="M17 8l0 .01" xmlns="http://www.w3.org/2000/svg" />
  <path d="M16 16a1 1 0 1 0 2 0a1 1 0 1 0 -2 0" xmlns="http://www.w3.org/2000/svg" />
  <path d="M9 15l0 4" xmlns="http://www.w3.org/2000/svg" />
</svg>
