<svg xmlns="http://www.w3.org/2000/svg" viewBox="0 0 24 24" preserveAspectRatio="xMidYMid meet">
<path stroke="none" d="M0 0h24v24H0z" fill="none" xmlns="http://www.w3.org/2000/svg" />
  <path d="M10 10a2 2 0 1 0 4 0a2 2 0 1 0 -4 0" xmlns="http://www.w3.org/2000/svg" />
  <path d="M7 5a2 2 0 0 1 2 -2h6a2 2 0 0 1 2 2v14a2 2 0 0 1 -2 2h-6a2 2 0 0 1 -2 -2l0 -14" xmlns="http://www.w3.org/2000/svg" />
  <path d="M12 3v2" xmlns="http://www.w3.org/2000/svg" />
  <path d="M10 15v.01" xmlns="http://www.w3.org/2000/svg" />
  <path d="M10 18v.01" xmlns="http://www.w3.org/2000/svg" />
  <path d="M14 18v.01" xmlns="http://www.w3.org/2000/svg" />
  <path d="M14 15v.01" xmlns="http://www.w3.org/2000/svg" />
</svg>
