<svg xmlns="http://www.w3.org/2000/svg" viewBox="0 0 24 24" preserveAspectRatio="xMidYMid meet">
<path stroke="none" d="M0 0h24v24H0z" fill="none" xmlns="http://www.w3.org/2000/svg" />
  <path d="M7 3h13a1 1 0 0 1 1 1v12c0 .28 -.115 .532 -.3 .713m-3.7 .287h-13a1 1 0 0 1 -1 -1v-12c0 -.276 .112 -.526 .293 -.707" xmlns="http://www.w3.org/2000/svg" />
  <path d="M3 13h10m4 0h4" xmlns="http://www.w3.org/2000/svg" />
  <path d="M8 21h8" xmlns="http://www.w3.org/2000/svg" />
  <path d="M10 17l-.5 4" xmlns="http://www.w3.org/2000/svg" />
  <path d="M14 17l.5 4" xmlns="http://www.w3.org/2000/svg" />
  <path d="M3 3l18 18" xmlns="http://www.w3.org/2000/svg" />
</svg>
