<svg xmlns="http://www.w3.org/2000/svg" viewBox="0 0 24 24" preserveAspectRatio="xMidYMid meet">
<path stroke="none" d="M0 0h24v24H0z" fill="none" xmlns="http://www.w3.org/2000/svg" />
  <path d="M12.5 16h-8.5a1 1 0 0 1 -1 -1v-10a1 1 0 0 1 1 -1h16a1 1 0 0 1 1 1v6" xmlns="http://www.w3.org/2000/svg" />
  <path d="M21.121 20.121a3 3 0 1 0 -4.242 0c.418 .419 1.125 1.045 2.121 1.879c1.051 -.89 1.759 -1.516 2.121 -1.879" xmlns="http://www.w3.org/2000/svg" />
  <path d="M19 18v.01" xmlns="http://www.w3.org/2000/svg" />
  <path d="M7 20h5" xmlns="http://www.w3.org/2000/svg" />
  <path d="M9 16v4" xmlns="http://www.w3.org/2000/svg" />
</svg>
