<svg xmlns="http://www.w3.org/2000/svg" viewBox="0 0 24 24" preserveAspectRatio="xMidYMid meet">
<path stroke="none" d="M0 0h24v24H0z" fill="none" xmlns="http://www.w3.org/2000/svg" />
  <path d="M12 17h-8a1 1 0 0 1 -1 -1v-12a1 1 0 0 1 1 -1h16a1 1 0 0 1 1 1v8" xmlns="http://www.w3.org/2000/svg" />
  <path d="M3 13h13" xmlns="http://www.w3.org/2000/svg" />
  <path d="M8 21h4" xmlns="http://www.w3.org/2000/svg" />
  <path d="M10 17l-.5 4" xmlns="http://www.w3.org/2000/svg" />
  <path d="M17.001 19a2 2 0 1 0 4 0a2 2 0 1 0 -4 0" xmlns="http://www.w3.org/2000/svg" />
  <path d="M19.001 15.5v1.5" xmlns="http://www.w3.org/2000/svg" />
  <path d="M19.001 21v1.5" xmlns="http://www.w3.org/2000/svg" />
  <path d="M22.032 17.25l-1.299 .75" xmlns="http://www.w3.org/2000/svg" />
  <path d="M17.27 20l-1.3 .75" xmlns="http://www.w3.org/2000/svg" />
  <path d="M15.97 17.25l1.3 .75" xmlns="http://www.w3.org/2000/svg" />
  <path d="M20.733 20l1.3 .75" xmlns="http://www.w3.org/2000/svg" />
</svg>
