<svg xmlns="http://www.w3.org/2000/svg" viewBox="0 0 24 24" preserveAspectRatio="xMidYMid meet">
<path stroke="none" d="M0 0h24v24H0z" fill="none" xmlns="http://www.w3.org/2000/svg" />
  <path d="M13 9a1 1 0 0 1 1 -1h6a1 1 0 0 1 1 1v8m-1 3h-6a1 1 0 0 1 -1 -1v-6" xmlns="http://www.w3.org/2000/svg" />
  <path d="M18 8v-3a1 1 0 0 0 -1 -1h-9m-4 0a1 1 0 0 0 -1 1v12a1 1 0 0 0 1 1h9" xmlns="http://www.w3.org/2000/svg" />
  <path d="M16 9h2" xmlns="http://www.w3.org/2000/svg" />
  <path d="M3 3l18 18" xmlns="http://www.w3.org/2000/svg" />
</svg>
