<svg xmlns="http://www.w3.org/2000/svg" viewBox="0 0 24 24" preserveAspectRatio="xMidYMid meet">
<path stroke="none" d="M0 0h24v24H0z" fill="none" xmlns="http://www.w3.org/2000/svg" />
  <path d="M13 15.5v-6.5a1 1 0 0 1 1 -1h6a1 1 0 0 1 1 1v3.5" xmlns="http://www.w3.org/2000/svg" />
  <path d="M18 8v-3a1 1 0 0 0 -1 -1h-13a1 1 0 0 0 -1 1v12a1 1 0 0 0 1 1h8" xmlns="http://www.w3.org/2000/svg" />
  <path d="M16 19a3 3 0 1 0 6 0a3 3 0 1 0 -6 0" xmlns="http://www.w3.org/2000/svg" />
  <path d="M17 21l4 -4" xmlns="http://www.w3.org/2000/svg" />
  <path d="M16 9h2" xmlns="http://www.w3.org/2000/svg" />
</svg>
