<svg xmlns="http://www.w3.org/2000/svg" viewBox="0 0 24 24" preserveAspectRatio="xMidYMid meet">
<path stroke="none" d="M0 0h24v24H0z" fill="none" xmlns="http://www.w3.org/2000/svg" />
  <path d="M3 5a1 1 0 0 1 1 -1h16a1 1 0 0 1 1 1v10a1 1 0 0 1 -1 1h-16a1 1 0 0 1 -1 -1l0 -10" xmlns="http://www.w3.org/2000/svg" />
  <path d="M7 20h10" xmlns="http://www.w3.org/2000/svg" />
  <path d="M9 16v4" xmlns="http://www.w3.org/2000/svg" />
  <path d="M15 16v4" xmlns="http://www.w3.org/2000/svg" />
  <path d="M9 12v-4" xmlns="http://www.w3.org/2000/svg" />
  <path d="M12 12v-1" xmlns="http://www.w3.org/2000/svg" />
  <path d="M15 12v-2" xmlns="http://www.w3.org/2000/svg" />
  <path d="M12 12v-1" xmlns="http://www.w3.org/2000/svg" />
</svg>
