<svg xmlns="http://www.w3.org/2000/svg" viewBox="0 0 24 24" preserveAspectRatio="xMidYMid meet">
<path stroke="none" d="M0 0h24v24H0z" fill="none" xmlns="http://www.w3.org/2000/svg" />
  <path d="M3 5a2 2 0 0 1 2 -2h14a2 2 0 0 1 2 2v14a2 2 0 0 1 -2 2h-14a2 2 0 0 1 -2 -2v-14" xmlns="http://www.w3.org/2000/svg" />
  <path d="M8 7.5a.5 .5 0 1 0 1 0a.5 .5 0 1 0 -1 0" fill="currentColor" xmlns="http://www.w3.org/2000/svg" />
  <path d="M15 7.5a.5 .5 0 1 0 1 0a.5 .5 0 1 0 -1 0" fill="currentColor" xmlns="http://www.w3.org/2000/svg" />
  <path d="M8 12a.5 .5 0 1 0 1 0a.5 .5 0 1 0 -1 0" fill="currentColor" xmlns="http://www.w3.org/2000/svg" />
  <path d="M15 12a.5 .5 0 1 0 1 0a.5 .5 0 1 0 -1 0" fill="currentColor" xmlns="http://www.w3.org/2000/svg" />
  <path d="M15 16.5a.5 .5 0 1 0 1 0a.5 .5 0 1 0 -1 0" fill="currentColor" xmlns="http://www.w3.org/2000/svg" />
  <path d="M8 16.5a.5 .5 0 1 0 1 0a.5 .5 0 1 0 -1 0" fill="currentColor" xmlns="http://www.w3.org/2000/svg" />
</svg>
