<svg xmlns="http://www.w3.org/2000/svg" viewBox="0 0 24 24" preserveAspectRatio="xMidYMid meet">
<path stroke="none" d="M0 0h24v24H0z" fill="none" xmlns="http://www.w3.org/2000/svg" />
  <path d="M3 5h11" xmlns="http://www.w3.org/2000/svg" />
  <path d="M12 7l2 -2l-2 -2" xmlns="http://www.w3.org/2000/svg" />
  <path d="M5 3l-2 2l2 2" xmlns="http://www.w3.org/2000/svg" />
  <path d="M19 10v11" xmlns="http://www.w3.org/2000/svg" />
  <path d="M17 19l2 2l2 -2" xmlns="http://www.w3.org/2000/svg" />
  <path d="M21 12l-2 -2l-2 2" xmlns="http://www.w3.org/2000/svg" />
  <path d="M3 12a2 2 0 0 1 2 -2h7a2 2 0 0 1 2 2v7a2 2 0 0 1 -2 2h-7a2 2 0 0 1 -2 -2l0 -7" xmlns="http://www.w3.org/2000/svg" />
</svg>
