<svg xmlns="http://www.w3.org/2000/svg" viewBox="0 0 24 24" preserveAspectRatio="xMidYMid meet">
<path stroke="none" d="M0 0h24v24H0z" fill="none" xmlns="http://www.w3.org/2000/svg" />
  <path d="M2 7a2 2 0 0 1 2 -2h16a2 2 0 0 1 2 2v10a2 2 0 0 1 -2 2h-16a2 2 0 0 1 -2 -2l0 -10" xmlns="http://www.w3.org/2000/svg" />
  <path d="M9 12a3 3 0 1 0 6 0a3 3 0 1 0 -6 0" xmlns="http://www.w3.org/2000/svg" />
  <path d="M9 12h-7" xmlns="http://www.w3.org/2000/svg" />
  <path d="M15 12h7" xmlns="http://www.w3.org/2000/svg" />
</svg>
