<svg xmlns="http://www.w3.org/2000/svg" viewBox="0 0 24 24" preserveAspectRatio="xMidYMid meet">
<path stroke="none" d="M0 0h24v24H0z" fill="none" xmlns="http://www.w3.org/2000/svg" />
  <path d="M14 18a2 2 0 1 0 4 0a2 2 0 1 0 -4 0" xmlns="http://www.w3.org/2000/svg" />
  <path d="M6 18a2 2 0 1 0 4 0a2 2 0 1 0 -4 0" xmlns="http://www.w3.org/2000/svg" />
  <path d="M4 8l2.1 2.8a3 3 0 0 0 2.4 1.2h11.5" xmlns="http://www.w3.org/2000/svg" />
  <path d="M10 6h4" xmlns="http://www.w3.org/2000/svg" />
  <path d="M12 4v4" xmlns="http://www.w3.org/2000/svg" />
  <path d="M12 12v2l-2.5 2.5" xmlns="http://www.w3.org/2000/svg" />
  <path d="M14.5 16.5l-2.5 -2.5" xmlns="http://www.w3.org/2000/svg" />
</svg>
