<svg xmlns="http://www.w3.org/2000/svg" viewBox="0 0 24 24" preserveAspectRatio="xMidYMid meet">
<path stroke="none" d="M0 0h24v24H0z" fill="none" xmlns="http://www.w3.org/2000/svg" />
  <path d="M2 8a3 3 0 0 1 3 -3h14a3 3 0 0 1 3 3v8a3 3 0 0 1 -3 3h-14a3 3 0 0 1 -3 -3l0 -8" xmlns="http://www.w3.org/2000/svg" />
  <path d="M6 10v4" xmlns="http://www.w3.org/2000/svg" />
  <path d="M11 10a2 2 0 1 0 0 4" xmlns="http://www.w3.org/2000/svg" />
  <path d="M14 12a2 2 0 1 0 4 0a2 2 0 1 0 -4 0" xmlns="http://www.w3.org/2000/svg" />
</svg>
