<svg xmlns="http://www.w3.org/2000/svg" viewBox="0 0 24 24" preserveAspectRatio="xMidYMid meet">
<path stroke="none" d="M0 0h24v24H0z" fill="none" xmlns="http://www.w3.org/2000/svg" />
  <path d="M14 3v4a1 1 0 0 0 1 1h4" xmlns="http://www.w3.org/2000/svg" />
  <path d="M12 21h-5a2 2 0 0 1 -2 -2v-14a2 2 0 0 1 2 -2h7l5 5v3.5" xmlns="http://www.w3.org/2000/svg" />
  <path d="M9 9h1" xmlns="http://www.w3.org/2000/svg" />
  <path d="M9 13h6" xmlns="http://www.w3.org/2000/svg" />
  <path d="M9 17h3" xmlns="http://www.w3.org/2000/svg" />
  <path d="M19 22.5a4.75 4.75 0 0 1 3.5 -3.5a4.75 4.75 0 0 1 -3.5 -3.5a4.75 4.75 0 0 1 -3.5 3.5a4.75 4.75 0 0 1 3.5 3.5" xmlns="http://www.w3.org/2000/svg" />
</svg>
