<svg xmlns="http://www.w3.org/2000/svg" viewBox="0 0 24 24" preserveAspectRatio="xMidYMid meet">
<path stroke="none" d="M0 0h24v24H0z" fill="none" xmlns="http://www.w3.org/2000/svg" />
  <path d="M3 15a1 1 0 0 1 1 -1h1a1 1 0 0 1 1 1v3a1 1 0 0 1 -1 1h-1a1 1 0 0 1 -1 -1l0 -3" xmlns="http://www.w3.org/2000/svg" />
  <path d="M6 15a1 1 0 0 1 1 -1h3.756a1 1 0 0 1 .958 .713l1.2 3c.09 .303 .133 .63 -.056 .884c-.188 .254 -.542 .403 -.858 .403h-2v2.467a1.1 1.1 0 0 1 -2.015 .61l-1.985 -3.077v-4" xmlns="http://www.w3.org/2000/svg" />
  <path d="M14 3v4a1 1 0 0 0 1 1h4" xmlns="http://www.w3.org/2000/svg" />
  <path d="M5 11v-6a2 2 0 0 1 2 -2h7l5 5v11a2 2 0 0 1 -2 2h-2.5" xmlns="http://www.w3.org/2000/svg" />
</svg>
