<svg xmlns="http://www.w3.org/2000/svg" viewBox="0 0 24 24" preserveAspectRatio="xMidYMid meet">
<path stroke="none" d="M0 0h24v24H0z" fill="none" xmlns="http://www.w3.org/2000/svg" />
  <path d="M4 6h16" xmlns="http://www.w3.org/2000/svg" />
  <path d="M6 12h8.5" xmlns="http://www.w3.org/2000/svg" />
  <path d="M9 18h2" xmlns="http://www.w3.org/2000/svg" />
  <path d="M15 18c0 .796 .316 1.559 .879 2.121c.563 .563 1.326 .879 2.121 .879c.796 0 1.559 -.316 2.121 -.879c.563 -.563 .879 -1.326 .879 -2.121c0 -.796 -.316 -1.559 -.879 -2.121c-.563 -.563 -1.326 -.879 -2.121 -.879c-.796 0 -1.559 .316 -2.121 .879c-.563 .563 -.879 1.326 -.879 2.121" xmlns="http://www.w3.org/2000/svg" />
  <path d="M20.2 20.2l1.8 1.8" xmlns="http://www.w3.org/2000/svg" />
</svg>
