<svg xmlns="http://www.w3.org/2000/svg" viewBox="0 0 24 24" preserveAspectRatio="xMidYMid meet">
<path stroke="none" d="M0 0h24v24H0z" fill="none" xmlns="http://www.w3.org/2000/svg" />
  <path d="M3 17a2 2 0 1 0 4 0a2 2 0 1 0 -4 0" xmlns="http://www.w3.org/2000/svg" />
  <path d="M12 17a2 2 0 1 0 4 0a2 2 0 1 0 -4 0" xmlns="http://www.w3.org/2000/svg" />
  <path d="M7 17l5 0" xmlns="http://www.w3.org/2000/svg" />
  <path d="M3 17v-6h13v6" xmlns="http://www.w3.org/2000/svg" />
  <path d="M5 11v-4h4" xmlns="http://www.w3.org/2000/svg" />
  <path d="M9 11v-6h4l3 6" xmlns="http://www.w3.org/2000/svg" />
  <path d="M22 15h-3v-10" xmlns="http://www.w3.org/2000/svg" />
  <path d="M16 13l3 0" xmlns="http://www.w3.org/2000/svg" />
</svg>
