<svg xmlns="http://www.w3.org/2000/svg" viewBox="0 0 24 24" preserveAspectRatio="xMidYMid meet">
<path stroke="none" d="M0 0h24v24H0z" fill="none" xmlns="http://www.w3.org/2000/svg" />
  <path d="M14 11h1a2 2 0 0 1 2 2v3a1.5 1.5 0 0 0 3 0v-7l-3 -3" xmlns="http://www.w3.org/2000/svg" />
  <path d="M4 20v-14a2 2 0 0 1 2 -2h6a2 2 0 0 1 2 2v14" xmlns="http://www.w3.org/2000/svg" />
  <path d="M3 20l12 0" xmlns="http://www.w3.org/2000/svg" />
  <path d="M18 7v1a1 1 0 0 0 1 1h1" xmlns="http://www.w3.org/2000/svg" />
  <path d="M4 11l10 0" xmlns="http://www.w3.org/2000/svg" />
</svg>
