<svg xmlns="http://www.w3.org/2000/svg" viewBox="0 0 24 24" preserveAspectRatio="xMidYMid meet">
<path stroke="none" d="M0 0h24v24H0z" fill="none" xmlns="http://www.w3.org/2000/svg" />
  <path d="M4 18a2 2 0 1 0 4 0a2 2 0 1 0 -4 0" xmlns="http://www.w3.org/2000/svg" />
  <path d="M4 6a2 2 0 1 0 4 0a2 2 0 1 0 -4 0" xmlns="http://www.w3.org/2000/svg" />
  <path d="M16 18a2 2 0 1 0 4 0a2 2 0 1 0 -4 0" xmlns="http://www.w3.org/2000/svg" />
  <path d="M6 8l0 8" xmlns="http://www.w3.org/2000/svg" />
  <path d="M11 6h5a2 2 0 0 1 2 2v8" xmlns="http://www.w3.org/2000/svg" />
  <path d="M14 9l-3 -3l3 -3" xmlns="http://www.w3.org/2000/svg" />
</svg>
