<svg xmlns="http://www.w3.org/2000/svg" viewBox="0 0 24 24" preserveAspectRatio="xMidYMid meet">
<path stroke="none" d="M0 0h24v24H0z" fill="none" xmlns="http://www.w3.org/2000/svg" />
  <path d="M4 6a2 2 0 1 0 4 0a2 2 0 1 0 -4 0" xmlns="http://www.w3.org/2000/svg" />
  <path d="M10 12a2 2 0 1 0 4 0a2 2 0 1 0 -4 0" xmlns="http://www.w3.org/2000/svg" />
  <path d="M4 18a2 2 0 1 0 4 0a2 2 0 1 0 -4 0" xmlns="http://www.w3.org/2000/svg" />
  <path d="M16 18a2 2 0 1 0 4 0a2 2 0 1 0 -4 0" xmlns="http://www.w3.org/2000/svg" />
  <path d="M3 12h7m4 0h7" xmlns="http://www.w3.org/2000/svg" />
  <path d="M3 6h1m4 0h13" xmlns="http://www.w3.org/2000/svg" />
  <path d="M3 18h1m4 0h8m4 0h1" xmlns="http://www.w3.org/2000/svg" />
  <path d="M6 3v1m0 4v8m0 4v1" xmlns="http://www.w3.org/2000/svg" />
  <path d="M12 3v7m0 4v7" xmlns="http://www.w3.org/2000/svg" />
  <path d="M18 3v13m0 4v1" xmlns="http://www.w3.org/2000/svg" />
</svg>
