<svg xmlns="http://www.w3.org/2000/svg" viewBox="0 0 24 24" preserveAspectRatio="xMidYMid meet">
<path stroke="none" d="M0 0h24v24H0z" fill="none" xmlns="http://www.w3.org/2000/svg" />
  <path d="M3.5 9.5a1 1 0 1 0 2 0a1 1 0 1 0 -2 0" xmlns="http://www.w3.org/2000/svg" />
  <path d="M8.5 4.5a1 1 0 1 0 2 0a1 1 0 1 0 -2 0" xmlns="http://www.w3.org/2000/svg" />
  <path d="M8.5 14.5a1 1 0 1 0 2 0a1 1 0 1 0 -2 0" xmlns="http://www.w3.org/2000/svg" />
  <path d="M3.5 19.5a1 1 0 1 0 2 0a1 1 0 1 0 -2 0" xmlns="http://www.w3.org/2000/svg" />
  <path d="M13.5 9.5a1 1 0 1 0 2 0a1 1 0 1 0 -2 0" xmlns="http://www.w3.org/2000/svg" />
  <path d="M18.5 4.5a1 1 0 1 0 2 0a1 1 0 1 0 -2 0" xmlns="http://www.w3.org/2000/svg" />
  <path d="M13.5 19.5a1 1 0 1 0 2 0a1 1 0 1 0 -2 0" xmlns="http://www.w3.org/2000/svg" />
  <path d="M18.5 14.5a1 1 0 1 0 2 0a1 1 0 1 0 -2 0" xmlns="http://www.w3.org/2000/svg" />
</svg>
