<svg xmlns="http://www.w3.org/2000/svg" viewBox="0 0 24 24" preserveAspectRatio="xMidYMid meet">
<path stroke="none" d="M0 0h24v24H0z" fill="none" xmlns="http://www.w3.org/2000/svg" />
  <path d="M19 8h-14a6 6 0 0 0 6 6h2a6 6 0 0 0 6 -5.775l0 -.225" xmlns="http://www.w3.org/2000/svg" />
  <path d="M17 20a2 2 0 1 1 0 -4a2 2 0 0 1 0 4" xmlns="http://www.w3.org/2000/svg" />
  <path d="M15 14l1 2" xmlns="http://www.w3.org/2000/svg" />
  <path d="M9 14l-3 6" xmlns="http://www.w3.org/2000/svg" />
  <path d="M15 18h-8" xmlns="http://www.w3.org/2000/svg" />
  <path d="M15 5v-1" xmlns="http://www.w3.org/2000/svg" />
  <path d="M12 5v-1" xmlns="http://www.w3.org/2000/svg" />
  <path d="M9 5v-1" xmlns="http://www.w3.org/2000/svg" />
</svg>
