<svg xmlns="http://www.w3.org/2000/svg" viewBox="0 0 24 24" preserveAspectRatio="xMidYMid meet">
<path stroke="none" d="M0 0h24v24H0z" fill="none" xmlns="http://www.w3.org/2000/svg" />
  <path d="M12 15v6" xmlns="http://www.w3.org/2000/svg" />
  <path d="M16 5h4" xmlns="http://www.w3.org/2000/svg" />
  <path d="M8 5h-4" xmlns="http://www.w3.org/2000/svg" />
  <path d="M15 11h-6a1 1 0 0 1 -1 -1v-6a1 1 0 0 1 1 -1h6a1 1 0 0 1 1 1v6a1 1 0 0 1 -1 1" xmlns="http://www.w3.org/2000/svg" />
  <path d="M14 11h-4v3a1 1 0 0 0 1 1h2a1 1 0 0 0 1 -1v-3" xmlns="http://www.w3.org/2000/svg" />
</svg>
