<svg xmlns="http://www.w3.org/2000/svg" viewBox="0 0 24 24" preserveAspectRatio="xMidYMid meet">
<path stroke="none" d="M0 0h24v24H0z" fill="none" xmlns="http://www.w3.org/2000/svg" />
  <path d="M5 12h-2l9 -9l9 9h-2" xmlns="http://www.w3.org/2000/svg" />
  <path d="M5 12v7a2 2 0 0 0 2 2h5" xmlns="http://www.w3.org/2000/svg" />
  <path d="M9 21v-6a2 2 0 0 1 2 -2h2a2 2 0 0 1 2 2" xmlns="http://www.w3.org/2000/svg" />
  <path d="M19 22.5a4.75 4.75 0 0 1 3.5 -3.5a4.75 4.75 0 0 1 -3.5 -3.5a4.75 4.75 0 0 1 -3.5 3.5a4.75 4.75 0 0 1 3.5 3.5" xmlns="http://www.w3.org/2000/svg" />
</svg>
