<svg xmlns="http://www.w3.org/2000/svg" viewBox="0 0 24 24" preserveAspectRatio="xMidYMid meet">
<path stroke="none" d="M0 0h24v24H0z" fill="none" xmlns="http://www.w3.org/2000/svg" />
  <path d="M20 11a8.1 8.1 0 0 0 -15.5 -2m-.5 -4v4h4" xmlns="http://www.w3.org/2000/svg" />
  <path d="M4 13c.468 3.6 3.384 6.546 7 7" xmlns="http://www.w3.org/2000/svg" />
  <path d="M18 15h2a1 1 0 0 1 1 1v1a1 1 0 0 1 -1 1h-1a1 1 0 0 0 -1 1v1a1 1 0 0 0 1 1h2" xmlns="http://www.w3.org/2000/svg" />
  <path d="M15 21v-6" xmlns="http://www.w3.org/2000/svg" />
</svg>
