<svg xmlns="http://www.w3.org/2000/svg" viewBox="0 0 24 24" preserveAspectRatio="xMidYMid meet">
<path stroke="none" d="M0 0h24v24H0z" fill="none" xmlns="http://www.w3.org/2000/svg" />
  <path d="M10 5a2 2 0 1 0 4 0a2 2 0 1 0 -4 0" xmlns="http://www.w3.org/2000/svg" />
  <path d="M4 6l2 1.5l6 .5l6 -.5l2 -1.5" xmlns="http://www.w3.org/2000/svg" />
  <path d="M16 21l-4 -8v-5" xmlns="http://www.w3.org/2000/svg" />
  <path d="M8 21l4 -8" xmlns="http://www.w3.org/2000/svg" />
  <path d="M9.007 10.999c-2.37 .32 -4.007 1.201 -4.007 2.001c0 1.105 3.134 2 7 2s7 -.895 7 -2c0 -.798 -1.636 -1.679 -4 -2" xmlns="http://www.w3.org/2000/svg" />
</svg>
