<svg xmlns="http://www.w3.org/2000/svg" viewBox="0 0 24 24" preserveAspectRatio="xMidYMid meet">
<path stroke="none" d="M0 0h24v24H0z" fill="none" xmlns="http://www.w3.org/2000/svg" />
  <path d="M13 15c-2 0 -5 1 -5 5" xmlns="http://www.w3.org/2000/svg" />
  <path d="M4 13a2 2 0 0 1 2 -2h5a2 2 0 0 1 2 2v5a2 2 0 0 1 -2 2h-5a2 2 0 0 1 -2 -2l0 -5" xmlns="http://www.w3.org/2000/svg" />
  <path d="M4 7v-2a1 1 0 0 1 1 -1h2" xmlns="http://www.w3.org/2000/svg" />
  <path d="M11 4h2" xmlns="http://www.w3.org/2000/svg" />
  <path d="M17 4h2a1 1 0 0 1 1 1v2" xmlns="http://www.w3.org/2000/svg" />
  <path d="M20 11v2" xmlns="http://www.w3.org/2000/svg" />
  <path d="M20 17v2a1 1 0 0 1 -1 1h-2" xmlns="http://www.w3.org/2000/svg" />
</svg>
