<svg xmlns="http://www.w3.org/2000/svg" viewBox="0 0 24 24" preserveAspectRatio="xMidYMid meet">
<path stroke="none" d="M0 0h24v24H0z" fill="none" xmlns="http://www.w3.org/2000/svg" />
  <path d="M3 21v-4a4 4 0 1 1 4 4h-4" xmlns="http://www.w3.org/2000/svg" />
  <path d="M21 3a16 16 0 0 0 -12.8 10.2" xmlns="http://www.w3.org/2000/svg" />
  <path d="M21 3a16 16 0 0 1 -10.2 12.8" xmlns="http://www.w3.org/2000/svg" />
  <path d="M10.6 9a9 9 0 0 1 4.4 4.4" xmlns="http://www.w3.org/2000/svg" />
  <path d="M17 19a2 2 0 0 1 2 2a2 2 0 0 1 2 -2a2 2 0 0 1 -2 -2a2 2 0 0 1 -2 2" xmlns="http://www.w3.org/2000/svg" />
  <path d="M3 5a2 2 0 0 1 2 2a2 2 0 0 1 2 -2a2 2 0 0 1 -2 -2a2 2 0 0 1 -2 2" xmlns="http://www.w3.org/2000/svg" />
</svg>
