<svg xmlns="http://www.w3.org/2000/svg" viewBox="0 0 24 24" preserveAspectRatio="xMidYMid meet">
<path stroke="none" d="M0 0h24v24H0z" fill="none" xmlns="http://www.w3.org/2000/svg" />
  <path d="M10 6a3 3 0 1 0 -6 0v7h6v-7" xmlns="http://www.w3.org/2000/svg" />
  <path d="M14 13h6v-7a3 3 0 0 0 -6 0v7" xmlns="http://www.w3.org/2000/svg" />
  <path d="M5 16c0 2.333 .667 4 2 5c1.333 -1 2 -2.667 2 -5" xmlns="http://www.w3.org/2000/svg" />
  <path d="M15 16c0 2.333 .667 4 2 5c1.333 -1 2 -2.667 2 -5" xmlns="http://www.w3.org/2000/svg" />
  <path d="M10 8h4" xmlns="http://www.w3.org/2000/svg" />
  <path d="M10 11h4" xmlns="http://www.w3.org/2000/svg" />
</svg>
