<svg xmlns="http://www.w3.org/2000/svg" viewBox="0 0 24 24" preserveAspectRatio="xMidYMid meet">
<path stroke="none" d="M0 0h24v24H0z" fill="none" xmlns="http://www.w3.org/2000/svg" />
  <path d="M6 11h5.38a1 1 0 0 1 .9 .55l.72 1.45h5a1 1 0 0 1 1 1v2" xmlns="http://www.w3.org/2000/svg" />
  <path d="M3 4h1.13a1 1 0 0 1 1 .86l1.59 11.14" xmlns="http://www.w3.org/2000/svg" />
  <path d="M17 18h-8" xmlns="http://www.w3.org/2000/svg" />
  <path d="M9 18a2 2 0 1 1 -4 0a2 2 0 0 1 4 0" xmlns="http://www.w3.org/2000/svg" />
  <path d="M21 18a2 2 0 1 1 -4 0a2 2 0 0 1 4 0" xmlns="http://www.w3.org/2000/svg" />
</svg>
