<svg xmlns="http://www.w3.org/2000/svg" viewBox="0 0 24 24" preserveAspectRatio="xMidYMid meet">
<path stroke="none" d="M0 0h24v24H0z" fill="none" xmlns="http://www.w3.org/2000/svg" />
  <path d="M4 14.5l4 -4" xmlns="http://www.w3.org/2000/svg" />
  <path d="M9.496 20l4.004 -4l-4.004 4" xmlns="http://www.w3.org/2000/svg" />
  <path d="M4.586 19.414l3.914 -3.914" xmlns="http://www.w3.org/2000/svg" />
  <path d="M8 6a2 2 0 0 1 2 -2h8a2 2 0 0 1 2 2v8a2 2 0 0 1 -2 2h-8a2 2 0 0 1 -2 -2l0 -8" xmlns="http://www.w3.org/2000/svg" />
  <path d="M16 16v2a2 2 0 0 1 -2 2h-8a2 2 0 0 1 -2 -2v-8a2 2 0 0 1 2 -2h2" xmlns="http://www.w3.org/2000/svg" />
</svg>
