<svg xmlns="http://www.w3.org/2000/svg" viewBox="0 0 24 24" preserveAspectRatio="xMidYMid meet">
<path stroke="none" d="M0 0h24v24H0z" fill="none" xmlns="http://www.w3.org/2000/svg" />
  <path d="M9 13a3 3 0 1 0 6 0a3 3 0 1 0 -6 0" xmlns="http://www.w3.org/2000/svg" />
  <path d="M11 20a1 1 0 1 0 2 0a1 1 0 1 0 -2 0" xmlns="http://www.w3.org/2000/svg" />
  <path d="M12 16v3" xmlns="http://www.w3.org/2000/svg" />
  <path d="M12 10v-7" xmlns="http://www.w3.org/2000/svg" />
  <path d="M9 6l3 -3l3 3" xmlns="http://www.w3.org/2000/svg" />
  <path d="M12 10v-7" xmlns="http://www.w3.org/2000/svg" />
  <path d="M9 6l3 -3l3 3" xmlns="http://www.w3.org/2000/svg" />
  <path d="M14.894 12.227l6.11 -2.224" xmlns="http://www.w3.org/2000/svg" />
  <path d="M17.159 8.21l3.845 1.793l-1.793 3.845" xmlns="http://www.w3.org/2000/svg" />
  <path d="M9.101 12.214l-6.075 -2.211" xmlns="http://www.w3.org/2000/svg" />
  <path d="M6.871 8.21l-3.845 1.793l1.793 3.845" xmlns="http://www.w3.org/2000/svg" />
</svg>
