<svg xmlns="http://www.w3.org/2000/svg" viewBox="0 0 24 24" preserveAspectRatio="xMidYMid meet">
<path stroke="none" d="M0 0h24v24H0z" fill="none" xmlns="http://www.w3.org/2000/svg" />
  <path d="M17 21v-6m2 0v-1.5m0 9v-1.5m-2 -3h3m-1 0h.5a1.5 1.5 0 0 1 0 3h-3.5m3 -3h.5a1.5 1.5 0 0 0 0 -3h-3.5" xmlns="http://www.w3.org/2000/svg" />
  <path d="M13 21h-6a2 2 0 0 1 -2 -2v-6a2 2 0 0 1 2 -2h10" xmlns="http://www.w3.org/2000/svg" />
  <path d="M11 16a1 1 0 1 0 2 0a1 1 0 0 0 -2 0" xmlns="http://www.w3.org/2000/svg" />
  <path d="M8 11v-4a4 4 0 1 1 8 0v4" xmlns="http://www.w3.org/2000/svg" />
</svg>
