<svg xmlns="http://www.w3.org/2000/svg" viewBox="0 0 24 24" preserveAspectRatio="xMidYMid meet">
<path stroke="none" d="M0 0h24v24H0z" fill="none" xmlns="http://www.w3.org/2000/svg" />
  <path d="M4 8v-2a2 2 0 0 1 2 -2h2" xmlns="http://www.w3.org/2000/svg" />
  <path d="M4 16v2a2 2 0 0 0 2 2h2" xmlns="http://www.w3.org/2000/svg" />
  <path d="M16 4h2a2 2 0 0 1 2 2v2" xmlns="http://www.w3.org/2000/svg" />
  <path d="M16 20h2a2 2 0 0 0 2 -2v-2" xmlns="http://www.w3.org/2000/svg" />
  <path d="M8 12a1 1 0 0 1 1 -1h6a1 1 0 0 1 1 1v3a1 1 0 0 1 -1 1h-6a1 1 0 0 1 -1 -1l0 -3" xmlns="http://www.w3.org/2000/svg" />
  <path d="M10 11v-2a2 2 0 1 1 4 0v2" xmlns="http://www.w3.org/2000/svg" />
</svg>
