<svg xmlns="http://www.w3.org/2000/svg" viewBox="0 0 24 24" preserveAspectRatio="xMidYMid meet">
<path stroke="none" d="M0 0h24v24H0z" fill="none" xmlns="http://www.w3.org/2000/svg" />
  <path d="M12.5 21h-5.5a2 2 0 0 1 -2 -2v-6a2 2 0 0 1 2 -2h10a2 2 0 0 1 1.749 1.028" xmlns="http://www.w3.org/2000/svg" />
  <path d="M11 16a1 1 0 1 0 2 0a1 1 0 0 0 -2 0" xmlns="http://www.w3.org/2000/svg" />
  <path d="M8 11v-4a4 4 0 1 1 8 0v4" xmlns="http://www.w3.org/2000/svg" />
  <path d="M16 19a3 3 0 1 0 6 0a3 3 0 1 0 -6 0" xmlns="http://www.w3.org/2000/svg" />
  <path d="M17 21l4 -4" xmlns="http://www.w3.org/2000/svg" />
</svg>
