<svg xmlns="http://www.w3.org/2000/svg" viewBox="0 0 24 24" preserveAspectRatio="xMidYMid meet">
<path stroke="none" d="M0 0h24v24H0z" fill="none" xmlns="http://www.w3.org/2000/svg" />
  <path d="M10 6h6a2 2 0 0 1 2 2v6m0 4a2 2 0 0 1 -2 2h-8a2 2 0 0 1 -2 -2v-10c0 -.546 .218 -1.04 .573 -1.4" xmlns="http://www.w3.org/2000/svg" />
  <path d="M9 5a2 2 0 0 1 2 -2h2a2 2 0 0 1 2 2v1" xmlns="http://www.w3.org/2000/svg" />
  <path d="M6 10h4m4 0h4" xmlns="http://www.w3.org/2000/svg" />
  <path d="M6 16h10" xmlns="http://www.w3.org/2000/svg" />
  <path d="M9 20v1" xmlns="http://www.w3.org/2000/svg" />
  <path d="M15 20v1" xmlns="http://www.w3.org/2000/svg" />
  <path d="M3 3l18 18" xmlns="http://www.w3.org/2000/svg" />
</svg>
