<svg xmlns="http://www.w3.org/2000/svg" viewBox="0 0 24 24" preserveAspectRatio="xMidYMid meet">
<path stroke="none" d="M0 0h24v24H0z" fill="none" xmlns="http://www.w3.org/2000/svg" />
  <path d="M7 10a2 2 0 1 0 -4 0v4a2 2 0 1 0 4 0" xmlns="http://www.w3.org/2000/svg" />
  <path d="M12 8a2 2 0 0 1 2 2v4a2 2 0 1 1 -4 0v-4a2 2 0 0 1 2 -2" xmlns="http://www.w3.org/2000/svg" />
  <path d="M17 15c.345 .6 1.258 1 2 1a2 2 0 1 0 0 -4a2 2 0 1 1 0 -4c.746 0 1.656 .394 2 1" xmlns="http://www.w3.org/2000/svg" />
</svg>
