<svg xmlns="http://www.w3.org/2000/svg" viewBox="0 0 24 24" preserveAspectRatio="xMidYMid meet">
<path stroke="none" d="M0 0h24v24H0z" fill="none" xmlns="http://www.w3.org/2000/svg" />
  <path d="M8 9h8" xmlns="http://www.w3.org/2000/svg" />
  <path d="M8 13h5" xmlns="http://www.w3.org/2000/svg" />
  <path d="M12 21l-.5 -.5l-2.5 -2.5h-3a3 3 0 0 1 -3 -3v-8a3 3 0 0 1 3 -3h12a3 3 0 0 1 3 3v4.5" xmlns="http://www.w3.org/2000/svg" />
  <path d="M15 18a3 3 0 1 0 6 0a3 3 0 1 0 -6 0" xmlns="http://www.w3.org/2000/svg" />
  <path d="M20.2 20.2l1.8 1.8" xmlns="http://www.w3.org/2000/svg" />
</svg>
