<svg xmlns="http://www.w3.org/2000/svg" viewBox="0 0 24 24" preserveAspectRatio="xMidYMid meet">
<path stroke="none" d="M0 0h24v24H0z" fill="none" xmlns="http://www.w3.org/2000/svg" />
  <path d="M8 9h8" xmlns="http://www.w3.org/2000/svg" />
  <path d="M8 13h6" xmlns="http://www.w3.org/2000/svg" />
  <path d="M11.995 18.603l-3.995 2.397v-3h-2a3 3 0 0 1 -3 -3v-8a3 3 0 0 1 3 -3h12a3 3 0 0 1 3 3v5.5" xmlns="http://www.w3.org/2000/svg" />
  <path d="M16 19a3 3 0 1 0 6 0a3 3 0 1 0 -6 0" xmlns="http://www.w3.org/2000/svg" />
  <path d="M17 21l4 -4" xmlns="http://www.w3.org/2000/svg" />
</svg>
