<svg xmlns="http://www.w3.org/2000/svg" viewBox="0 0 24 24" preserveAspectRatio="xMidYMid meet">
<path stroke="none" d="M0 0h24v24H0z" fill="none" xmlns="http://www.w3.org/2000/svg" />
  <path d="M4 20l2.25 -2.25" xmlns="http://www.w3.org/2000/svg" />
  <path d="M20 20l-2.25 -2.25" xmlns="http://www.w3.org/2000/svg" />
  <path d="M20 4l-2.25 2.25" xmlns="http://www.w3.org/2000/svg" />
  <path d="M4 4l2.25 2.25" xmlns="http://www.w3.org/2000/svg" />
  <path d="M10 19.748a8.01 8.01 0 0 1 -5.747 -5.748" xmlns="http://www.w3.org/2000/svg" />
  <path d="M19.748 14a8.01 8.01 0 0 1 -5.748 5.748" xmlns="http://www.w3.org/2000/svg" />
  <path d="M4.252 10a8.02 8.02 0 0 1 5.478 -5.672l.27 -.075" xmlns="http://www.w3.org/2000/svg" />
  <path d="M14 4.252a8.01 8.01 0 0 1 5.748 5.749" xmlns="http://www.w3.org/2000/svg" />
  <path d="M11 12a1 1 0 1 0 2 0a1 1 0 0 0 -2 0" xmlns="http://www.w3.org/2000/svg" />
</svg>
