<svg xmlns="http://www.w3.org/2000/svg" viewBox="0 0 24 24" preserveAspectRatio="xMidYMid meet">
<path stroke="none" d="M0 0h24v24H0z" fill="none" xmlns="http://www.w3.org/2000/svg" />
  <path d="M21 12a9 9 0 1 0 -8.983 9" xmlns="http://www.w3.org/2000/svg" />
  <path d="M16.001 18a2 2 0 1 0 4 0a2 2 0 1 0 -4 0" xmlns="http://www.w3.org/2000/svg" />
  <path d="M18.001 14.5v1.5" xmlns="http://www.w3.org/2000/svg" />
  <path d="M18.001 20v1.5" xmlns="http://www.w3.org/2000/svg" />
  <path d="M21.032 16.25l-1.299 .75" xmlns="http://www.w3.org/2000/svg" />
  <path d="M16.27 19l-1.3 .75" xmlns="http://www.w3.org/2000/svg" />
  <path d="M14.97 16.25l1.3 .75" xmlns="http://www.w3.org/2000/svg" />
  <path d="M19.733 19l1.3 .75" xmlns="http://www.w3.org/2000/svg" />
  <path d="M9 10h.01" xmlns="http://www.w3.org/2000/svg" />
  <path d="M15 10h.01" xmlns="http://www.w3.org/2000/svg" />
  <path d="M9.5 15c.658 .64 1.56 1 2.5 1" xmlns="http://www.w3.org/2000/svg" />
</svg>
