<svg xmlns="http://www.w3.org/2000/svg" viewBox="0 0 24 24" preserveAspectRatio="xMidYMid meet">
<path stroke="none" d="M0 0h24v24H0z" fill="none" xmlns="http://www.w3.org/2000/svg" />
  <path d="M16 6h3a1 1 0 0 1 1 1v11a2 2 0 0 1 -4 0v-13a1 1 0 0 0 -1 -1h-10a1 1 0 0 0 -1 1v12a3 3 0 0 0 3 3h11" xmlns="http://www.w3.org/2000/svg" />
  <path d="M8 8l4 0" xmlns="http://www.w3.org/2000/svg" />
  <path d="M8 12l4 0" xmlns="http://www.w3.org/2000/svg" />
  <path d="M8 16l4 0" xmlns="http://www.w3.org/2000/svg" />
</svg>
