<svg xmlns="http://www.w3.org/2000/svg" viewBox="0 0 24 24" preserveAspectRatio="xMidYMid meet">
<path stroke="none" d="M0 0h24v24H0z" fill="none" xmlns="http://www.w3.org/2000/svg" />
  <path d="M7 16.5l-5 -3l5 -3l5 3v5.5l-5 3l0 -5.5" xmlns="http://www.w3.org/2000/svg" />
  <path d="M2 13.5v5.5l5 3" xmlns="http://www.w3.org/2000/svg" />
  <path d="M7 16.545l5 -3.03" xmlns="http://www.w3.org/2000/svg" />
  <path d="M17 16.5l-5 -3l5 -3l5 3v5.5l-5 3l0 -5.5" xmlns="http://www.w3.org/2000/svg" />
  <path d="M12 19l5 3" xmlns="http://www.w3.org/2000/svg" />
  <path d="M17 16.5l5 -3" xmlns="http://www.w3.org/2000/svg" />
  <path d="M12 13.5v-5.5l-5 -3l5 -3l5 3v5.5" xmlns="http://www.w3.org/2000/svg" />
  <path d="M7 5.03v5.455" xmlns="http://www.w3.org/2000/svg" />
  <path d="M12 8l5 -3" xmlns="http://www.w3.org/2000/svg" />
</svg>
