<svg xmlns="http://www.w3.org/2000/svg" viewBox="0 0 24 24" preserveAspectRatio="xMidYMid meet">
<path stroke="none" d="M0 0h24v24H0z" fill="none" xmlns="http://www.w3.org/2000/svg" />
  <path d="M5 5a2 2 0 0 1 2 -2h10a2 2 0 0 1 2 2v2a2 2 0 0 1 -2 2h-10a2 2 0 0 1 -2 -2l0 -2" xmlns="http://www.w3.org/2000/svg" />
  <path d="M19 6h1a2 2 0 0 1 2 2a5 5 0 0 1 -5 5l-5 0v2" xmlns="http://www.w3.org/2000/svg" />
  <path d="M10 16a1 1 0 0 1 1 -1h2a1 1 0 0 1 1 1v4a1 1 0 0 1 -1 1h-2a1 1 0 0 1 -1 -1l0 -4" xmlns="http://www.w3.org/2000/svg" />
</svg>
