<svg xmlns="http://www.w3.org/2000/svg" viewBox="0 0 24 24" preserveAspectRatio="xMidYMid meet">
<path stroke="none" d="M0 0h24v24H0z" fill="none" xmlns="http://www.w3.org/2000/svg" />
  <path d="M12 17v4" xmlns="http://www.w3.org/2000/svg" />
  <path d="M10 20l4 -2" xmlns="http://www.w3.org/2000/svg" />
  <path d="M10 18l4 2" xmlns="http://www.w3.org/2000/svg" />
  <path d="M5 17v4" xmlns="http://www.w3.org/2000/svg" />
  <path d="M3 20l4 -2" xmlns="http://www.w3.org/2000/svg" />
  <path d="M3 18l4 2" xmlns="http://www.w3.org/2000/svg" />
  <path d="M19 17v4" xmlns="http://www.w3.org/2000/svg" />
  <path d="M17 20l4 -2" xmlns="http://www.w3.org/2000/svg" />
  <path d="M17 18l4 2" xmlns="http://www.w3.org/2000/svg" />
  <path d="M7 14v-8a2 2 0 0 1 2 -2h6a2 2 0 0 1 2 2v8" xmlns="http://www.w3.org/2000/svg" />
  <path d="M11 5h2" xmlns="http://www.w3.org/2000/svg" />
  <path d="M12 17v.01" xmlns="http://www.w3.org/2000/svg" />
</svg>
