<svg xmlns="http://www.w3.org/2000/svg" viewBox="0 0 24 24" preserveAspectRatio="xMidYMid meet">
<path stroke="none" d="M0 0h24v24H0z" fill="none" xmlns="http://www.w3.org/2000/svg" />
  <path d="M17 8c.788 1 1 2 1 3v1" xmlns="http://www.w3.org/2000/svg" />
  <path d="M9 11c0 -1.578 1.343 -3 3 -3s3 1.422 3 3v2" xmlns="http://www.w3.org/2000/svg" />
  <path d="M12 11v2" xmlns="http://www.w3.org/2000/svg" />
  <path d="M6 12v-1.397c-.006 -1.999 1.136 -3.849 2.993 -4.85a6.385 6.385 0 0 1 6.007 -.005" xmlns="http://www.w3.org/2000/svg" />
  <path d="M12 17v4" xmlns="http://www.w3.org/2000/svg" />
  <path d="M10 20l4 -2" xmlns="http://www.w3.org/2000/svg" />
  <path d="M10 18l4 2" xmlns="http://www.w3.org/2000/svg" />
  <path d="M5 17v4" xmlns="http://www.w3.org/2000/svg" />
  <path d="M3 20l4 -2" xmlns="http://www.w3.org/2000/svg" />
  <path d="M3 18l4 2" xmlns="http://www.w3.org/2000/svg" />
  <path d="M19 17v4" xmlns="http://www.w3.org/2000/svg" />
  <path d="M17 20l4 -2" xmlns="http://www.w3.org/2000/svg" />
  <path d="M17 18l4 2" xmlns="http://www.w3.org/2000/svg" />
</svg>
