<svg xmlns="http://www.w3.org/2000/svg" viewBox="0 0 24 24" preserveAspectRatio="xMidYMid meet">
<path stroke="none" d="M0 0h24v24H0z" fill="none" xmlns="http://www.w3.org/2000/svg" />
  <path d="M10 6v3" xmlns="http://www.w3.org/2000/svg" />
  <path d="M14 6v3" xmlns="http://www.w3.org/2000/svg" />
  <path d="M5 11a2 2 0 0 1 2 -2h10a2 2 0 0 1 2 2v8a2 2 0 0 1 -2 2h-10a2 2 0 0 1 -2 -2l0 -8" xmlns="http://www.w3.org/2000/svg" />
  <path d="M10 15a2 2 0 1 0 4 0a2 2 0 1 0 -4 0" xmlns="http://www.w3.org/2000/svg" />
  <path d="M9 3h6v3h-6l0 -3" xmlns="http://www.w3.org/2000/svg" />
</svg>
