<svg xmlns="http://www.w3.org/2000/svg" viewBox="0 0 24 24" preserveAspectRatio="xMidYMid meet">
<path stroke="none" d="M0 0h24v24H0z" fill="none" xmlns="http://www.w3.org/2000/svg" />
  <path d="M17 4h1a2 2 0 0 1 2 2v1" xmlns="http://www.w3.org/2000/svg" />
  <path d="M20 17v1a2 2 0 0 1 -2 2h-1" xmlns="http://www.w3.org/2000/svg" />
  <path d="M7 20h-1a2 2 0 0 1 -2 -2v-1" xmlns="http://www.w3.org/2000/svg" />
  <path d="M4 7v-1a2 2 0 0 1 2 -2h1" xmlns="http://www.w3.org/2000/svg" />
  <path d="M9 12a3 3 0 1 0 6 0a3 3 0 1 0 -6 0" xmlns="http://www.w3.org/2000/svg" />
  <path d="M12 18v2" xmlns="http://www.w3.org/2000/svg" />
  <path d="M4 12h2" xmlns="http://www.w3.org/2000/svg" />
  <path d="M12 4v2" xmlns="http://www.w3.org/2000/svg" />
  <path d="M20 12h-2" xmlns="http://www.w3.org/2000/svg" />
</svg>
