<svg xmlns="http://www.w3.org/2000/svg" viewBox="0 0 24 24" preserveAspectRatio="xMidYMid meet">
<path stroke="none" d="M0 0h24v24H0z" fill="none" xmlns="http://www.w3.org/2000/svg" />
  <path d="M17 5h2a2 2 0 0 1 2 2v2" xmlns="http://www.w3.org/2000/svg" />
  <path d="M21 15v2a2 2 0 0 1 -2 2h-2" xmlns="http://www.w3.org/2000/svg" />
  <path d="M7 19h-2a2 2 0 0 1 -2 -2v-2" xmlns="http://www.w3.org/2000/svg" />
  <path d="M3 9v-2a2 2 0 0 1 2 -2h2" xmlns="http://www.w3.org/2000/svg" />
  <path d="M7 10a1 1 0 0 1 1 -1h8a1 1 0 0 1 1 1v4a1 1 0 0 1 -1 1h-8a1 1 0 0 1 -1 -1l0 -4" xmlns="http://www.w3.org/2000/svg" />
</svg>
