<svg xmlns="http://www.w3.org/2000/svg" viewBox="0 0 24 24" preserveAspectRatio="xMidYMid meet">
<path stroke="none" d="M0 0h24v24H0z" fill="none" xmlns="http://www.w3.org/2000/svg" />
  <path d="M6 18h5" xmlns="http://www.w3.org/2000/svg" />
  <path d="M14 18h4" xmlns="http://www.w3.org/2000/svg" />
  <path d="M15 7h.01" xmlns="http://www.w3.org/2000/svg" />
  <path d="M3 6a3 3 0 0 1 3 -3h12a3 3 0 0 1 3 3v12a3 3 0 0 1 -3 3h-12a3 3 0 0 1 -3 -3v-12" xmlns="http://www.w3.org/2000/svg" />
  <path d="M3 15l5 -5c.928 -.893 2.072 -.893 3 0l5 5" xmlns="http://www.w3.org/2000/svg" />
  <path d="M14 13l1 -1c.928 -.893 2.072 -.893 3 0l3 3" xmlns="http://www.w3.org/2000/svg" />
  <path d="M3 15h18" xmlns="http://www.w3.org/2000/svg" />
</svg>
