<svg xmlns="http://www.w3.org/2000/svg" viewBox="0 0 24 24" preserveAspectRatio="xMidYMid meet">
<path stroke="none" d="M0 0h24v24H0z" fill="none" xmlns="http://www.w3.org/2000/svg" />
  <path d="M3 12a9 9 0 1 0 18 0a9 9 0 1 0 -18 0" xmlns="http://www.w3.org/2000/svg" />
  <path d="M7 12a5 5 0 1 0 10 0a5 5 0 1 0 -10 0" xmlns="http://www.w3.org/2000/svg" />
  <path d="M12 3v4" xmlns="http://www.w3.org/2000/svg" />
  <path d="M12 17v4" xmlns="http://www.w3.org/2000/svg" />
  <path d="M3 12h4" xmlns="http://www.w3.org/2000/svg" />
  <path d="M17 12h4" xmlns="http://www.w3.org/2000/svg" />
  <path d="M18.364 5.636l-2.828 2.828" xmlns="http://www.w3.org/2000/svg" />
  <path d="M8.464 15.536l-2.828 2.828" xmlns="http://www.w3.org/2000/svg" />
  <path d="M5.636 5.636l2.828 2.828" xmlns="http://www.w3.org/2000/svg" />
  <path d="M15.536 15.536l2.828 2.828" xmlns="http://www.w3.org/2000/svg" />
</svg>
