<svg xmlns="http://www.w3.org/2000/svg" viewBox="0 0 24 24" preserveAspectRatio="xMidYMid meet">
<path stroke="none" d="M0 0h24v24H0z" fill="none" xmlns="http://www.w3.org/2000/svg" />
  <path d="M10 5a2 2 0 1 0 4 0a2 2 0 1 0 -4 0" xmlns="http://www.w3.org/2000/svg" />
  <path d="M17 8a2 2 0 1 0 4 0a2 2 0 1 0 -4 0" xmlns="http://www.w3.org/2000/svg" />
  <path d="M3 11a2 2 0 1 0 4 0a2 2 0 1 0 -4 0" xmlns="http://www.w3.org/2000/svg" />
  <path d="M13 19a2 2 0 1 0 4 0a2 2 0 1 0 -4 0" xmlns="http://www.w3.org/2000/svg" />
  <path d="M6.5 9.5l3.5 -3" xmlns="http://www.w3.org/2000/svg" />
  <path d="M14 5.5l3 1.5" xmlns="http://www.w3.org/2000/svg" />
  <path d="M18.5 10l-2.5 7" xmlns="http://www.w3.org/2000/svg" />
  <path d="M13.5 17.5l-7 -5" xmlns="http://www.w3.org/2000/svg" />
</svg>
