<svg xmlns="http://www.w3.org/2000/svg" viewBox="0 0 24 24" preserveAspectRatio="xMidYMid meet">
<path stroke="none" d="M0 0h24v24H0z" fill="none" xmlns="http://www.w3.org/2000/svg" />
  <path d="M4 5a1 1 0 0 1 1 -1h4a1 1 0 0 1 1 1v4a1 1 0 0 1 -1 1h-4a1 1 0 0 1 -1 -1l0 -4" xmlns="http://www.w3.org/2000/svg" />
  <path d="M7 17l0 .01" xmlns="http://www.w3.org/2000/svg" />
  <path d="M14 5a1 1 0 0 1 1 -1h4a1 1 0 0 1 1 1v4a1 1 0 0 1 -1 1h-4a1 1 0 0 1 -1 -1l0 -4" xmlns="http://www.w3.org/2000/svg" />
  <path d="M7 7l0 .01" xmlns="http://www.w3.org/2000/svg" />
  <path d="M4 15a1 1 0 0 1 1 -1h4a1 1 0 0 1 1 1v4a1 1 0 0 1 -1 1h-4a1 1 0 0 1 -1 -1l0 -4" xmlns="http://www.w3.org/2000/svg" />
  <path d="M17 7l0 .01" xmlns="http://www.w3.org/2000/svg" />
  <path d="M14 14l3 0" xmlns="http://www.w3.org/2000/svg" />
  <path d="M20 14l0 .01" xmlns="http://www.w3.org/2000/svg" />
  <path d="M14 14l0 3" xmlns="http://www.w3.org/2000/svg" />
  <path d="M14 20l3 0" xmlns="http://www.w3.org/2000/svg" />
  <path d="M17 17l3 0" xmlns="http://www.w3.org/2000/svg" />
  <path d="M20 17l0 3" xmlns="http://www.w3.org/2000/svg" />
</svg>
