<svg xmlns="http://www.w3.org/2000/svg" viewBox="0 0 24 24" preserveAspectRatio="xMidYMid meet">
<path stroke="none" d="M0 0h24v24H0z" fill="none" xmlns="http://www.w3.org/2000/svg" />
  <path d="M8 4h1a1 1 0 0 1 1 1v1m-.297 3.711a1 1 0 0 1 -.703 .289h-4a1 1 0 0 1 -1 -1v-4c0 -.275 .11 -.524 .29 -.705" xmlns="http://www.w3.org/2000/svg" />
  <path d="M7 17v.01" xmlns="http://www.w3.org/2000/svg" />
  <path d="M14 5a1 1 0 0 1 1 -1h4a1 1 0 0 1 1 1v4a1 1 0 0 1 -1 1h-4a1 1 0 0 1 -1 -1l0 -4" xmlns="http://www.w3.org/2000/svg" />
  <path d="M7 7v.01" xmlns="http://www.w3.org/2000/svg" />
  <path d="M4 15a1 1 0 0 1 1 -1h4a1 1 0 0 1 1 1v4a1 1 0 0 1 -1 1h-4a1 1 0 0 1 -1 -1l0 -4" xmlns="http://www.w3.org/2000/svg" />
  <path d="M17 7v.01" xmlns="http://www.w3.org/2000/svg" />
  <path d="M20 14v.01" xmlns="http://www.w3.org/2000/svg" />
  <path d="M14 14v3" xmlns="http://www.w3.org/2000/svg" />
  <path d="M14 20h3" xmlns="http://www.w3.org/2000/svg" />
  <path d="M3 3l18 18" xmlns="http://www.w3.org/2000/svg" />
</svg>
