<svg xmlns="http://www.w3.org/2000/svg" viewBox="0 0 24 24" preserveAspectRatio="xMidYMid meet">
<path stroke="none" d="M0 0h24v24H0z" fill="none" xmlns="http://www.w3.org/2000/svg" />
  <path d="M3 16a1 1 0 0 1 1 -1h2a1 1 0 0 1 1 1v2a1 1 0 0 1 -1 1h-2a1 1 0 0 1 -1 -1l0 -2" xmlns="http://www.w3.org/2000/svg" />
  <path d="M10 16a1 1 0 0 1 1 -1h2a1 1 0 0 1 1 1v2a1 1 0 0 1 -1 1h-2a1 1 0 0 1 -1 -1l0 -2" xmlns="http://www.w3.org/2000/svg" />
  <path d="M17 16a1 1 0 0 1 1 -1h2a1 1 0 0 1 1 1v2a1 1 0 0 1 -1 1h-2a1 1 0 0 1 -1 -1l0 -2" xmlns="http://www.w3.org/2000/svg" />
  <path d="M5 11v-3a3 3 0 0 1 3 -3h8a3 3 0 0 1 3 3v3" xmlns="http://www.w3.org/2000/svg" />
  <path d="M16.5 8.5l2.5 2.5l2.5 -2.5" xmlns="http://www.w3.org/2000/svg" />
</svg>
