<svg xmlns="http://www.w3.org/2000/svg" viewBox="0 0 24 24" preserveAspectRatio="xMidYMid meet">
<path stroke="none" d="M0 0h24v24H0z" fill="none" xmlns="http://www.w3.org/2000/svg" />
  <path d="M19.007 16.466a6 6 0 0 0 -4.007 -10.466h-11" xmlns="http://www.w3.org/2000/svg" />
  <path d="M7 9l-3 -3l3 -3" xmlns="http://www.w3.org/2000/svg" />
  <path d="M12 15.5v3a1.5 1.5 0 0 0 3 0v-3a1.5 1.5 0 0 0 -3 0" xmlns="http://www.w3.org/2000/svg" />
  <path d="M9 14h-2a1 1 0 0 0 -1 1v4a1 1 0 0 0 1 1h1a1 1 0 0 0 1 -1v-1a1 1 0 0 0 -1 -1h-2" xmlns="http://www.w3.org/2000/svg" />
</svg>
