<svg xmlns="http://www.w3.org/2000/svg" viewBox="0 0 24 24" preserveAspectRatio="xMidYMid meet">
<path stroke="none" d="M0 0h24v24H0z" fill="none" xmlns="http://www.w3.org/2000/svg" />
  <path d="M6 6a2 2 0 0 1 2 -2h8a2 2 0 0 1 2 2v4a2 2 0 0 1 -2 2h-8a2 2 0 0 1 -2 -2l0 -4" xmlns="http://www.w3.org/2000/svg" />
  <path d="M12 2v2" xmlns="http://www.w3.org/2000/svg" />
  <path d="M9 12v9" xmlns="http://www.w3.org/2000/svg" />
  <path d="M15 12v9" xmlns="http://www.w3.org/2000/svg" />
  <path d="M5 16l4 -2" xmlns="http://www.w3.org/2000/svg" />
  <path d="M15 14l4 2" xmlns="http://www.w3.org/2000/svg" />
  <path d="M9 18h6" xmlns="http://www.w3.org/2000/svg" />
  <path d="M10 8v.01" xmlns="http://www.w3.org/2000/svg" />
  <path d="M14 8v.01" xmlns="http://www.w3.org/2000/svg" />
</svg>
