<svg xmlns="http://www.w3.org/2000/svg" viewBox="0 0 24 24" preserveAspectRatio="xMidYMid meet">
<path stroke="none" d="M0 0h24v24H0z" fill="none" xmlns="http://www.w3.org/2000/svg" />
  <path d="M10.586 10.586l-1.586 -1.586" xmlns="http://www.w3.org/2000/svg" />
  <path d="M13.414 10.586l1.586 -1.586" xmlns="http://www.w3.org/2000/svg" />
  <path d="M13.414 13.414l1.586 1.586" xmlns="http://www.w3.org/2000/svg" />
  <path d="M10.586 13.414l-1.586 1.586" xmlns="http://www.w3.org/2000/svg" />
  <path d="M14 12a2 2 0 1 1 -4 0a2 2 0 0 1 4 0" xmlns="http://www.w3.org/2000/svg" />
  <path d="M16.5 4.206l-.5 .866" xmlns="http://www.w3.org/2000/svg" />
  <path d="M7.5 19.794l.5 -.866" xmlns="http://www.w3.org/2000/svg" />
  <path d="M19.794 7.5l-.866 .5" xmlns="http://www.w3.org/2000/svg" />
  <path d="M4.206 16.5l.866 -.5" xmlns="http://www.w3.org/2000/svg" />
  <path d="M7.5 4.206l.5 .866" xmlns="http://www.w3.org/2000/svg" />
  <path d="M16.5 19.794l-.5 -.866" xmlns="http://www.w3.org/2000/svg" />
  <path d="M4.206 7.5l.866 .5" xmlns="http://www.w3.org/2000/svg" />
  <path d="M19.794 16.5l-.866 -.5" xmlns="http://www.w3.org/2000/svg" />
  <path d="M12 3v1" xmlns="http://www.w3.org/2000/svg" />
  <path d="M12 21v-1" xmlns="http://www.w3.org/2000/svg" />
  <path d="M21 12h-1" xmlns="http://www.w3.org/2000/svg" />
  <path d="M3 12h1" xmlns="http://www.w3.org/2000/svg" />
  <path d="M12 21a9 9 0 1 1 0 -18a9 9 0 0 1 0 18" xmlns="http://www.w3.org/2000/svg" />
</svg>
