<svg xmlns="http://www.w3.org/2000/svg" viewBox="0 0 24 24" preserveAspectRatio="xMidYMid meet">
<path stroke="none" d="M0 0h24v24H0z" fill="none" xmlns="http://www.w3.org/2000/svg" />
  <path d="M3 15a2 2 0 0 1 2 -2h14a2 2 0 0 1 2 2v4a2 2 0 0 1 -2 2h-14a2 2 0 0 1 -2 -2l0 -4" xmlns="http://www.w3.org/2000/svg" />
  <path d="M17 17l0 .01" xmlns="http://www.w3.org/2000/svg" />
  <path d="M13 17l0 .01" xmlns="http://www.w3.org/2000/svg" />
  <path d="M15 13l0 -2" xmlns="http://www.w3.org/2000/svg" />
  <path d="M11.75 8.75a4 4 0 0 1 6.5 0" xmlns="http://www.w3.org/2000/svg" />
  <path d="M8.5 6.5a8 8 0 0 1 13 0" xmlns="http://www.w3.org/2000/svg" />
</svg>
