<svg xmlns="http://www.w3.org/2000/svg" viewBox="0 0 24 24" preserveAspectRatio="xMidYMid meet">
<path stroke="none" d="M0 0h24v24H0z" fill="none" xmlns="http://www.w3.org/2000/svg" />
  <path d="M3 7v-2a2 2 0 0 1 2 -2h2" xmlns="http://www.w3.org/2000/svg" />
  <path d="M3 17v2a2 2 0 0 0 2 2h2" xmlns="http://www.w3.org/2000/svg" />
  <path d="M17 3h2a2 2 0 0 1 2 2v2" xmlns="http://www.w3.org/2000/svg" />
  <path d="M17 21h2a2 2 0 0 0 2 -2v-2" xmlns="http://www.w3.org/2000/svg" />
  <path d="M7 12v-3h3" xmlns="http://www.w3.org/2000/svg" />
  <path d="M14 9h3v3" xmlns="http://www.w3.org/2000/svg" />
  <path d="M7 9l4.414 4.414a2 2 0 0 1 .586 1.414v2.172" xmlns="http://www.w3.org/2000/svg" />
  <path d="M17 9l-4.414 4.414a2 2 0 0 0 -.586 1.414v2.172" xmlns="http://www.w3.org/2000/svg" />
</svg>
