<svg xmlns="http://www.w3.org/2000/svg" viewBox="0 0 24 24" preserveAspectRatio="xMidYMid meet">
<path stroke="none" d="M0 0h24v24H0z" fill="none" xmlns="http://www.w3.org/2000/svg" />
  <path d="M5 17a2 2 0 1 0 4 0a2 2 0 1 0 -4 0" xmlns="http://www.w3.org/2000/svg" />
  <path d="M15 17a2 2 0 1 0 4 0a2 2 0 1 0 -4 0" xmlns="http://www.w3.org/2000/svg" />
  <path d="M9 17h6" xmlns="http://www.w3.org/2000/svg" />
  <path d="M19 17h1a1 1 0 0 0 1 -1v-4.528a2 2 0 0 0 -.211 -.894l-.96 -1.92a3 3 0 0 0 -2.683 -1.658h-11.146a3 3 0 0 0 -3 3v6a1 1 0 0 0 1 1h1" xmlns="http://www.w3.org/2000/svg" />
  <path d="M3 12h18" xmlns="http://www.w3.org/2000/svg" />
  <path d="M15 12v-5" xmlns="http://www.w3.org/2000/svg" />
  <path d="M6 5.5a1.5 1.5 0 0 1 1.5 -1.5h7a1.5 1.5 0 0 1 1.5 1.5a1.5 1.5 0 0 1 -1.5 1.5h-7a1.5 1.5 0 0 1 -1.5 -1.5" xmlns="http://www.w3.org/2000/svg" />
</svg>
