<svg xmlns="http://www.w3.org/2000/svg" viewBox="0 0 24 24" preserveAspectRatio="xMidYMid meet">
<path stroke="none" d="M0 0h24v24H0z" fill="none" xmlns="http://www.w3.org/2000/svg" />
  <path d="M2 20a2.4 2.4 0 0 0 2 1a2.4 2.4 0 0 0 2 -1a2.4 2.4 0 0 1 2 -1a2.4 2.4 0 0 1 2 1a2.4 2.4 0 0 0 2 1a2.4 2.4 0 0 0 2 -1a2.4 2.4 0 0 1 2 -1a2.4 2.4 0 0 1 2 1a2.4 2.4 0 0 0 2 1a2.4 2.4 0 0 0 2 -1" xmlns="http://www.w3.org/2000/svg" />
  <path d="M4 18l-1 -3h18l-1 3" xmlns="http://www.w3.org/2000/svg" />
  <path d="M11 12h7l-7 -9v9" xmlns="http://www.w3.org/2000/svg" />
  <path d="M8 7l-2 5" xmlns="http://www.w3.org/2000/svg" />
</svg>
