<svg xmlns="http://www.w3.org/2000/svg" viewBox="0 0 24 24" preserveAspectRatio="xMidYMid meet">
<path stroke="none" d="M0 0h24v24H0z" fill="none" xmlns="http://www.w3.org/2000/svg" />
  <path d="M3 7a2 2 0 0 1 2 -2h14a2 2 0 0 1 2 2v10a2 2 0 0 1 -2 2h-14a2 2 0 0 1 -2 -2v-10" xmlns="http://www.w3.org/2000/svg" />
  <path d="M12 5v2" xmlns="http://www.w3.org/2000/svg" />
  <path d="M12 10v1" xmlns="http://www.w3.org/2000/svg" />
  <path d="M12 14v1" xmlns="http://www.w3.org/2000/svg" />
  <path d="M12 18v1" xmlns="http://www.w3.org/2000/svg" />
  <path d="M7 3v2" xmlns="http://www.w3.org/2000/svg" />
  <path d="M17 3v2" xmlns="http://www.w3.org/2000/svg" />
  <path d="M15 10.5v3a1.5 1.5 0 0 0 3 0v-3a1.5 1.5 0 0 0 -3 0" xmlns="http://www.w3.org/2000/svg" />
  <path d="M6 9h1.5a1.5 1.5 0 0 1 0 3h-.5h.5a1.5 1.5 0 0 1 0 3h-1.5" xmlns="http://www.w3.org/2000/svg" />
</svg>
