<svg xmlns="http://www.w3.org/2000/svg" viewBox="0 0 24 24" preserveAspectRatio="xMidYMid meet">
<path stroke="none" d="M0 0h24v24H0z" fill="none" xmlns="http://www.w3.org/2000/svg" />
  <path d="M7 8h-3a1 1 0 0 0 -1 1v2a1 1 0 0 0 1 1h2a1 1 0 0 1 1 1v2a1 1 0 0 1 -1 1h-3" xmlns="http://www.w3.org/2000/svg" />
  <path d="M14 16h-4v-8h4" xmlns="http://www.w3.org/2000/svg" />
  <path d="M11 12h2" xmlns="http://www.w3.org/2000/svg" />
  <path d="M17 9a1 1 0 0 1 1 -1h2a1 1 0 0 1 1 1v6a1 1 0 0 1 -1 1h-2a1 1 0 0 1 -1 -1l0 -6" xmlns="http://www.w3.org/2000/svg" />
</svg>
