<svg xmlns="http://www.w3.org/2000/svg" viewBox="0 0 24 24" preserveAspectRatio="xMidYMid meet">
<path stroke="none" d="M0 0h24v24H0z" fill="none" xmlns="http://www.w3.org/2000/svg" />
  <path d="M3 7a3 3 0 0 1 3 -3h12a3 3 0 0 1 3 3v2a3 3 0 0 1 -3 3h-12a3 3 0 0 1 -3 -3v-2" xmlns="http://www.w3.org/2000/svg" />
  <path d="M12 20h-6a3 3 0 0 1 -3 -3v-2a3 3 0 0 1 3 -3h10.5" xmlns="http://www.w3.org/2000/svg" />
  <path d="M16 18a2 2 0 1 0 4 0a2 2 0 1 0 -4 0" xmlns="http://www.w3.org/2000/svg" />
  <path d="M18 14.5v1.5" xmlns="http://www.w3.org/2000/svg" />
  <path d="M18 20v1.5" xmlns="http://www.w3.org/2000/svg" />
  <path d="M21.032 16.25l-1.299 .75" xmlns="http://www.w3.org/2000/svg" />
  <path d="M16.27 19l-1.3 .75" xmlns="http://www.w3.org/2000/svg" />
  <path d="M14.97 16.25l1.3 .75" xmlns="http://www.w3.org/2000/svg" />
  <path d="M19.733 19l1.3 .75" xmlns="http://www.w3.org/2000/svg" />
  <path d="M7 8v.01" xmlns="http://www.w3.org/2000/svg" />
  <path d="M7 16v.01" xmlns="http://www.w3.org/2000/svg" />
</svg>
