<svg xmlns="http://www.w3.org/2000/svg" viewBox="0 0 24 24" preserveAspectRatio="xMidYMid meet">
<path stroke="none" d="M0 0h24v24H0z" fill="none" xmlns="http://www.w3.org/2000/svg" />
  <path d="M3 7a3 3 0 0 1 3 -3h12a3 3 0 0 1 3 3v2a3 3 0 0 1 -3 3h-12a3 3 0 0 1 -3 -3" xmlns="http://www.w3.org/2000/svg" />
  <path d="M15 20h-9a3 3 0 0 1 -3 -3v-2a3 3 0 0 1 3 -3h12" xmlns="http://www.w3.org/2000/svg" />
  <path d="M7 8v.01" xmlns="http://www.w3.org/2000/svg" />
  <path d="M7 16v.01" xmlns="http://www.w3.org/2000/svg" />
  <path d="M20 15l-2 3h3l-2 3" xmlns="http://www.w3.org/2000/svg" />
</svg>
