<svg xmlns="http://www.w3.org/2000/svg" viewBox="0 0 24 24" preserveAspectRatio="xMidYMid meet">
<path stroke="none" d="M0 0h24v24H0z" fill="none" xmlns="http://www.w3.org/2000/svg" />
  <path d="M3 7a3 3 0 0 1 3 -3h12a3 3 0 0 1 3 3v2a3 3 0 0 1 -3 3h-12a3 3 0 0 1 -3 -3" xmlns="http://www.w3.org/2000/svg" />
  <path d="M3 15a3 3 0 0 1 3 -3h12a3 3 0 0 1 3 3v2a3 3 0 0 1 -3 3h-12a3 3 0 0 1 -3 -3l0 -2" xmlns="http://www.w3.org/2000/svg" />
  <path d="M7 8l0 .01" xmlns="http://www.w3.org/2000/svg" />
  <path d="M7 16l0 .01" xmlns="http://www.w3.org/2000/svg" />
</svg>
