<svg xmlns="http://www.w3.org/2000/svg" viewBox="0 0 24 24" preserveAspectRatio="xMidYMid meet">
<path stroke="none" d="M0 0h24v24H0z" fill="none" xmlns="http://www.w3.org/2000/svg" />
  <path d="M3.575 3.597a2 2 0 0 0 2.849 2.808" xmlns="http://www.w3.org/2000/svg" />
  <path d="M17 5a2 2 0 1 0 4 0a2 2 0 1 0 -4 0" xmlns="http://www.w3.org/2000/svg" />
  <path d="M3 19a2 2 0 1 0 4 0a2 2 0 1 0 -4 0" xmlns="http://www.w3.org/2000/svg" />
  <path d="M17.574 17.598a2 2 0 0 0 2.826 2.83" xmlns="http://www.w3.org/2000/svg" />
  <path d="M5 7v10" xmlns="http://www.w3.org/2000/svg" />
  <path d="M9 5h8" xmlns="http://www.w3.org/2000/svg" />
  <path d="M7 19h10" xmlns="http://www.w3.org/2000/svg" />
  <path d="M19 7v8" xmlns="http://www.w3.org/2000/svg" />
  <path d="M3 3l18 18" xmlns="http://www.w3.org/2000/svg" />
</svg>
