<svg xmlns="http://www.w3.org/2000/svg" viewBox="0 0 24 24" preserveAspectRatio="xMidYMid meet">
<path stroke="none" d="M0 0h24v24H0z" fill="none" xmlns="http://www.w3.org/2000/svg" />
  <path d="M12.277 20.925c-.092 .026 -.184 .051 -.277 .075a12 12 0 0 1 -8.5 -15a12 12 0 0 0 8.5 -3a12 12 0 0 0 8.5 3a12 12 0 0 1 .145 6.232" xmlns="http://www.w3.org/2000/svg" />
  <path d="M16 19a3 3 0 1 0 6 0a3 3 0 1 0 -6 0" xmlns="http://www.w3.org/2000/svg" />
  <path d="M17 21l4 -4" xmlns="http://www.w3.org/2000/svg" />
</svg>
