<svg xmlns="http://www.w3.org/2000/svg" viewBox="0 0 24 24" preserveAspectRatio="xMidYMid meet">
<path stroke="none" d="M0 0h24v24H0z" fill="none" xmlns="http://www.w3.org/2000/svg" />
  <path d="M12 21a12 12 0 0 1 -8.5 -15a12 12 0 0 0 8.5 -3a12 12 0 0 0 8.5 3c.568 1.933 .635 3.957 .223 5.89" xmlns="http://www.w3.org/2000/svg" />
  <path d="M17.001 19a2 2 0 1 0 4 0a2 2 0 1 0 -4 0" xmlns="http://www.w3.org/2000/svg" />
  <path d="M19.001 15.5v1.5" xmlns="http://www.w3.org/2000/svg" />
  <path d="M19.001 21v1.5" xmlns="http://www.w3.org/2000/svg" />
  <path d="M22.032 17.25l-1.299 .75" xmlns="http://www.w3.org/2000/svg" />
  <path d="M17.27 20l-1.3 .75" xmlns="http://www.w3.org/2000/svg" />
  <path d="M15.97 17.25l1.3 .75" xmlns="http://www.w3.org/2000/svg" />
  <path d="M20.733 20l1.3 .75" xmlns="http://www.w3.org/2000/svg" />
</svg>
