<svg xmlns="http://www.w3.org/2000/svg" viewBox="0 0 24 24" preserveAspectRatio="xMidYMid meet">
<path stroke="none" d="M0 0h24v24H0z" fill="none" xmlns="http://www.w3.org/2000/svg" />
  <path d="M2 20a2.4 2.4 0 0 0 2 1a2.4 2.4 0 0 0 2 -1a2.4 2.4 0 0 1 2 -1a2.4 2.4 0 0 1 2 1a2.4 2.4 0 0 0 2 1a2.4 2.4 0 0 0 2 -1a2.4 2.4 0 0 1 2 -1a2.4 2.4 0 0 1 2 1a2.4 2.4 0 0 0 2 1a2.4 2.4 0 0 0 2 -1" xmlns="http://www.w3.org/2000/svg" />
  <path d="M4 18l-1 -5h18l-2 4" xmlns="http://www.w3.org/2000/svg" />
  <path d="M5 13v-6h8l4 6" xmlns="http://www.w3.org/2000/svg" />
  <path d="M7 7v-4h-1" xmlns="http://www.w3.org/2000/svg" />
</svg>
