<svg xmlns="http://www.w3.org/2000/svg" viewBox="0 0 24 24" preserveAspectRatio="xMidYMid meet">
<path stroke="none" d="M0 0h24v24H0z" fill="none" xmlns="http://www.w3.org/2000/svg" />
  <path d="M5.5 15h3.5l.75 -1.5" xmlns="http://www.w3.org/2000/svg" />
  <path d="M14 19v-5l-2.5 -3l2.5 -4" xmlns="http://www.w3.org/2000/svg" />
  <path d="M8 8l3 -1h4l1 3h3" xmlns="http://www.w3.org/2000/svg" />
  <path d="M17.5 21a.5 .5 0 1 0 0 -1a.5 .5 0 0 0 0 1" xmlns="http://www.w3.org/2000/svg" />
  <path d="M3 18c0 .552 .895 1 2 1h14c1.105 0 2 -.448 2 -1" xmlns="http://www.w3.org/2000/svg" />
  <path d="M6.5 21a.5 .5 0 1 0 0 -1a.5 .5 0 0 0 0 1" xmlns="http://www.w3.org/2000/svg" />
  <path d="M14.007 4a2 2 0 1 0 4 0a2 2 0 1 0 -4 0" xmlns="http://www.w3.org/2000/svg" />
</svg>
