<svg xmlns="http://www.w3.org/2000/svg" viewBox="0 0 24 24" preserveAspectRatio="xMidYMid meet">
<path stroke="none" d="M0 0h24v24H0z" fill="none" xmlns="http://www.w3.org/2000/svg" />
  <path d="M10 5a2 2 0 1 0 4 0a2 2 0 1 0 -4 0" xmlns="http://www.w3.org/2000/svg" />
  <path d="M3 19a2 2 0 1 0 4 0a2 2 0 1 0 -4 0" xmlns="http://www.w3.org/2000/svg" />
  <path d="M17 19a2 2 0 1 0 4 0a2 2 0 1 0 -4 0" xmlns="http://www.w3.org/2000/svg" />
  <path d="M9 14a3 3 0 1 0 6 0a3 3 0 1 0 -6 0" xmlns="http://www.w3.org/2000/svg" />
  <path d="M12 7l0 4" xmlns="http://www.w3.org/2000/svg" />
  <path d="M6.7 17.8l2.8 -2" xmlns="http://www.w3.org/2000/svg" />
  <path d="M17.3 17.8l-2.8 -2" xmlns="http://www.w3.org/2000/svg" />
</svg>
