<svg xmlns="http://www.w3.org/2000/svg" viewBox="0 0 24 24" preserveAspectRatio="xMidYMid meet">
<path stroke="none" d="M0 0h24v24H0z" fill="none" xmlns="http://www.w3.org/2000/svg" />
  <path d="M10 15l-3 3l-3 -3" xmlns="http://www.w3.org/2000/svg" />
  <path d="M7 6v12" xmlns="http://www.w3.org/2000/svg" />
  <path d="M14 18.333c0 .369 .298 .667 .667 .667h2.666a.667 .667 0 0 0 .667 -.667v-2.666a.667 .667 0 0 0 -.667 -.667h-2.666a.667 .667 0 0 0 -.667 .667v2.666" xmlns="http://www.w3.org/2000/svg" />
  <path d="M14 10.833c0 .645 .522 1.167 1.167 1.167h4.666c.645 0 1.167 -.522 1.167 -1.167v-4.666c0 -.645 -.522 -1.167 -1.167 -1.167h-4.666c-.645 0 -1.167 .522 -1.167 1.167v4.666" xmlns="http://www.w3.org/2000/svg" />
</svg>
