<svg xmlns="http://www.w3.org/2000/svg" viewBox="0 0 24 24" preserveAspectRatio="xMidYMid meet">
<path stroke="none" d="M0 0h24v24H0z" fill="none" xmlns="http://www.w3.org/2000/svg" />
  <path d="M5 5.5a.5 .5 0 0 1 .5 -.5h4a.5 .5 0 0 1 .5 .5v4a.5 .5 0 0 1 -.5 .5h-4a.5 .5 0 0 1 -.5 -.5l0 -4" xmlns="http://www.w3.org/2000/svg" />
  <path d="M5 14.5a.5 .5 0 0 1 .5 -.5h4a.5 .5 0 0 1 .5 .5v4a.5 .5 0 0 1 -.5 .5h-4a.5 .5 0 0 1 -.5 -.5l0 -4" xmlns="http://www.w3.org/2000/svg" />
  <path d="M14 15l3 3l3 -3" xmlns="http://www.w3.org/2000/svg" />
  <path d="M17 18v-12" xmlns="http://www.w3.org/2000/svg" />
</svg>
