<svg xmlns="http://www.w3.org/2000/svg" viewBox="0 0 24 24" preserveAspectRatio="xMidYMid meet">
<path stroke="none" d="M0 0h24v24H0z" fill="none" xmlns="http://www.w3.org/2000/svg" />
  <path d="M3 5a2 2 0 0 1 2 -2h14a2 2 0 0 1 2 2v14a2 2 0 0 1 -2 2h-14a2 2 0 0 1 -2 -2v-14" xmlns="http://www.w3.org/2000/svg" />
  <path d="M13 9.5a.5 .5 0 0 1 .5 -.5h1a1.5 1.5 0 0 1 0 3h-.5h.5a1.5 1.5 0 0 1 0 3h-1a.5 .5 0 0 1 -.5 -.5" xmlns="http://www.w3.org/2000/svg" />
  <path d="M8 12h2" xmlns="http://www.w3.org/2000/svg" />
  <path d="M10 9h-2v6" xmlns="http://www.w3.org/2000/svg" />
</svg>
