<svg xmlns="http://www.w3.org/2000/svg" viewBox="0 0 24 24" preserveAspectRatio="xMidYMid meet">
<path stroke="none" d="M0 0h24v24H0z" fill="none" xmlns="http://www.w3.org/2000/svg" />
  <path d="M12 10a2 2 0 1 0 4 0a2 2 0 1 0 -4 0" xmlns="http://www.w3.org/2000/svg" />
  <path d="M12.5 11.5l-4 4l1.5 1.5" xmlns="http://www.w3.org/2000/svg" />
  <path d="M12 15l-1.5 -1.5" xmlns="http://www.w3.org/2000/svg" />
  <path d="M3 5a2 2 0 0 1 2 -2h14a2 2 0 0 1 2 2v14a2 2 0 0 1 -2 2h-14a2 2 0 0 1 -2 -2v-14" xmlns="http://www.w3.org/2000/svg" />
</svg>
