<svg xmlns="http://www.w3.org/2000/svg" viewBox="0 0 24 24" preserveAspectRatio="xMidYMid meet">
<path stroke="none" d="M0 0h24v24H0z" fill="none" xmlns="http://www.w3.org/2000/svg" />
  <path d="M3 5a2 2 0 0 1 2 -2h14a2 2 0 0 1 2 2v14a2 2 0 0 1 -2 2h-14a2 2 0 0 1 -2 -2v-14" xmlns="http://www.w3.org/2000/svg" />
  <path d="M13 9v2a1 1 0 0 0 1 1h1" xmlns="http://www.w3.org/2000/svg" />
  <path d="M16 9v6" xmlns="http://www.w3.org/2000/svg" />
  <path d="M8 12h2" xmlns="http://www.w3.org/2000/svg" />
  <path d="M10 9h-2v6" xmlns="http://www.w3.org/2000/svg" />
</svg>
