<svg xmlns="http://www.w3.org/2000/svg" viewBox="0 0 24 24" preserveAspectRatio="xMidYMid meet">
<path stroke="none" d="M0 0h24v24H0z" fill="none" xmlns="http://www.w3.org/2000/svg" />
  <path d="M8 10a2 2 0 0 1 2 -2h8a2 2 0 0 1 2 2v8a2 2 0 0 1 -2 2h-8a2 2 0 0 1 -2 -2l0 -8" xmlns="http://www.w3.org/2000/svg" />
  <path d="M8 14.5l6.492 -6.492" xmlns="http://www.w3.org/2000/svg" />
  <path d="M13.496 20l6.504 -6.504l-6.504 6.504" xmlns="http://www.w3.org/2000/svg" />
  <path d="M8.586 19.414l10.827 -10.827" xmlns="http://www.w3.org/2000/svg" />
  <path d="M16 8v-2a2 2 0 0 0 -2 -2h-8a2 2 0 0 0 -2 2v8a2 2 0 0 0 2 2h2" xmlns="http://www.w3.org/2000/svg" />
</svg>
