<svg xmlns="http://www.w3.org/2000/svg" viewBox="0 0 24 24" preserveAspectRatio="xMidYMid meet">
<path stroke="none" d="M0 0h24v24H0z" fill="none" xmlns="http://www.w3.org/2000/svg" />
  <path d="M8 3h-2l-3 9" xmlns="http://www.w3.org/2000/svg" />
  <path d="M16 3h2l3 9" xmlns="http://www.w3.org/2000/svg" />
  <path d="M3 12v7a1 1 0 0 0 1 1h4.586a1 1 0 0 0 .707 -.293l2 -2a1 1 0 0 1 1.414 0l2 2a1 1 0 0 0 .707 .293h4.586a1 1 0 0 0 1 -1v-7h-18" xmlns="http://www.w3.org/2000/svg" />
  <path d="M7 16h1" xmlns="http://www.w3.org/2000/svg" />
  <path d="M16 16h1" xmlns="http://www.w3.org/2000/svg" />
</svg>
