<svg xmlns="http://www.w3.org/2000/svg" viewBox="0 0 24 24" preserveAspectRatio="xMidYMid meet">
<path stroke="none" d="M0 0h24v24H0z" fill="none" xmlns="http://www.w3.org/2000/svg" />
  <path d="M11.5 19h-5.5a3 3 0 0 1 -3 -3v-8a3 3 0 0 1 3 -3h12a3 3 0 0 1 3 3v4" xmlns="http://www.w3.org/2000/svg" />
  <path d="M7 15h5" xmlns="http://www.w3.org/2000/svg" />
  <path d="M17 12h-3" xmlns="http://www.w3.org/2000/svg" />
  <path d="M11 12h-1" xmlns="http://www.w3.org/2000/svg" />
  <path d="M19 22.5a4.75 4.75 0 0 1 3.5 -3.5a4.75 4.75 0 0 1 -3.5 -3.5a4.75 4.75 0 0 1 -3.5 3.5a4.75 4.75 0 0 1 3.5 3.5" xmlns="http://www.w3.org/2000/svg" />
</svg>
