<svg xmlns="http://www.w3.org/2000/svg" viewBox="0 0 24 24" preserveAspectRatio="xMidYMid meet">
<path stroke="none" d="M0 0h24v24H0z" fill="none" xmlns="http://www.w3.org/2000/svg" />
  <path d="M9 5h9a3 3 0 0 1 3 3v8a3 3 0 0 1 -.13 .874m-2.006 2a3 3 0 0 1 -.864 .126h-12a3 3 0 0 1 -3 -3v-8c0 -1.35 .893 -2.493 2.12 -2.869" xmlns="http://www.w3.org/2000/svg" />
  <path d="M7 15h5" xmlns="http://www.w3.org/2000/svg" />
  <path d="M17 12h-1" xmlns="http://www.w3.org/2000/svg" />
  <path d="M12 12h-2" xmlns="http://www.w3.org/2000/svg" />
  <path d="M3 3l18 18" xmlns="http://www.w3.org/2000/svg" />
</svg>
