<svg xmlns="http://www.w3.org/2000/svg" viewBox="0 0 24 24" preserveAspectRatio="xMidYMid meet">
<path stroke="none" d="M0 0h24v24H0z" fill="none" xmlns="http://www.w3.org/2000/svg" />
  <path d="M3 5a2 2 0 0 1 2 -2h14a2 2 0 0 1 2 2v14a2 2 0 0 1 -2 2h-14a2 2 0 0 1 -2 -2v-14" xmlns="http://www.w3.org/2000/svg" />
  <path d="M10 10h11" xmlns="http://www.w3.org/2000/svg" />
  <path d="M10 3v18" xmlns="http://www.w3.org/2000/svg" />
  <path d="M9 3l-6 6" xmlns="http://www.w3.org/2000/svg" />
  <path d="M10 7l-7 7" xmlns="http://www.w3.org/2000/svg" />
  <path d="M10 12l-7 7" xmlns="http://www.w3.org/2000/svg" />
  <path d="M10 17l-4 4" xmlns="http://www.w3.org/2000/svg" />
</svg>
