<svg xmlns="http://www.w3.org/2000/svg" viewBox="0 0 24 24" preserveAspectRatio="xMidYMid meet">
<path stroke="none" d="M0 0h24v24H0z" fill="none" xmlns="http://www.w3.org/2000/svg" />
  <path d="M3 12v-7a2 2 0 0 1 2 -2h14a2 2 0 0 1 2 2v14a2 2 0 0 1 -2 2h-7" xmlns="http://www.w3.org/2000/svg" />
  <path d="M3 10h18" xmlns="http://www.w3.org/2000/svg" />
  <path d="M10 3v10" xmlns="http://www.w3.org/2000/svg" />
  <path d="M2 17a1 1 0 0 1 1 -1h4a1 1 0 0 1 1 1v4a1 1 0 0 1 -1 1h-4a1 1 0 0 1 -1 -1v-4" xmlns="http://www.w3.org/2000/svg" />
</svg>
