<svg xmlns="http://www.w3.org/2000/svg" viewBox="0 0 24 24" preserveAspectRatio="xMidYMid meet">
<path stroke="none" d="M0 0h24v24H0z" fill="none" xmlns="http://www.w3.org/2000/svg" />
  <path d="M3 5a2 2 0 1 0 4 0a2 2 0 1 0 -4 0" xmlns="http://www.w3.org/2000/svg" />
  <path d="M17 5a2 2 0 1 0 4 0a2 2 0 1 0 -4 0" xmlns="http://www.w3.org/2000/svg" />
  <path d="M3 19a2 2 0 1 0 4 0a2 2 0 1 0 -4 0" xmlns="http://www.w3.org/2000/svg" />
  <path d="M17 19a2 2 0 1 0 4 0a2 2 0 1 0 -4 0" xmlns="http://www.w3.org/2000/svg" />
  <path d="M5 7v10" xmlns="http://www.w3.org/2000/svg" />
  <path d="M7 5h10" xmlns="http://www.w3.org/2000/svg" />
  <path d="M7 19h10" xmlns="http://www.w3.org/2000/svg" />
  <path d="M19 7v10" xmlns="http://www.w3.org/2000/svg" />
  <path d="M10 10h4" xmlns="http://www.w3.org/2000/svg" />
  <path d="M12 14v-4" xmlns="http://www.w3.org/2000/svg" />
</svg>
