<svg xmlns="http://www.w3.org/2000/svg" viewBox="0 0 24 24" preserveAspectRatio="xMidYMid meet">
<path stroke="none" d="M0 0h24v24H0z" fill="none" xmlns="http://www.w3.org/2000/svg" />
  <path d="M8 12h4.5" xmlns="http://www.w3.org/2000/svg" />
  <path d="M8 8h6" xmlns="http://www.w3.org/2000/svg" />
  <path d="M8 16h2" xmlns="http://www.w3.org/2000/svg" />
  <path d="M3 7v-2a2 2 0 0 1 2 -2h2" xmlns="http://www.w3.org/2000/svg" />
  <path d="M3 17v2a2 2 0 0 0 2 2h2" xmlns="http://www.w3.org/2000/svg" />
  <path d="M17 3h2a2 2 0 0 1 2 2v2" xmlns="http://www.w3.org/2000/svg" />
  <path d="M14 21v-4a2 2 0 1 1 4 0v4" xmlns="http://www.w3.org/2000/svg" />
  <path d="M14 19h4" xmlns="http://www.w3.org/2000/svg" />
  <path d="M21 15v6" xmlns="http://www.w3.org/2000/svg" />
</svg>
