<svg xmlns="http://www.w3.org/2000/svg" viewBox="0 0 24 24" preserveAspectRatio="xMidYMid meet">
<path stroke="none" d="M0 0h24v24H0z" fill="none" xmlns="http://www.w3.org/2000/svg" />
  <path d="M15 5l0 2" xmlns="http://www.w3.org/2000/svg" />
  <path d="M15 11l0 2" xmlns="http://www.w3.org/2000/svg" />
  <path d="M15 17l0 2" xmlns="http://www.w3.org/2000/svg" />
  <path d="M5 5h14a2 2 0 0 1 2 2v3a2 2 0 0 0 0 4v3a2 2 0 0 1 -2 2h-14a2 2 0 0 1 -2 -2v-3a2 2 0 0 0 0 -4v-3a2 2 0 0 1 2 -2" xmlns="http://www.w3.org/2000/svg" />
</svg>
