<svg xmlns="http://www.w3.org/2000/svg" viewBox="0 0 24 24" preserveAspectRatio="xMidYMid meet">
<path stroke="none" d="M0 0h24v24H0z" fill="none" xmlns="http://www.w3.org/2000/svg" />
  <path d="M15 5v2" xmlns="http://www.w3.org/2000/svg" />
  <path d="M15 17v2" xmlns="http://www.w3.org/2000/svg" />
  <path d="M9 5h10a2 2 0 0 1 2 2v3a2 2 0 1 0 0 4v3m-2 2h-14a2 2 0 0 1 -2 -2v-3a2 2 0 1 0 0 -4v-3a2 2 0 0 1 2 -2" xmlns="http://www.w3.org/2000/svg" />
  <path d="M3 3l18 18" xmlns="http://www.w3.org/2000/svg" />
</svg>
