<svg xmlns="http://www.w3.org/2000/svg" viewBox="0 0 24 24" preserveAspectRatio="xMidYMid meet">
<path stroke="none" d="M0 0h24v24H0z" fill="none" xmlns="http://www.w3.org/2000/svg" />
  <path d="M12 15h2a1 1 0 0 0 1 -1v-1a1 1 0 0 0 -1 -1h-2v-3h3" xmlns="http://www.w3.org/2000/svg" />
  <path d="M9 9v6" xmlns="http://www.w3.org/2000/svg" />
  <path d="M3 12v.01" xmlns="http://www.w3.org/2000/svg" />
  <path d="M12 21v.01" xmlns="http://www.w3.org/2000/svg" />
  <path d="M7.5 4.2v.01" xmlns="http://www.w3.org/2000/svg" />
  <path d="M16.5 19.8v.01" xmlns="http://www.w3.org/2000/svg" />
  <path d="M7.5 19.8v.01" xmlns="http://www.w3.org/2000/svg" />
  <path d="M4.2 16.5v.01" xmlns="http://www.w3.org/2000/svg" />
  <path d="M19.8 16.5v.01" xmlns="http://www.w3.org/2000/svg" />
  <path d="M4.2 7.5v.01" xmlns="http://www.w3.org/2000/svg" />
  <path d="M21 12a9 9 0 0 0 -9 -9" xmlns="http://www.w3.org/2000/svg" />
</svg>
