<svg xmlns="http://www.w3.org/2000/svg" viewBox="0 0 24 24" preserveAspectRatio="xMidYMid meet">
<path stroke="none" d="M0 0h24v24H0z" fill="none" xmlns="http://www.w3.org/2000/svg" />
  <path d="M17 4v1.882c0 .685 .387 1.312 1 1.618s1 .933 1 1.618v8.882a3 3 0 0 1 -3 3h-8a3 3 0 0 1 -3 -3v-8.882c0 -.685 .387 -1.312 1 -1.618s1 -.933 1 -1.618v-1.882" xmlns="http://www.w3.org/2000/svg" />
  <path d="M6 4h12l-12 0" xmlns="http://www.w3.org/2000/svg" />
  <path d="M14 10h-1a2 2 0 0 0 -2 2v2c0 1.105 -.395 2 -1.5 2h4.5" xmlns="http://www.w3.org/2000/svg" />
  <path d="M10 13h3" xmlns="http://www.w3.org/2000/svg" />
</svg>
