<svg xmlns="http://www.w3.org/2000/svg" viewBox="0 0 24 24" preserveAspectRatio="xMidYMid meet">
<path stroke="none" d="M0 0h24v24H0z" fill="none" xmlns="http://www.w3.org/2000/svg" />
  <path d="M4.27 4.28c-.768 1.27 -1.27 3.359 -1.27 5.72c0 3.866 1.343 7 3 7s3 -3.134 3 -7c0 -.34 -.01 -.672 -.03 -1" xmlns="http://www.w3.org/2000/svg" />
  <path d="M21 10c0 -3.866 -1.343 -7 -3 -7" xmlns="http://www.w3.org/2000/svg" />
  <path d="M7 3h11" xmlns="http://www.w3.org/2000/svg" />
  <path d="M21 10v7m-1.513 2.496l-1.487 -.496l-3 2l-3 -3l-3 2v-10" xmlns="http://www.w3.org/2000/svg" />
  <path d="M6 10h.01" xmlns="http://www.w3.org/2000/svg" />
  <path d="M3 3l18 18" xmlns="http://www.w3.org/2000/svg" />
</svg>
