<svg xmlns="http://www.w3.org/2000/svg" viewBox="0 0 24 24" preserveAspectRatio="xMidYMid meet">
<path stroke="none" d="M0 0h24v24H0z" fill="none" xmlns="http://www.w3.org/2000/svg" />
  <path d="M14 10a2 2 0 1 0 -4 0a2 2 0 0 0 4 0" xmlns="http://www.w3.org/2000/svg" />
  <path d="M6 10a2 2 0 1 0 -4 0a2 2 0 0 0 4 0" xmlns="http://www.w3.org/2000/svg" />
  <path d="M22 10a2 2 0 1 0 -4 0a2 2 0 0 0 4 0" xmlns="http://www.w3.org/2000/svg" />
  <path d="M2 16h20" xmlns="http://www.w3.org/2000/svg" />
  <path d="M4 12v4" xmlns="http://www.w3.org/2000/svg" />
  <path d="M12 12v4" xmlns="http://www.w3.org/2000/svg" />
  <path d="M20 12v4" xmlns="http://www.w3.org/2000/svg" />
</svg>
