<svg xmlns="http://www.w3.org/2000/svg" viewBox="0 0 24 24" preserveAspectRatio="xMidYMid meet">
<path stroke="none" d="M0 0h24v24H0z" fill="none" xmlns="http://www.w3.org/2000/svg" />
  <path d="M14 6a2 2 0 1 0 -4 0a2 2 0 0 0 4 0" xmlns="http://www.w3.org/2000/svg" />
  <path d="M7 18a2 2 0 1 0 -4 0a2 2 0 0 0 4 0" xmlns="http://www.w3.org/2000/svg" />
  <path d="M21 18a2 2 0 1 0 -4 0a2 2 0 0 0 4 0" xmlns="http://www.w3.org/2000/svg" />
  <path d="M7 18h10" xmlns="http://www.w3.org/2000/svg" />
  <path d="M18 16l-5 -8" xmlns="http://www.w3.org/2000/svg" />
  <path d="M11 8l-5 8" xmlns="http://www.w3.org/2000/svg" />
</svg>
