<svg xmlns="http://www.w3.org/2000/svg" viewBox="0 0 24 24" preserveAspectRatio="xMidYMid meet">
<path stroke="none" d="M0 0h24v24H0z" fill="none" xmlns="http://www.w3.org/2000/svg" />
  <path d="M3 4a1 1 0 0 1 1 -1h2a1 1 0 0 1 1 1v2a1 1 0 0 1 -1 1h-2a1 1 0 0 1 -1 -1l0 -2" xmlns="http://www.w3.org/2000/svg" />
  <path d="M3 18a1 1 0 0 1 1 -1h2a1 1 0 0 1 1 1v2a1 1 0 0 1 -1 1h-2a1 1 0 0 1 -1 -1l0 -2" xmlns="http://www.w3.org/2000/svg" />
  <path d="M17 4a1 1 0 0 1 1 -1h2a1 1 0 0 1 1 1v2a1 1 0 0 1 -1 1h-2a1 1 0 0 1 -1 -1l0 -2" fill="currentColor" xmlns="http://www.w3.org/2000/svg" />
  <path d="M17 18a1 1 0 0 1 1 -1h2a1 1 0 0 1 1 1v2a1 1 0 0 1 -1 1h-2a1 1 0 0 1 -1 -1l0 -2" xmlns="http://www.w3.org/2000/svg" />
  <path d="M11 5h2" xmlns="http://www.w3.org/2000/svg" />
  <path d="M5 11v2" xmlns="http://www.w3.org/2000/svg" />
  <path d="M19 11v2" xmlns="http://www.w3.org/2000/svg" />
  <path d="M11 19h2" xmlns="http://www.w3.org/2000/svg" />
</svg>
