<svg xmlns="http://www.w3.org/2000/svg" viewBox="0 0 24 24" preserveAspectRatio="xMidYMid meet">
<path stroke="none" d="M0 0h24v24H0z" fill="none" xmlns="http://www.w3.org/2000/svg" />
  <path d="M15 12h4.09c1.055 0 1.91 .895 1.91 2s-.855 2 -1.91 2c1.055 0 1.91 .895 1.91 2s-.855 2 -1.91 2h-4.09" xmlns="http://www.w3.org/2000/svg" />
  <path d="M16 16h4" xmlns="http://www.w3.org/2000/svg" />
  <path d="M16 11v10v-9" xmlns="http://www.w3.org/2000/svg" />
  <path d="M19 11v1" xmlns="http://www.w3.org/2000/svg" />
  <path d="M19 20v1" xmlns="http://www.w3.org/2000/svg" />
  <path d="M3 5a2 2 0 1 0 4 0a2 2 0 1 0 -4 0" xmlns="http://www.w3.org/2000/svg" />
  <path d="M15 5a2 2 0 1 0 4 0a2 2 0 1 0 -4 0" xmlns="http://www.w3.org/2000/svg" />
  <path d="M7 5h8" xmlns="http://www.w3.org/2000/svg" />
  <path d="M7 5v8a3 3 0 0 0 3 3h1" xmlns="http://www.w3.org/2000/svg" />
</svg>
