<svg xmlns="http://www.w3.org/2000/svg" viewBox="0 0 24 24" preserveAspectRatio="xMidYMid meet">
<path stroke="none" d="M0 0h24v24H0z" fill="none" xmlns="http://www.w3.org/2000/svg" />
  <path d="M21 18a3 3 0 0 1 -3 3h-12a3 3 0 0 1 -3 -3" xmlns="http://www.w3.org/2000/svg" />
  <path d="M3 6a3 3 0 0 1 3 -3h12a3 3 0 0 1 3 3a3 3 0 0 1 -3 3h-12a3 3 0 0 1 -3 -3" xmlns="http://www.w3.org/2000/svg" />
  <path d="M12 9v8" xmlns="http://www.w3.org/2000/svg" />
  <path d="M9 14l3 3l3 -3" xmlns="http://www.w3.org/2000/svg" />
</svg>
