<svg xmlns="http://www.w3.org/2000/svg" viewBox="0 0 24 24" preserveAspectRatio="xMidYMid meet">
<path stroke="none" d="M0 0h24v24H0z" fill="none" xmlns="http://www.w3.org/2000/svg" />
  <path d="M21 12h-6h1a3 3 0 0 1 0 6h-1l3 3" xmlns="http://www.w3.org/2000/svg" />
  <path d="M15 15h6" xmlns="http://www.w3.org/2000/svg" />
  <path d="M3 5a2 2 0 1 0 4 0a2 2 0 1 0 -4 0" xmlns="http://www.w3.org/2000/svg" />
  <path d="M15 5a2 2 0 1 0 4 0a2 2 0 1 0 -4 0" xmlns="http://www.w3.org/2000/svg" />
  <path d="M7 5h8" xmlns="http://www.w3.org/2000/svg" />
  <path d="M7 5v8a3 3 0 0 0 3 3h1" xmlns="http://www.w3.org/2000/svg" />
</svg>
