<svg xmlns="http://www.w3.org/2000/svg" viewBox="0 0 24 24" preserveAspectRatio="xMidYMid meet">
<path stroke="none" d="M0 0h24v24H0z" fill="none" xmlns="http://www.w3.org/2000/svg" />
  <path d="M3 3l18 18" xmlns="http://www.w3.org/2000/svg" />
  <path d="M4 7h3m4 0h9" xmlns="http://www.w3.org/2000/svg" />
  <path d="M10 11l0 6" xmlns="http://www.w3.org/2000/svg" />
  <path d="M14 14l0 3" xmlns="http://www.w3.org/2000/svg" />
  <path d="M5 7l1 12a2 2 0 0 0 2 2h8a2 2 0 0 0 2 -2l.077 -.923" xmlns="http://www.w3.org/2000/svg" />
  <path d="M18.384 14.373l.616 -7.373" xmlns="http://www.w3.org/2000/svg" />
  <path d="M9 5v-1a1 1 0 0 1 1 -1h4a1 1 0 0 1 1 1v3" xmlns="http://www.w3.org/2000/svg" />
</svg>
