<svg xmlns="http://www.w3.org/2000/svg" viewBox="0 0 24 24" preserveAspectRatio="xMidYMid meet">
<path stroke="none" d="M0 0h24v24H0z" fill="none" xmlns="http://www.w3.org/2000/svg" />
  <path d="M11 4a1 1 0 1 0 2 0a1 1 0 1 0 -2 0" xmlns="http://www.w3.org/2000/svg" />
  <path d="M7 21l2 -4" xmlns="http://www.w3.org/2000/svg" />
  <path d="M13 21v-4l-3 -3l1 -6l3 4l3 2" xmlns="http://www.w3.org/2000/svg" />
  <path d="M10 14l-1.827 -1.218a2 2 0 0 1 -.831 -2.15l.28 -1.117a2 2 0 0 1 1.939 -1.515h1.439l4 1l3 -2" xmlns="http://www.w3.org/2000/svg" />
  <path d="M17 12v9" xmlns="http://www.w3.org/2000/svg" />
  <path d="M16 20h2" xmlns="http://www.w3.org/2000/svg" />
</svg>
