<svg xmlns="http://www.w3.org/2000/svg" viewBox="0 0 24 24" preserveAspectRatio="xMidYMid meet">
<path stroke="none" d="M0 0h24v24H0z" fill="none" xmlns="http://www.w3.org/2000/svg" />
  <path d="M7.027 11.477a5 5 0 1 0 5.496 -4.45a4.951 4.951 0 0 0 -3.088 .681" xmlns="http://www.w3.org/2000/svg" />
  <path d="M5.636 5.636a9 9 0 1 0 3.555 -2.188" xmlns="http://www.w3.org/2000/svg" />
  <path d="M17 5a1 1 0 1 0 2 0a1 1 0 1 0 -2 0" xmlns="http://www.w3.org/2000/svg" />
  <path d="M11 12a1 1 0 1 0 2 0a1 1 0 1 0 -2 0" xmlns="http://www.w3.org/2000/svg" />
  <path d="M8 16a1 1 0 1 0 2 0a1 1 0 1 0 -2 0" xmlns="http://www.w3.org/2000/svg" />
</svg>
