<svg xmlns="http://www.w3.org/2000/svg" viewBox="0 0 24 24" preserveAspectRatio="xMidYMid meet">
<path stroke="none" d="M0 0h24v24H0z" fill="none" xmlns="http://www.w3.org/2000/svg" />
  <path d="M10 19a2 2 0 1 0 4 0a2 2 0 1 0 -4 0" xmlns="http://www.w3.org/2000/svg" />
  <path d="M12 17v-11.5" xmlns="http://www.w3.org/2000/svg" />
  <path d="M7 10v3l5 3" xmlns="http://www.w3.org/2000/svg" />
  <path d="M12 14.5l5 -2v-2.5" xmlns="http://www.w3.org/2000/svg" />
  <path d="M16 10h2v-2h-2l0 2" xmlns="http://www.w3.org/2000/svg" />
  <path d="M6 9a1 1 0 1 0 2 0a1 1 0 1 0 -2 0" xmlns="http://www.w3.org/2000/svg" />
  <path d="M10 5.5h4l-2 -2.5l-2 2.5" xmlns="http://www.w3.org/2000/svg" />
</svg>
