<svg xmlns="http://www.w3.org/2000/svg" viewBox="0 0 24 24" preserveAspectRatio="xMidYMid meet">
<path stroke="none" d="M0 0h24v24H0z" fill="none" xmlns="http://www.w3.org/2000/svg" />
  <path d="M3 15a1 1 0 0 1 1 -1h2a1 1 0 0 1 1 1v2a1 1 0 0 1 -1 1h-2a1 1 0 0 1 -1 -1l0 -2" xmlns="http://www.w3.org/2000/svg" />
  <path d="M17 15a1 1 0 0 1 1 -1h2a1 1 0 0 1 1 1v2a1 1 0 0 1 -1 1h-2a1 1 0 0 1 -1 -1l0 -2" xmlns="http://www.w3.org/2000/svg" />
  <path d="M10 7a1 1 0 0 1 1 -1h2a1 1 0 0 1 1 1v2a1 1 0 0 1 -1 1h-2a1 1 0 0 1 -1 -1l0 -2" xmlns="http://www.w3.org/2000/svg" />
  <path d="M10 8.5a6 6 0 0 0 -5 5.5" xmlns="http://www.w3.org/2000/svg" />
  <path d="M14 8.5a6 6 0 0 1 5 5.5" xmlns="http://www.w3.org/2000/svg" />
  <path d="M10 8l-6 0" xmlns="http://www.w3.org/2000/svg" />
  <path d="M20 8l-6 0" xmlns="http://www.w3.org/2000/svg" />
  <path d="M2 8a1 1 0 1 0 2 0a1 1 0 1 0 -2 0" xmlns="http://www.w3.org/2000/svg" />
  <path d="M20 8a1 1 0 1 0 2 0a1 1 0 1 0 -2 0" xmlns="http://www.w3.org/2000/svg" />
</svg>
