<svg xmlns="http://www.w3.org/2000/svg" viewBox="0 0 24 24" preserveAspectRatio="xMidYMid meet">
<path stroke="none" d="M0 0h24v24H0z" fill="none" xmlns="http://www.w3.org/2000/svg" />
  <path d="M6.68 6.733a1 1 0 0 1 -.68 .267h-2a1 1 0 0 1 -1 -1v-2c0 -.276 .112 -.527 .293 -.708" xmlns="http://www.w3.org/2000/svg" />
  <path d="M17 4a1 1 0 0 1 1 -1h2a1 1 0 0 1 1 1v2a1 1 0 0 1 -1 1h-2a1 1 0 0 1 -1 -1l0 -2" xmlns="http://www.w3.org/2000/svg" />
  <path d="M20.72 20.693a1 1 0 0 1 -.72 .307h-2a1 1 0 0 1 -1 -1v-2c0 -.282 .116 -.536 .304 -.718" xmlns="http://www.w3.org/2000/svg" />
  <path d="M3 18a1 1 0 0 1 1 -1h2a1 1 0 0 1 1 1v2a1 1 0 0 1 -1 1h-2a1 1 0 0 1 -1 -1l0 -2" xmlns="http://www.w3.org/2000/svg" />
  <path d="M5 7v10" xmlns="http://www.w3.org/2000/svg" />
  <path d="M19 7v8" xmlns="http://www.w3.org/2000/svg" />
  <path d="M9 5h8" xmlns="http://www.w3.org/2000/svg" />
  <path d="M7 19h10" xmlns="http://www.w3.org/2000/svg" />
  <path d="M3 3l18 18" xmlns="http://www.w3.org/2000/svg" />
</svg>
