<svg xmlns="http://www.w3.org/2000/svg" viewBox="0 0 24 24" preserveAspectRatio="xMidYMid meet">
<path stroke="none" d="M0 0h24v24H0z" fill="none" xmlns="http://www.w3.org/2000/svg" />
  <path d="M12 10v-7l3 3" xmlns="http://www.w3.org/2000/svg" />
  <path d="M9 6l3 -3" xmlns="http://www.w3.org/2000/svg" />
  <path d="M12 14v7l3 -3" xmlns="http://www.w3.org/2000/svg" />
  <path d="M9 18l3 3" xmlns="http://www.w3.org/2000/svg" />
  <path d="M18 3h1a2 2 0 0 1 2 2v14a2 2 0 0 1 -2 2h-1" xmlns="http://www.w3.org/2000/svg" />
  <path d="M6 3h-1a2 2 0 0 0 -2 2v14a2 2 0 0 0 2 2h1" xmlns="http://www.w3.org/2000/svg" />
</svg>
