<svg xmlns="http://www.w3.org/2000/svg" viewBox="0 0 24 24" preserveAspectRatio="xMidYMid meet">
<path stroke="none" d="M0 0h24v24H0z" fill="none" xmlns="http://www.w3.org/2000/svg" />
  <path d="M10 12h-7l3 -3" xmlns="http://www.w3.org/2000/svg" />
  <path d="M6 15l-3 -3" xmlns="http://www.w3.org/2000/svg" />
  <path d="M14 12h7l-3 -3" xmlns="http://www.w3.org/2000/svg" />
  <path d="M18 15l3 -3" xmlns="http://www.w3.org/2000/svg" />
  <path d="M3 6v-1a2 2 0 0 1 2 -2h14a2 2 0 0 1 2 2v1" xmlns="http://www.w3.org/2000/svg" />
  <path d="M3 18v1a2 2 0 0 0 2 2h14a2 2 0 0 0 2 -2v-1" xmlns="http://www.w3.org/2000/svg" />
</svg>
