<svg xmlns="http://www.w3.org/2000/svg" viewBox="0 0 24 24" preserveAspectRatio="xMidYMid meet">
<path stroke="none" d="M0 0h24v24H0z" fill="none" xmlns="http://www.w3.org/2000/svg" />
  <path d="M3 3l18 18" xmlns="http://www.w3.org/2000/svg" />
  <path d="M8.469 8.46a5 5 0 0 0 7.058 7.084" xmlns="http://www.w3.org/2000/svg" />
  <path d="M16.913 12.936a5 5 0 0 0 -5.826 -5.853" xmlns="http://www.w3.org/2000/svg" />
  <path d="M12 7v-4" xmlns="http://www.w3.org/2000/svg" />
  <path d="M11 3h2" xmlns="http://www.w3.org/2000/svg" />
  <path d="M15.536 8.464l2.828 -2.828" xmlns="http://www.w3.org/2000/svg" />
  <path d="M17.657 4.929l1.414 1.414" xmlns="http://www.w3.org/2000/svg" />
  <path d="M17 12h4" xmlns="http://www.w3.org/2000/svg" />
  <path d="M21 11v2" xmlns="http://www.w3.org/2000/svg" />
  <path d="M18.364 18.363l-.707 .707" xmlns="http://www.w3.org/2000/svg" />
  <path d="M12 17v4" xmlns="http://www.w3.org/2000/svg" />
  <path d="M13 21h-2" xmlns="http://www.w3.org/2000/svg" />
  <path d="M8.465 15.536l-2.829 2.828" xmlns="http://www.w3.org/2000/svg" />
  <path d="M6.343 19.071l-1.413 -1.414" xmlns="http://www.w3.org/2000/svg" />
  <path d="M7 12h-4" xmlns="http://www.w3.org/2000/svg" />
  <path d="M3 13v-2" xmlns="http://www.w3.org/2000/svg" />
  <path d="M5.636 5.637l-.707 .707" xmlns="http://www.w3.org/2000/svg" />
</svg>
