<svg xmlns="http://www.w3.org/2000/svg" viewBox="0 0 24 24" preserveAspectRatio="xMidYMid meet">
<path stroke="none" d="M0 0h24v24H0z" fill="none" xmlns="http://www.w3.org/2000/svg" />
  <path d="M10 19h-6a1 1 0 0 1 -1 -1v-14a1 1 0 0 1 1 -1h6a2 2 0 0 1 2 2a2 2 0 0 1 2 -2h6a1 1 0 0 1 1 1v14a1 1 0 0 1 -1 1h-6a2 2 0 0 0 -2 2a2 2 0 0 0 -2 -2" xmlns="http://www.w3.org/2000/svg" />
  <path d="M12 5v16" xmlns="http://www.w3.org/2000/svg" />
  <path d="M7 7h1" xmlns="http://www.w3.org/2000/svg" />
  <path d="M7 11h1" xmlns="http://www.w3.org/2000/svg" />
  <path d="M16 7h1" xmlns="http://www.w3.org/2000/svg" />
  <path d="M16 11h1" xmlns="http://www.w3.org/2000/svg" />
  <path d="M16 15h1" xmlns="http://www.w3.org/2000/svg" />
</svg>
