<svg xmlns="http://www.w3.org/2000/svg" viewBox="0 0 24 24" preserveAspectRatio="xMidYMid meet">
<path stroke="none" d="M0 0h24v24H0z" fill="none" xmlns="http://www.w3.org/2000/svg" />
  <path d="M8 4h10a2 2 0 0 1 2 2v10m-.589 3.417c-.361 .36 -.86 .583 -1.411 .583h-12a2 2 0 0 1 -2 -2v-12c0 -.55 .222 -1.047 .58 -1.409" xmlns="http://www.w3.org/2000/svg" />
  <path d="M4 8h4m4 0h8" xmlns="http://www.w3.org/2000/svg" />
  <path d="M20 12h-4m-4 0h-8" xmlns="http://www.w3.org/2000/svg" />
  <path d="M4 16h12" xmlns="http://www.w3.org/2000/svg" />
  <path d="M9 4v1" xmlns="http://www.w3.org/2000/svg" />
  <path d="M14 8v2" xmlns="http://www.w3.org/2000/svg" />
  <path d="M8 12v4" xmlns="http://www.w3.org/2000/svg" />
  <path d="M11 16v4" xmlns="http://www.w3.org/2000/svg" />
  <path d="M3 3l18 18" xmlns="http://www.w3.org/2000/svg" />
</svg>
