<svg xmlns="http://www.w3.org/2000/svg" viewBox="0 0 24 24" preserveAspectRatio="xMidYMid meet">
<path stroke="none" d="M0 0h24v24H0z" fill="none" xmlns="http://www.w3.org/2000/svg" />
  <path d="M6 21l15 -15l-3 -3l-15 15l3 3" xmlns="http://www.w3.org/2000/svg" />
  <path d="M15 6l3 3" xmlns="http://www.w3.org/2000/svg" />
  <path d="M9 3a2 2 0 0 0 2 2a2 2 0 0 0 -2 2a2 2 0 0 0 -2 -2a2 2 0 0 0 2 -2" xmlns="http://www.w3.org/2000/svg" />
  <path d="M19 13a2 2 0 0 0 2 2a2 2 0 0 0 -2 2a2 2 0 0 0 -2 -2a2 2 0 0 0 2 -2" xmlns="http://www.w3.org/2000/svg" />
</svg>
