<svg xmlns="http://www.w3.org/2000/svg" viewBox="0 0 24 24" preserveAspectRatio="xMidYMid meet">
<path stroke="none" d="M0 0h24v24H0z" fill="none" xmlns="http://www.w3.org/2000/svg" />
  <path d="M3 6a3 3 0 0 1 3 -3h12a3 3 0 0 1 3 3v12a3 3 0 0 1 -3 3h-12a3 3 0 0 1 -3 -3v-12" xmlns="http://www.w3.org/2000/svg" />
  <path d="M6 12a6 6 0 1 0 12 0a6 6 0 1 0 -12 0" xmlns="http://www.w3.org/2000/svg" />
  <path d="M10 12h.01" xmlns="http://www.w3.org/2000/svg" />
  <path d="M14 12h.01" xmlns="http://www.w3.org/2000/svg" />
</svg>
