<svg xmlns="http://www.w3.org/2000/svg" viewBox="0 0 24 24" preserveAspectRatio="xMidYMid meet">
<path stroke="none" d="M0 0h24v24H0z" fill="none" xmlns="http://www.w3.org/2000/svg" />
  <path d="M3 16a5 5 0 1 0 10 0a5 5 0 1 0 -10 0" xmlns="http://www.w3.org/2000/svg" />
  <path d="M17 19a2 2 0 1 0 4 0a2 2 0 1 0 -4 0" xmlns="http://www.w3.org/2000/svg" />
  <path d="M19 17a3 3 0 0 0 -3 -3h-3.4" xmlns="http://www.w3.org/2000/svg" />
  <path d="M3 3h1a2 2 0 0 1 2 2v6" xmlns="http://www.w3.org/2000/svg" />
  <path d="M6 8h11" xmlns="http://www.w3.org/2000/svg" />
  <path d="M15 8v6" xmlns="http://www.w3.org/2000/svg" />
</svg>
