<svg xmlns="http://www.w3.org/2000/svg" viewBox="0 0 24 24" preserveAspectRatio="xMidYMid meet">
<path stroke="none" d="M0 0h24v24H0z" fill="none" xmlns="http://www.w3.org/2000/svg" />
  <path d="M3 17a1 1 0 0 1 1 -1h3a1 1 0 0 1 1 1v3a1 1 0 0 1 -1 1h-3a1 1 0 0 1 -1 -1l0 -3" xmlns="http://www.w3.org/2000/svg" />
  <path d="M4 12v-6a2 2 0 0 1 2 -2h12a2 2 0 0 1 2 2v12a2 2 0 0 1 -2 2h-6" xmlns="http://www.w3.org/2000/svg" />
  <path d="M15 13h-4v-4" xmlns="http://www.w3.org/2000/svg" />
  <path d="M11 13l5 -5" xmlns="http://www.w3.org/2000/svg" />
</svg>
