<svg xmlns="http://www.w3.org/2000/svg" viewBox="0 0 24 24" preserveAspectRatio="xMidYMid meet">
<path stroke="none" d="M0 0h24v24H0z" fill="none" xmlns="http://www.w3.org/2000/svg" />
  <path d="M21 12a9 9 0 1 0 -8.979 9" xmlns="http://www.w3.org/2000/svg" />
  <path d="M3.6 9h16.8" xmlns="http://www.w3.org/2000/svg" />
  <path d="M3.6 15h8.9" xmlns="http://www.w3.org/2000/svg" />
  <path d="M11.5 3a17 17 0 0 0 0 18" xmlns="http://www.w3.org/2000/svg" />
  <path d="M12.5 3a16.992 16.992 0 0 1 2.522 10.376" xmlns="http://www.w3.org/2000/svg" />
  <path d="M17.001 19a2 2 0 1 0 4 0a2 2 0 1 0 -4 0" xmlns="http://www.w3.org/2000/svg" />
  <path d="M19.001 15.5v1.5" xmlns="http://www.w3.org/2000/svg" />
  <path d="M19.001 21v1.5" xmlns="http://www.w3.org/2000/svg" />
  <path d="M22.032 17.25l-1.299 .75" xmlns="http://www.w3.org/2000/svg" />
  <path d="M17.27 20l-1.3 .75" xmlns="http://www.w3.org/2000/svg" />
  <path d="M15.97 17.25l1.3 .75" xmlns="http://www.w3.org/2000/svg" />
  <path d="M20.733 20l1.3 .75" xmlns="http://www.w3.org/2000/svg" />
</svg>
