<svg xmlns="http://www.w3.org/2000/svg" viewBox="0 0 24 24" preserveAspectRatio="xMidYMid meet">
<path stroke="none" d="M0 0h24v24H0z" fill="none" xmlns="http://www.w3.org/2000/svg" />
  <path d="M12 21a9 9 0 0 0 9 -9a9 9 0 0 0 -9 -9a9 9 0 0 0 -9 9a9 9 0 0 0 9 9" xmlns="http://www.w3.org/2000/svg" />
  <path d="M13 12a2 2 0 1 1 0 4h-3v-4" xmlns="http://www.w3.org/2000/svg" />
  <path d="M13 12h-3" xmlns="http://www.w3.org/2000/svg" />
  <path d="M13 12a2 2 0 1 0 0 -4h-3v4" xmlns="http://www.w3.org/2000/svg" />
</svg>
