<svg xmlns="http://www.w3.org/2000/svg" viewBox="0 0 24 24" preserveAspectRatio="xMidYMid meet">
<path stroke="none" d="M0 0h24v24H0z" fill="none" xmlns="http://www.w3.org/2000/svg" />
  <path d="M13 17a4 4 0 1 0 8 0" xmlns="http://www.w3.org/2000/svg" />
  <path d="M3 16a3 3 0 1 0 6 0a3 3 0 1 0 -6 0" xmlns="http://www.w3.org/2000/svg" />
  <path d="M7 7a4 4 0 1 0 8 0a4 4 0 1 0 -8 0" xmlns="http://www.w3.org/2000/svg" />
  <path d="M7 7c0 3 2 5 2 9" xmlns="http://www.w3.org/2000/svg" />
  <path d="M15 7c0 4 -2 6 -2 10" xmlns="http://www.w3.org/2000/svg" />
</svg>
