<svg xmlns="http://www.w3.org/2000/svg" viewBox="0 0 24 24" preserveAspectRatio="xMidYMid meet">
<path stroke="none" d="M0 0h24v24H0z" fill="none" xmlns="http://www.w3.org/2000/svg" />
  <path d="M8 11a3 3 0 1 0 6 0a3 3 0 0 0 -6 0" xmlns="http://www.w3.org/2000/svg" />
  <path d="M16 16l-2.5 -2.5" xmlns="http://www.w3.org/2000/svg" />
  <path d="M3 7v-2a2 2 0 0 1 2 -2h2" xmlns="http://www.w3.org/2000/svg" />
  <path d="M3 17v2a2 2 0 0 0 2 2h2" xmlns="http://www.w3.org/2000/svg" />
  <path d="M17 3h2a2 2 0 0 1 2 2v2" xmlns="http://www.w3.org/2000/svg" />
  <path d="M17 21h2a2 2 0 0 0 2 -2v-2" xmlns="http://www.w3.org/2000/svg" />
</svg>
