<svg xmlns="http://www.w3.org/2000/svg" viewBox="0 0 24 24" preserveAspectRatio="xMidYMid meet">
<path stroke="none" d="M0 0h24v24H0z" fill="none" xmlns="http://www.w3.org/2000/svg" />
  <path d="M15 13v4" xmlns="http://www.w3.org/2000/svg" />
  <path d="M13 15h4" xmlns="http://www.w3.org/2000/svg" />
  <path d="M10 15a5 5 0 1 0 10 0a5 5 0 1 0 -10 0" xmlns="http://www.w3.org/2000/svg" />
  <path d="M22 22l-3 -3" xmlns="http://www.w3.org/2000/svg" />
  <path d="M6 18h-1a2 2 0 0 1 -2 -2v-1" xmlns="http://www.w3.org/2000/svg" />
  <path d="M3 11v-1" xmlns="http://www.w3.org/2000/svg" />
  <path d="M3 6v-1a2 2 0 0 1 2 -2h1" xmlns="http://www.w3.org/2000/svg" />
  <path d="M10 3h1" xmlns="http://www.w3.org/2000/svg" />
  <path d="M15 3h1a2 2 0 0 1 2 2v1" xmlns="http://www.w3.org/2000/svg" />
</svg>
