<svg xmlns="http://www.w3.org/2000/svg" viewBox="0 0 81.068 47.4567" preserveAspectRatio="xMidYMid meet">
<style type="text/css" xmlns="http://www.w3.org/2000/svg">
	<![CDATA[
		.st1 {fill:#013c5c;stroke:none;stroke-width:0.9375}
		.st2 {fill:#f06358;stroke:none;stroke-width:0.9375}
		.st3 {fill:#6a7573;stroke:none;stroke-width:0.9375}
		.st4 {fill:#ffffff;stroke:none;stroke-width:0.9375}
		.st5 {fill:#ee4e42;stroke:none;stroke-width:0.9375}
		.st6 {fill:none;fill-rule:evenodd;font-size:12px;overflow:visible;stroke-linecap:square;stroke-miterlimit:3}
	]]>
	</style>

	<g v:mID="0" v:index="1" v:groupContext="foregroundPage" xmlns:v="http://schemas.microsoft.com/visio/2003/SVGExtensions/" xmlns="http://www.w3.org/2000/svg">


		<g id="cfxi-microsoft-azure-stencils-others-laptop-red-1-group1127-1" transform="translate(0.9375,-0.9375)" v:mID="1127" v:groupContext="group">

			<g id="cfxi-microsoft-azure-stencils-others-laptop-red-1-shape1128-2" v:mID="1128" v:groupContext="shape" transform="translate(10.2084,49.3317) scale(1,-1)">

				<path d="M2.03 47.46 L56.74 47.46 C57.86 47.46 58.78 46.54 58.78 45.42 L58.78 10.86 C58.78 9.74 57.86 8.83 56.74         8.83 L2.03 8.83 C0.91 8.83 0 9.74 0 10.86 L0 45.42 C0 46.54 0.91 47.46 2.03 47.46 Z" class="st1" />
			</g>
			<g id="cfxi-microsoft-azure-stencils-others-laptop-red-1-shape1129-4" v:mID="1129" v:groupContext="shape" transform="translate(13.2581,53.3654) scale(1,-1)">

				<path d="M0 47.46 L52.68 47.46 L52.68 19.18 L0 19.18 L0 47.46 Z" class="st2" />
			</g>
			<g id="cfxi-microsoft-azure-stencils-others-laptop-red-1-shape1130-6" v:mID="1130" v:groupContext="shape" transform="translate(38.3467,83.4046) scale(1,-1)">

				<path d="M0 47.46 L2.5 47.46 L2.5 44.96 L0 44.96 L0 47.46 Z" class="st3" />
			</g>
			<g id="cfxi-microsoft-azure-stencils-others-laptop-red-1-shape1131-8" v:mID="1131" v:groupContext="shape" transform="translate(1.59872E-13,87.9614) scale(1,-1)">

				<path d="M10.21 47.46 L68.98 47.46 L79.19 43.11 L0 43.11 L10.21 47.46 Z" class="st3" />
			</g>
			<g id="cfxi-microsoft-azure-stencils-others-laptop-red-1-shape1132-10" v:mID="1132" v:groupContext="shape" transform="translate(1.59872E-13,92.3044) scale(1,-1)">

				<path d="M0 47.46 L79.19 47.46 L79.19 46.32 C79.19 45.51 78.53 44.85 77.72 44.85 L1.47 44.85 C0.66 44.85 0 45.51         0 46.32 L0 47.46 Z" class="st1" />
			</g>
			<g id="cfxi-microsoft-azure-stencils-others-laptop-red-1-shape1133-12" v:mID="1133" v:groupContext="shape" transform="translate(31.5981,93.1072) scale(1,-1)">

				<path d="M0 47.46 L16 47.46 L16 46.44 L0 46.44 L0 47.46 Z" class="st2" />
			</g>
			<g id="cfxi-microsoft-azure-stencils-others-laptop-red-1-shape1134-14" v:mID="1134" v:groupContext="shape" transform="translate(10.5893,88.3092) scale(1,-1)">

				<path d="M1.03 47.46 L6.52 47.46 C6.24 47.29 5.97 47.12 5.69 46.95 L0 46.95 C0.34 47.12 0.69 47.29 1.03 47.46 Z" class="st4" />
			</g>
			<g id="cfxi-microsoft-azure-stencils-others-laptop-red-1-shape1135-16" v:mID="1135" v:groupContext="shape" transform="translate(21.0343,88.3092) scale(1,-1)">

				<path d="M0.66 47.46 L6.15 47.46 C6 47.29 5.85 47.12 5.7 46.95 L0 46.95 C0.22 47.12 0.44 47.29 0.66 47.46 Z" class="st4" />
			</g>
			<g id="cfxi-microsoft-azure-stencils-others-laptop-red-1-shape1136-18" v:mID="1136" v:groupContext="shape" transform="translate(31.4862,88.3092) scale(1,-1)">

				<path d="M0.28 47.46 L5.78 47.46 C5.76 47.29 5.73 47.12 5.71 46.95 L0 46.95 C0.1 47.12 0.19 47.29 0.28 47.46 Z" class="st4" />
			</g>
			<g id="cfxi-microsoft-azure-stencils-others-laptop-red-1-shape1137-20" v:mID="1137" v:groupContext="shape" transform="translate(41.8488,88.3092) scale(1,-1)">

				<path d="M0 47.46 L5.5 47.46 C5.6 47.29 5.7 47.12 5.8 46.95 L0.09 46.95 C0.06 47.12 0.03 47.29 0 47.46 Z" class="st4" />
			</g>
			<g id="cfxi-microsoft-azure-stencils-others-laptop-red-1-shape1138-22" v:mID="1138" v:groupContext="shape" transform="translate(51.9298,88.3092) scale(1,-1)">

				<path d="M0 47.46 L5.49 47.46 C5.72 47.29 5.95 47.12 6.17 46.95 L0.47 46.95 C0.32 47.12 0.16 47.29 0 47.46 Z" class="st4" />
			</g>
			<g id="cfxi-microsoft-azure-stencils-others-laptop-red-1-shape1139-24" v:mID="1139" v:groupContext="shape" transform="translate(62.0109,88.3092) scale(1,-1)">

				<path d="M0 47.46 L5.5 47.46 C5.85 47.29 6.2 47.12 6.54 46.95 L0.84 46.95 C0.56 47.12 0.28 47.29 0 47.46 Z" class="st4" />
			</g>
			<g id="cfxi-microsoft-azure-stencils-others-laptop-red-1-shape1140-26" v:mID="1140" v:groupContext="shape" transform="translate(8.81757,89.1802) scale(1,-1)">

				<path d="M1.03 47.46 L6.87 47.46 C6.6 47.29 6.32 47.12 6.04 46.95 L0 46.95 C0.34 47.12 0.69 47.29 1.03 47.46 Z" class="st4" />
			</g>
			<g id="cfxi-microsoft-azure-stencils-others-laptop-red-1-shape1141-28" v:mID="1141" v:groupContext="shape" transform="translate(19.9081,89.1802) scale(1,-1)">

				<path d="M0.66 47.46 L6.5 47.46 C6.35 47.29 6.19 47.12 6.05 46.95 L0 46.95 C0.21 47.12 0.44 47.29 0.66 47.46 Z" class="st4" />
			</g>
			<g id="cfxi-microsoft-azure-stencils-others-laptop-red-1-shape1142-30" v:mID="1142" v:groupContext="shape" transform="translate(30.9986,89.1802) scale(1,-1)">

				<path d="M0.29 47.46 L6.14 47.46 C6.11 47.29 6.08 47.12 6.06 46.95 L0 46.95 C0.1 47.12 0.19 47.29 0.29 47.46 Z" class="st4" />
			</g>
			<g id="cfxi-microsoft-azure-stencils-others-laptop-red-1-shape1143-32" v:mID="1143" v:groupContext="shape" transform="translate(42.0068,89.1802) scale(1,-1)">

				<path d="M0 47.46 L5.85 47.46 C5.95 47.29 6.04 47.12 6.15 46.95 L0.09 46.95 C0.05 47.12 0.03 47.29 0 47.46 Z" class="st4" />
			</g>
			<g id="cfxi-microsoft-azure-stencils-others-laptop-red-1-shape1144-34" v:mID="1144" v:groupContext="shape" transform="translate(52.7333,89.1802) scale(1,-1)">

				<path d="M0 47.46 L5.84 47.46 C6.06 47.29 6.29 47.12 6.51 46.95 L0.46 46.95 C0.31 47.12 0.15 47.29 0 47.46 Z" class="st4" />
			</g>
			<g id="cfxi-microsoft-azure-stencils-others-laptop-red-1-shape1145-36" v:mID="1145" v:groupContext="shape" transform="translate(63.453,89.1802) scale(1,-1)">

				<path d="M0 47.46 L5.86 47.46 C6.2 47.29 6.55 47.12 6.89 46.95 L0.84 46.95 C0.56 47.12 0.28 47.29 0 47.46 Z" class="st4" />
			</g>
			<g id="cfxi-microsoft-azure-stencils-others-laptop-red-1-shape1146-38" v:mID="1146" v:groupContext="shape" transform="translate(7.03892,90.0508) scale(1,-1)">

				<path d="M1.03 47.46 L7.22 47.46 C6.94 47.29 6.68 47.12 6.39 46.95 L0 46.95 C0.34 47.12 0.68 47.29 1.03 47.46 Z" class="st4" />
			</g>
			<g id="cfxi-microsoft-azure-stencils-others-laptop-red-1-shape1147-40" v:mID="1147" v:groupContext="shape" transform="translate(18.7749,90.0508) scale(1,-1)">

				<path d="M0.65 47.46 L6.85 47.46 C6.7 47.29 6.55 47.12 6.4 46.95 L0 46.95 C0.22 47.12 0.43 47.29 0.65 47.46 Z" class="st4" />
			</g>
			<g id="cfxi-microsoft-azure-stencils-others-laptop-red-1-shape1148-42" v:mID="1148" v:groupContext="shape" transform="translate(30.5112,90.0508) scale(1,-1)">

				<path d="M0.28 47.46 L6.49 47.46 C6.46 47.29 6.43 47.12 6.41 46.95 L0 46.95 C0.1 47.12 0.19 47.29 0.28 47.46 Z" class="st4" />
			</g>
			<g id="cfxi-microsoft-azure-stencils-others-laptop-red-1-shape1149-44" v:mID="1149" v:groupContext="shape" transform="translate(42.1578,90.0508) scale(1,-1)">

				<path d="M0 47.46 L6.21 47.46 C6.3 47.29 6.4 47.12 6.5 46.95 L0.09 46.95 C0.06 47.12 0.03 47.29 0 47.46 Z" class="st4" />
			</g>
			<g id="cfxi-microsoft-azure-stencils-others-laptop-red-1-shape1150-46" v:mID="1150" v:groupContext="shape" transform="translate(53.53,90.0508) scale(1,-1)">

				<path d="M0 47.46 L6.2 47.46 C6.41 47.29 6.64 47.12 6.86 46.95 L0.46 46.95 C0.31 47.12 0.15 47.29 0 47.46 Z" class="st4" />
			</g>
			<g id="cfxi-microsoft-azure-stencils-others-laptop-red-1-shape1151-48" v:mID="1151" v:groupContext="shape" transform="translate(64.8953,90.0508) scale(1,-1)">

				<path d="M0 47.46 L6.21 47.46 C6.55 47.29 6.9 47.12 7.24 46.95 L0.84 46.95 C0.56 47.12 0.27 47.29 0 47.46 Z" class="st4" />
			</g>
			<g id="cfxi-microsoft-azure-stencils-others-laptop-red-1-shape1152-50" v:mID="1152" v:groupContext="shape" transform="translate(5.26036,90.9215) scale(1,-1)">

				<path d="M1.04 47.46 L34.33 47.46 L67.64 47.46 C67.99 47.29 68.33 47.12 68.67 46.95 L34.33 46.95 L0 46.95 C0.35 47.12         0.69 47.29 1.04 47.46 Z" class="st4" />
			</g>
			<g id="cfxi-microsoft-azure-stencils-others-laptop-red-1-shape1153-52" v:mID="1153" v:groupContext="shape" transform="translate(13.258,53.3653) scale(1,-1)">

				<path d="M52.68 47.46 L0 19.18 L52.68 19.18 L52.68 47.46 Z" class="st5" />
			</g>
		</g>
	</g>
</svg>
