<svg xmlns="http://www.w3.org/2000/svg" viewBox="0 0 792 612" preserveAspectRatio="xMidYMid meet">
<style type="text/css" xmlns="http://www.w3.org/2000/svg">
	<![CDATA[
		.st1 {fill:#f99b1f;stroke:none;stroke-width:1.02}
		.st2 {fill:#1895a4;stroke:none;stroke-width:1.02}
		.st3 {fill:#57a7db;stroke:none;stroke-linecap:round;stroke-linejoin:round;stroke-width:0.75}
		.st4 {fill:#4672c4;stroke:none;stroke-width:1.02}
		.st5 {fill:#fdc015;stroke:none;stroke-width:1.02}
		.st6 {fill:#f0efef;stroke:none;stroke-width:1.02}
		.st7 {fill:none;fill-rule:evenodd;font-size:12px;overflow:visible;stroke-linecap:square;stroke-miterlimit:3}
	]]>
	</style>

	<g v:mID="0" v:index="1" v:groupContext="foregroundPage" xmlns:v="http://schemas.microsoft.com/visio/2003/SVGExtensions/" xmlns="http://www.w3.org/2000/svg">
		<v:userDefs>
			<v:ud v:nameU="msvThemeOrder" v:val="VT0(0):26" />
		</v:userDefs>


		<g id="cfxi-microsoft-azure-stencils-others-shopping-bag-group15954-1" transform="translate(18,-525.219)" v:mID="15954" v:groupContext="group">

			<g id="cfxi-microsoft-azure-stencils-others-shopping-bag-shape15955-2" v:mID="15955" v:groupContext="shape" transform="translate(52.1185,-4.88611)">

				<path d="M0 551.28 L9.86 548.1 L9.86 608.83 L0 612 L0 551.28 Z" class="st1" />
			</g>
			<g id="cfxi-microsoft-azure-stencils-others-shopping-bag-shape15956-4" v:mID="15956" v:groupContext="shape" transform="translate(52.1185,0)">

				<path d="M0 607.11 L4.09 612 L3.84 550.74 L0 546.39 L0 607.11 Z" class="st2" />
			</g>
			<g id="cfxi-microsoft-azure-stencils-others-shopping-bag-shape15957-6" v:mID="15957" v:groupContext="shape" transform="translate(5.55429,-8.10175)">

				<rect x="0" y="551.32" width="56.4617" height="60.6796" class="st3" />
			</g>
			<g id="cfxi-microsoft-azure-stencils-others-shopping-bag-shape15958-8" v:mID="15958" v:groupContext="shape" transform="translate(5.55429,-4.88611)">

				<path d="M7.93 551.28 L0 548.1 L0 608.83 L7.93 612 L7.93 551.28 Z" class="st1" />
			</g>
			<g id="cfxi-microsoft-azure-stencils-others-shopping-bag-shape15959-10" v:mID="15959" v:groupContext="shape" transform="translate(-4.996E-15,-0.542901)">

				<path d="M13.49 607.66 L0 612 L0 551.28 L13.49 546.94 L13.49 607.66 Z" class="st4" />
			</g>
			<g id="cfxi-microsoft-azure-stencils-others-shopping-bag-shape15960-12" v:mID="15960" v:groupContext="shape" transform="translate(2.8777E-13,-0.584663)">

				<rect x="0" y="551.32" width="56.4617" height="60.6796" class="st5" />
			</g>
			<g id="cfxi-microsoft-azure-stencils-others-shopping-bag-shape15961-14" v:mID="15961" v:groupContext="shape" transform="translate(12.5702,-51.7009)">

				<ellipse cx="2.08808" cy="609.912" rx="2.08808" ry="2.08808" class="st4" />
			</g>
			<g id="cfxi-microsoft-azure-stencils-others-shopping-bag-shape15962-16" v:mID="15962" v:groupContext="shape" transform="translate(41.2187,-51.7009)">

				<ellipse cx="2.08808" cy="609.912" rx="2.08808" ry="2.08808" class="st4" />
			</g>
			<g id="cfxi-microsoft-azure-stencils-others-shopping-bag-shape15963-18" v:mID="15963" v:groupContext="shape" transform="translate(13.4472,-31.8641)">

				<path d="M17.96 612 L12.95 612 C5.8 612 0 605.57 0 597.68 L0 590.08 C0 589.45 0.5 588.95 1.13 588.95 C1.75 588.95         2.26 589.45 2.26 590.08 L2.26 597.68 C2.26 604.32 7.06 609.74 12.95 609.74 L17.96 609.74 C23.85 609.74         28.65 604.32 28.65 597.68 L28.65 590.08 C28.65 589.45 29.15 588.95 29.78 588.95 C30.4 588.95 30.9 589.45         30.9 590.08 L30.9 597.68 C30.95 605.57 25.14 612 17.96 612 Z" class="st1" />
			</g>
			<g id="cfxi-microsoft-azure-stencils-others-shopping-bag-shape15964-20" v:mID="15964" v:groupContext="shape" transform="translate(13.489,-34.0775)">

				<path d="M17.92 612 L12.9 612 C5.8 612 0 606.2 0 599.1 L0 592.29 C0 591.7 0.5 591.2 1.09 591.2 C1.67 591.2 2.17 591.7         2.17 592.29 L2.17 599.1 C2.17 605.03 7.02 609.83 12.9 609.83 L17.92 609.83 C23.85 609.83 28.65 605.03         28.65 599.1 L28.65 592.29 C28.65 591.7 29.15 591.2 29.73 591.2 C30.32 591.2 30.82 591.7 30.82 592.29         L30.82 599.1 C30.82 606.24 25.06 612 17.92 612 Z" class="st6" />
			</g>
		</g>
	</g>
</svg>
