<svg xmlns="http://www.w3.org/2000/svg" viewBox="0 0 96 96" preserveAspectRatio="xMidYMid meet">
<g><defs><linearGradient id="log-analyzer-plate" x1="12" y1="8" x2="84" y2="90" gradientUnits="userSpaceOnUse"><stop offset="0" stop-color="#FFE4E6"/><stop offset="0.58" stop-color="#FB7185"/><stop offset="1" stop-color="#DA291C"/></linearGradient><linearGradient id="log-analyzer-metal" x1="20" y1="14" x2="76" y2="82" gradientUnits="userSpaceOnUse"><stop offset="0" stop-color="#F8FAFC"/><stop offset="1" stop-color="#CBD5E1"/></linearGradient></defs><rect x="8" y="8" width="80" height="80" rx="20" fill="url(#log-analyzer-plate)" stroke="#FFFFFF" stroke-width="2" opacity="0.98"/><circle cx="72" cy="24" r="12" fill="#FB7185" opacity="0.28"/><path d="M18 73 C34 63 57 63 78 74" fill="none" stroke="#FFFFFF" stroke-width="5" stroke-linecap="round" opacity="0.35"/><ellipse cx="48" cy="29" rx="23" ry="9" fill="#FFFFFF" opacity="0.94"/><path d="M25 29 V62 C25 68 35 75 48 75 C61 75 71 68 71 62 V29" fill="#FFFFFF" opacity="0.78"/><path d="M25 42 C25 48 35 55 48 55 C61 55 71 48 71 42 M25 55 C25 61 35 68 48 68 C61 68 71 61 71 55" fill="none" stroke="#DA291C" stroke-width="3.8" opacity="0.78"/><rect x="25" y="69" width="46" height="16" rx="8" fill="#0F172A" opacity="0.72"/><text x="48" y="81" text-anchor="middle" font-family="Segoe UI, Arial, sans-serif" font-size="9.5" font-weight="800" fill="#FFFFFF">LOG</text></g>
</svg>
