<svg xmlns="http://www.w3.org/2000/svg" viewBox="0 0 96 96" preserveAspectRatio="xMidYMid meet">
<g>
<defs>
<linearGradient id="delegated-managed-service-account-plate" x1="12" y1="8" x2="84" y2="90" gradientUnits="userSpaceOnUse"><stop offset="0" stop-color="#CFFAFE"/><stop offset="0.58" stop-color="#0891B2" stop-opacity="0.72"/><stop offset="1" stop-color="#0891B2"/></linearGradient>
<linearGradient id="delegated-managed-service-account-metal" x1="20" y1="14" x2="76" y2="82" gradientUnits="userSpaceOnUse"><stop offset="0" stop-color="#F8FAFC"/><stop offset="1" stop-color="#CBD5E1"/></linearGradient>
<filter id="delegated-managed-service-account-shadow" x="-20%" y="-20%" width="140%" height="150%"><feDropShadow dx="0" dy="3" stdDeviation="2.4" flood-color="#0F172A" flood-opacity="0.24"/></filter>
</defs>
<rect x="8" y="8" width="80" height="80" rx="20" fill="url(#delegated-managed-service-account-plate)" stroke="#FFFFFF" stroke-width="2" opacity="0.98"/>
<circle cx="72" cy="24" r="12" fill="#FFFFFF" opacity="0.20"/>
<path d="M18 73 C34 63 57 63 78 74" fill="none" stroke="#FFFFFF" stroke-width="5" stroke-linecap="round" opacity="0.28"/>
<circle cx="39" cy="35" r="10" fill="#FFFFFF"/><path d="M22 65 C25 52 32 46 40 46 C48 46 55 52 58 65" fill="#FFFFFF"/><path d="M60 28 H72 V40 H60 Z" fill="#0891B2" stroke="#FFFFFF" stroke-width="2"/><path d="M62 45 H74 V57 H62 Z" fill="#0891B2" stroke="#FFFFFF" stroke-width="2"/><path d="M58 38 L50 46 L58 52" fill="none" stroke="#FFFFFF" stroke-width="3" stroke-linecap="round" stroke-linejoin="round"/>
<rect x="25" y="69" width="46" height="16" rx="8" fill="#0F172A" opacity="0.74"/>
<text x="48" y="81" text-anchor="middle" font-family="Segoe UI, Arial, sans-serif" font-size="8.5" font-weight="800" fill="#FFFFFF">DMSA</text>
</g>
</svg>