<svg xmlns="http://www.w3.org/2000/svg" viewBox="0 0 96 96" preserveAspectRatio="xMidYMid meet">
<g>
<defs>
<linearGradient id="domain-joined-device-plate" x1="12" y1="8" x2="84" y2="90" gradientUnits="userSpaceOnUse"><stop offset="0" stop-color="#DCFCE7"/><stop offset="0.58" stop-color="#16A34A" stop-opacity="0.72"/><stop offset="1" stop-color="#16A34A"/></linearGradient>
<linearGradient id="domain-joined-device-metal" x1="20" y1="14" x2="76" y2="82" gradientUnits="userSpaceOnUse"><stop offset="0" stop-color="#F8FAFC"/><stop offset="1" stop-color="#CBD5E1"/></linearGradient>
<filter id="domain-joined-device-shadow" x="-20%" y="-20%" width="140%" height="150%"><feDropShadow dx="0" dy="3" stdDeviation="2.4" flood-color="#0F172A" flood-opacity="0.24"/></filter>
</defs>
<rect x="8" y="8" width="80" height="80" rx="20" fill="url(#domain-joined-device-plate)" stroke="#FFFFFF" stroke-width="2" opacity="0.98"/>
<circle cx="72" cy="24" r="12" fill="#FFFFFF" opacity="0.20"/>
<path d="M18 73 C34 63 57 63 78 74" fill="none" stroke="#FFFFFF" stroke-width="5" stroke-linecap="round" opacity="0.28"/>
<rect x="25" y="25" width="46" height="31" rx="5" fill="#FFFFFF" filter="url(#domain-joined-device-shadow)"/><rect x="31" y="31" width="34" height="19" rx="2" fill="#0F172A"/><path d="M43 58 H53 L56 65 H40 Z" fill="#FFFFFF"/><path d="M39 65 H57" stroke="#FFFFFF" stroke-width="4" stroke-linecap="round"/><circle cx="60" cy="36" r="2" fill="#16A34A"/><path d="M60 20 L69 24 V34 C69 43 65 49 60 53 C55 49 51 43 51 34 V24 Z" fill="#16A34A" stroke="#FFFFFF" stroke-width="2"/><path d="M56 36 L59 39 L65 30" fill="none" stroke="#FFFFFF" stroke-width="2.4" stroke-linecap="round" stroke-linejoin="round"/>
<rect x="25" y="69" width="46" height="16" rx="8" fill="#0F172A" opacity="0.74"/>
<text x="48" y="81" text-anchor="middle" font-family="Segoe UI, Arial, sans-serif" font-size="8.5" font-weight="800" fill="#FFFFFF">DJ</text>
</g>
</svg>