<svg xmlns="http://www.w3.org/2000/svg" viewBox="0 0 96 96" preserveAspectRatio="xMidYMid meet">
<g><defs><linearGradient id="ou-plate" x1="12" y1="8" x2="84" y2="90" gradientUnits="userSpaceOnUse"><stop offset="0" stop-color="#DBEAFE"/><stop offset="0.58" stop-color="#38BDF8"/><stop offset="1" stop-color="#64748B"/></linearGradient><linearGradient id="ou-metal" x1="20" y1="14" x2="76" y2="82" gradientUnits="userSpaceOnUse"><stop offset="0" stop-color="#F8FAFC"/><stop offset="1" stop-color="#CBD5E1"/></linearGradient></defs><rect x="8" y="8" width="80" height="80" rx="20" fill="url(#ou-plate)" stroke="#FFFFFF" stroke-width="2" opacity="0.98"/><circle cx="72" cy="24" r="12" fill="#38BDF8" opacity="0.28"/><path d="M18 73 C34 63 57 63 78 74" fill="none" stroke="#FFFFFF" stroke-width="5" stroke-linecap="round" opacity="0.35"/><path d="M28 56 C22 48 25 38 34 35 C35 25 46 20 55 26 C63 20 75 27 73 39 C82 43 81 57 71 60 C66 70 51 69 47 60 C39 66 31 64 28 56 Z" fill="#FFFFFF" opacity="0.92"/><path d="M49 30 V58 M36 45 L49 53 L62 42 M40 64 L49 58 L60 65" fill="none" stroke="#64748B" stroke-width="4.6" stroke-linecap="round" stroke-linejoin="round"/><circle cx="49" cy="30" r="4" fill="#64748B"/><circle cx="36" cy="45" r="4" fill="#64748B"/><circle cx="62" cy="42" r="4" fill="#64748B"/><circle cx="40" cy="64" r="4" fill="#64748B"/><circle cx="60" cy="65" r="4" fill="#64748B"/><rect x="25" y="69" width="46" height="16" rx="8" fill="#0F172A" opacity="0.72"/><text x="48" y="81" text-anchor="middle" font-family="Segoe UI, Arial, sans-serif" font-size="9.5" font-weight="800" fill="#FFFFFF">OU</text></g>
</svg>
