<svg xmlns="http://www.w3.org/2000/svg" viewBox="0 0 96 96" preserveAspectRatio="xMidYMid meet">
<g>
<defs>
<linearGradient id="privileged-user-plate" x1="12" y1="8" x2="84" y2="90" gradientUnits="userSpaceOnUse"><stop offset="0" stop-color="#EDE9FE"/><stop offset="0.58" stop-color="#7C3AED" stop-opacity="0.72"/><stop offset="1" stop-color="#7C3AED"/></linearGradient>
<linearGradient id="privileged-user-metal" x1="20" y1="14" x2="76" y2="82" gradientUnits="userSpaceOnUse"><stop offset="0" stop-color="#F8FAFC"/><stop offset="1" stop-color="#CBD5E1"/></linearGradient>
<filter id="privileged-user-shadow" x="-20%" y="-20%" width="140%" height="150%"><feDropShadow dx="0" dy="3" stdDeviation="2.4" flood-color="#0F172A" flood-opacity="0.24"/></filter>
</defs>
<rect x="8" y="8" width="80" height="80" rx="20" fill="url(#privileged-user-plate)" stroke="#FFFFFF" stroke-width="2" opacity="0.98"/>
<circle cx="72" cy="24" r="12" fill="#FFFFFF" opacity="0.20"/>
<path d="M18 73 C34 63 57 63 78 74" fill="none" stroke="#FFFFFF" stroke-width="5" stroke-linecap="round" opacity="0.28"/>
<circle cx="48" cy="32" r="11" fill="#FFFFFF"/><path d="M27 65 C30 51 38 45 48 45 C58 45 66 51 69 65" fill="#FFFFFF" opacity="0.94"/><path d="M36 63 C38 55 42 52 48 52 C54 52 58 55 60 63" fill="#7C3AED" opacity="0.25"/><path d="M58 23 L67 27 V37 C67 46 63 52 58 56 C53 52 49 46 49 37 V27 Z" fill="#7C3AED" stroke="#FFFFFF" stroke-width="2"/><path d="M54 39 L57 42 L63 33" fill="none" stroke="#FFFFFF" stroke-width="2.5" stroke-linecap="round" stroke-linejoin="round"/>
<rect x="25" y="69" width="46" height="16" rx="8" fill="#0F172A" opacity="0.74"/>
<text x="48" y="81" text-anchor="middle" font-family="Segoe UI, Arial, sans-serif" font-size="8.5" font-weight="800" fill="#FFFFFF">ADM</text>
</g>
</svg>