<svg xmlns="http://www.w3.org/2000/svg" viewBox="0 0 96 96" preserveAspectRatio="xMidYMid meet">
<g>
<defs>
<linearGradient id="security-group-plate" x1="12" y1="8" x2="84" y2="90" gradientUnits="userSpaceOnUse"><stop offset="0" stop-color="#CCFBF1"/><stop offset="0.58" stop-color="#0F766E" stop-opacity="0.72"/><stop offset="1" stop-color="#0F766E"/></linearGradient>
<linearGradient id="security-group-metal" x1="20" y1="14" x2="76" y2="82" gradientUnits="userSpaceOnUse"><stop offset="0" stop-color="#F8FAFC"/><stop offset="1" stop-color="#CBD5E1"/></linearGradient>
<filter id="security-group-shadow" x="-20%" y="-20%" width="140%" height="150%"><feDropShadow dx="0" dy="3" stdDeviation="2.4" flood-color="#0F172A" flood-opacity="0.24"/></filter>
</defs>
<rect x="8" y="8" width="80" height="80" rx="20" fill="url(#security-group-plate)" stroke="#FFFFFF" stroke-width="2" opacity="0.98"/>
<circle cx="72" cy="24" r="12" fill="#FFFFFF" opacity="0.20"/>
<path d="M18 73 C34 63 57 63 78 74" fill="none" stroke="#FFFFFF" stroke-width="5" stroke-linecap="round" opacity="0.28"/>
<circle cx="48" cy="30" r="9" fill="#FFFFFF"/><circle cx="31" cy="39" r="8" fill="#FFFFFF" opacity="0.82"/><circle cx="65" cy="39" r="8" fill="#FFFFFF" opacity="0.82"/><path d="M24 65 C26 54 33 49 42 50" fill="none" stroke="#FFFFFF" stroke-width="9" stroke-linecap="round" opacity="0.84"/><path d="M72 65 C70 54 63 49 54 50" fill="none" stroke="#FFFFFF" stroke-width="9" stroke-linecap="round" opacity="0.84"/><path d="M32 66 C35 54 40 48 48 48 C56 48 61 54 64 66" fill="#FFFFFF"/><path d="M59 24 L68 28 V38 C68 47 64 53 59 57 C54 53 50 47 50 38 V28 Z" fill="#0F766E" stroke="#FFFFFF" stroke-width="2"/>
<rect x="25" y="69" width="46" height="16" rx="8" fill="#0F172A" opacity="0.74"/>
<text x="48" y="81" text-anchor="middle" font-family="Segoe UI, Arial, sans-serif" font-size="8.5" font-weight="800" fill="#FFFFFF">SEC</text>
</g>
</svg>