<svg xmlns="http://www.w3.org/2000/svg" viewBox="0 0 96 96" preserveAspectRatio="xMidYMid meet">
<g>
<defs>
<linearGradient id="server-computer-plate" x1="12" y1="8" x2="84" y2="90" gradientUnits="userSpaceOnUse"><stop offset="0" stop-color="#DBEAFE"/><stop offset="0.58" stop-color="#2563EB" stop-opacity="0.72"/><stop offset="1" stop-color="#2563EB"/></linearGradient>
<linearGradient id="server-computer-metal" x1="20" y1="14" x2="76" y2="82" gradientUnits="userSpaceOnUse"><stop offset="0" stop-color="#F8FAFC"/><stop offset="1" stop-color="#CBD5E1"/></linearGradient>
<filter id="server-computer-shadow" x="-20%" y="-20%" width="140%" height="150%"><feDropShadow dx="0" dy="3" stdDeviation="2.4" flood-color="#0F172A" flood-opacity="0.24"/></filter>
</defs>
<rect x="8" y="8" width="80" height="80" rx="20" fill="url(#server-computer-plate)" stroke="#FFFFFF" stroke-width="2" opacity="0.98"/>
<circle cx="72" cy="24" r="12" fill="#FFFFFF" opacity="0.20"/>
<path d="M18 73 C34 63 57 63 78 74" fill="none" stroke="#FFFFFF" stroke-width="5" stroke-linecap="round" opacity="0.28"/>
<rect x="31" y="20" width="34" height="49" rx="8" fill="url(#server-computer-metal)" stroke="#FFFFFF" stroke-width="3" filter="url(#server-computer-shadow)"/><rect x="37" y="29" width="22" height="11" rx="3" fill="#2563EB"/><rect x="37" y="48" width="22" height="11" rx="3" fill="#2563EB" opacity="0.82"/><path d="M41 35 H50 M41 54 H50" stroke="#FFFFFF" stroke-width="3" stroke-linecap="round"/><circle cx="56" cy="35" r="3" fill="#FFFFFF"/><circle cx="56" cy="54" r="3" fill="#FFFFFF"/>
<rect x="25" y="69" width="46" height="16" rx="8" fill="#0F172A" opacity="0.74"/>
<text x="48" y="81" text-anchor="middle" font-family="Segoe UI, Arial, sans-serif" font-size="8.5" font-weight="800" fill="#FFFFFF">SRV</text>
</g>
</svg>