<svg xmlns="http://www.w3.org/2000/svg" viewBox="0 0 61.3881 74.8" preserveAspectRatio="xMidYMid meet">
<style type="text/css" xmlns="http://www.w3.org/2000/svg">
	<![CDATA[
		.st1 {fill:#0078d7;stroke:none;stroke-width:12.24}
		.st2 {fill:#ffffff;stroke:none;stroke-width:12.24}
		.st3 {fill:none;fill-rule:evenodd;font-size:12px;overflow:visible;stroke-linecap:square;stroke-miterlimit:3}
	]]>
	</style>

	<g v:mID="0" v:index="1" v:groupContext="foregroundPage" xmlns:v="http://schemas.microsoft.com/visio/2003/SVGExtensions/" xmlns="http://www.w3.org/2000/svg">


		<g id="cfxi-microsoft-azure-stencils-security-and-governance-azure-security-center-group5-1" transform="translate(12.24,-12.24)" v:mID="5" v:groupContext="group">

			<g id="cfxi-microsoft-azure-stencils-security-and-governance-azure-security-center-shape6-2" v:mID="6" v:groupContext="shape">

				<path d="M31.46 30.53 C20.37 29.32 18.45 24.48 18.45 24.48 C18.45 24.48 15.93 30.73 0 30.73 L0 56.55 C0 59.67 1.71         62.6 4.13 65.12 C9.58 70.87 18.45 74.8 18.45 74.8 C18.45 74.8 36.91 66.73 36.91 56.55 L36.91 30.73 C34.89         30.73 33.08 30.63 31.46 30.53 Z" class="st1" />
			</g>
			<g id="cfxi-microsoft-azure-stencils-security-and-governance-azure-security-center-shape7-4" v:mID="7" v:groupContext="shape" transform="translate(10.2859,-14.4204)">

				<path d="M15.53 63.61 L14.42 63.61 L14.42 59.98 C14.42 58.26 13.82 56.65 12.71 55.54 C12.71 55.54 12.61 55.44 12.61         55.44 C11.5 54.23 9.88 53.52 8.17 53.52 C6.45 53.52 4.84 54.33 3.73 55.44 C2.62 56.65 1.92 58.26 1.92         60.08 L1.92 63.71 L0.81 63.71 C0.4 63.71 0 64.11 0 64.51 L0 71.77 L0 73.99 C0 74.4 0.4 74.8 0.81 74.8         L15.43 74.8 C15.83 74.8 16.24 74.4 16.24 73.99 L16.24 64.51 C16.34 63.91 15.93 63.61 15.53 63.61 ZM11.5         63.61 L6.45 63.61 L4.94 63.61 L4.94 59.98 C4.94 58.97 5.34 58.06 5.95 57.35 C6.55 56.75 7.36 56.35 8.27         56.35 C9.18 56.35 9.98 56.75 10.59 57.35 C10.69 57.56 10.89 57.66 10.99 57.86 C11.4 58.46 11.6 59.17         11.6 59.98 C11.5 59.98 11.5 63.61 11.5 63.61 Z" class="st2" />
			</g>
		</g>
	</g>
</svg>
