<svg xmlns="http://www.w3.org/2000/svg" viewBox="0 0 39.4988 53.3355" preserveAspectRatio="xMidYMid meet">
<style type="text/css" xmlns="http://www.w3.org/2000/svg">
	<![CDATA[
		.st1 {fill:#7fba00;stroke:none;stroke-width:0.75}
		.st2 {fill:#b8d432;fill-opacity:0.4;stroke:none;stroke-width:0.75}
		.st3 {fill:#ffffff;stroke:none;stroke-width:0.75}
		.st4 {fill:none;fill-rule:evenodd;font-size:12px;overflow:visible;stroke-linecap:square;stroke-miterlimit:3}
	]]>
	</style>

	<g v:mID="0" v:index="1" v:groupContext="foregroundPage" xmlns:v="http://schemas.microsoft.com/visio/2003/SVGExtensions/" xmlns="http://www.w3.org/2000/svg">


		<g id="cfxi-microsoft-azure-stencils-security-and-governance-conditional-access-and-security-center-group5-1" transform="translate(0.75,-0.75)" v:mID="5" v:groupContext="group">

			<g id="cfxi-microsoft-azure-stencils-security-and-governance-conditional-access-and-security-center-shape6-2" v:mID="6" v:groupContext="shape">

				<path d="M32.33 7.68 C20.91 6.42 19 1.5 19 1.5 C19 1.5 16.43 7.97 0 7.97 L0 34.52 C0 37.73 1.78 40.74 4.25 43.37         C9.85 49.33 19 53.34 19 53.34 C19 53.34 38 45.01 38 34.52 L38 7.97 C35.89 7.97 34.01 7.86 32.33 7.68         Z" class="st1" />
			</g>
			<g id="cfxi-microsoft-azure-stencils-security-and-governance-conditional-access-and-security-center-shape7-4" v:mID="7" v:groupContext="shape" transform="translate(1.93845E-13,-9.9688)">

				<path d="M23.7 28.62 L32.33 17.65 C20.91 16.39 19 11.47 19 11.47 C19 11.47 16.43 17.94 0 17.94 L0 44.49 C0 47.7 1.78         50.71 4.25 53.34 L10.63 45.23 L23.7 28.62 Z" class="st2" />
			</g>
			<g id="cfxi-microsoft-azure-stencils-security-and-governance-conditional-access-and-security-center-shape8-6" v:mID="8" v:groupContext="shape" transform="translate(10.6344,-15.0807)">

				<path d="M15.9 41.94 L14.79 41.94 L14.79 38.26 C14.79 36.48 14.14 34.86 13.06 33.64 C13.02 33.6 12.99 33.55 12.95         33.5 C11.8 32.28 10.17 31.49 8.36 31.49 C6.56 31.49 4.93 32.28 3.78 33.5 C2.63 34.74 1.93 36.42 1.93         38.25 L1.93 41.94 L0.83 41.94 C0.37 41.94 0 42.31 0 42.77 L0 50.25 L0 50.25 L0 52.51 C0 52.96 0.37 53.34         0.83 53.34 L15.9 53.34 C16.36 53.34 16.73 52.96 16.73 52.51 L16.73 42.77 C16.73 42.31 16.36 41.94 15.9         41.94 ZM11.74 41.94 L6.54 41.94 L6.54 41.94 L4.99 41.94 L4.99 38.26 C4.99 37.2 5.39 36.26 6.01 35.59         C6.64 34.92 7.46 34.54 8.36 34.54 C9.27 34.54 10.09 34.92 10.72 35.59 C10.87 35.75 11 35.93 11.12 36.11         L11.12 36.12 C11.51 36.72 11.74 37.45 11.74 38.25 L11.74 41.94 Z" class="st3" />
			</g>
		</g>
	</g>
</svg>
