<svg xmlns="http://www.w3.org/2000/svg" viewBox="0 0 56.3148 51.82" preserveAspectRatio="xMidYMid meet">
<style type="text/css" xmlns="http://www.w3.org/2000/svg">
	<![CDATA[
		.st1 {fill:#3e3e3e;stroke:none;stroke-width:0.75}
		.st2 {fill:#ffffff;fill-opacity:0.2;stroke:none;stroke-width:0.75}
		.st3 {fill:#b8d432;stroke:none;stroke-width:0.75}
		.st4 {fill:#fcd116;stroke:none;stroke-width:0.75}
		.st5 {fill:none;fill-rule:evenodd;font-size:12px;overflow:visible;stroke-linecap:square;stroke-miterlimit:3}
	]]>
	</style>

	<g v:mID="0" v:index="1" v:groupContext="foregroundPage" xmlns:v="http://schemas.microsoft.com/visio/2003/SVGExtensions/" xmlns="http://www.w3.org/2000/svg">


		<g id="cfxi-microsoft-azure-stencils-security-and-governance-dedicated-hsm-group5-1" transform="translate(0.75,-0.75)" v:mID="5" v:groupContext="group">

			<g id="cfxi-microsoft-azure-stencils-security-and-governance-dedicated-hsm-shape6-2" v:mID="6" v:groupContext="shape">

				<path d="M52.38 31.23 L2.44 31.23 C1.09 31.23 0 32.32 0 33.67 L0 49.38 C0 50.73 1.09 51.82 2.44 51.82 L52.38 51.82         C53.72 51.82 54.81 50.73 54.81 49.38 L54.81 33.67 C54.81 32.33 53.72 31.23 52.38 31.23 Z" class="st1" />
			</g>
			<g id="cfxi-microsoft-azure-stencils-security-and-governance-dedicated-hsm-shape7-4" v:mID="7" v:groupContext="shape">

				<path d="M42.51 31.23 L2.44 31.23 C1.09 31.23 0 32.32 0 33.67 L0 49.38 C0 50.73 1.09 51.82 2.44 51.82 L11.82 51.82         L42.51 31.23 Z" class="st2" />
			</g>
			<g id="cfxi-microsoft-azure-stencils-security-and-governance-dedicated-hsm-shape8-6" v:mID="8" v:groupContext="shape" transform="translate(47.1408,-13.1556)">

				<rect x="0" y="48.5311" width="3.28889" height="3.28889" class="st3" />
			</g>
			<g id="cfxi-microsoft-azure-stencils-security-and-governance-dedicated-hsm-shape9-8" v:mID="9" v:groupContext="shape" transform="translate(40.563,-13.1556)">

				<rect x="0" y="48.5311" width="3.28889" height="3.28889" class="st3" />
			</g>
			<g id="cfxi-microsoft-azure-stencils-security-and-governance-dedicated-hsm-shape10-10" v:mID="10" v:groupContext="shape" transform="translate(33.9852,-13.1556)">

				<rect x="0" y="48.5311" width="3.28889" height="3.28889" class="st3" />
			</g>
			<g id="cfxi-microsoft-azure-stencils-security-and-governance-dedicated-hsm-shape11-12" v:mID="11" v:groupContext="shape" transform="translate(15.4578,-4.38519)">

				<path d="M22.8 17.29 C22.8 10.99 17.7 5.89 11.4 5.89 C5.1 5.89 0 10.99 0 17.29 C0 22.64 3.69 27.11 8.66 28.34 L8.66         41.95 L3.18 41.95 L3.18 47.43 L8.66 47.43 L8.66 51.82 L14.14 51.82 L14.14 28.34 C19.11 27.11 22.8 22.64         22.8 17.29 ZM11.4 23.26 C8.11 23.26 5.43 20.58 5.43 17.29 C5.43 13.99 8.11 11.31 11.4 11.31 C14.69 11.31         17.37 13.99 17.37 17.29 C17.37 20.58 14.69 23.26 11.4 23.26 Z" class="st4" />
			</g>
		</g>
	</g>
</svg>
