<svg xmlns="http://www.w3.org/2000/svg" viewBox="0 0 48.7271 59.6361" preserveAspectRatio="xMidYMid meet">
<style type="text/css" xmlns="http://www.w3.org/2000/svg">
	<![CDATA[
		.st1 {fill:#aae9fb;stroke:#556a8a;stroke-linecap:butt;stroke-width:0.5}
		.st2 {fill:#eb4e48;stroke:none;stroke-linecap:butt;stroke-width:4.5}
		.st3 {fill:none;stroke:#cccccc;stroke-linecap:butt;stroke-width:4.5}
		.st4 {fill:none;stroke:#ffffff;stroke-linecap:butt;stroke-width:4.5}
		.st5 {fill:#ffffff;stroke:none;stroke-linecap:butt;stroke-width:4.5}
		.st6 {fill:#ffffff;stroke:#556a8a;stroke-linecap:butt;stroke-width:0.5}
		.st7 {fill:#e6e6e6;stroke:#556a8a;stroke-width:0.5}
		.st8 {fill:none;fill-rule:evenodd;font-size:12px;overflow:visible;stroke-linecap:square;stroke-miterlimit:3}
	]]>
	</style>

	<g v:mID="0" v:index="1" v:groupContext="foregroundPage" xmlns:v="http://schemas.microsoft.com/visio/2003/SVGExtensions/" xmlns="http://www.w3.org/2000/svg">


		<g id="cfxi-microsoft-azure-stencils-security-and-governance-login-group1149-1" transform="translate(0.5,-0.5)" v:mID="1149" v:groupContext="group">

			<g id="cfxi-microsoft-azure-stencils-security-and-governance-login-shape1150-2" v:mID="1150" v:groupContext="shape">

				<path d="M0 58.61 A1.02275 1.02275 -180 0 0 1.02 59.64 L46.7 59.64 A1.02275 1.02275 -180 0 0 47.73 58.61 L47.73 2.02         A1.02275 1.02275 -180 0 0 46.7 1 L1.02 1 A1.02275 1.02275 -180 0 0 -0 2.02 L0 58.61 Z" class="st1" />
			</g>
			<g id="cfxi-microsoft-azure-stencils-security-and-governance-login-group1151-4" transform="translate(15.3408,-31.0226)" v:mID="1151" v:groupContext="group">

				<g id="cfxi-microsoft-azure-stencils-security-and-governance-login-group1152-5" v:mID="1152" v:groupContext="group">

					<g id="cfxi-microsoft-azure-stencils-security-and-governance-login-shape1153-6" v:mID="1153" v:groupContext="shape">

						<ellipse cx="8.52269" cy="51.1134" rx="8.52269" ry="8.52269" class="st2" />
					</g>
					<g id="cfxi-microsoft-azure-stencils-security-and-governance-login-shape1154-8" v:mID="1154" v:groupContext="shape">

						<ellipse cx="8.52269" cy="51.1134" rx="8.52269" ry="8.52269" class="st3" />
					</g>
					<g id="cfxi-microsoft-azure-stencils-security-and-governance-login-shape1155-10" v:mID="1155" v:groupContext="shape">

						<ellipse cx="8.52269" cy="51.1134" rx="8.52269" ry="8.52269" class="st4" />
					</g>
				</g>
				<g id="cfxi-microsoft-azure-stencils-security-and-governance-login-shape1156-12" v:mID="1156" v:groupContext="shape" transform="translate(2.38635,0)">

					<path d="M12.61 58.13 L12.61 59.64 L0 59.64 L0 58.13 L4.2 55.43 L4.2 54.38 C3.95 54.38 3.71 54.12 3.48 53.6 C3.26          53.08 3.15 52.64 3.15 52.28 L3.15 50.18 C3.15 49.31 3.46 48.56 4.08 47.95 C4.7 47.33 5.44 47.02          6.31 47.02 C7.18 47.02 7.92 47.33 8.54 47.95 C9.15 48.56 9.46 49.31 9.46 50.18 L9.46 52.28 C9.46          52.64 9.35 53.08 9.13 53.6 C8.91 54.12 8.67 54.38 8.41 54.38 L8.41 55.43 L12.61 58.13 Z" class="st5" />
				</g>
			</g>
			<g id="cfxi-microsoft-azure-stencils-security-and-governance-login-shape1157-14" v:mID="1157" v:groupContext="shape" transform="translate(9.2045,-17.0454)">

				<path d="M0 58.95 a0.681831 0.681831 -180 0 0 0.681815 0.681815 L28.64 59.64 a0.681831 0.681831 -180 0 0 0.681815         -0.681815 L29.32 51.8 a0.681831 0.681831 -180 0 0 -0.681815 -0.681815 L0.68 51.11 a0.681831 0.681831         -180 0 0 -0.681815 0.681815 L0 58.95 Z" class="st6" />
			</g>
			<g id="cfxi-microsoft-azure-stencils-security-and-governance-login-group1158-16" transform="translate(9.2045,-6.81815)" v:mID="1158" v:groupContext="group">

				<g id="cfxi-microsoft-azure-stencils-security-and-governance-login-shape1159-17" v:mID="1159" v:groupContext="shape">

					<path d="M0 58.95 a0.681831 0.681831 -180 0 0 0.681815 0.681815 L28.64 59.64 a0.681831 0.681831 -180 0 0 0.681815          -0.681815 L29.32 51.8 a0.681831 0.681831 -180 0 0 -0.681815 -0.681815 L0.68 51.11 a0.681831 0.681831          -180 0 0 -0.681815 0.681815 L0 58.95 Z" class="st7" />
				</g>
			</g>
		</g>
	</g>
</svg>
