<svg xmlns="http://www.w3.org/2000/svg" viewBox="0 0 60.2176 46.5" preserveAspectRatio="xMidYMid meet">
<style type="text/css" xmlns="http://www.w3.org/2000/svg">
	<![CDATA[
		.st1 {fill:none;stroke:#556a8a;stroke-linecap:butt;stroke-width:1.5}
		.st2 {fill:#ffffff;stroke:none;stroke-linecap:butt;stroke-width:0.75}
		.st3 {fill:#e5e5e5;stroke:none;stroke-linecap:butt;stroke-width:0.75}
		.st4 {fill:#aae9fb;stroke:none;stroke-linecap:butt;stroke-width:0.75}
		.st5 {fill:#ffffff;stroke:#556a8a;stroke-linecap:butt;stroke-width:1.5}
		.st6 {fill:none;fill-rule:evenodd;font-size:12px;overflow:visible;stroke-linecap:square;stroke-miterlimit:3}
	]]>
	</style>

	<g v:mID="0" v:index="1" v:groupContext="foregroundPage" xmlns:v="http://schemas.microsoft.com/visio/2003/SVGExtensions/" xmlns="http://www.w3.org/2000/svg">


		<g id="cfxi-microsoft-azure-stencils-security-and-governance-security-key-group1113-1" transform="translate(1.5,-1.5)" v:mID="1113" v:groupContext="group">

			<g id="cfxi-microsoft-azure-stencils-security-and-governance-security-key-group1114-2" v:mID="1114" v:groupContext="group">

				<g id="cfxi-microsoft-azure-stencils-security-and-governance-security-key-shape1115-3" v:mID="1115" v:groupContext="shape" transform="translate(6.88264,-16.4781)">

					<path d="M0 40.14 A6.35825 6.35825 -180 0 0 6.36 46.5 L14.31 46.5 A6.35825 6.35825 -180 0 0 20.66 40.14 L20.66          25.84 A6.35825 6.35825 -180 0 0 14.31 19.48 L6.36 19.48 A6.35825 6.35825 -180 0 0 0 25.84 L0 40.14          Z" class="st1" />
				</g>
				<g id="cfxi-microsoft-azure-stencils-security-and-governance-security-key-shape1116-5" v:mID="1116" v:groupContext="shape" transform="translate(0.529842,2.27374E-13)">

					<path d="M33.9 45 A1.50475 1.50475 0 0 1 32.4 46.5 L1.5 46.5 A1.50475 1.50475 0 0 1 0 45 L0 20.98 A1.50475 1.50475          0 0 1 1.5 19.48 L32.4 19.48 A1.50475 1.50475 0 0 1 33.9 20.98 L33.9 45 Z" class="st2" />
				</g>
				<g id="cfxi-microsoft-azure-stencils-security-and-governance-security-key-shape1117-7" v:mID="1117" v:groupContext="shape" transform="translate(8.66821,-1.78027)">

					<path d="M25.18 22.85 L25.18 46.5 L0 21.34 L23.65 21.34 A1.53124 1.53124 0 0 1 25.18 22.85 Z" class="st3" />
				</g>
				<g id="cfxi-microsoft-azure-stencils-security-and-governance-security-key-shape1118-9" v:mID="1118" v:groupContext="shape">

					<path d="M33.9 45 A1.50475 1.50475 0 0 1 32.4 46.5 L1.5 46.5 A1.50475 1.50475 0 0 1 0 45 L0 20.98 A1.50475 1.50475          0 0 1 1.5 19.48 L32.4 19.48 A1.50475 1.50475 0 0 1 33.9 20.98 L33.9 45 Z" class="st1" />
				</g>
			</g>
			<g id="cfxi-microsoft-azure-stencils-security-and-governance-security-key-group1119-11" transform="translate(29.4562,-1.11267)" v:mID="1119" v:groupContext="group">

				<g id="cfxi-microsoft-azure-stencils-security-and-governance-security-key-shape1120-12" v:mID="1120" v:groupContext="shape">

					<path d="M17.58 30.5 A10.1571 10.1571 -180 1 0 13.95 35.24 L13.95 38.55 L17.16 38.55 L17.16 42.26 L21.4 42.26          L21.4 46.5 L27.76 46.5 L27.76 40.32 L17.58 30.5 Z" class="st4" />
				</g>
				<g id="cfxi-microsoft-azure-stencils-security-and-governance-security-key-shape1121-14" v:mID="1121" v:groupContext="shape">

					<path d="M17.58 30.5 A10.1571 10.1571 -180 1 0 13.95 35.24 L13.95 38.55 L17.16 38.55 L17.16 42.26 L21.4 42.26          L21.4 46.5 L27.76 46.5 L27.76 40.32 L17.58 30.5 Z" class="st1" />
				</g>
				<g id="cfxi-microsoft-azure-stencils-security-and-governance-security-key-shape1122-16" v:mID="1122" v:groupContext="shape" transform="translate(3.26156,-21.1195)">

					<ellipse cx="2.14586" cy="44.3541" rx="2.14586" ry="2.14586" class="st5" />
				</g>
			</g>
		</g>
	</g>
</svg>
