<svg xmlns="http://www.w3.org/2000/svg" viewBox="0 0 36.7091 50.1654" preserveAspectRatio="xMidYMid meet">
<style type="text/css" xmlns="http://www.w3.org/2000/svg">
	<![CDATA[
		.st1 {fill:#8badbe;stroke:none;stroke-linecap:butt;stroke-width:1.85455}
		.st2 {fill:#6d8c9e;stroke:none;stroke-linecap:butt;stroke-width:1.85455}
		.st3 {fill:#334c5c;stroke:none;stroke-linecap:butt;stroke-width:1.85455}
		.st4 {fill:#abc3cf;stroke:none;stroke-linecap:butt;stroke-width:1.85455}
		.st5 {fill:none;fill-rule:evenodd;font-size:12px;overflow:visible;stroke-linecap:square;stroke-miterlimit:3}
	]]>
	</style>

	<g v:mID="0" v:index="1" v:groupContext="foregroundPage" xmlns:v="http://schemas.microsoft.com/visio/2003/SVGExtensions/" xmlns="http://www.w3.org/2000/svg">


		<g id="cfxi-microsoft-azure-stencils-security-and-governance-security-1-group1133-1" transform="translate(1.85455,-1.85455)" v:mID="1133" v:groupContext="group">

			<g id="cfxi-microsoft-azure-stencils-security-and-governance-security-1-shape1134-2" v:mID="1134" v:groupContext="shape">

				<path d="M16.34 50.17 L33 43.12 L33 21.01 L0 21.01 L0 43.12 L16.34 50.17 Z" class="st1" />
			</g>
			<g id="cfxi-microsoft-azure-stencils-security-and-governance-security-1-shape1135-4" v:mID="1135" v:groupContext="shape">

				<path d="M16.34 50.17 L16.34 21.01 L0 21.01 L0 43.12 L16.34 50.17 Z" class="st2" />
			</g>
			<g id="cfxi-microsoft-azure-stencils-security-and-governance-security-1-shape1136-6" v:mID="1136" v:groupContext="shape" transform="translate(12.8155,-9.61165)">

				<path d="M7.05 40.87 C7.05 38.95 5.45 37.35 3.52 37.35 C1.6 37.35 0 38.95 0 40.87 C0 42.16 0.64 43.44 1.92 44.08         L1.92 48.24 C1.92 49.2 2.88 50.17 3.84 50.17 C4.81 50.17 5.77 49.2 5.77 48.24 L5.77 44.08 C6.41 43.12         7.05 42.16 7.05 40.87 Z" class="st3" />
			</g>
			<g id="cfxi-microsoft-azure-stencils-security-and-governance-security-1-shape1137-8" v:mID="1137" v:groupContext="shape" transform="translate(5.12621,-29.1553)">

				<path d="M5.13 50.17 L5.13 44.08 C5.13 40.55 8.01 37.99 11.21 37.99 C14.42 37.99 17.3 40.87 17.3 44.08 L17.3 50.17         L22.43 50.17 L22.43 44.08 C22.43 37.67 17.3 32.86 11.21 32.86 C5.13 32.86 0 37.99 0 44.08 L0 50.17 L5.13         50.17 Z" class="st4" />
			</g>
		</g>
	</g>
</svg>
