<svg xmlns="http://www.w3.org/2000/svg" viewBox="0 0 83.7167 47.9238" preserveAspectRatio="xMidYMid meet">
<style type="text/css" xmlns="http://www.w3.org/2000/svg">
	<![CDATA[
		.st1 {fill:#2e2e2e;stroke:none;stroke-width:0.75}
		.st2 {fill:#e3e3e3;stroke:none;stroke-width:0.75}
		.st3 {fill:#5d5f5e;stroke:none;stroke-width:0.75}
		.st4 {fill:#ffffff;fill-opacity:0.75;stroke:none;stroke-width:0.75}
		.st5 {fill:#c7c7c7;stroke:none;stroke-width:0.75}
		.st6 {fill:#ec3948;stroke:none;stroke-width:0.75}
		.st7 {stroke:#ffffff;stroke-width:0.75}
		.st8 {fill:#60a860;stroke:none;stroke-width:0.75}
		.st9 {fill:#ffffff;stroke:none;stroke-width:0.75}
		.st10 {fill:none;fill-rule:evenodd;font-size:12px;overflow:visible;stroke-linecap:square;stroke-miterlimit:3}
	]]>
	</style>

	<g v:mID="0" v:index="1" v:groupContext="foregroundPage" xmlns:v="http://schemas.microsoft.com/visio/2003/SVGExtensions/" xmlns="http://www.w3.org/2000/svg">


		<g id="cfxi-microsoft-azure-stencils-security-and-governance-threat-protection-group5-1" transform="translate(0.75,-0.75)" v:mID="5" v:groupContext="group">

			<g id="cfxi-microsoft-azure-stencils-security-and-governance-threat-protection-shape6-2" v:mID="6" v:groupContext="shape" transform="translate(7.97312,-1.4973)">

				<path d="M65.88 47.92 L65.88 4.76 A1.76681 1.76681 -180 0 0 64.11 3 L1.77 3 A1.76681 1.76681 -180 0 0 -0 4.76 L0         47.92 L65.88 47.92 Z" class="st1" />
			</g>
			<g id="cfxi-microsoft-azure-stencils-security-and-governance-threat-protection-shape7-4" v:mID="7" v:groupContext="shape" transform="translate(10.2191,-5.24055)">

				<rect x="0" y="9.74263" width="61.3893" height="38.1811" class="st2" />
			</g>
			<g id="cfxi-microsoft-azure-stencils-security-and-governance-threat-protection-shape8-6" v:mID="8" v:groupContext="shape">

				<path d="M79.26 47.92 L2.99 47.92 C0.45 47.92 0 44.18 0 44.18 L82.22 44.18 C82.22 44.18 81.23 47.92 79.26 47.92 Z" class="st1" />
			</g>
			<g id="cfxi-microsoft-azure-stencils-security-and-governance-threat-protection-shape9-8" v:mID="9" v:groupContext="shape" transform="translate(40.9137,-44.1703)">

				<rect x="0" y="47.1751" width="0.74865" height="0.74865" class="st3" />
			</g>
			<g id="cfxi-microsoft-azure-stencils-security-and-governance-threat-protection-shape10-10" v:mID="10" v:groupContext="shape" transform="translate(44.1554,-17.7355)">

				<path d="M27.45 47.92 L27.45 22.24 L0 22.24 L27.45 47.92 Z" class="st4" />
			</g>
			<g id="cfxi-microsoft-azure-stencils-security-and-governance-threat-protection-shape11-12" v:mID="11" v:groupContext="shape" transform="translate(49.1489,-14.2243)">

				<rect x="0" y="46.4265" width="14.973" height="1.4973" class="st5" />
			</g>
			<g id="cfxi-microsoft-azure-stencils-security-and-governance-threat-protection-shape12-14" v:mID="12" v:groupContext="shape" transform="translate(49.1489,-11.2297)">

				<rect x="0" y="46.4265" width="20.2135" height="1.4973" class="st5" />
			</g>
			<g id="cfxi-microsoft-azure-stencils-security-and-governance-threat-protection-shape13-16" v:mID="13" v:groupContext="shape" transform="translate(19.2029,-14.2243)">

				<rect x="0" y="46.4265" width="14.973" height="1.4973" class="st5" />
			</g>
			<g id="cfxi-microsoft-azure-stencils-security-and-governance-threat-protection-shape14-18" v:mID="14" v:groupContext="shape" transform="translate(19.2029,-11.2297)">

				<rect x="0" y="46.4265" width="20.2135" height="1.4973" class="st5" />
			</g>
			<g id="cfxi-microsoft-azure-stencils-security-and-governance-threat-protection-shape15-20" v:mID="15" v:groupContext="shape" transform="translate(49.1489,-35.9352)">

				<rect x="0" y="46.4265" width="14.973" height="1.4973" class="st5" />
			</g>
			<g id="cfxi-microsoft-azure-stencils-security-and-governance-threat-protection-shape16-22" v:mID="16" v:groupContext="shape" transform="translate(49.1489,-33.6892)">

				<rect x="0" y="46.4265" width="20.2135" height="1.4973" class="st5" />
			</g>
			<g id="cfxi-microsoft-azure-stencils-security-and-governance-threat-protection-shape17-24" v:mID="17" v:groupContext="shape" transform="translate(19.2029,-35.9352)">

				<rect x="0" y="46.4265" width="14.973" height="1.4973" class="st5" />
			</g>
			<g id="cfxi-microsoft-azure-stencils-security-and-governance-threat-protection-shape18-26" v:mID="18" v:groupContext="shape" transform="translate(19.2029,-33.6892)">

				<rect x="0" y="46.4265" width="20.2135" height="1.4973" class="st5" />
			</g>
			<g id="cfxi-microsoft-azure-stencils-security-and-governance-threat-protection-shape19-28" v:mID="19" v:groupContext="shape" transform="translate(49.1489,-24.7054)">

				<rect x="0" y="46.4265" width="14.973" height="1.4973" class="st5" />
			</g>
			<g id="cfxi-microsoft-azure-stencils-security-and-governance-threat-protection-shape20-30" v:mID="20" v:groupContext="shape" transform="translate(49.1489,-22.4595)">

				<rect x="0" y="46.4265" width="20.2135" height="1.4973" class="st5" />
			</g>
			<g id="cfxi-microsoft-azure-stencils-security-and-governance-threat-protection-shape21-32" v:mID="21" v:groupContext="shape" transform="translate(19.2029,-24.7054)">

				<rect x="0" y="46.4265" width="14.973" height="1.4973" class="st5" />
			</g>
			<g id="cfxi-microsoft-azure-stencils-security-and-governance-threat-protection-shape22-34" v:mID="22" v:groupContext="shape" transform="translate(19.2029,-22.4595)">

				<rect x="0" y="46.4265" width="20.2135" height="1.4973" class="st5" />
			</g>
			<g id="cfxi-microsoft-azure-stencils-security-and-governance-threat-protection-group23-36" transform="translate(13.1845,-33.1625)" v:mID="23" v:groupContext="group">

				<g id="cfxi-microsoft-azure-stencils-security-and-governance-threat-protection-shape24-37" v:mID="24" v:groupContext="shape">

					<ellipse cx="2.47429" cy="45.4495" rx="2.47429" ry="2.47429" class="st6" />
				</g>
				<g id="cfxi-microsoft-azure-stencils-security-and-governance-threat-protection-shape25-39" v:mID="25" v:groupContext="shape" transform="translate(37.757,78.0105) rotate(135)">

					<path d="M0 47.92 L3.85 47.92" class="st7" />
				</g>
				<g id="cfxi-microsoft-azure-stencils-security-and-governance-threat-protection-shape26-42" v:mID="26" v:groupContext="shape" transform="translate(-30.0174,80.7322) rotate(-135)">

					<path d="M0 47.92 L3.85 47.92" class="st7" />
				</g>
			</g>
			<g id="cfxi-microsoft-azure-stencils-security-and-governance-threat-protection-group27-45" transform="translate(13.1845,-22.0822)" v:mID="27" v:groupContext="group">

				<g id="cfxi-microsoft-azure-stencils-security-and-governance-threat-protection-shape28-46" v:mID="28" v:groupContext="shape">

					<ellipse cx="2.47429" cy="45.4495" rx="2.47429" ry="2.47429" class="st6" />
				</g>
				<g id="cfxi-microsoft-azure-stencils-security-and-governance-threat-protection-shape29-48" v:mID="29" v:groupContext="shape" transform="translate(37.757,78.0105) rotate(135)">

					<path d="M0 47.92 L3.85 47.92" class="st7" />
				</g>
				<g id="cfxi-microsoft-azure-stencils-security-and-governance-threat-protection-shape30-51" v:mID="30" v:groupContext="shape" transform="translate(-30.0174,80.7322) rotate(-135)">

					<path d="M0 47.92 L3.85 47.92" class="st7" />
				</g>
			</g>
			<g id="cfxi-microsoft-azure-stencils-security-and-governance-threat-protection-group31-54" transform="translate(42.7929,-10.7731)" v:mID="31" v:groupContext="group">

				<g id="cfxi-microsoft-azure-stencils-security-and-governance-threat-protection-shape32-55" v:mID="32" v:groupContext="shape">

					<ellipse cx="2.47429" cy="45.4495" rx="2.47429" ry="2.47429" class="st6" />
				</g>
				<g id="cfxi-microsoft-azure-stencils-security-and-governance-threat-protection-shape33-57" v:mID="33" v:groupContext="shape" transform="translate(37.757,78.0105) rotate(135)">

					<path d="M0 47.92 L3.85 47.92" class="st7" />
				</g>
				<g id="cfxi-microsoft-azure-stencils-security-and-governance-threat-protection-shape34-60" v:mID="34" v:groupContext="shape" transform="translate(-30.0174,80.7322) rotate(-135)">

					<path d="M0 47.92 L3.85 47.92" class="st7" />
				</g>
			</g>
			<g id="cfxi-microsoft-azure-stencils-security-and-governance-threat-protection-group35-63" transform="translate(42.7763,-33.5901)" v:mID="35" v:groupContext="group">

				<g id="cfxi-microsoft-azure-stencils-security-and-governance-threat-protection-shape36-64" v:mID="36" v:groupContext="shape">

					<ellipse cx="2.47429" cy="45.4495" rx="2.47429" ry="2.47429" class="st8" />
				</g>
				<g id="cfxi-microsoft-azure-stencils-security-and-governance-threat-protection-shape37-66" v:mID="37" v:groupContext="shape" transform="translate(1.1148,-1.28388)">

					<path d="M0.92 47.92 L0 47.01 L0.31 46.7 L0.92 47.31 L2.46 45.77 L2.77 46.07 L0.92 47.92 Z" class="st9" />
				</g>
			</g>
			<g id="cfxi-microsoft-azure-stencils-security-and-governance-threat-protection-group38-68" transform="translate(42.7929,-22.0739)" v:mID="38" v:groupContext="group">

				<g id="cfxi-microsoft-azure-stencils-security-and-governance-threat-protection-shape39-69" v:mID="39" v:groupContext="shape">

					<ellipse cx="2.47429" cy="45.4495" rx="2.47429" ry="2.47429" class="st8" />
				</g>
				<g id="cfxi-microsoft-azure-stencils-security-and-governance-threat-protection-shape40-71" v:mID="40" v:groupContext="shape" transform="translate(1.1148,-1.28388)">

					<path d="M0.92 47.92 L0 47.01 L0.31 46.7 L0.92 47.31 L2.46 45.77 L2.77 46.07 L0.92 47.92 Z" class="st9" />
				</g>
			</g>
			<g id="cfxi-microsoft-azure-stencils-security-and-governance-threat-protection-group41-73" transform="translate(13.2012,-11.026)" v:mID="41" v:groupContext="group">

				<g id="cfxi-microsoft-azure-stencils-security-and-governance-threat-protection-shape42-74" v:mID="42" v:groupContext="shape">

					<ellipse cx="2.47429" cy="45.4495" rx="2.47429" ry="2.47429" class="st8" />
				</g>
				<g id="cfxi-microsoft-azure-stencils-security-and-governance-threat-protection-shape43-76" v:mID="43" v:groupContext="shape" transform="translate(1.1148,-1.28388)">

					<path d="M0.92 47.92 L0 47.01 L0.31 46.7 L0.92 47.31 L2.46 45.77 L2.77 46.07 L0.92 47.92 Z" class="st9" />
				</g>
			</g>
		</g>
	</g>
</svg>
