<svg xmlns="http://www.w3.org/2000/svg" viewBox="0 0 96 96" preserveAspectRatio="xMidYMid meet">
<g><defs><linearGradient id="productivity-suite-plate" x1="12" y1="8" x2="84" y2="90" gradientUnits="userSpaceOnUse"><stop offset="0" stop-color="#DBEAFE"/><stop offset="0.58" stop-color="#38BDF8"/><stop offset="1" stop-color="#2563EB"/></linearGradient><linearGradient id="productivity-suite-metal" x1="20" y1="14" x2="76" y2="82" gradientUnits="userSpaceOnUse"><stop offset="0" stop-color="#F8FAFC"/><stop offset="1" stop-color="#CBD5E1"/></linearGradient></defs><rect x="8" y="8" width="80" height="80" rx="20" fill="url(#productivity-suite-plate)" stroke="#FFFFFF" stroke-width="2" opacity="0.98"/><circle cx="72" cy="24" r="12" fill="#38BDF8" opacity="0.28"/><path d="M18 73 C34 63 57 63 78 74" fill="none" stroke="#FFFFFF" stroke-width="5" stroke-linecap="round" opacity="0.35"/><path d="M28 63 C19 63 14 56 18 48 C15 38 25 31 34 35 C40 22 59 22 65 36 C76 36 84 46 79 57 C76 63 71 66 63 66 H28 Z" fill="#FFFFFF" opacity="0.92"/><path d="M35 51 H62 M35 60 H52" stroke="#2563EB" stroke-width="5" stroke-linecap="round"/><rect x="25" y="69" width="46" height="16" rx="8" fill="#0F172A" opacity="0.72"/><text x="48" y="81" text-anchor="middle" font-family="Segoe UI, Arial, sans-serif" font-size="8.5" font-weight="800" fill="#FFFFFF">SaaS</text></g>
</svg>
